/* XPM */
static char *ghost1[] = {
/* columns rows colors chars-per-pixel */
"50 50 222 2 ",
"   c #0F0C09",
".  c #140C0B",
"X  c #1B0D0D",
"o  c #140905",
"O  c #14120D",
"+  c #1B120D",
"@  c #1A0D11",
"#  c #140E12",
"$  c #0C1312",
"%  c #0B1B16",
"&  c #141313",
"*  c #1C1412",
"=  c #151A15",
"-  c #1D1A16",
";  c #1A161A",
":  c #131D19",
">  c #1D1A1B",
",  c #08110C",
"<  c #23130E",
"1  c #221614",
"2  c #231915",
"3  c #22161A",
"4  c #251B1B",
"5  c #291D1B",
"6  c #2C1716",
"7  c #331C1C",
"8  c #36171A",
"9  c #240D13",
"0  c #1D221C",
"q  c #11291C",
"w  c #0F291C",
"e  c #24231D",
"r  c #2C221D",
"t  c #2D281C",
"y  c #282519",
"u  c #32241E",
"i  c #32291E",
"p  c #3C231F",
"a  c #181D22",
"s  c #241D22",
"d  c #2A1C24",
"f  c #351F2C",
"g  c #0E2C25",
"h  c #142423",
"j  c #1C2324",
"k  c #152B26",
"l  c #192A22",
"z  c #142B2D",
"x  c #1C2C2A",
"c  c #1F272A",
"v  c #0C382D",
"b  c #13312A",
"n  c #163529",
"m  c #1F2D30",
"M  c #1B3835",
"N  c #242322",
"B  c #2D2422",
"V  c #242A23",
"C  c #2D2A24",
"Z  c #22262A",
"A  c #2E252C",
"S  c #242D2B",
"D  c #292C29",
"F  c #322623",
"G  c #3A2524",
"H  c #342A24",
"J  c #3B2C25",
"K  c #312629",
"L  c #3B2628",
"P  c #352C2A",
"I  c #3A2E2A",
"U  c #25312D",
"Y  c #2C322B",
"T  c #293224",
"R  c #3A3127",
"E  c #34322B",
"W  c #3C312C",
"Q  c #38382C",
"!  c #292D32",
"~  c #3A2E32",
"^  c #342C39",
"/  c #233D3A",
"(  c #283736",
")  c #353132",
"_  c #3D3331",
"`  c #3C3934",
"'  c #3E3A3B",
"]  c #373739",
"[  c #432523",
"{  c #402D27",
"}  c #42252B",
"|  c #422D2A",
" . c #492725",
".. c #42332C",
"X. c #45342E",
"o. c #422E30",
"O. c #433532",
"+. c #493434",
"@. c #433933",
"#. c #423E3D",
"$. c #473A3E",
"%. c #0F443E",
"&. c #19433B",
"*. c #16433A",
"=. c #27453D",
"-. c #33473E",
";. c #4A413D",
":. c #2F3D40",
">. c #393F44",
",. c #363640",
"<. c #1B4945",
"1. c #19564B",
"2. c #254B42",
"3. c #364746",
"4. c #2E5B4E",
"5. c #25564A",
"6. c #265952",
"7. c #395654",
"8. c #18664E",
"9. c #206A4F",
"0. c #226555",
"q. c #29685E",
"w. c #33665A",
"e. c #2F735E",
"r. c #1F7E6A",
"t. c #297764",
"y. c #3B7462",
"u. c #327B6A",
"i. c #37726B",
"p. c #494241",
"a. c #47474D",
"s. c #524441",
"d. c #4B4E59",
"f. c #445253",
"g. c #4A525A",
"h. c #4E585C",
"j. c #4C5454",
"k. c #584E57",
"l. c #49615F",
"z. c #4B5C62",
"x. c #535B63",
"c. c #5C5962",
"v. c #5B5D69",
"b. c #4A6667",
"n. c #5A696E",
"m. c #56676A",
"M. c #427F6F",
"N. c #5A6F74",
"B. c #587777",
"V. c #676B77",
"C. c #667378",
"Z. c #676B6E",
"A. c #1E8363",
"S. c #2E896C",
"D. c #2A8974",
"F. c #358C72",
"G. c #368873",
"H. c #2A9578",
"J. c #38957A",
"K. c #588077",
"L. c #5B7C81",
"P. c #687A82",
"I. c #3B9784",
"U. c #379986",
"Y. c #1FB697",
"T. c #36B489",
"R. c #2BAD96",
"E. c #38A993",
"W. c #2CB59A",
"Q. c #36B999",
"!. c #30AB8B",
"~. c #3CBDA1",
"^. c #508D84",
"/. c #64848B",
"(. c #6B868E",
"). c #6B8B8E",
"_. c #668484",
"`. c #74848A",
"'. c #6E8491",
"]. c #6C8A93",
"[. c #668993",
"{. c #728494",
"}. c #748C94",
"|. c #758D9B",
" X c #798691",
".X c #6F9691",
"XX c #799699",
"oX c #4AB79F",
"OX c #40A690",
"+X c #7E96A0",
"@X c #4BBDA7",
"#X c #52B2A6",
"$X c #3CC1AA",
"%X c #38C8A4",
"&X c #3DD1AD",
"*X c #3ADABB",
"=X c #3DD1B9",
"-X c #3AE3BF",
";X c #41CEB3",
":X c #47C9B5",
">X c #46D9BB",
",X c #54D2B7",
"<X c #4AC7A9",
"1X c #41ECB8",
"2X c #3DDCC3",
"3X c #3BE7C6",
"4X c #3FECD0",
"5X c #4DDAC3",
"6X c #46E3C6",
"7X c #4BE2CB",
"8X c #49E9D0",
"9X c #5AE9D4",
"0X c #66EDCF",
"qX c #7FEEDD",
"wX c #63EDD4",
"eX c #7DEDE1",
"rX c #7BF5E0",
"tX c #8A9197",
"yX c #8D9EA5",
"uX c #83A4AD",
"iX c #8EF1D2",
"pX c #85ECDB",
/* pixels */
"F F F u r u r u 7 F r u 7 F H u i 5 i J u u F H F F W + W R E F J R J R R R W R W P W J R P J P J J ",
"R R P H H H H J F r F H u 5 u u u r y t C F P ;.C t I 5 @.W L J i i i J i R H H R R P R J R R R R R ",
"E P P P P P L H P u J J H H G G H H P F u F @.;.F y F 1 ) P P ;.i J H R R J H G H H J P P P J P R R ",
"H H H H H F H F E J L G H J J F F F I ..H t Q P J F G < W J P ;.t t t i u t r r u F F u F F H F H F ",
"F C H F H F H F D G | H r 4 , w s 3 - B P i F J t C Q 1 @.R ..R Q ....W W W W W F F u F F P H H H F ",
"B B B B F F F H P G G B e 4 U K.H.G.M , B H r L 5 B W 1 W E T y i H H H H H F F P R P P P P P J P P ",
"B r 5 B B B F F F u J P P 3 v H.*X5Xi.z x U x a j ; s @ 4 B H W P J R J J J P P P P P P H H H H C F ",
"B B B B B B F K P L H N K d <.~.2X8X;X;X&X&X,X<XoXU.S.6.m 0 - u H H H P J P H I F u r u u r r r 5 r ",
"C r B B P I s I D P L K y e q.W.7X4X3X7X5X3X7X9XiXrX*Xu.@X#Xi.q e - e T y J J B F A K F F F F K B N ",
"s r B B B K 5 K F L 5 C P 1 c 6.U.~.3X8X2X;X~.5X0XeXOX; 7.pXpX#X=.3 L p X.R Y W I I I I P ~ P L E P ",
"4 B C N B F 4 F 7 7 A B 5 7 F * <.I.R.=X6X2X>XR.=X5X1.M B @X9X9XOX: ) _ | r T B K P F F K F F F r e ",
"& * * X * * . O X + @ @ + + + + @ 6.!.=X3X3X2X@XW.$XM y.3.0.3X;X&.; 5 V r H r 5 1 1 1 1 * 3 * 1 * > ",
"* & o . - * & @ * 2 ; * 1 + O + a 1.~.=XW.D.t.q.S.t.v K.6.z %X%X0.5.h 1 . o o o * * + * X * @ @ & . ",
"C B - C @.I I I P K _ D F H B > 1.E.:XI.<.a ! m j = 5.,X^.c =.2.S.;XF.* L I I C B r 5 F F F F F _ D ",
"C B - ) p.) I ~ E | L I @.F a w.R.~.U.z K k.n.C.n.j A.>X~.k ] m.^ 6.e.q P G L H _ I _ I W ~ W W #.' ",
"B 4 & ` p.B N P Y ~ ~ H F N 1.R.R.I.<.x b.B./.|.[.' Z <.M P `.uXtXZ S 0 Q +...` _ O.~ _ ) I I R p.' ",
"t < 2 P H u ..J O.W X.J P 4 b G.W.6.d j.b.P.|.|.[./.x.3.7.C. X[.yXh.X u Q X. .X.{ ..{ J p R p u r 5 ",
"J y 2 G H r W u F F u G G ; <.U.!.M $.f.B.].{.[.{.'.{.}.(.(.|.'.yX_.4 u i i [ i X.X...{ X.X.X.J O.W ",
"H 2 + t i y F 5 8 i F 8 4 5.OXW.D.z A 7.B.}..X).|.|.'.'.|.[.[.].}.XX0 G | p p i p J J p J J J G F C ",
"P y 1 P O.P W I | J J ~ 4 &.U.R.u.h :.z.{. XZ.C.B.{.{.{.{.].]. X XyXe J X.[ X.Q ......R { { J I H r ",
"r y 2 E $.R E _ P | I P I 4 Z 4.2.j z.b.P.,.0 h Z / b.].].`.m.p.3.V.D E W X.@...X...X...W W ....E P ",
"y e 1 P ` B B P H ~ P B I } 6 > % N d.N.z.% *.1.4.*.m C.).b.j k g N 4 E @.X.J W Q R I E I I E O.P C ",
"C B 4 E p.I A I I H _ ) H P H 0 e s g.N.! x 8.!.Q.F.k c.{.3.k H.S.0 1 C Q | I _ ..Q W W _ I _ @.C B ",
"B e O B #.I C I O.K I | } ~ ) d l $ 3.m.Z b S.Q.1XQ.b c..X] 2.T.T.q 5 P ) L I D R R H P F B F P C B ",
"* * * 1 4 4 4 4 3 3 4 1 4 3 3 3 4 ; : =.] % 8.F.T.w.Z P.[.x.g 8.3.= & < X + . + + + + + + + + + * & ",
"4 4 4 4 4 4 4 r F K F F F F F F 1 3 8 6 * 9 5 l n l g.].|.`.] ; q $ 4 F r H B B u C r B r r 5 r 5 y ",
"_ _ I P I I E _ I I I W I I I I W ..W H ) V & -.l.l.B.).L./.m.@ V I O.O.@.@.` O.@.@.@._ W ` O._ W W ",
"E W I P I I W O.I E W W _ W _ E Y R C I 7 = $ ' f.3.n.V.a.7./ N F I H L P H I P H H J J P P E I W W ",
"W W I ..) O...O.O.W _ W W R P R p 7 P F : 9.2.@ d 3 Z A # > & +.H I H J J P P L B B F H H J R I I ..",
"@.@.+.O.O.@.O.O.W W W R J G F u  ...D ; e.>X0.j ] f.S : N : - e P _ O.I P E R L H J J J R ..W W X.X.",
"| ..J I J J J J J J R J J P G H y F : & y.I.h O.g.x.d.N P B = 0 0 2 F u r F F F u H H H G H H G { { ",
"I J J G F J J J J J P W ....O.O.T 6 ] ' N g N 3.g.g.U d @.D Y I V = H ....R H R J J I J R W W ..{ ..",
"J H P W W H H W P P E R E W W W r Y f.h.Y & ] a s N ; N ` ) N N * 4 B C B F P O.P I I ) P I P K J J ",
"W I W P I W W P P H R E I P E E 2 V j > 4 A % =.v 4.3.D a B N - e r K R W _ ~ I _ _ _ _ O._ _ _ ..O.",
"u B r 5 5 u F r r F F F F F F F u 4 ; ; @ s k B.K.y.&.l > * > 4 ` I B r s u r 5 B B B B F B F B B B ",
"F H H u H P P P W W W W W _ ..W u r K C > : U =.&.k $ ; s s B s ` E r r F I E W P H L H P H P P K A ",
"H P I I I I W I J R P R P J P P W W C > e O > $ e 4 3 > ; 4 P K F B H H W W R P W W W R P I I W ~ ~ ",
"1 2 2 4 4 1 1 3 1 < 2 2 2 2 < 1 < X O > 0 O . 9 # . # = & & 4 3 2 5 5 y 2 2 < * 5 2 2 2 1 2 2 4 4 4 ",
"5 * + 4 5 5 2 5 y r r r u i i r t 4 ; 2 - E H F C I C N 4 B K B r r 5 5 5 B H H 2 1 1 1 2 2 5 5 5 d ",
"I 4 1 P O.) I _ ....X.X.@.@.@.@.Q E o.+.@.@.@.@.) @.+.+.@.o.@._ ..W W W ..W J P G H H H G J W .._ E ",
"r 4 1 B 5 K p.B F G J J I | J ..R P J R R W R P I P I I H H P H i i i G J i J J i H i J i R i R O.O.",
"I B 4 H K K O.P J I I ..X.X.X.X.@.W W @.O.W W W ..I I ..I W W { { W { R { R R R ....R ..............",
"@.K 2 K O.P _ I ..I ....X.X.X.X.@...O.......W R I | J R | W { ..{ R R { { { R { R R ........R W X...",
"I s * B O._ I ..W ....| | ..{ { W ..W ....W W R | J { { J { { { { J { R R ....{ R { R { R R { R W | ",
"B s * 4 I @.E ~ ....O.| ....{ { ..W W W ........X.X.{ X.X.| | | X...X.........X...X.X.X.X.X.X...H F ",
"K 4 3 4 K O.I I | | | | | { { { R J J J W R W ..X.X.X.X.X.X.X.X.....{ W J J J i i i J J J i J i P K ",
"~ & 4 d F I I I J J { J { { J { J G i u H J ..R ....| | ..{ X.| R R R J R i i i i p i i u i u u ' ` ",
"O.# 4 K d B G O.| o.X.X.| X.| | I J G H G J { X.{ { { | { X.X.X...................W R R R R ..R #.' ",
"a s 4 B I P P I I I I I _ ~ ~ ~ P P P R P P P P I ) I ~ ~ I P ~ W W W E _ I _ _ _ _ _ _ W _ I I P P ",
"; & ; s B B B B r B 7 B F H K F H H H F F H B H B B B B B B F N 4 e 4 2 4 4 4 4 5 5 4 4 4 5 4 4 - > "
};
