/* XPM */
static char * 1_xpm[] = {
"50 50 634 2",
"  	c #352925",
". 	c #322624",
"+ 	c #2D2322",
"@ 	c #2C211E",
"# 	c #32241E",
"$ 	c #291E1C",
"% 	c #3A2622",
"& 	c #3A3027",
"* 	c #3F342E",
"= 	c #1D1312",
"- 	c #392E2A",
"; 	c #38302E",
"> 	c #3D322C",
", 	c #3A2B25",
"' 	c #3B302A",
") 	c #392D29",
"! 	c #362B29",
"~ 	c #3E332D",
"{ 	c #4C413D",
"] 	c #48403E",
"^ 	c #383232",
"/ 	c #312728",
"( 	c #413632",
"_ 	c #524743",
": 	c #3F3430",
"< 	c #463B35",
"[ 	c #39261F",
"} 	c #3A2C2B",
"| 	c #3D2D2D",
"1 	c #382C2E",
"2 	c #402D26",
"3 	c #382521",
"4 	c #3A2B2B",
"5 	c #2E2526",
"6 	c #322723",
"7 	c #332824",
"8 	c #382D29",
"9 	c #3B2D2C",
"0 	c #40322F",
"a 	c #1A110F",
"b 	c #3A2C2C",
"c 	c #2C2322",
"d 	c #201B1A",
"e 	c #1F1A19",
"f 	c #1E1E1D",
"g 	c #1E1D1B",
"h 	c #1F1B19",
"i 	c #211C1B",
"j 	c #251F1E",
"k 	c #362B28",
"l 	c #251B1A",
"m 	c #433A3A",
"n 	c #3A3132",
"o 	c #31211E",
"p 	c #1C1817",
"q 	c #1C2926",
"r 	c #2E8274",
"s 	c #36A18F",
"t 	c #349987",
"u 	c #26574E",
"v 	c #171313",
"w 	c #271F1E",
"x 	c #2E2422",
"y 	c #312623",
"z 	c #332626",
"A 	c #2E2321",
"B 	c #3D332F",
"C 	c #2F201D",
"D 	c #1A1A18",
"E 	c #2D8575",
"F 	c #3DCDB5",
"G 	c #46EBCF",
"H 	c #339483",
"I 	c #1F3530",
"J 	c #1F3933",
"K 	c #1F3732",
"L 	c #1F332E",
"M 	c #1D2C28",
"N 	c #1D2421",
"O 	c #1D1D1B",
"P 	c #221B1A",
"Q 	c #160F0F",
"R 	c #2D2320",
"S 	c #29201F",
"T 	c #342824",
"U 	c #352A2B",
"V 	c #201B1B",
"W 	c #20423B",
"X 	c #34A592",
"Y 	c #41DAC1",
"Z 	c #45E6CB",
"` 	c #44E0C6",
" .	c #41D3BA",
"..	c #41D4BB",
"+.	c #44D4BB",
"@.	c #50D1BB",
"#.	c #55CAB6",
"$.	c #4EBCAA",
"%.	c #3EA795",
"&.	c #31897A",
"*.	c #2A675C",
"=.	c #23413B",
"-.	c #1C2220",
";.	c #1E1919",
">.	c #302723",
",.	c #332724",
"'.	c #272121",
").	c #382E2D",
"!.	c #1D1918",
"~.	c #23544B",
"{.	c #34AA96",
"].	c #40D5BC",
"^.	c #45E4CA",
"/.	c #45E7CC",
"(.	c #43DFC5",
"_.	c #43DDC3",
":.	c #48E5CA",
"<.	c #5DECD4",
"[.	c #8AF2E0",
"}.	c #82F2DF",
"|.	c #4AE3CA",
"1.	c #318979",
"2.	c #43A393",
"3.	c #59B9A9",
"4.	c #457970",
"5.	c #21332F",
"6.	c #1A1615",
"7.	c #271E1B",
"8.	c #1E1A18",
"9.	c #20443D",
"0.	c #309685",
"a.	c #39BFA9",
"b.	c #3FD2B9",
"c.	c #44E3C8",
"d.	c #43E0C6",
"e.	c #3ECFB6",
"f.	c #39C0AA",
"g.	c #49D2BB",
"h.	c #6EEAD5",
"i.	c #77EFDB",
"j.	c #4FBFAC",
"k.	c #1A2421",
"l.	c #27413B",
"m.	c #75DECC",
"n.	c #83F1DE",
"o.	c #4ECAB5",
"p.	c #286358",
"q.	c #1E1B1A",
"r.	c #2F2422",
"s.	c #3A2E30",
"t.	c #382C2C",
"u.	c #291F21",
"v.	c #2D2321",
"w.	c #201918",
"x.	c #1D2F2B",
"y.	c #2D8778",
"z.	c #34AE9A",
"A.	c #3CC9B2",
"B.	c #45E7CB",
"C.	c #36B49F",
"D.	c #3AC4AD",
"E.	c #48E3C9",
"F.	c #347367",
"G.	c #1E2E2A",
"H.	c #1D2825",
"I.	c #3BA08E",
"J.	c #57ECD3",
"K.	c #5DEDD5",
"L.	c #41C0AB",
"M.	c #1C2A27",
"N.	c #342A25",
"O.	c #171115",
"P.	c #150C0C",
"Q.	c #1A0E0D",
"R.	c #20120F",
"S.	c #180F13",
"T.	c #181110",
"U.	c #1F3D37",
"V.	c #32A491",
"W.	c #3BC4AD",
"X.	c #45E5CA",
"Y.	c #43E1C7",
"Z.	c #3AC1AA",
"`.	c #245249",
" +	c #306158",
".+	c #3B5F58",
"++	c #224941",
"@+	c #40D2B9",
"#+	c #42D8BE",
"$+	c #25524A",
"%+	c #181414",
"&+	c #29201D",
"*+	c #30231D",
"=+	c #241915",
"-+	c #211614",
";+	c #1E181A",
">+	c #110907",
",+	c #1C1619",
"'+	c #1B1312",
")+	c #191311",
"!+	c #21453E",
"~+	c #37B49F",
"{+	c #3FD3BA",
"]+	c #39BBA5",
"^+	c #2F8D7D",
"/+	c #286A5F",
"(+	c #256156",
"_+	c #297669",
":+	c #2D8475",
"<+	c #1D302C",
"[+	c #347065",
"}+	c #4B7F75",
"|+	c #191A18",
"1+	c #36A592",
"2+	c #41D7BE",
"3+	c #2E7C6E",
"4+	c #245047",
"5+	c #1D2E2A",
"6+	c #191412",
"7+	c #160E12",
"8+	c #3C3636",
"9+	c #282020",
"0+	c #1C1B1A",
"a+	c #235047",
"b+	c #329F8D",
"c+	c #3ECEB6",
"d+	c #33A08D",
"e+	c #214A42",
"f+	c #1C2120",
"g+	c #252627",
"h+	c #282A2B",
"i+	c #222424",
"j+	c #1A1D1B",
"k+	c #20403A",
"l+	c #41C6B0",
"m+	c #52A99A",
"n+	c #1F2724",
"o+	c #224E45",
"p+	c #2A7165",
"q+	c #3DC2AB",
"r+	c #2D2629",
"s+	c #383435",
"t+	c #2F292D",
"u+	c #171518",
"v+	c #4B4140",
"w+	c #312626",
"x+	c #1B1F1D",
"y+	c #27685D",
"z+	c #33A794",
"A+	c #37B8A2",
"B+	c #33A28F",
"C+	c #1E3732",
"D+	c #434F55",
"E+	c #55676F",
"F+	c #627882",
"G+	c #5E727A",
"H+	c #3ED1B9",
"I+	c #43C8B1",
"J+	c #21312D",
"K+	c #363637",
"L+	c #5A5D60",
"M+	c #393738",
"N+	c #234841",
"O+	c #339281",
"P+	c #1E201E",
"Q+	c #322826",
"R+	c #3B2F31",
"S+	c #3D3230",
"T+	c #412E2A",
"U+	c #3B2D2D",
"V+	c #282021",
"W+	c #33A693",
"X+	c #34AE99",
"Y+	c #262728",
"Z+	c #4B5B62",
"`+	c #5A6E77",
" @	c #6A828D",
".@	c #718A95",
"+@	c #475258",
"@@	c #1C2321",
"#@	c #20453D",
"$@	c #1F3F38",
"%@	c #262A2B",
"&@	c #647880",
"*@	c #879DA7",
"=@	c #939FA4",
"-@	c #313333",
";@	c #1C302B",
">@	c #231E1E",
",@	c #3C2F2E",
"'@	c #43322D",
")@	c #433532",
"!@	c #413131",
"~@	c #3D2F2F",
"{@	c #4E4546",
"]@	c #2E2322",
"^@	c #1A1F1D",
"/@	c #2B7E70",
"(@	c #35B09B",
"_@	c #297165",
":@	c #1E201F",
"<@	c #455258",
"[@	c #556870",
"}@	c #677E88",
"|@	c #708A95",
"1@	c #708994",
"2@	c #6D858F",
"3@	c #526269",
"4@	c #3E464B",
"5@	c #434C52",
"6@	c #5F737B",
"7@	c #6F8893",
"8@	c #8A9FA8",
"9@	c #656A6C",
"0@	c #171413",
"a@	c #302522",
"b@	c #412D26",
"c@	c #30211E",
"d@	c #214841",
"e@	c #2F9382",
"f@	c #33A894",
"g@	c #2F3436",
"h@	c #424F55",
"i@	c #51626A",
"j@	c #718B96",
"k@	c #79919C",
"l@	c #859095",
"m@	c #211F1E",
"n@	c #31211C",
"o@	c #392622",
"p@	c #241A17",
"q@	c #224C44",
"r@	c #33A995",
"s@	c #35AF9A",
"t@	c #309785",
"u@	c #1C2825",
"v@	c #26292A",
"w@	c #424F54",
"x@	c #637983",
"y@	c #738B96",
"z@	c #8E9CA3",
"A@	c #2D2D2D",
"B@	c #322520",
"C@	c #2C2121",
"D@	c #2D8576",
"E@	c #34AC98",
"F@	c #2E8C7C",
"G@	c #1D2321",
"H@	c #363E41",
"I@	c #4A5A60",
"J@	c #6C848E",
"K@	c #6B838D",
"L@	c #5B6E76",
"M@	c #5B6D75",
"N@	c #60747D",
"O@	c #69808A",
"P@	c #718A96",
"Q@	c #8F9FA7",
"R@	c #353535",
"S@	c #453939",
"T@	c #372A2A",
"U@	c #1B221F",
"V@	c #224B43",
"W@	c #24554C",
"X@	c #1E2120",
"Y@	c #465359",
"Z@	c #4C5C62",
"`@	c #384044",
" #	c #1B1D1C",
".#	c #1C211F",
"+#	c #1F2322",
"@#	c #282B2C",
"##	c #48545A",
"$#	c #6E8791",
"%#	c #6E8691",
"&#	c #55656C",
"*#	c #40494D",
"=#	c #3C4549",
"-#	c #677074",
";#	c #333333",
">#	c #372925",
",#	c #423431",
"'#	c #3E302F",
")#	c #443635",
"!#	c #392B2A",
"~#	c #251C1C",
"{#	c #181514",
"]#	c #1B1A19",
"^#	c #46545A",
"/#	c #596E76",
"(#	c #4B595F",
"_#	c #171B18",
":#	c #153E32",
"<#	c #1E634F",
"[#	c #236E59",
"}#	c #1F4F41",
"|#	c #1D2120",
"1#	c #728C97",
"2#	c #586971",
"3#	c #1D1F1E",
"4#	c #182D26",
"5#	c #193028",
"6#	c #1F1F1E",
"7#	c #1F1C1B",
"8#	c #372E2A",
"9#	c #453F41",
"0#	c #292020",
"a#	c #1B2522",
"b#	c #1A211F",
"c#	c #3D484D",
"d#	c #576A73",
"e#	c #343A3D",
"f#	c #14261F",
"g#	c #1C6A53",
"h#	c #2C9C7D",
"i#	c #37BA96",
"j#	c #31A586",
"k#	c #1B3029",
"l#	c #49545A",
"m#	c #728C98",
"n#	c #434E53",
"o#	c #182A23",
"p#	c #27876D",
"q#	c #2D9478",
"r#	c #1B2924",
"s#	c #1A1616",
"t#	c #372D2B",
"u#	c #403531",
"v#	c #443937",
"w#	c #392D2F",
"x#	c #2B2121",
"y#	c #181B19",
"z#	c #2D3234",
"A#	c #53666E",
"B#	c #32383B",
"C#	c #162922",
"D#	c #228065",
"E#	c #37BF9A",
"F#	c #44E7BB",
"G#	c #3ECBA5",
"H#	c #1D332C",
"I#	c #4B575D",
"J#	c #434C51",
"K#	c #1A322A",
"L#	c #33B18E",
"M#	c #3AC09B",
"N#	c #1D3029",
"O#	c #1D1817",
"P#	c #372A29",
"Q#	c #201718",
"R#	c #231915",
"S#	c #211918",
"T#	c #1C1614",
"U#	c #1B1A1A",
"V#	c #31383B",
"W#	c #191B19",
"X#	c #1C4E3F",
"Y#	c #2A8B70",
"Z#	c #33A888",
"`#	c #29705B",
" $	c #212524",
".$	c #55666D",
"+$	c #1B211E",
"@$	c #215D4B",
"#$	c #235A4A",
"$$	c #231B19",
"%$	c #1E1917",
"&$	c #1B1918",
"*$	c #181615",
"=$	c #181716",
"-$	c #1E2724",
";$	c #202222",
">$	c #48555B",
",$	c #708993",
"'$	c #6D8590",
")$	c #3E484C",
"!$	c #191716",
"~$	c #1B1717",
"{$	c #3B2D2B",
"]$	c #3A2D2C",
"^$	c #2A2322",
"/$	c #373E42",
"($	c #55656D",
"_$	c #4F6067",
":$	c #617680",
"<$	c #687F89",
"[$	c #1C1A19",
"}$	c #2A2321",
"|$	c #372D2C",
"1$	c #3F3534",
"2$	c #423735",
"3$	c #2F2421",
"4$	c #201A18",
"5$	c #2B2F31",
"6$	c #445156",
"7$	c #353E41",
"8$	c #4F5F66",
"9$	c #5E737C",
"0$	c #3C464A",
"a$	c #3F4A4E",
"b$	c #353C3F",
"c$	c #231F21",
"d$	c #2B211F",
"e$	c #1B1B19",
"f$	c #286056",
"g$	c #244F47",
"h$	c #1C1C1B",
"i$	c #1F1E1E",
"j$	c #222324",
"k$	c #262829",
"l$	c #1C1A18",
"m$	c #302B2D",
"n$	c #453836",
"o$	c #483A37",
"p$	c #342722",
"q$	c #2C7165",
"r$	c #43DCC3",
"s$	c #286459",
"t$	c #201D1E",
"u$	c #373A3F",
"v$	c #4A4E55",
"w$	c #323336",
"x$	c #211F1D",
"y$	c #201E1C",
"z$	c #171514",
"A$	c #282325",
"B$	c #382E2B",
"C$	c #3D322D",
"D$	c #3C2F29",
"E$	c #32221C",
"F$	c #1E1A19",
"G$	c #191918",
"H$	c #2A6C60",
"I$	c #359F8D",
"J$	c #1D2724",
"K$	c #34363A",
"L$	c #4A5057",
"M$	c #545A63",
"N$	c #4E535B",
"O$	c #222222",
"P$	c #393431",
"Q$	c #2C2826",
"R$	c #1D1B1A",
"S$	c #1D1A1A",
"T$	c #261E1C",
"U$	c #392522",
"V$	c #3A2E2B",
"W$	c #313336",
"X$	c #3E4146",
"Y$	c #222323",
"Z$	c #1A211E",
"`$	c #252526",
" %	c #3C4045",
".%	c #4B5057",
"+%	c #4C5158",
"@%	c #2B2B2D",
"#%	c #232324",
"$%	c #3B3735",
"%%	c #34302E",
"&%	c #2B2826",
"*%	c #393533",
"=%	c #262627",
"-%	c #1A1817",
";%	c #332A25",
">%	c #2E2423",
",%	c #282829",
"'%	c #4F545B",
")%	c #343539",
"!%	c #2E3033",
"~%	c #212021",
"{%	c #222021",
"]%	c #181D1B",
"^%	c #363432",
"/%	c #373431",
"(%	c #232120",
"_%	c #1A1717",
":%	c #1F1B1A",
"<%	c #2D2425",
"[%	c #28211E",
"}%	c #242324",
"|%	c #1E1C1C",
"1%	c #233834",
"2%	c #243D38",
"3%	c #265048",
"4%	c #2A6359",
"5%	c #262626",
"6%	c #242425",
"7%	c #1C1A1A",
"8%	c #262123",
"9%	c #302627",
"0%	c #1D1917",
"a%	c #1F1916",
"b%	c #1E1D1D",
"c%	c #417C75",
"d%	c #47998F",
"e%	c #377B71",
"f%	c #223D38",
"g%	c #222122",
"h%	c #212020",
"i%	c #1F191A",
"j%	c #262125",
"k%	c #221A1B",
"l%	c #433534",
"m%	c #362C28",
"n%	c #281F1C",
"o%	c #1D1B1B",
"p%	c #242B2A",
"q%	c #2A3B39",
"r%	c #293F3C",
"s%	c #191413",
"t%	c #1B1919",
"u%	c #221B1D",
"v%	c #322823",
"w%	c #191817",
"x%	c #191514",
"y%	c #251D1C",
"z%	c #221B1C",
"A%	c #1B1716",
"B%	c #281E20",
"C%	c #392F32",
"D%	c #191210",
"E%	c #191211",
"F%	c #161110",
"G%	c #161010",
"H%	c #251D20",
"I%	c #382924",
"J%	c #211A17",
"K%	c #1E1817",
"L%	c #291D1B",
"M%	c #3F312E",
"N%	c #3A2F2D",
"O%	c #3A2F2E",
"P%	c #433633",
"Q%	c #3C3539",
"  . + @ @ # + # # # # + # # # . # $ + % . @ @ & .   * = * - &   & & & & & & & & & - & ; & & > ; , , ",
"' - )   ,   ! ! . . . # # . % . . $ $ . . # ~ { @ @ & @ ] &   &   # # & &   & # ^ - ' - ^ & ; > ' ' ",
"- ) ) ) )   ! ! % % % / / / % % %       . . ( _   @ . = :   ) < & & & & & & & &     / & &   ! ; - & ",
"            % [ / } | 1 2 3 4 5 6 7 8 9   . - 0 & . . a ~   > ] @ # @ @ @ @ @ @ . . . . .   /     . ",
"/         /     % b b 1 c d e f g h i j k   / / . / ( l m n > > * * * ~ ~ ~ > ~ . .     /           ",
"+ . + / +   .   . / % % o p q r s t u v w x y z A 6 B = > ) / +       &   . . .   &   ; ! ;   ;     ",
"@ + + @ @ + . . 1 / / 1 / C D E F G H I J K L M N O P Q R S T ) - - & - - - ) ) -             / . / ",
"+ + @ + + . / / % / % % U V W X Y Z `  ...+.@.#.$.%.&.*.=.-.;.>.,.  &   &   )   . . / . + + + + @ @ ",
"  '.  './ ^ @ ).! ! !   5 !.~.{.].^././.(._.:.<.[.}.|.1.2.3.4.5.6.7.@ . .   / / + . . . . / . / + '.",
"@ $ / + . / $ / . + . . / o 8.9.0.a.b.c.d.e.f.g.h.i.j.k.l.m.n.o.p.q.r.  & & > ; s.b t.b s.s./ t.; ; ",
"@ +   '.+ . $ + + u.u.+ u.u.v.w.x.y.z.A.B.Z ].C.D.E.F.G.H.I.J.K.L.M.N.> ~ )   . !   1 / . . . . '.@ ",
"O.= = P.= = P.a Q.Q.R.S.R.S.R.= T.U.V.W.X.Y.(.Z.z.W.`. +.+++@+#+$+%+&+*++ @ @ =+=+=+-+-+= -+= -+;+;+",
"= = >+P.;+;+= a -+-+,+-+-+S.-+'+)+!+~+{+]+^+/+(+_+:+<+[+}+|+1+2+3+4+5+6+Q.Q.P.Q.S.= -+S.S.-+= S.7+P.",
"  + = . 8+& ; - b b   t.  } 9+0+a+b+c+d+e+f+g+h+i+j+k+l+m+n+e+o+p+q+s O y !   ! + + u.. r+. / . s+t+",
"t+@ u+^ v+^ ^ ^ s.t.s.s.s.w+x+y+z+A+B+C+g+D+E+F+G+g+(+H+I+J+K+L+M+N+O+P+Q+- }   R+S+T+R+S+R+S+S+] s+",
"@ @ = 8+{ / +   t.t.b b U+V+k+W+X+V.9.Y+Z+`+ @.@.@+@@@#@$@%@&@*@=@-@;@>@,@'@( )@!@!@R+!@~@~@~@' {@s+",
"@ ;+=+- % + '@} !@| T+| T+]@^@/@(@_@:@<@[@}@|@1@1@2@3@4@5@6@1@7@8@9@0@a@'@'@'@'@'@'@b@b@b@& % # @ $ ",
"& @ =+&   # - [ % # % % c@O d@e@f@$@g@h@i@1@1@1@1@1@j@.@.@.@1@1@k@l@m@n@[ [ [ [ '@'@'@b@b@'@'@b@: ~@",
"  @ a @ . @ / $ # # % o@p@q@r@s@t@u@v@w@x@.@j@j@.@|@1@1@1@1@1@1@y@z@A@B@[ [ [ [ [ & b@b@% T+, ,   / ",
"# @ =+  : & '@~@| % | | C@x.D@E@F@G@H@I@J@K@L@M@N@O@1@1@1@1@j@.@P@Q@R@>.'@'@'@'@'@'@b@b@T+& b@9 . + ",
"@ @ ;+* S@~@S+!@| | b b T@w U@V@W@X@Y@Z@}@`@ #.#+#@###$#1@%#&#*#=#-#;#>#,#( )@( < '@( '@'@' '#'@> / ",
"@ ;+u+& )#. +   b b / % , !#o ~#{#]#^#/#(#_#:#<#[#}#|#M@1#2#3#4#5#6#7#8#'@'@'#S+T+& ).> 9 - '#: t.+ ",
"t+'.=+; 9#U++ 1 1 1 b b b b U+0#a#b#c#d#e#f#g#h#i#j#k#l#m#n#o#p#q#r#s#t#S+).> > u#~ : : S+'#S+v#! . ",
"  @ P.  9#1 / 1 !@w#!@b U+U+U+x#x+y#z#A#B#C#D#E#F#G#H#I#m#J#K#L#M#N#O#P#- ).).).> & / )   + / ) t++ ",
"P.u+= ;+=+l l @ =+Q#l l l -+=+R#S#T#U#V#V#W#X#Y#Z#`# $6@1#.$+$@$#$|+6+= a = = P.P.= Q.= Q.= a = = = ",
"@ @ $ l l @ @ @ . / . . . . / + l $ $$%$&$*$=$U@-$;$>$,$.@'$)$!${#~$S / + .   +   + + + + @ '.@ @ @ ",
"~ ~ & ) ) t.t.^ ).- ).> b ).~@- {$~@!@s.]$^$!$/$($_$:$|@<$'$.$[$}$|$( ( v#1$2$v#m 2$v#2$2$: ( '#~ : ",
"& ^ ; ; ).n S+: ~@n > S+R+S+R+'#{${$}   3$4$0@5$6$7$8$9$0$a$b$c$T !   ! ) ) ) /   ! ! ! - ).- 9 n > ",
"T+9 T+'@'@( ,#,#!@'@!@'@'#- - - , % % d$e$f$g${#h$i$j$k$!$l$!$m$) ! } ! , , !   + # % .   ! 9 9 '@' ",
"n$)#o$)#n$)#)#)@'@'@'#- !   % # % ! p$8.q$r$s$t$u$v$w$q.x$y$z$A$B$C$'#' ' 9 9 - } ! } - '#' '@'@)@( ",
"T+'@b@{$, b@b@, D$, & , ! % , % [ E$F$G$H$I$J$K$L$M$N$O$P$Q$&$R$S$T$U$% % . # #   % % % , , , ! T+b@",
"T+9 ! % % ! , , ! , ' '@0 '@( ( V$i W$X$Y$Z$`$ %.%+%@%#%$%%%&%*%=%-%;%' ' & - ' &   ) ' 9 ' '@'@T+T+",
"!   , '#' ! ! 9 , - t.> > > ^ > >%,%'%'%)%!$!%~%{%Y$]%#%^%/%@%(%_%:%<%. +   ) '#- - ).- ).- - } {$b@",
"'@' - '#'#- 9 '   ) ) ) t.t.t.t.[%}%=%|%0+i$~%1%2%3%4%}%5%l$6%7%8%9%} | S+: S+n : : 1$: ( ( S+!@'@!@",
". @ @ $ @ @ . @ . +   / +   . . R F$0%a%!$b%+#c%d%e%f%g%h%i%j%k%l%U+u.$ $ @ @ $ + + + + . + / . . + ",
".     #   ) - ! S+S+S+: 1$: : ^ o@6 m%n%o%0+p%q%r%|#s%o%t%u%u.u.2${$+ + / > n : ) ! ) ! ) ! ! ) ! / ",
"  - '#> ; > '#>   , - - ; - ) ) - 9 v%S$`$w%!$%+x%y%z%*$A%B%1 1 . . %   ~ ~ ' , ~ '@'@9 - ' > > C%C%",
";+=+=+@ l ,+=+=+-+-+-+=+=+-+-+-+=+D%{#b%b%{#E%Q F%Q.Q z$G%= ,+-+l l $ $ =+=+R.R.l =+=+=+-+=+=+l $ H%",
"@ = a l @ l =+$ @ @ # @ # # # # I%J%*$K%L%y   / /   9%r.+ r+/ / # $ $ l @ #   ! =+=+-+-+=+=+l $ $ $ ",
") l =+  ( '#9 !@0 0 )@)@)#n$o$n$M%N%O%P%n$)@)#)#( 2$S@2$)#)#!@!@!@'@'@!@0 '#- ! , ! % ! , 9 ' '#'#'#",
"+ $ = u.u.% 9#% ! % ! {$b@T+T+T+& & & & '@'@~@- {${$| b 1 % b@b@. % % , , , ,   , % , %     & , )#)@",
"!@+ l . / / )#/ 9 '@~@'@'@'@)@,#'@u#'@( ( ( '@T+T+!@U+T+!@T+T+T+& ' ' & & ' ' '@'@> 0 ' > '@u#u#'@'@",
")#/ l 1 !@s.!@1 '@'@'@,#'@'@'@'@u#'@u#u#'@'@' D$T+T+b@b@T+T+'@'@9 & 9 T+' '@'@& ' T+'@'@'@'@'@T+)#'@",
"s.u.-++ !@!@1 !@' '@T+'@'@'@T+T+'@'@'@'@'@'@9 D${${$} | b@| b@b@9 b@D$T+& '@> '@D$9 & '@' '@' & ' 9 ",
"/ H%-+l w#)#!@!@'@!@'@'@'@'@b@'@'@'@T+'@'@'@'@'@'@'@'@'@'@'@'@'@'@)@'@'@u#0 0 '@'@'@'@( '@0 '@0     ",
"/ Q#l l / !@w#T+T+T+T+T+b@T+b@b@, D$! % T+b@'@'@'@'@'@o$'@'@'@'@'@'@0 '@, & , , , , & , , , , , ) ) ",
"w#= H%u.+ !@T+T+T+T+T+T+b@b@b@b@, ! [ . b@b@T+'@'@'@b@b@'@b@'@T+T+& D$, , [ [ [ [ [ # # # # # # 8+8+",
")#7+Q#/ u.% b !@!@!@'@'@'@'@'@b@'   % % , , T+'@b@b@'@'@'@'@'@,#'@'@'@'@* * * '@u#> '@'@& ' > > ] Q%",
"H%H%H%r+1 s.b b {$T+{$T+!@!@!@!@U+} , - - - ) ) - ; ; > > > ).> * ~ > > ; > > ^ ~ ~ ~ : : ~ > ; ! t+",
"u+O.,+H%u./ + . + + + # . / / / / . . . . + . + + + + + + + r++ l @ l =+=+l l l l @ l l @ l l =+l ;+"};
