/* XPM */
static char * 10_xpm[] = {
"50 50 664 2",
"  	c #352925",
". 	c #322624",
"+ 	c #2D2322",
"@ 	c #2C211E",
"# 	c #32241E",
"$ 	c #291E1C",
"% 	c #3A2622",
"& 	c #3A3027",
"* 	c #3F342E",
"= 	c #1D1312",
"- 	c #392E2A",
"; 	c #38302E",
"> 	c #3D322C",
", 	c #3A2B25",
"' 	c #3B302A",
") 	c #392D29",
"! 	c #362B29",
"~ 	c #3E332D",
"{ 	c #4C413D",
"] 	c #48403E",
"^ 	c #383232",
"/ 	c #312728",
"( 	c #413632",
"_ 	c #524743",
": 	c #3F3430",
"< 	c #463B35",
"[ 	c #39261F",
"} 	c #3A2C2B",
"| 	c #3D2D2D",
"1 	c #382C2E",
"2 	c #402C25",
"3 	c #372521",
"4 	c #392B2A",
"5 	c #2E2526",
"6 	c #322723",
"7 	c #332824",
"8 	c #382D29",
"9 	c #3B2D2C",
"0 	c #40322F",
"a 	c #1A110F",
"b 	c #3A2C2C",
"c 	c #302627",
"d 	c #231C1C",
"e 	c #201B1A",
"f 	c #1E1D1B",
"g 	c #1E1F1E",
"h 	c #1E1C1B",
"i 	c #1E1B1A",
"j 	c #211C1B",
"k 	c #2F2624",
"l 	c #251B1A",
"m 	c #433A3A",
"n 	c #3A3132",
"o 	c #34231F",
"p 	c #211917",
"q 	c #191D1B",
"r 	c #296E62",
"s 	c #36A491",
"t 	c #37A794",
"u 	c #2E7A6D",
"v 	c #191A18",
"w 	c #1F1818",
"x 	c #29201F",
"y 	c #2C221F",
"z 	c #2F2322",
"A 	c #2B201E",
"B 	c #2F2421",
"C 	c #3B312D",
"D 	c #2D2424",
"E 	c #1D1614",
"F 	c #266055",
"G 	c #39C0AA",
"H 	c #45E7CC",
"I 	c #3DC0AA",
"J 	c #244D45",
"K 	c #234A42",
"L 	c #244E46",
"M 	c #254D45",
"N 	c #244841",
"O 	c #204039",
"P 	c #1E342F",
"Q 	c #1C2824",
"R 	c #1E1F1D",
"S 	c #171313",
"T 	c #281F1D",
"U 	c #261E1D",
"V 	c #281F21",
"W 	c #1C2B27",
"X 	c #2D8878",
"Y 	c #3FD2B9",
"Z 	c #45E5CA",
"` 	c #43DDC3",
" .	c #43DEC4",
"..	c #45E0C6",
"+.	c #50E2C9",
"@.	c #5DE1CB",
"#.	c #62DDC8",
"$.	c #5AD4BF",
"%.	c #42C2AC",
"&.	c #36A18F",
"*.	c #337D70",
"=.	c #2D5B52",
"-.	c #20302C",
";.	c #1D1A19",
">.	c #2D2521",
",.	c #272121",
"'.	c #382E2D",
").	c #221C1C",
"!.	c #1E3631",
"~.	c #2F9383",
"{.	c #3CC9B1",
"].	c #43E1C6",
"^.	c #45E6CB",
"/.	c #43E0C6",
"(.	c #41D7BE",
"_.	c #42DBC1",
":.	c #4DE6CC",
"<.	c #7DEFDC",
"[.	c #95F2E2",
"}.	c #5EEDD5",
"|.	c #308979",
"1.	c #2D5E55",
"2.	c #62D4C1",
"3.	c #77D1C2",
"4.	c #438E81",
"5.	c #1F3A35",
"6.	c #1B1616",
"7.	c #291F1C",
"8.	c #2E2525",
"9.	c #241A18",
"0.	c #1C2D29",
"a.	c #2A776A",
"b.	c #36B39E",
"c.	c #3CC7B0",
"d.	c #42DBC2",
"e.	c #44E4CA",
"f.	c #41DAC0",
"g.	c #3BC4AD",
"h.	c #3BBFA9",
"i.	c #53DAC3",
"j.	c #67ECD5",
"k.	c #60D8C3",
"l.	c #25413B",
"m.	c #171312",
"n.	c #489084",
"o.	c #77F1DD",
"p.	c #69EED7",
"q.	c #45CBB4",
"r.	c #22473F",
"s.	c #241C1B",
"t.	c #3A2E30",
"u.	c #382C2C",
"v.	c #291F21",
"w.	c #281E20",
"x.	c #261D1B",
"y.	c #1B1D1B",
"z.	c #255E54",
"A.	c #33A693",
"B.	c #37B7A2",
"C.	c #43DFC5",
"D.	c #46E8CD",
"E.	c #44E4C9",
"F.	c #3BC5AE",
"G.	c #35B29D",
"H.	c #3ED5BC",
"I.	c #39A593",
"J.	c #1E2F2B",
"K.	c #2B4E47",
"L.	c #22453E",
"M.	c #42D6BD",
"N.	c #4FE9CF",
"O.	c #45C7B1",
"P.	c #29221F",
"Q.	c #3C322C",
"R.	c #171115",
"S.	c #150C0C",
"T.	c #1A0E0D",
"U.	c #20120F",
"V.	c #180F13",
"W.	c #1B1312",
"X.	c #191B1A",
"Y.	c #2C8173",
"Z.	c #40D7BE",
"`.	c #3CC8B0",
" +	c #34AC98",
".+	c #36B6A1",
"++	c #308C7C",
"@+	c #1E2E2A",
"#+	c #50978B",
"$+	c #232826",
"%+	c #2D7A6D",
"&+	c #45E8CD",
"*+	c #2F8173",
"=+	c #191B19",
"-+	c #1C1917",
";+	c #261E1C",
">+	c #30231D",
",+	c #241915",
"'+	c #211614",
")+	c #1E181A",
"!+	c #110907",
"~+	c #1C1619",
"{+	c #201614",
"]+	c #191312",
"^+	c #1A2421",
"/+	c #2F8F7E",
"(+	c #3ED0B7",
"_+	c #3BC3AC",
":+	c #245A51",
"<+	c #20443D",
"[+	c #214A42",
"}+	c #26665B",
"|+	c #1F3E38",
"1+	c #22463F",
"2+	c #56B6A6",
"3+	c #272C2A",
"4+	c #24554C",
"5+	c #38B29D",
"6+	c #339282",
"7+	c #1E302C",
"8+	c #191110",
"9+	c #160E12",
"0+	c #3C3636",
"a+	c #362928",
"b+	c #201A1A",
"c+	c #1D322D",
"d+	c #2C8172",
"e+	c #39BAA4",
"f+	c #256156",
"g+	c #1C2321",
"h+	c #27282A",
"i+	c #32383B",
"j+	c #33383B",
"k+	c #222223",
"l+	c #1A2522",
"m+	c #34A592",
"n+	c #50E7CE",
"o+	c #3A6C62",
"p+	c #1A1E1C",
"q+	c #232A28",
"r+	c #222B29",
"s+	c #25554C",
"t+	c #3DC4AD",
"u+	c #26554D",
"v+	c #271E1B",
"w+	c #2D2629",
"x+	c #383435",
"y+	c #2F292D",
"z+	c #171518",
"A+	c #4B4140",
"B+	c #392D2F",
"C+	c #1F3B35",
"D+	c #309584",
"E+	c #35AF9B",
"F+	c #38B8A3",
"G+	c #255F54",
"H+	c #3C454A",
"I+	c #53656D",
"J+	c #637983",
"K+	c #6E8691",
"L+	c #4E5C62",
"M+	c #1B2522",
"N+	c #2E8879",
"O+	c #3BBCA6",
"P+	c #286156",
"Q+	c #2B2C2D",
"R+	c #717E85",
"S+	c #858E93",
"T+	c #3D3B3C",
"U+	c #234E46",
"V+	c #203C36",
"W+	c #2D2320",
"X+	c #3B2F31",
"Y+	c #3D3230",
"Z+	c #412E2A",
"`+	c #362929",
" @	c #1C1C1B",
".@	c #2B7B6D",
"+@	c #34AE99",
"@@	c #2A786A",
"#@	c #1C201F",
"$@	c #3E494E",
"%@	c #556971",
"&@	c #657B85",
"*@	c #708994",
"=@	c #718A95",
"-@	c #6A818B",
";@	c #394144",
">@	c #1E2322",
",@	c #1D2725",
"'@	c #252929",
")@	c #54646B",
"!@	c #728B97",
"~@	c #869CA6",
"{@	c #848D92",
"]@	c #212120",
"^@	c #1A1917",
"/@	c #352929",
"(@	c #3E302F",
"_@	c #43322D",
":@	c #433532",
"<@	c #413131",
"[@	c #3D2F2F",
"}@	c #4E4546",
"|@	c #3C2B27",
"1@	c #1F1918",
"2@	c #20403A",
"3@	c #32A390",
"4@	c #32A28F",
"5@	c #1E3732",
"6@	c #313639",
"7@	c #4F6067",
"8@	c #5D727B",
"9@	c #6F8893",
"0@	c #708A95",
"a@	c #6C848F",
"b@	c #5C6F77",
"c@	c #576870",
"d@	c #647A83",
"e@	c #91A2AA",
"f@	c #444546",
"g@	c #211B18",
"h@	c #40302B",
"i@	c #412D26",
"j@	c #392521",
"k@	c #281C1A",
"l@	c #1B2825",
"m@	c #27675C",
"n@	c #33A996",
"o@	c #2C8475",
"p@	c #1D2120",
"q@	c #404C51",
"r@	c #404B50",
"s@	c #667C86",
"t@	c #718A96",
"u@	c #718B96",
"v@	c #869CA5",
"w@	c #646A6C",
"x@	c #221916",
"y@	c #38251F",
"z@	c #1B1C1A",
"A@	c #2B7C6E",
"B@	c #34AF9A",
"C@	c #27685D",
"D@	c #1E1D1D",
"E@	c #2E3436",
"F@	c #53656C",
"G@	c #708995",
"H@	c #7E96A0",
"I@	c #767E82",
"J@	c #211A18",
"K@	c #382A24",
"L@	c #3A2B2B",
"M@	c #211B1B",
"N@	c #235148",
"O@	c #319A88",
"P@	c #34AE9A",
"Q@	c #245B51",
"R@	c #262729",
"S@	c #586C74",
"T@	c #5B6E76",
"U@	c #4B585E",
"V@	c #4C595F",
"W@	c #53636A",
"X@	c #61757E",
"Y@	c #6E8792",
"Z@	c #6B838D",
"`@	c #637882",
" #	c #6D828B",
".#	c #798286",
"+#	c #241F1D",
"@#	c #382E28",
"##	c #453939",
"$#	c #322726",
"%#	c #1C2E2A",
"&#	c #24564D",
"*#	c #1E3C35",
"=#	c #2A2E2F",
"-#	c #49595F",
";#	c #596D75",
">#	c #586971",
",#	c #202221",
"'#	c #16201C",
")#	c #192722",
"!#	c #1B2521",
"~#	c #202322",
"{#	c #4A575D",
"]#	c #5A6C74",
"^#	c #2D3133",
"/#	c #212323",
"(#	c #252727",
"_#	c #414344",
":#	c #23201E",
"<#	c #3F2F2B",
"[#	c #423431",
"}#	c #443635",
"|#	c #372A29",
"1#	c #2E1F1C",
"2#	c #201818",
"3#	c #171413",
"4#	c #252728",
"5#	c #50626A",
"6#	c #5B6F78",
"7#	c #32373A",
"8#	c #13241D",
"9#	c #185946",
"0#	c #247B63",
"a#	c #28856C",
"b#	c #1F5142",
"c#	c #667B85",
"d#	c #363C3F",
"e#	c #172A23",
"f#	c #20624F",
"g#	c #1E4A3D",
"h#	c #181615",
"i#	c #221C1B",
"j#	c #3E3430",
"k#	c #453F41",
"l#	c #3B2D2D",
"m#	c #392B2B",
"n#	c #1E2121",
"o#	c #4A595F",
"p#	c #52646B",
"q#	c #232525",
"r#	c #153C30",
"s#	c #248469",
"t#	c #35B592",
"u#	c #3DCEA7",
"v#	c #30977A",
"w#	c #1E2422",
"x#	c #6D8590",
"y#	c #2C2F31",
"z#	c #1E5041",
"A#	c #35B995",
"B#	c #31977B",
"C#	c #251F1E",
"D#	c #3C312F",
"E#	c #403531",
"F#	c #443937",
"G#	c #392C2B",
"H#	c #251E1D",
"I#	c #1A201E",
"J#	c #181817",
"K#	c #384145",
"L#	c #51636A",
"M#	c #26292A",
"N#	c #173A2F",
"O#	c #279173",
"P#	c #3ACAA3",
"Q#	c #44E8BB",
"R#	c #32987C",
"S#	c #212424",
"T#	c #61767F",
"U#	c #34393C",
"V#	c #1D4337",
"W#	c #32B08D",
"X#	c #2C7F67",
"Y#	c #181816",
"Z#	c #28201F",
"`#	c #201718",
" $	c #231915",
".$	c #201918",
"+$	c #1C1614",
"@$	c #1D1D1D",
"#$	c #303638",
"$$	c #282B2C",
"%$	c #181C19",
"&$	c #1D4C3E",
"*$	c #277760",
"=$	c #2A7D66",
"-$	c #1D372E",
";$	c #373E41",
">$	c #526269",
",$	c #1D211F",
"'$	c #1B332B",
")$	c #1A231F",
"!$	c #181514",
"~$	c #191311",
"{$	c #281E1C",
"]$	c #231B19",
"^$	c #1F1917",
"/$	c #1B1717",
"($	c #191515",
"_$	c #191616",
":$	c #303538",
"<$	c #60757D",
"[$	c #708893",
"}$	c #414C50",
"|$	c #181413",
"1$	c #1B1716",
"2$	c #241D1C",
"3$	c #3B2D2B",
"4$	c #3B2E2D",
"5$	c #292322",
"6$	c #1A1817",
"7$	c #445055",
"8$	c #5C6F78",
"9$	c #52646C",
"0$	c #637A84",
"a$	c #6D8691",
"b$	c #5A6E76",
"c$	c #3E474C",
"d$	c #382E2C",
"e$	c #3F3534",
"f$	c #423735",
"g$	c #342824",
"h$	c #29201D",
"i$	c #1D1A18",
"j$	c #181716",
"k$	c #292D2F",
"l$	c #32393B",
"m$	c #282C2D",
"n$	c #47545A",
"o$	c #48565C",
"p$	c #252829",
"q$	c #2B2F31",
"r$	c #222323",
"s$	c #2C272A",
"t$	c #382521",
"u$	c #1E312C",
"v$	c #328D7D",
"w$	c #26564D",
"x$	c #212122",
"y$	c #29292A",
"z$	c #1B1A19",
"A$	c #221F1D",
"B$	c #191717",
"C$	c #352F32",
"D$	c #453836",
"E$	c #483A37",
"F$	c #322826",
"G$	c #261D1A",
"H$	c #1A221F",
"I$	c #37A592",
"J$	c #41D5BC",
"K$	c #22443D",
"L$	c #272628",
"M$	c #3F4449",
"N$	c #50565E",
"O$	c #383B3F",
"P$	c #252220",
"Q$	c #24211F",
"R$	c #171514",
"S$	c #221E1F",
"T$	c #2D2522",
"U$	c #382E29",
"V$	c #3C2F29",
"W$	c #33231D",
"X$	c #201A18",
"Y$	c #232223",
"Z$	c #202121",
"`$	c #275A51",
" %	c #29665B",
".%	c #3C4045",
"+%	c #4D525A",
"@%	c #555B64",
"#%	c #4A4F56",
"$%	c #201F1F",
"%%	c #3D3935",
"&%	c #262321",
"*%	c #1B1917",
"=%	c #212020",
"-%	c #28292A",
";%	c #1D1919",
">%	c #3F3531",
",%	c #261F1E",
"'%	c #303134",
")%	c #525860",
"!%	c #494D54",
"~%	c #2D2E31",
"{%	c #3A3E42",
"]%	c #45484F",
"^%	c #252526",
"/%	c #242324",
"(%	c #413C39",
"_%	c #2A2725",
":%	c #312D2B",
"<%	c #353231",
"[%	c #2A2A2C",
"}%	c #2E2621",
"|%	c #1E1B1B",
"1%	c #383A3E",
"2%	c #37393D",
"3%	c #1E1C1C",
"4%	c #1C1A1A",
"5%	c #201E1F",
"6%	c #1E2120",
"7%	c #191E1C",
"8%	c #262628",
"9%	c #3C3836",
"0%	c #2B2826",
"a%	c #1F1D1C",
"b%	c #22201E",
"c%	c #1A1615",
"d%	c #272020",
"e%	c #342929",
"f%	c #1E1B19",
"g%	c #1E1C1A",
"h%	c #1A1816",
"i%	c #212121",
"j%	c #1D1E1D",
"k%	c #2C524C",
"l%	c #25403B",
"m%	c #2E6D62",
"n%	c #254E46",
"o%	c #282729",
"p%	c #232222",
"q%	c #1F1C1C",
"r%	c #1A1819",
"s%	c #191716",
"t%	c #251F21",
"u%	c #2F2521",
"v%	c #2F2623",
"w%	c #28211E",
"x%	c #1A1918",
"y%	c #1D1B1B",
"z%	c #273735",
"A%	c #468A83",
"B%	c #449389",
"C%	c #306860",
"D%	c #1D2A27",
"E%	c #262527",
"F%	c #1C1B1B",
"G%	c #251C1E",
"H%	c #2E282E",
"I%	c #231C1D",
"J%	c #423433",
"K%	c #342A26",
"L%	c #1F1B19",
"M%	c #202020",
"N%	c #252E2D",
"O%	c #232E2C",
"P%	c #23312F",
"Q%	c #1B1919",
"R%	c #191615",
"S%	c #241C1F",
"T%	c #382B2A",
"U%	c #251E1B",
"V%	c #222122",
"W%	c #1E1919",
"X%	c #1E1817",
"Y%	c #392F32",
"Z%	c #191513",
"`%	c #181616",
" &	c #1D1C1C",
".&	c #191817",
"+&	c #191413",
"@&	c #19100F",
"#&	c #150F0E",
"$&	c #160E0E",
"%&	c #171211",
"&&	c #150E0D",
"*&	c #251D20",
"=&	c #312521",
"-&	c #1D1816",
";&	c #1E1918",
">&	c #291D1A",
",&	c #33221F",
"'&	c #2F2627",
")&	c #302423",
"!&	c #3F312E",
"~&	c #403432",
"{&	c #423634",
"]&	c #3C3539",
"  . + @ @ # + # # # # + # # # . # $ + % . @ @ & .   * = * - &   & & & & & & & & & - & ; & & > ; , , ",
"' - )   ,   ! ! . . . # # . % . . $ $ . . # ~ { @ @ & @ ] &   &   # # & &   & # ^ - ' - ^ & ; > ' ' ",
"- ) ) ) )   ! ! % % % / / / % % %       . . ( _   @ . = :   ) < & & & & & & & &     / & &   ! ; - & ",
"            % [ / } | 1 2 3 4 5 6 7 8 9   . - 0 & . . a ~   > ] @ # @ @ @ @ @ @ . . . . .   /     . ",
"/         /     % b b c d e f g h i j k -   / / . / ( l m n > > * * * ~ ~ ~ > ~ . .     /           ",
"+ . + / +   .   . / % o p q r s t u v w x x y z A B C = > ) / +       &   . . .   &   ; ! ;   ;     ",
"@ + + @ @ + . . 1 / / 1 D E F G H I J K L M N O P Q R S T U 6 ) - - & - - - ) ) -             / . / ",
"+ + @ + + . / / % / % % V W X Y Z Z `  ...+.@.#.$.%.&.*.=.-.;.>.6   &   &   )   . . / . + + + + @ @ ",
"  ,.  ,./ ^ @ '.! ! !   ).!.~.{.].^.H /.(._.:.<.[.}.|.1.2.3.4.5.6.7.@ . .   / / + . . . . / . / + ,.",
"@ $ / + . / $ / . + . . 8.9.0.a.b.c.d.e.f.g.h.i.j.k.l.m.n.o.p.q.r.s..   & & > ; t.b u.b t.t./ u.; ; ",
"@ +   ,.+ . $ + + v.v.+ v.w.x.y.z.A.B.C.D.E.F.G.H.I.J.K.L.M.N.O.L.P.Q.> ~ )   . !   1 / . . . . ,.@ ",
"R.= = S.= = S.a T.T.U.V.U.V.U.W.X.Y.B. .C.Z.`. +.+++@+#+$+%+&+*+=+-+;+>++ @ @ ,+,+,+'+'+= '+= '+)+)+",
"= = !+S.)+)+= a '+'+~+'+'+V.{+]+^+/+(+_+/+:+<+[+}+|+1+2+3+4+5+t &.6+7+8+T.T.S.T.V.= '+V.V.'+= V.9+S.",
"  + = . 0+& ; - b b   u.  a+b+c+d+g.e+f+g+h+i+j+k+l+m+n+o+p+q+r+s+t+u+v+  !   ! + + v.. w+. / . x+y+",
"y+@ z+^ A+^ ^ ^ t.u.t.t.B+U C+D+E+F+G+g H+I+J+K+L+M+N+O+P+Q+R+S+T+U+V+W+! - }   X+Y+Z+X+Y+X+Y+Y+] x+",
"@ @ = 0+{ / +   u.u.b b `+ @.@E++@@@#@$@%@&@*@=@-@;@>@,@'@)@!@~@{@]@^@/@(@_@( :@<@<@X+<@[@[@[@' }@x+",
"@ )+,+- % + _@} <@| Z+| |@1@2@3@4@5@6@7@8@9@*@*@0@a@b@c@d@*@*@*@e@f@g@h@_@_@_@_@_@_@i@i@i@& % # @ $ ",
"& @ ,+&   # - [ % # % j@k@l@m@n@o@p@q@r@s@=@*@*@*@*@t@u@=@*@*@9@v@w@x@y@[ [ [ [ _@_@_@i@i@_@_@i@: [@",
"  @ a @ . @ / $ # # % o z@A@E+B@C@D@E@F@K+u@u@u@u@=@*@*@*@*@*@G@H@I@J@K@[ [ [ [ [ & i@i@% Z+, ,   / ",
"# @ ,+  : & _@[@| % | L@M@N@O@P@Q@R@$@S@9@T@U@V@W@X@Y@*@*@*@Z@`@ #.#+#@#_@_@_@_@_@_@i@i@Z+& i@9 . + ",
"@ @ )+* ##[@Y+<@| | b b $#e %#&#*#=#-#;#>#,#'#)#!#~#{#*@=@]#^#/#(#_#:#<#[#( :@( < _@( _@_@' (@_@> / ",
"@ )+z+& }#. +   b b / % , |#1#2#3#4#5#6#7#8#9#0#a#b#4#c#9@d#e#f#g#h#i#j#_@_@(@Y+Z+& '.> 9 - (@: u.+ ",
"y+,.,+; k#l#+ 1 1 1 b b b b m#j W n#o#p#q#r#s#t#u#v#w#b@x#y#z#A#B#=+C#D#Y+'.> > E#~ : : Y+(@Y+F#! . ",
"  @ S.  k#1 / 1 <@B+<@b l#l#G#H#I#J#K#L#M#N#O#P#Q#R#S#T#9@U#V#W#X#Y#Z#} - '.'.'.> & / )   + / ) y++ ",
"S.z+= )+,+l l @ ,+`#l l l '+,+ $.$+$@$#$$$%$&$*$=$-$;$K+u@>$,$'$)$!$~$= a = = S.S.= T.= T.= a = = = ",
"@ @ $ l l @ @ @ . / . . . . / + l {$]$^$/$($_$/#M#:$<$=@[$9@}$|$1$2$+ / + .   +   + + + + @ ,.@ @ @ ",
"~ ~ & ) ) u.u.^ '.- '.> b '.[@- 3$[@<@X+4$5$6$7$8$9$0$a$b$&@c$).d$Y+( ( F#e$f$F#m f$F#f$f$: ( (@~ : ",
"& ^ ; ; '.n Y+: [@n > Y+X+Y+X+(@3$3$} g$h$i$j$k$l$m$n$o$p$q$r$s$  !   ! ) ) ) /   ! ! ! - '.- 9 n > ",
"Z+9 Z+_@_@( [#[#<@_@<@_@(@- - - , % t$s.u$v$w$|$x$y$@$z$;.A$B$C$) ! } ! , , !   + # % .   ! 9 9 _@' ",
"D$}#E$}#D$}#}#:@_@_@(@- !   % # % F$G$H$I$J$K$L$M$N$O$P$Q$A$R$S$T$U$(@' ' 9 9 - } ! } - (@' _@_@:@( ",
"Z+_@i@3$, i@i@, V$, & , ! % , % W$X$Y$Z$`$ %D@.%+%@%#%$%%%&%*%=%-%;%o % % . # #   % % % , , , ! Z+i@",
"Z+9 ! % % ! , , ! , ' _@0 _@( >%,%'%)%!%D@h#~%{%#%]%^%/%(%_%:%<%[%6$}%' ' & - ' &   ) ' 9 ' _@_@Z+Z+",
"!   , (@' ! ! 9 , - u.> > > ^ @#|%1%2%2%$%3%~%4%5%6%7%8%9%0%a%b%c%d%5 . +   ) (@- - '.- '.- - } 3$i@",
"_@' - (@(@- 9 '   ) ) ) u.u.u.e%f%6$g%h%h#i%j%k%l%m%n%o%p%q%r%s%t%/ } | Y+: Y+n : : e$: ( ( Y+<@_@<@",
". @ @ $ @ @ . @ . +   / +   . . u%v%w%J@x%y%z%A%B%C%D%E%F%G%H%I%J%l#v.$ $ @ @ $ + + + + . + / . . + ",
".     #   ) - ! Y+Y+Y+: e$: : ^ %   K%L%M%x%N%O%P%Q%R%D@_$S%v.v.f$3$+ + / > n : ) ! ) ! ) ! ! ) ! / ",
"  - (@> ; > (@>   , - - ; - ) ) - T%U%i%V%h#1$R$W%x W%h#X%v.1 1 . . %   ~ ~ ' , ~ _@_@9 - ' > > Y%Y%",
")+,+,+@ l ~+,+,+'+'+'+,+,+'+'+'+ $Z%`% &.&+&@&#&$&T.%&3#&&= ~+'+l l $ $ ,+,+U.U.l ,+,+,+'+,+,+l $ *&",
"@ = a l @ l ,+$ @ @ # @ # # # # =&-&;&>&,&    / /   '&)&+ w+/ / # $ $ l @ #   ! ,+,+'+'+,+,+l $ $ $ ",
") l ,+  ( (@9 <@0 0 :@:@}#D$E$D$!&~&{&E$D$:@}#}#( f$##f$}#}#<@<@<@_@_@<@0 (@- ! , ! % ! , 9 ' (@(@(@",
"+ $ = v.v.% k#% ! % ! 3$i@Z+Z+Z+& & & & _@_@[@- 3$3$| b 1 % i@i@. % % , , , ,   , % , %     & , }#:@",
"<@+ l . / / }#/ 9 _@[@_@_@_@:@[#_@E#_@( ( ( _@Z+Z+<@l#Z+<@Z+Z+Z+& ' ' & & ' ' _@_@> 0 ' > _@E#E#_@_@",
"}#/ l 1 <@t.<@1 _@_@_@[#_@_@_@_@E#_@E#E#_@_@' V$Z+Z+i@i@Z+Z+_@_@9 & 9 Z+' _@_@& ' Z+_@_@_@_@_@Z+}#_@",
"t.v.'++ <@<@1 <@' _@Z+_@_@_@Z+Z+_@_@_@_@_@_@9 V$3$3$} | i@| i@i@9 i@V$Z+& _@> _@V$9 & _@' _@' & ' 9 ",
"/ *&'+l B+}#<@<@_@<@_@_@_@_@i@_@_@_@Z+_@_@_@_@_@_@_@_@_@_@_@_@_@_@:@_@_@E#0 0 _@_@_@_@( _@0 _@0     ",
"/ `#l l / <@B+Z+Z+Z+Z+Z+i@Z+i@i@, V$! % Z+i@_@_@_@_@_@E$_@_@_@_@_@_@0 _@, & , , , , & , , , , , ) ) ",
"B+= *&v.+ <@Z+Z+Z+Z+Z+Z+i@i@i@i@, ! [ . i@i@Z+_@_@_@i@i@_@i@_@Z+Z+& V$, , [ [ [ [ [ # # # # # # 0+0+",
"}#9+`#/ v.% b <@<@<@_@_@_@_@_@i@'   % % , , Z+_@i@i@_@_@_@_@_@[#_@_@_@_@* * * _@E#> _@_@& ' > > ] ]&",
"*&*&*&w+1 t.b b 3$Z+3$Z+<@<@<@<@l#} , - - - ) ) - ; ; > > > '.> * ~ > > ; > > ^ ~ ~ ~ : : ~ > ; ! y+",
"z+R.~+*&v./ + . + + + # . / / / / . . . . + . + + + + + + + w++ l @ l ,+,+l l l l @ l l @ l l ,+l )+"};
