/* XPM */
static char * 11_xpm[] = {
"50 50 655 2",
"  	c #352925",
". 	c #322624",
"+ 	c #2D2322",
"@ 	c #2C211E",
"# 	c #32241E",
"$ 	c #291E1C",
"% 	c #3A2622",
"& 	c #3A3027",
"* 	c #3F342E",
"= 	c #1D1312",
"- 	c #392E2A",
"; 	c #38302E",
"> 	c #3D322C",
", 	c #3A2B25",
"' 	c #3B302A",
") 	c #392D29",
"! 	c #362B29",
"~ 	c #3E332D",
"{ 	c #4C413D",
"] 	c #48403E",
"^ 	c #383232",
"/ 	c #312728",
"( 	c #413632",
"_ 	c #524743",
": 	c #3F3430",
"< 	c #463B35",
"[ 	c #39261F",
"} 	c #3A2C2B",
"| 	c #3D2D2D",
"1 	c #382C2E",
"2 	c #402D26",
"3 	c #382521",
"4 	c #3A2B2B",
"5 	c #2F2526",
"6 	c #332724",
"7 	c #332824",
"8 	c #382D29",
"9 	c #3B2D2C",
"0 	c #40322F",
"a 	c #1A110F",
"b 	c #3A2C2C",
"c 	c #34292B",
"d 	c #251E1E",
"e 	c #211B1B",
"f 	c #1F1C1A",
"g 	c #1F1E1C",
"h 	c #1E1C19",
"i 	c #1F1A19",
"j 	c #221C1B",
"k 	c #2C2322",
"l 	c #251B1A",
"m 	c #433A3A",
"n 	c #3A3132",
"o 	c #372420",
"p 	c #261C1A",
"q 	c #181615",
"r 	c #24534B",
"s 	c #339887",
"t 	c #369F8D",
"u 	c #308778",
"v 	c #1C2825",
"w 	c #1C1615",
"x 	c #2B2220",
"y 	c #2C2221",
"z 	c #2F2521",
"A 	c #312524",
"B 	c #2D2220",
"C 	c #312622",
"D 	c #3C322E",
"E 	c #221817",
"F 	c #20413B",
"G 	c #36B39E",
"H 	c #43E0C5",
"I 	c #42D7BE",
"J 	c #26564D",
"K 	c #203B36",
"L 	c #21413A",
"M 	c #213F39",
"N 	c #203B35",
"O 	c #1D332E",
"P 	c #1D2A26",
"Q 	c #1D211E",
"R 	c #201C1A",
"S 	c #161010",
"T 	c #2B211F",
"U 	c #281F1E",
"V 	c #2D2425",
"W 	c #1C201E",
"X 	c #286C60",
"Y 	c #3BC5AE",
"Z 	c #44E3C8",
"` 	c #45E6CB",
" .	c #42DBC1",
"..	c #43DAC1",
"+.	c #4BDAC2",
"@.	c #58D9C3",
"#.	c #5BD3BE",
"$.	c #53C7B3",
"%.	c #3FB39F",
"&.	c #339584",
"*.	c #2D6F63",
"=.	c #274A43",
"-.	c #1D2623",
";.	c #1D1919",
">.	c #302722",
",.	c #272121",
"'.	c #382E2D",
").	c #271F20",
"!.	c #1B2623",
"~.	c #2C8375",
"{.	c #3AC1AB",
"].	c #43DFC5",
"^.	c #45E8CC",
"/.	c #44E3C9",
"(.	c #43DDC3",
"_.	c #4AE6CC",
":.	c #71EED9",
"<.	c #96F3E3",
"[.	c #6AF1DA",
"}.	c #3AB6A1",
"|.	c #2D665B",
"1.	c #54C4B1",
"2.	c #6BC4B5",
"3.	c #437F74",
"4.	c #1E332E",
"5.	c #1C1616",
"6.	c #291F1C",
"7.	c #2F2627",
"8.	c #281C19",
"9.	c #1C2522",
"0.	c #286A5E",
"a.	c #35AE9A",
"b.	c #3BC6AF",
"c.	c #41DAC0",
"d.	c #45E4CA",
"e.	c #42DBC2",
"f.	c #3CC7AF",
"g.	c #3AC0AA",
"h.	c #53D9C3",
"i.	c #6EECD6",
"j.	c #6AE9D4",
"k.	c #326D62",
"l.	c #150F0E",
"m.	c #3F786E",
"n.	c #7EF1DD",
"o.	c #45C6B1",
"p.	c #244F47",
"q.	c #211B19",
"r.	c #3A2E30",
"s.	c #382C2C",
"t.	c #291F21",
"u.	c #281F20",
"v.	c #281F1D",
"w.	c #1B1A18",
"x.	c #235048",
"y.	c #32A18E",
"z.	c #45E5CA",
"A.	c #3CC9B2",
"B.	c #35B29D",
"C.	c #3DD1B8",
"D.	c #42C8B1",
"E.	c #213430",
"F.	c #26433D",
"G.	c #203833",
"H.	c #42CDB5",
"I.	c #53EAD1",
"J.	c #51E3CA",
"K.	c #2C7265",
"L.	c #221D1B",
"M.	c #3B312B",
"N.	c #171115",
"O.	c #150C0C",
"P.	c #1A0E0D",
"Q.	c #20120F",
"R.	c #180F13",
"S.	c #1B1312",
"T.	c #181514",
"U.	c #286D61",
"V.	c #35B19C",
"W.	c #41D7BE",
"X.	c #42DDC3",
"Y.	c #40D4BB",
"Z.	c #36B29D",
"`.	c #36B49F",
" +	c #36A996",
".+	c #1C2C28",
"++	c #478E82",
"@+	c #2A3633",
"#+	c #2A6D61",
"$+	c #44E4C9",
"%+	c #36A28F",
"&+	c #1A1D1B",
"*+	c #1C1614",
"=+	c #29201D",
"-+	c #30231D",
";+	c #241915",
">+	c #211614",
",+	c #1E181A",
"'+	c #110907",
")+	c #1C1619",
"!+	c #1A1312",
"~+	c #191918",
"{+	c #2A7467",
"]+	c #3DCDB5",
"^+	c #34A491",
"/+	c #297165",
"(+	c #23554C",
"_+	c #23564C",
":+	c #297366",
"<+	c #255B51",
"[+	c #1B2C28",
"}+	c #4EAB9B",
"|+	c #32413D",
"1+	c #1F3D37",
"2+	c #3CC1AB",
"3+	c #3BB9A3",
"4+	c #318B7B",
"5+	c #2C7568",
"6+	c #1E302C",
"7+	c #191211",
"8+	c #160E12",
"9+	c #3C3636",
"0+	c #382B2A",
"a+	c #231C1C",
"b+	c #38B9A3",
"c+	c #3CC7B0",
"d+	c #2B7B6D",
"e+	c #1C2E2A",
"f+	c #212222",
"g+	c #2B2E30",
"h+	c #2C3032",
"i+	c #212323",
"j+	c #191B1A",
"k+	c #2C7E70",
"l+	c #4EE3CA",
"m+	c #427C72",
"n+	c #1B2320",
"o+	c #1F342F",
"p+	c #1F3530",
"q+	c #28655A",
"r+	c #3FCBB3",
"s+	c #2B7164",
"t+	c #231A19",
"u+	c #2D2629",
"v+	c #383435",
"w+	c #2F292D",
"x+	c #171518",
"y+	c #4B4140",
"z+	c #2A2120",
"A+	c #1C2D29",
"B+	c #2D8576",
"C+	c #34AD99",
"D+	c #38BCA6",
"E+	c #2B7A6D",
"F+	c #1B2220",
"G+	c #32373B",
"H+	c #4D5D64",
"I+	c #5D727B",
"J+	c #6A818C",
"K+	c #53636A",
"L+	c #1C2220",
"M+	c #2D8676",
"N+	c #3FCFB6",
"O+	c #348A7B",
"P+	c #202020",
"Q+	c #5B6367",
"R+	c #747A7F",
"S+	c #393738",
"T+	c #25554C",
"U+	c #265950",
"V+	c #271E1C",
"W+	c #3B2F31",
"X+	c #3D3230",
"Y+	c #412E2A",
"Z+	c #382B2B",
"`+	c #1F1B1A",
" @	c #27675C",
".@	c #34AE9A",
"+@	c #2E8D7C",
"@@	c #1C2724",
"#@	c #343B3E",
"$@	c #53656D",
"%@	c #60767F",
"&@	c #6F8792",
"*@	c #718A95",
"=@	c #6C848E",
"-@	c #394145",
";@	c #1C2422",
">@	c #1D342F",
",@	c #1E2725",
"'@	c #414C50",
")@	c #728A95",
"!@	c #889EA8",
"~@	c #889196",
"{@	c #242625",
"]@	c #191E1C",
"^@	c #302525",
"/@	c #3E302F",
"(@	c #43322D",
"_@	c #433532",
":@	c #413131",
"<@	c #3D2F2F",
"[@	c #4E4546",
"}@	c #3E2C28",
"|@	c #231C1B",
"1@	c #1E3530",
"2@	c #319B89",
"3@	c #34AA96",
"4@	c #214A42",
"5@	c #282A2C",
"6@	c #4D5E65",
"7@	c #596E76",
"8@	c #6D8690",
"9@	c #708994",
"0@	c #708A95",
"a@	c #6B828D",
"b@	c #55656D",
"c@	c #4B575D",
"d@	c #586971",
"e@	c #6D858F",
"f@	c #6F8994",
"g@	c #90A2AB",
"h@	c #4C4E4F",
"i@	c #1A1615",
"j@	c #3C2D29",
"k@	c #412D26",
"l@	c #392622",
"m@	c #2B1E1B",
"n@	c #1B221F",
"o@	c #24594F",
"p@	c #32A390",
"q@	c #2F9382",
"r@	c #1C2623",
"s@	c #3C464B",
"t@	c #3F4B50",
"u@	c #60757E",
"v@	c #718B96",
"w@	c #6F8893",
"x@	c #8399A3",
"y@	c #6F7579",
"z@	c #1F1816",
"A@	c #37251E",
"B@	c #1D1917",
"C@	c #35AF9B",
"D@	c #2A7A6C",
"E@	c #1C1D1D",
"F@	c #6B838D",
"G@	c #718A96",
"H@	c #7A929D",
"I@	c #7F898E",
"J@	c #211D1C",
"K@	c #372923",
"L@	c #3B2C2C",
"M@	c #241C1C",
"N@	c #214841",
"O@	c #309886",
"P@	c #276B5F",
"Q@	c #222324",
"R@	c #3B4549",
"S@	c #54666E",
"T@	c #637882",
"U@	c #54646C",
"V@	c #5B6D76",
"W@	c #667C86",
"X@	c #728993",
"Y@	c #848F95",
"Z@	c #262221",
"`@	c #362C27",
" #	c #453939",
".#	c #342828",
"+#	c #221B1A",
"@#	c #24584F",
"##	c #20463F",
"$#	c #262829",
"%#	c #49585E",
"&#	c #60747D",
"*#	c #282B2D",
"=#	c #181D1B",
"-#	c #1A231F",
";#	c #1D2220",
">#	c #242727",
",#	c #4C595F",
"'#	c #657A84",
")#	c #3D464A",
"!#	c #2C2F32",
"~#	c #2E3234",
"{#	c #525759",
"]#	c #242221",
"^#	c #3D2E29",
"/#	c #423431",
"(#	c #443635",
"_#	c #372A29",
":#	c #2E1F1C",
"<#	c #211A19",
"[#	c #171514",
"}#	c #4E5F66",
"|#	c #5B7079",
"1#	c #3B4347",
"2#	c #141E1A",
"3#	c #174E3E",
"4#	c #21705A",
"5#	c #267962",
"6#	c #1E4D3F",
"7#	c #232626",
"8#	c #647982",
"9#	c #414B50",
"0#	c #161F1B",
"a#	c #1C493C",
"b#	c #1C3E33",
"c#	c #1A1918",
"d#	c #3D322F",
"e#	c #453F41",
"f#	c #3B2D2D",
"g#	c #231D1C",
"h#	c #1B2925",
"i#	c #1D201F",
"j#	c #47555B",
"k#	c #54676F",
"l#	c #14342A",
"m#	c #207A61",
"n#	c #31AB8A",
"o#	c #3AC59F",
"p#	c #30997C",
"q#	c #576870",
"r#	c #708893",
"s#	c #323639",
"t#	c #1B4236",
"u#	c #30A787",
"v#	c #2F9579",
"w#	c #191F1C",
"x#	c #211C1B",
"y#	c #3B302E",
"z#	c #403531",
"A#	c #443937",
"B#	c #392D2F",
"C#	c #261E1E",
"D#	c #1A211F",
"E#	c #181918",
"F#	c #363F42",
"G#	c #52656D",
"H#	c #292C2E",
"I#	c #17362C",
"J#	c #268E71",
"K#	c #3AC9A1",
"L#	c #45EABD",
"M#	c #37AC8C",
"N#	c #1E2523",
"O#	c #5B6D75",
"P#	c #363C3F",
"Q#	c #1C4236",
"R#	c #35BA95",
"S#	c #329B7E",
"T#	c #191D1A",
"U#	c #241E1C",
"V#	c #201718",
"W#	c #231915",
"X#	c #201817",
"Y#	c #1B1614",
"Z#	c #1D1D1D",
"`#	c #333A3D",
" $	c #2B2F31",
".$	c #181D1A",
"+$	c #1D5343",
"@$	c #2A856B",
"#$	c #2F9478",
"$$	c #214A3E",
"%$	c #6A818B",
"&$	c #505F65",
"*$	c #1B211E",
"=$	c #1E473A",
"-$	c #1C342C",
";$	c #181515",
">$	c #191312",
",$	c #281E1C",
"'$	c #231B19",
")$	c #1E1917",
"!$	c #1B1817",
"~$	c #181716",
"{$	c #1E2220",
"]$	c #212524",
"^$	c #282B2C",
"/$	c #586A72",
"($	c #6D8590",
"_$	c #3E484C",
":$	c #181414",
"<$	c #191414",
"[$	c #211B1A",
"}$	c #3B2D2B",
"|$	c #3A2D2C",
"1$	c #292322",
"2$	c #1A1817",
"3$	c #404B50",
"4$	c #596C74",
"5$	c #52646B",
"6$	c #647A84",
"7$	c #617680",
"8$	c #6A828C",
"9$	c #465258",
"0$	c #1E1A19",
"a$	c #332A28",
"b$	c #3C312F",
"c$	c #3F3534",
"d$	c #423735",
"e$	c #2C221F",
"f$	c #2C3234",
"g$	c #3A4448",
"h$	c #2F3537",
"i$	c #4D5C63",
"j$	c #2E3336",
"k$	c #343C3F",
"l$	c #292527",
"m$	c #271E1D",
"n$	c #1C2321",
"o$	c #2D7669",
"p$	c #255149",
"q$	c #1E1D1D",
"r$	c #232223",
"s$	c #1F2020",
"t$	c #1E1E1E",
"u$	c #191616",
"v$	c #342E31",
"w$	c #453836",
"x$	c #483A37",
"y$	c #352A28",
"z$	c #2D221E",
"A$	c #329080",
"B$	c #43DCC2",
"C$	c #25524A",
"D$	c #232123",
"E$	c #3C4045",
"F$	c #4D525A",
"G$	c #343639",
"H$	c #221F1E",
"I$	c #22201E",
"J$	c #171615",
"K$	c #252123",
"L$	c #322A27",
"M$	c #3B302B",
"N$	c #3C2F29",
"O$	c #281D19",
"P$	c #1C1A1A",
"Q$	c #1C1D1C",
"R$	c #29685C",
"S$	c #2F8173",
"T$	c #1C1F1E",
"U$	c #393C41",
"V$	c #4B5158",
"W$	c #555B64",
"X$	c #4C5158",
"Y$	c #212020",
"Z$	c #3B3733",
"`$	c #272422",
" %	c #1E1D1C",
".%	c #222122",
"+%	c #201B1A",
"@%	c #362420",
"#%	c #302624",
"$%	c #464A51",
"%%	c #45494F",
"&%	c #181A18",
"*%	c #2A2A2C",
"=%	c #494D54",
"-%	c #29292B",
";%	c #232324",
">%	c #3F3B38",
",%	c #2D2A28",
"'%	c #2F2C29",
")%	c #363332",
"!%	c #2B2C2E",
"~%	c #2F2722",
"{%	c #37393D",
"]%	c #464A50",
"^%	c #43464C",
"/%	c #272628",
"(%	c #1B1A19",
"_%	c #2E3033",
":%	c #1E1C1D",
"<%	c #232122",
"[%	c #212121",
"}%	c #181C1A",
"|%	c #252527",
"1%	c #3B3735",
"2%	c #302D2B",
"3%	c #232221",
"4%	c #242120",
"5%	c #1A1616",
"6%	c #231D1D",
"7%	c #362B2A",
"8%	c #211C1A",
"9%	c #1F1E1E",
"0%	c #1C1A19",
"a%	c #191716",
"b%	c #212021",
"c%	c #27443F",
"d%	c #233935",
"e%	c #2A5E55",
"f%	c #26544B",
"g%	c #272527",
"h%	c #252424",
"i%	c #1E1B1B",
"j%	c #1A1818",
"k%	c #252021",
"l%	c #2C2320",
"m%	c #28211E",
"n%	c #241E1B",
"o%	c #201A17",
"p%	c #1D1C1C",
"q%	c #232E2C",
"r%	c #458881",
"s%	c #44958B",
"t%	c #34746A",
"u%	c #1F322E",
"v%	c #252425",
"w%	c #231B1D",
"x%	c #2B252A",
"y%	c #221B1C",
"z%	c #423433",
"A%	c #362B28",
"B%	c #231C19",
"C%	c #1B1919",
"D%	c #26302F",
"E%	c #273634",
"F%	c #273B38",
"G%	c #1C1C1B",
"H%	c #1A1717",
"I%	c #231C1E",
"J%	c #2A221E",
"K%	c #242425",
"L%	c #1A1716",
"M%	c #171413",
"N%	c #1B1716",
"O%	c #271F1E",
"P%	c #1F1A1A",
"Q%	c #1D1817",
"R%	c #392F32",
"S%	c #191412",
"T%	c #1E1D1E",
"U%	c #191513",
"V%	c #19100F",
"W%	c #16100F",
"X%	c #160F0F",
"Y%	c #161111",
"Z%	c #171414",
"`%	c #160F0E",
" &	c #251D20",
".&	c #342722",
"+&	c #1C1816",
"@&	c #241B19",
"#&	c #30201D",
"$&	c #342824",
"%&	c #2F2422",
"&&	c #3E312E",
"*&	c #3F3332",
"=&	c #463936",
"-&	c #3C3539",
"  . + @ @ # + # # # # + # # # . # $ + % . @ @ & .   * = * - &   & & & & & & & & & - & ; & & > ; , , ",
"' - )   ,   ! ! . . . # # . % . . $ $ . . # ~ { @ @ & @ ] &   &   # # & &   & # ^ - ' - ^ & ; > ' ' ",
"- ) ) ) )   ! ! % % % / / / % % %       . . ( _   @ . = :   ) < & & & & & & & &     / & &   ! ; - & ",
"            % [ / } | 1 2 3 4 5 6 7 8 9   . - 0 & . . a ~   > ] @ # @ @ @ @ @ @ . . . . .   /     . ",
"/         /     % b b c d e f g h i j k -   / / . / ( l m n > > * * * ~ ~ ~ > ~ . .     /           ",
"+ . + / +   .   . / % o p q r s t u v w x y z A B C D = > ) / +       &   . . .   &   ; ! ;   ;     ",
"@ + + @ @ + . . 1 / / 1 5 E F G H I J K L M N O P Q R S T U 7 ) - - & - - - ) ) -             / . / ",
"+ + @ + + . / / % / % % V W X Y Z `  .I ..+.@.#.$.%.&.*.=.-.;.>.7   &   &   )   . . / . + + + + @ @ ",
"  ,.  ,./ ^ @ '.! ! !   ).!.~.{.].` ^./. .(._.:.<.[.}.|.1.2.3.4.5.6.@ . .   / / + . . . . / . / + ,.",
"@ $ / + . / $ / . + . . 7.8.9.0.a.b.c.d.e.f.g.h.i.j.k.l.m.n.:.o.p.q.A   & & > ; r.b s.b r.r./ s.; ; ",
"@ +   ,.+ . $ + + t.t.+ t.u.v.w.x.y.G c.^.z.A.B.C.D.E.F.G.H.I.J.K.L.M.> ~ )   . !   1 / . . . . ,.@ ",
"N.= = O.= = O.a P.P.Q.R.Q.R.Q.S.T.U.V.W.Z X.Y.Z.`. +.+++@+#+$+%+&+*+=+-++ @ @ ;+;+;+>+>+= >+= >+,+,+",
"= = '+O.,+,+= a >+>+)+>+>+R.>+!+~+{+A.]+^+/+(+_+:+<+[+}+|+1+2+3+4+5+6+7+P.P.O.P.R.= >+R.R.>+= R.8+O.",
"  + = . 9+& ; - b b   s.  0+a+!.U.b+c+d+e+f+g+h+i+j+k+l+m+n+o+p+q+r+s+t+  !   ! + + t.. u+. / . v+w+",
"w+@ x+^ y+^ ^ ^ r.s.r.r.r.z+A+B+C+D+E+F+G+H+I+J+K+L+M+N+O+P+Q+R+S+T+U+V+! - }   W+X+Y+W+X+W+X+X+] v+",
"@ @ = 9+{ / +   s.s.b b Z+`+ @.@.@+@@@#@$@%@&@*@=@-@;@>@,@'@)@!@~@{@]@^@/@(@( _@:@:@W+:@<@<@<@' [@v+",
"@ ,+;+- % + (@} :@| Y+| }@|@1@2@3@4@5@6@7@8@9@9@0@a@b@c@d@e@9@f@g@h@i@j@(@(@(@(@(@(@k@k@k@& % # @ $ ",
"& @ ;+&   # - [ % # % l@m@n@o@p@q@r@s@t@u@*@9@9@9@9@v@v@v@9@9@w@x@y@z@A@[ [ [ [ (@(@(@k@k@(@(@k@: <@",
"  @ a @ . @ / $ # # % o B@X C+C@D@E@h+H+F@G@v@v@v@*@9@9@9@9@9@9@H@I@J@K@[ [ [ [ [ & k@k@% Y+, ,   / ",
"# @ ;+  : & (@<@| % | L@M@N@O@C@P@Q@R@S@w@T@K+U@V@W@w@9@9@*@9@=@X@Y@Z@`@(@(@(@(@(@(@k@k@Y+& k@9 . + ",
"@ @ ,+*  #<@X+:@| | b b .#+#A+@###$#%#S@&#*#=#-#;#>#,#9@*@'#)#!#~#{#]#^#/#( _@( < (@( (@(@' /@(@> / ",
"@ ,+x+& (#. +   b b / % , _#:#<#[#i+}#|#1#2#3#4#5#6#7#8#v@9#0#a#b#c#`+d#(@(@/@X+Y+& '.> 9 - /@: s.+ ",
"w+,.;+; e#f#+ 1 1 1 b b b b b g#h#i#j#k#5@l#m#n#o#p#9.q#r#s#t#u#v#w#x#y#X+'.> > z#~ : : X+/@X+A#! . ",
"  @ O.  e#1 / 1 :@B#:@b f#f#b C#D#E#F#G#H#I#J#K#L#M#N#O#9@P#Q#R#S#T#U#} - '.'.'.> & / )   + / ) w++ ",
"O.x+= ,+;+l l @ ;+V#l l l >+;+W#X#Y#Z#`# $.$+$@$#$$$~#%$v@&$*$=$-$;$>$= a = = O.O.= P.= P.= a = = = ",
"@ @ $ l l @ @ @ . / . . . . / + l ,$'$)$!$;$~${$]$^$/$*@9@($_$:$<$[$y / + .   +   + + + + @ ,.@ @ @ ",
"~ ~ & ) ) s.s.^ '.- '.> b '.<@- }$<@:@r.|$1$2$3$4$5$6$w@7$8$9$0$a$b$( ( A#c$d$A#m d$A#d$d$: ( /@~ : ",
"& ^ ; ; '.n X+: <@n > X+W+X+W+/@}$}$}   e$)$[#f$g$h$i$5$j$k$^$l$  !   ! ) ) ) /   ! ! ! - '.- 9 n > ",
"Y+9 Y+(@(@( /#/#:@(@:@(@/@- - - , % l@m$n$o$p$:$q$r$s$t$2$f u$v$) ! } ! , , !   + # % .   ! 9 9 (@' ",
"w$(#x$(#w$(#(#_@(@(@/@- !   % # % y$z$&+A$B$C$D$E$F$G$H$I$H$J$K$L$M$/@' ' 9 9 - } ! } - /@' (@(@_@( ",
"Y+(@k@}$, k@k@, N$, & , ! % , % A@O$P$Q$R$S$T$U$V$W$X$Y$Z$`$2$ %.%+%@%% % . # #   % % % , , , ! Y+k@",
"Y+9 ! % % ! , , ! , ' (@0 (@( ( #%r$$%%%P+&%*%E$X$=%-%;%>%,%'%)%!%2$~%' ' & - ' &   ) ' 9 ' (@(@Y+Y+",
"!   , /@' ! ! 9 , - s.> > > ^ M$j {%]%^%/%(%_%:%<%[%}%|%1%2%3%4%5%6%V . +   ) /@- - '.- '.- - } }$k@",
"(@' - /@/@- 9 '   ) ) ) s.s.s.7%8%9%0%2$a%b%9%c%d%e%f%g%h%i%(%j%k%/ } | X+: X+n : : c$: ( ( X+:@(@:@",
". @ @ $ @ @ . @ . +   / +   . . l%m%n%o%2$p%q%r%s%t%u%v%q$w%x%y%z%f#t.$ $ @ @ $ + + + + . + / . . + ",
".     #   ) - ! X+X+X+: c$: : ^ %   A%B%9%C%D%E%F%G%T.q$H%I%t.t.d$}$+ + / > n : ) ! ) ! ) ! ! ) ! / ",
"  - /@> ; > /@>   , - - ; - ) ) - } J%9%K%q L%M%N%O%P%q Q%t.1 1 . . %   ~ ~ ' , ~ (@(@9 - ' > > R%R%",
",+;+;+@ l )+;+;+>+>+>+;+;+>+>+>+;+S%q T%(%U%V%W%X%P.Y%Z%`%= )+>+l l $ $ ;+;+Q.Q.l ;+;+;+>+;+;+l $  &",
"@ = a l @ l ;+$ @ @ # @ # # # # .&+&N%@&#&$&  / /   7.%&+ u+/ / # $ $ l @ #   ! ;+;+>+>+;+;+l $ $ $ ",
") l ;+  ( /@9 :@0 0 _@_@(#w$x$w$&&X+*&=&w$_@(#(#( d$ #d$(#(#:@:@:@(@(@:@0 /@- ! , ! % ! , 9 ' /@/@/@",
"+ $ = t.t.% e#% ! % ! }$k@Y+Y+Y+& & & & (@(@<@- }$}$| b 1 % k@k@. % % , , , ,   , % , %     & , (#_@",
":@+ l . / / (#/ 9 (@<@(@(@(@_@/#(@z#(@( ( ( (@Y+Y+:@f#Y+:@Y+Y+Y+& ' ' & & ' ' (@(@> 0 ' > (@z#z#(@(@",
"(#/ l 1 :@r.:@1 (@(@(@/#(@(@(@(@z#(@z#z#(@(@' N$Y+Y+k@k@Y+Y+(@(@9 & 9 Y+' (@(@& ' Y+(@(@(@(@(@Y+(#(@",
"r.t.>++ :@:@1 :@' (@Y+(@(@(@Y+Y+(@(@(@(@(@(@9 N$}$}$} | k@| k@k@9 k@N$Y+& (@> (@N$9 & (@' (@' & ' 9 ",
"/  &>+l B#(#:@:@(@:@(@(@(@(@k@(@(@(@Y+(@(@(@(@(@(@(@(@(@(@(@(@(@(@_@(@(@z#0 0 (@(@(@(@( (@0 (@0     ",
"/ V#l l / :@B#Y+Y+Y+Y+Y+k@Y+k@k@, N$! % Y+k@(@(@(@(@(@x$(@(@(@(@(@(@0 (@, & , , , , & , , , , , ) ) ",
"B#=  &t.+ :@Y+Y+Y+Y+Y+Y+k@k@k@k@, ! [ . k@k@Y+(@(@(@k@k@(@k@(@Y+Y+& N$, , [ [ [ [ [ # # # # # # 9+9+",
"(#8+V#/ t.% b :@:@:@(@(@(@(@(@k@'   % % , , Y+(@k@k@(@(@(@(@(@/#(@(@(@(@* * * (@z#> (@(@& ' > > ] -&",
" & & &u+1 r.b b }$Y+}$Y+:@:@:@:@f#} , - - - ) ) - ; ; > > > '.> * ~ > > ; > > ^ ~ ~ ~ : : ~ > ; ! w+",
"x+N.)+ &t./ + . + + + # . / / / / . . . . + . + + + + + + + u++ l @ l ;+;+l l l l @ l l @ l l ;+l ,+"};
