/* XPM */
static char * 2_xpm[] = {
"50 50 642 2",
"  	c #352925",
". 	c #322624",
"+ 	c #2D2322",
"@ 	c #2C211E",
"# 	c #32241E",
"$ 	c #291E1C",
"% 	c #3A2622",
"& 	c #3A3027",
"* 	c #3F342E",
"= 	c #1D1312",
"- 	c #392E2A",
"; 	c #38302E",
"> 	c #3D322C",
", 	c #3A2B25",
"' 	c #3B302A",
") 	c #392D29",
"! 	c #362B29",
"~ 	c #3E332D",
"{ 	c #4C413D",
"] 	c #48403E",
"^ 	c #383232",
"/ 	c #312728",
"( 	c #413632",
"_ 	c #524743",
": 	c #3F3430",
"< 	c #463B35",
"[ 	c #39261F",
"} 	c #3A2C2B",
"| 	c #3D2D2D",
"1 	c #382C2E",
"2 	c #402C26",
"3 	c #372521",
"4 	c #392A2A",
"5 	c #2E2425",
"6 	c #312623",
"7 	c #322723",
"8 	c #372C29",
"9 	c #40322F",
"0 	c #1A110F",
"a 	c #3A2C2C",
"b 	c #2B2222",
"c 	c #1E1A19",
"d 	c #1D2220",
"e 	c #1D201E",
"f 	c #1E1D1B",
"g 	c #1F1C1A",
"h 	c #231E1C",
"i 	c #352B27",
"j 	c #251B1A",
"k 	c #433A3A",
"l 	c #3A3132",
"m 	c #32221E",
"n 	c #1E1919",
"o 	c #1C2926",
"p 	c #2F8879",
"q 	c #38AC99",
"r 	c #37A794",
"s 	c #275E54",
"t 	c #171312",
"u 	c #261D1C",
"v 	c #2C2221",
"w 	c #2F2421",
"x 	c #312524",
"y 	c #2C2220",
"z 	c #312622",
"A 	c #3C322E",
"B 	c #2F201D",
"C 	c #1A1918",
"D 	c #2C8374",
"E 	c #3DCBB3",
"F 	c #46EBCF",
"G 	c #359B89",
"H 	c #21403A",
"I 	c #22433C",
"J 	c #22423B",
"K 	c #213C36",
"L 	c #1E342F",
"M 	c #1D2A26",
"N 	c #1C211E",
"O 	c #201C1A",
"P 	c #161010",
"Q 	c #2B211E",
"R 	c #281F1E",
"S 	c #332824",
"T 	c #352A2B",
"U 	c #1F1B1A",
"V 	c #214740",
"W 	c #34A895",
"X 	c #42DCC3",
"Y 	c #45E6CB",
"Z 	c #44E3C8",
"` 	c #42DAC0",
" .	c #42DBC1",
"..	c #46DBC2",
"+.	c #52D9C3",
"@.	c #5AD4BF",
"#.	c #55C9B5",
"$.	c #44B5A1",
"%.	c #349887",
"&.	c #2D7467",
"*.	c #264D45",
"=.	c #1E2925",
"-.	c #1D1919",
";.	c #2E2521",
">.	c #272121",
",.	c #382E2D",
"'.	c #2F2526",
").	c #224E46",
"!.	c #33A491",
"~.	c #3FD2BA",
"{.	c #45E7CC",
"].	c #42DEC4",
"^.	c #42DAC1",
"/.	c #46E2C8",
"(.	c #5BEBD3",
"_.	c #8CF2E1",
":.	c #85F2E0",
"<.	c #4BE3C9",
"[.	c #2F7E70",
"}.	c #429F8F",
"|.	c #5FC5B3",
"1.	c #4D897E",
"2.	c #233D38",
"3.	c #1A1716",
"4.	c #261D1B",
"5.	c #33221F",
"6.	c #201917",
"7.	c #1F3C36",
"8.	c #2E8E7E",
"9.	c #38BBA5",
"0.	c #3ECEB6",
"a.	c #44E2C7",
"b.	c #3FD0B8",
"c.	c #39BFA8",
"d.	c #46CEB7",
"e.	c #68E8D2",
"f.	c #74EFDA",
"g.	c #50BBA9",
"h.	c #1A211F",
"i.	c #253A35",
"j.	c #71D9C7",
"k.	c #82F2DF",
"l.	c #52D3BD",
"m.	c #2B6F63",
"n.	c #1D1C1A",
"o.	c #2E2321",
"p.	c #3A2E30",
"q.	c #382C2C",
"r.	c #291F21",
"s.	c #2E2422",
"t.	c #221A19",
"u.	c #2C8172",
"v.	c #34AD99",
"w.	c #3CC7B0",
"x.	c #41D8BF",
"y.	c #36B5A0",
"z.	c #39C1AA",
"A.	c #46E2C7",
"B.	c #316E63",
"C.	c #20332E",
"D.	c #1E2A27",
"E.	c #379988",
"F.	c #54ECD2",
"G.	c #5BECD3",
"H.	c #40BDA8",
"I.	c #1C2A27",
"J.	c #332A25",
"K.	c #171115",
"L.	c #150C0C",
"M.	c #1A0E0D",
"N.	c #20120F",
"O.	c #180F13",
"P.	c #181010",
"Q.	c #1E3934",
"R.	c #32A390",
"S.	c #3BC5AE",
"T.	c #44E4C9",
"U.	c #43DFC4",
"V.	c #3AC0A9",
"W.	c #34AE99",
"X.	c #3AC1AB",
"Y.	c #245149",
"Z.	c #316057",
"`.	c #3E655D",
" +	c #21413B",
".+	c #3FCCB4",
"++	c #41D7BE",
"@+	c #244C44",
"#+	c #181313",
"$+	c #271E1C",
"%+	c #30221D",
"&+	c #241915",
"*+	c #211614",
"=+	c #1E181A",
"-+	c #110907",
";+	c #1C1619",
">+	c #1B1312",
",+	c #191412",
"'+	c #224A42",
")+	c #38B7A2",
"!+	c #3FD2B9",
"~+	c #37B5A0",
"{+	c #2C8273",
"]+	c #255E53",
"^+	c #23564C",
"/+	c #276C60",
"(+	c #2B7A6C",
"_+	c #1C2D29",
":+	c #35756A",
"<+	c #4C8077",
"[+	c #191A18",
"}+	c #36A18F",
"|+	c #41D3BB",
"1+	c #308777",
"2+	c #285E54",
"3+	c #1F3631",
"4+	c #191513",
"5+	c #160E12",
"6+	c #3C3636",
"7+	c #392C2B",
"8+	c #271F1F",
"9+	c #1B1E1C",
"0+	c #24584F",
"a+	c #319887",
"b+	c #20423B",
"c+	c #1D201F",
"d+	c #282A2B",
"e+	c #2C2F31",
"f+	c #252728",
"g+	c #191A19",
"h+	c #21453E",
"i+	c #42CBB4",
"j+	c #52B0A0",
"k+	c #202826",
"l+	c #1F4039",
"m+	c #276459",
"n+	c #3CBCA6",
"o+	c #1C1E1C",
"p+	c #2D2629",
"q+	c #383435",
"r+	c #2F292D",
"s+	c #171518",
"t+	c #4B4140",
"u+	c #312525",
"v+	c #1C211F",
"w+	c #297063",
"x+	c #33AA96",
"y+	c #37B7A2",
"z+	c #329C8A",
"A+	c #1D322D",
"B+	c #27292A",
"C+	c #46545A",
"D+	c #576B73",
"E+	c #667C86",
"F+	c #627780",
"G+	c #245C52",
"H+	c #3DCAB3",
"I+	c #40C2AC",
"J+	c #20302C",
"K+	c #3B3C3E",
"L+	c #64686C",
"M+	c #424041",
"N+	c #318A7B",
"O+	c #1E201E",
"P+	c #332826",
"Q+	c #3B2F31",
"R+	c #3D3230",
"S+	c #412E2A",
"T+	c #3B2D2D",
"U+	c #282021",
"V+	c #204039",
"W+	c #33A692",
"X+	c #32A18E",
"Y+	c #1F3E38",
"Z+	c #4D5E65",
"`+	c #5B6F78",
" @	c #6B838E",
".@	c #718A95",
"+@	c #4B585E",
"@@	c #1E2321",
"#@	c #1E3A34",
"$@	c #1E3630",
"%@	c #292E2F",
"&@	c #667A83",
"*@	c #849AA4",
"=@	c #95A2A8",
"-@	c #353737",
";@	c #1B2A26",
">@	c #241F1D",
",@	c #3C2F2E",
"'@	c #43322D",
")@	c #433532",
"!@	c #413131",
"~@	c #3D2F2F",
"{@	c #4E4546",
"]@	c #402E2A",
"^@	c #191C1A",
"/@	c #2B7B6D",
"(@	c #35B09B",
"_@	c #286D61",
":@	c #1F2020",
"<@	c #556870",
"[@	c #687F8A",
"}@	c #708A95",
"|@	c #708994",
"1@	c #6E8791",
"2@	c #586971",
"3@	c #454F54",
"4@	c #49555B",
"5@	c #637781",
"6@	c #6F8893",
"7@	c #889DA7",
"8@	c #696F72",
"9@	c #171413",
"0@	c #312522",
"a@	c #412D26",
"b@	c #1D1F1C",
"c@	c #235148",
"d@	c #309785",
"e@	c #33A793",
"f@	c #1F3D36",
"g@	c #2F3437",
"h@	c #424F54",
"i@	c #52626A",
"j@	c #718B96",
"k@	c #78909B",
"l@	c #879297",
"m@	c #232120",
"n@	c #31221C",
"o@	c #392622",
"p@	c #241A17",
"q@	c #224D45",
"r@	c #34AB97",
"s@	c #35AF9B",
"t@	c #309685",
"u@	c #1C2825",
"v@	c #252729",
"w@	c #434F55",
"x@	c #647B85",
"y@	c #728B96",
"z@	c #8E9CA3",
"A@	c #2F2E2E",
"B@	c #312520",
"C@	c #2E2222",
"D@	c #1C2B27",
"E@	c #2B7C6E",
"F@	c #33A995",
"G@	c #2E8B7B",
"H@	c #1D2322",
"I@	c #384145",
"J@	c #4A5A60",
"K@	c #6C848F",
"L@	c #69808A",
"M@	c #56676F",
"N@	c #55656D",
"O@	c #5C6E76",
"P@	c #667C85",
"Q@	c #718A96",
"R@	c #8E9FA6",
"S@	c #363637",
"T@	c #302722",
"U@	c #3B2D2C",
"V@	c #453939",
"W@	c #382B2B",
"X@	c #29201F",
"Y@	c #1B1F1D",
"Z@	c #20413B",
"`@	c #1D2020",
" #	c #465359",
".#	c #4D5D63",
"+#	c #343B3E",
"@#	c #1A211E",
"##	c #242626",
"$#	c #424D52",
"%#	c #6D8590",
"&#	c #4F5E65",
"*#	c #394044",
"=#	c #363C40",
"-#	c #5F676B",
";#	c #323232",
">#	c #372925",
",#	c #423431",
"'#	c #3E302F",
")#	c #443635",
"!#	c #271D1D",
"~#	c #181413",
"{#	c #1B1919",
"]#	c #455359",
"^#	c #596E76",
"/#	c #49565C",
"(#	c #171B18",
"_#	c #154235",
":#	c #1F6954",
"<#	c #25765F",
"[#	c #205848",
"}#	c #586A72",
"|#	c #728C98",
"1#	c #56676E",
"2#	c #19342B",
"3#	c #1A372E",
"4#	c #1D1E1C",
"5#	c #1D1B1A",
"6#	c #372E2A",
"7#	c #453F41",
"8#	c #292020",
"9#	c #1B2723",
"0#	c #1A221F",
"a#	c #3C464B",
"b#	c #566A72",
"c#	c #33393C",
"d#	c #142720",
"e#	c #1D6C56",
"f#	c #2EA081",
"g#	c #38BF9B",
"h#	c #33AB8B",
"i#	c #1C322B",
"j#	c #475358",
"k#	c #738C98",
"l#	c #434D53",
"m#	c #182B24",
"n#	c #298D71",
"o#	c #2F9C7E",
"p#	c #1B2B26",
"q#	c #1A1615",
"r#	c #372D2B",
"s#	c #403531",
"t#	c #443937",
"u#	c #392D2F",
"v#	c #2C2222",
"w#	c #181A18",
"x#	c #2B3031",
"y#	c #52656D",
"z#	c #333A3D",
"A#	c #162821",
"B#	c #227F64",
"C#	c #36BF99",
"D#	c #44E7BB",
"E#	c #3DCAA4",
"F#	c #1D322B",
"G#	c #444E54",
"H#	c #1A3029",
"I#	c #32AE8C",
"J#	c #3ABE9A",
"K#	c #1D2F29",
"L#	c #1D1817",
"M#	c #372A29",
"N#	c #201718",
"O#	c #221918",
"P#	c #1D1714",
"Q#	c #1B1918",
"R#	c #2D3335",
"S#	c #2F3538",
"T#	c #1C473A",
"U#	c #288168",
"V#	c #309C7E",
"W#	c #266653",
"X#	c #222525",
"Y#	c #61757E",
"Z#	c #728C97",
"`#	c #1D211F",
" $	c #1F5243",
".$	c #215042",
"+$	c #181917",
"@$	c #241C1A",
"#$	c #1B1818",
"$$	c #191615",
"%$	c #181615",
"&$	c #1C201E",
"*$	c #1F2523",
"=$	c #222424",
"-$	c #4B5960",
";$	c #6E8792",
">$	c #434E53",
",$	c #191616",
"'$	c #171414",
")$	c #1C1817",
"!$	c #3B2D2B",
"~$	c #3B2E2D",
"{$	c #2B2423",
"]$	c #191716",
"^$	c #374043",
"/$	c #586A73",
"($	c #51626A",
"_$	c #60767F",
":$	c #667D87",
"<$	c #6B838D",
"[$	c #55656C",
"}$	c #1C1A1A",
"|$	c #2C2523",
"1$	c #3F3534",
"2$	c #423735",
"3$	c #2D2320",
"4$	c #1F1917",
"5$	c #171514",
"6$	c #282C2D",
"7$	c #3F4A4F",
"8$	c #31373A",
"9$	c #4B5A61",
"0$	c #5B6E77",
"a$	c #374044",
"b$	c #394246",
"c$	c #32383A",
"d$	c #242021",
"e$	c #342925",
"f$	c #2A201F",
"g$	c #1B1D1C",
"h$	c #2B6D61",
"i$	c #26564D",
"j$	c #181414",
"k$	c #1D1C1B",
"l$	c #222121",
"m$	c #202021",
"n$	c #222425",
"o$	c #1C1A18",
"p$	c #302B2D",
"q$	c #453836",
"r$	c #483A37",
"s$	c #322621",
"t$	c #1D1A19",
"u$	c #2E7B6D",
"v$	c #43DEC4",
"w$	c #275F55",
"x$	c #211F20",
"y$	c #393D42",
"z$	c #4C5158",
"A$	c #36383C",
"B$	c #1F1C1B",
"C$	c #23211F",
"D$	c #211E1D",
"E$	c #262123",
"F$	c #362D2A",
"G$	c #3C2F29",
"H$	c #30211B",
"I$	c #1D1918",
"J$	c #286358",
"K$	c #339382",
"L$	c #1C2422",
"M$	c #35383C",
"N$	c #4B5158",
"O$	c #545A63",
"P$	c #4E535B",
"Q$	c #232223",
"R$	c #393532",
"S$	c #2D2A27",
"T$	c #201D1C",
"U$	c #1D1A1A",
"V$	c #241D1C",
"W$	c #392521",
"X$	c #392D2A",
"Y$	c #37393D",
"Z$	c #43464C",
"`$	c #242324",
" %	c #262627",
".%	c #3B3F44",
"+%	c #494D54",
"@%	c #4A4E55",
"#%	c #272728",
"$%	c #232324",
"%%	c #3B3735",
"&%	c #35312F",
"*%	c #2B2826",
"=%	c #3A3533",
"-%	c #252526",
";%	c #191717",
">%	c #2C2322",
",%	c #2A2B2D",
"'%	c #4D525A",
")%	c #4B4F56",
"!%	c #323336",
"~%	c #1A1717",
"{%	c #2E3032",
"]%	c #201F1F",
"^%	c #1F1D1D",
"/%	c #202121",
"(%	c #19201D",
"_%	c #353231",
":%	c #363230",
"<%	c #2C2C2E",
"[%	c #211F1E",
"}%	c #211C1B",
"|%	c #2E2525",
"1%	c #27201E",
"2%	c #222122",
"3%	c #1B1A19",
"4%	c #1F1E1E",
"5%	c #201F20",
"6%	c #253D39",
"7%	c #274540",
"8%	c #29574F",
"9%	c #2B675D",
"0%	c #262526",
"a%	c #222222",
"b%	c #1C1B1A",
"c%	c #272123",
"d%	c #302728",
"e%	c #2D2420",
"f%	c #201B1A",
"g%	c #201B18",
"h%	c #201A17",
"i%	c #1E1C1D",
"j%	c #1F2423",
"k%	c #417B75",
"l%	c #47998F",
"m%	c #35766C",
"n%	c #203732",
"o%	c #212020",
"p%	c #201A1A",
"q%	c #282327",
"r%	c #221B1C",
"s%	c #433534",
"t%	c #342824",
"u%	c #372C28",
"v%	c #281F1B",
"w%	c #1D1C1C",
"x%	c #232929",
"y%	c #273533",
"z%	c #253734",
"A%	c #1C1F1D",
"B%	c #191413",
"C%	c #221B1D",
"D%	c #312722",
"E%	c #252627",
"F%	c #261E1D",
"G%	c #231B1C",
"H%	c #1B1716",
"I%	c #281E20",
"J%	c #392F32",
"K%	c #191311",
"L%	c #181514",
"M%	c #191110",
"N%	c #150F0E",
"O%	c #160F0F",
"P%	c #16100F",
"Q%	c #251D20",
"R%	c #382924",
"S%	c #211A17",
"T%	c #2B1E1B",
"U%	c #302422",
"V%	c #3F312E",
"W%	c #3C312F",
"X%	c #443734",
"Y%	c #3C3539",
"  . + @ @ # + # # # # + # # # . # $ + % . @ @ & .   * = * - &   & & & & & & & & & - & ; & & > ; , , ",
"' - )   ,   ! ! . . . # # . % . . $ $ . . # ~ { @ @ & @ ] &   &   # # & &   & # ^ - ' - ^ & ; > ' ' ",
"- ) ) ) )   ! ! % % % / / / % % %       . . ( _   @ . = :   ) < & & & & & & & &     / & &   ! ; - & ",
"            % [ / } | 1 2 3 4 5 6 7 8 }   . - 9 & . . 0 ~   > ] @ # @ @ @ @ @ @ . . . . .   /     . ",
"/         /     % a a 1 b c c d e f g h i   / / . / ( j k l > > * * * ~ ~ ~ > ~ . .     /           ",
"+ . + / +   .   . / % % m n o p q r s t u v w x y z A = > ) / +       &   . . .   &   ; ! ;   ;     ",
"@ + + @ @ + . . 1 / / 1 / B C D E F G H I J K L M N O P Q R S ) - - & - - - ) ) -             / . / ",
"+ + @ + + . / / % / % % T U V W X Y Z `  ...+.@.#.$.%.&.*.=.-.;.7   &   &   )   . . / . + + + + @ @ ",
"  >.  >./ ^ @ ,.! ! !   '.c ).!.~.Z {.Y ].^./.(._.:.<.[.}.|.1.2.3.4.@ . .   / / + . . . . / . / + >.",
"@ $ / + . / $ / . + . . / 5.6.7.8.9.0.a.a.b.c.d.e.f.g.h.i.j.k.l.m.n.o.  & & > ; p.a q.a p.p./ q.; ; ",
"@ +   >.+ . $ + + r.r.+ r.r.s.t.o u.v.w.Y {.x.y.z.A.B.C.D.E.F.G.H.I.J.> ~ )   . !   1 / . . . . >.@ ",
"K.= = L.= = L.0 M.M.N.O.N.O.N.= P.Q.R.S.T.U. .V.W.X.Y.Z.`. +.+++@+#+$+%++ @ @ &+&+&+*+*+= *+= *+=+=+",
"= = -+L.=+=+= 0 *+*+;+*+*+O.*+>+,+'+)+!+~+{+]+^+/+(+_+:+<+[+}+|+1+2+3+4+M.M.L.M.O.= *+O.O.*+= O.5+L.",
"  + = . 6+& ; - a a   q.  7+8+9+0+!.0.a+b+c+d+e+f+g+h+i+j+k+l+b+m+n+r o+z !   ! + + r.. p+. / . q+r+",
"r+@ s+^ t+^ ^ ^ p.q.p.p.p.u+v+w+x+y+z+A+B+C+D+E+F+B+G+H+I+J+K+L+M+H N+O+P+- }   Q+R+S+Q+R+Q+R+R+] q+",
"@ @ = 6+{ / +   q.q.a a T+U+V+W+W.X+Y+d+Z+`+ @.@.@+@@@#@$@%@&@*@=@-@;@>@,@'@( )@!@!@Q+!@~@~@~@' {@q+",
"@ =+&+- % + '@} !@| S+| ]@+ ^@/@(@_@:@C+<@[@}@|@|@1@2@3@4@5@|@6@7@8@9@0@'@'@'@'@'@'@a@a@a@& % # @ $ ",
"& @ &+&   # - [ % # % % B b@c@d@e@f@g@h@i@|@|@|@|@|@j@j@j@.@|@|@k@l@m@n@[ [ [ [ '@'@'@a@a@'@'@a@: ~@",
"  @ 0 @ . @ / $ # # % o@p@q@r@s@t@u@v@w@x@.@j@j@j@.@|@|@|@|@|@|@y@z@A@B@[ [ [ [ [ & a@a@% S+, ,   / ",
"# @ &+  : & '@~@| % | | C@D@E@F@G@H@I@J@K@L@M@N@O@P@6@|@|@|@Q@|@|@R@S@T@'@'@'@'@'@'@a@a@S+& a@U@. + ",
"@ @ =+* V@~@R+!@| | a a W@X@Y@Z@).`@ #.#E++#^@@#d ##$#%#}@%#&#*#=#-#;#>#,#( )@( < '@( '@'@' '#'@> / ",
"@ =+s+& )#. +   a a / % , 7+5.!#~#{#]#^#/#(#_#:#<#[#v+}#|#1#9+2#3#4#5#6#'@'@'#R+S+& ,.> U@- '#: q.+ ",
"r+>.&+; 7#T++ 1 1 1 a a a a T+8#9#0#a#b#c#d#e#f#g#h#i#j#k#l#m#n#o#p#q#r#R+,.> > s#~ : : R+'#R+t#! . ",
"  @ L.  7#1 / 1 !@u#!@a T+T+T+v#9+w#x#y#z#A#B#C#D#E#F#+@k#G#H#I#J#K#L#M#- ,.,.,.> & / )   + / ) r++ ",
"L.s+= =+&+j j @ &+N#j j j *+&+&+O#P#Q#R#S#[+T#U#V#W#X#Y#Z#}#`# $.$+$,+= 0 = = L.L.= M.= M.= 0 = = = ",
"@ @ $ j j @ @ @ . / . . . . / + j $ @$6.#$$$%$&$*$=$-$|@}@;$>$,$'$)$X@/ + .   +   + + + + @ >.@ @ @ ",
"~ ~ & ) ) q.q.^ ,.- ,.> a ,.~@- !$~@!@Q+~${$]$^$/$($_$|@:$<$[$}$|$,.( ( t#1$2$t#k 2$t#2$2$: ( '#~ : ",
"& ^ ; ; ,.l R+: ~@l > R+Q+R+Q+'#!$!$}   3$4$5$6$7$8$9$0$a$b$c$d$e$!   ! ) ) ) /   ! ! ! - ,.- U@l > ",
"S+U@S+'@'@( ,#,#!@'@!@'@'#- - - , % % f$g$h$i$j$k$l$m$n$]$o$%$p$) ! } ! , , !   + # % .   ! U@U@'@' ",
"q$)#r$)#q$)#)#)@'@'@'#- !   % # % ! s$t$u$v$w$x$y$z$A$B$C$D$5$E$F$> '#' ' U@U@- } ! } - '#' '@'@)@( ",
"S+'@a@!$, a@a@, G$, & , ! % , % [ H$I$C J$K$L$M$N$O$P$Q$R$S$t$T$U$V$W$% % . # #   % % % , , , ! S+a@",
"S+U@! % % ! , , ! , ' '@9 '@( ( X$O Y$Z$`$^@ %.%+%@%#%$%%%&%*%=%-%;%J.' ' & - ' &   ) ' U@' '@'@S+S+",
"!   , '#' ! ! U@, - q.> > > ^ > >%,%'%)%!%~%{%]%^%/%(%$%_%:%<%[%3.}%|%. +   ) '#- - ,.- ,.- - } !$a@",
"'@' - '#'#- U@'   ) ) ) q.q.q.q.1%2%2%3%C 4%5%6%7%8%9%`$0%Q#a%b%c%d%} | R+: R+l : : 1$: ( ( R+!@'@!@",
". @ @ $ @ @ . @ . +   / +   . . e%f%g%h%3.i%j%k%l%m%n%l$o%p%q%r%s%T+r.$ $ @ @ $ + + + + . + / . . + ",
".     #   ) - ! R+R+R+: 1$: : ^ % t%u%v%w%b%x%y%z%A%B%b%Q#C%r.r.2$!$+ + / > l : ) ! ) ! ) ! ! ) ! / ",
"  - '#> ; > '#>   , - - ; - ) ) - U@D%5#E%;%]$%$$$F%G%%$H%I%1 1 . . %   ~ ~ ' , ~ '@'@U@- ' > > J%J%",
"=+&+&+@ j ;+&+&+*+*+*+&+&+*+*+*+&+K%L%w%w%L%M%N%P M.O%9@P%= ;+*+j j $ $ &+&+N.N.j &+&+&+*+&+&+j $ Q%",
"@ = 0 j @ j &+$ @ @ # @ # # # # R%S%$$6.T%7   / /   d%U%+ p+/ / # $ $ j @ #   ! &+&+*+*+&+&+j $ $ $ ",
") j &+  ( '#U@!@9 9 )@)@)#q$r$q$V%W%W%X%q$)@)#)#( 2$V@2$)#)#!@!@!@'@'@!@9 '#- ! , ! % ! , U@' '#'#'#",
"+ $ = r.r.% 7#% ! % ! !$a@S+S+S+& & & & '@'@~@- !$!$| a 1 % a@a@. % % , , , ,   , % , %     & , )#)@",
"!@+ j . / / )#/ U@'@~@'@'@'@)@,#'@s#'@( ( ( '@S+S+!@T+S+!@S+S+S+& ' ' & & ' ' '@'@> 9 ' > '@s#s#'@'@",
")#/ j 1 !@p.!@1 '@'@'@,#'@'@'@'@s#'@s#s#'@'@' G$S+S+a@a@S+S+'@'@U@& U@S+' '@'@& ' S+'@'@'@'@'@S+)#'@",
"p.r.*++ !@!@1 !@' '@S+'@'@'@S+S+'@'@'@'@'@'@U@G$!$!$} | a@| a@a@U@a@G$S+& '@> '@G$U@& '@' '@' & ' U@",
"/ Q%*+j u#)#!@!@'@!@'@'@'@'@a@'@'@'@S+'@'@'@'@'@'@'@'@'@'@'@'@'@'@)@'@'@s#9 9 '@'@'@'@( '@9 '@9     ",
"/ N#j j / !@u#S+S+S+S+S+a@S+a@a@, G$! % S+a@'@'@'@'@'@r$'@'@'@'@'@'@9 '@, & , , , , & , , , , , ) ) ",
"u#= Q%r.+ !@S+S+S+S+S+S+a@a@a@a@, ! [ . a@a@S+'@'@'@a@a@'@a@'@S+S+& G$, , [ [ [ [ [ # # # # # # 6+6+",
")#5+N#/ r.% a !@!@!@'@'@'@'@'@a@'   % % , , S+'@a@a@'@'@'@'@'@,#'@'@'@'@* * * '@s#> '@'@& ' > > ] Y%",
"Q%Q%Q%p+1 p.a a !$S+!$S+!@!@!@!@T+} , - - - ) ) - ; ; > > > ,.> * ~ > > ; > > ^ ~ ~ ~ : : ~ > ; ! r+",
"s+K.;+Q%r./ + . + + + # . / / / / . . . . + . + + + + + + + p++ j @ j &+&+j j j j @ j j @ j j &+j =+"};
