/* XPM */
static char * 3_xpm[] = {
"50 50 656 2",
"  	c #352925",
". 	c #322624",
"+ 	c #2D2322",
"@ 	c #2C211E",
"# 	c #32241E",
"$ 	c #291E1C",
"% 	c #3A2622",
"& 	c #3A3027",
"* 	c #3F342E",
"= 	c #1D1312",
"- 	c #392E2A",
"; 	c #38302E",
"> 	c #3D322C",
", 	c #3A2B25",
"' 	c #3B302A",
") 	c #392D29",
"! 	c #362B29",
"~ 	c #3E332D",
"{ 	c #4C413D",
"] 	c #48403E",
"^ 	c #383232",
"/ 	c #312728",
"( 	c #413632",
"_ 	c #524743",
": 	c #3F3430",
"< 	c #463B35",
"[ 	c #39261F",
"} 	c #3A2C2B",
"| 	c #3D2D2D",
"1 	c #382C2E",
"2 	c #3F2C25",
"3 	c #362420",
"4 	c #372929",
"5 	c #2C2324",
"6 	c #302522",
"7 	c #312622",
"8 	c #362C28",
"9 	c #40322F",
"0 	c #1A110F",
"a 	c #3A2C2C",
"b 	c #362B2D",
"c 	c #251E1E",
"d 	c #1C1817",
"e 	c #1C1E1C",
"f 	c #1E2724",
"g 	c #1D2522",
"h 	c #1D211F",
"i 	c #1E1C1A",
"j 	c #241E1C",
"k 	c #372C28",
"l 	c #251B1A",
"m 	c #433A3A",
"n 	c #3A3132",
"o 	c #30211E",
"p 	c #1D1717",
"q 	c #1F3A34",
"r 	c #339E8C",
"s 	c #3BBAA5",
"t 	c #3AB29E",
"u 	c #234A42",
"v 	c #181111",
"w 	c #261D1C",
"x 	c #291F1E",
"y 	c #2B221F",
"z 	c #2E2221",
"A 	c #2A201E",
"B 	c #2F2421",
"C 	c #3A302C",
"D 	c #291C1A",
"E 	c #1B2522",
"F 	c #319A88",
"G 	c #3FD3BA",
"H 	c #45E8CD",
"I 	c #31897A",
"J 	c #255048",
"K 	c #26564D",
"L 	c #26534B",
"M 	c #264D46",
"N 	c #22443D",
"O 	c #1E3832",
"P 	c #1D2A26",
"Q 	c #1E201D",
"R 	c #171313",
"S 	c #271F1C",
"T 	c #322723",
"U 	c #1B1B1A",
"V 	c #266257",
"W 	c #39BBA5",
"X 	c #44E2C8",
"Y 	c #45E7CC",
"Z 	c #45E5CA",
"` 	c #44E1C7",
" .	c #4AE3C9",
"..	c #57E3CB",
"+.	c #60DFCA",
"@.	c #5FD7C3",
"#.	c #4BC7B2",
"$.	c #39AC98",
"%.	c #318374",
"&.	c #2C5E55",
"*.	c #21342F",
"=.	c #1C1B1A",
"-.	c #2B231F",
";.	c #272121",
">.	c #382E2D",
",.	c #2D2424",
"'.	c #245A50",
").	c #34AA96",
"!.	c #3FD4BB",
"~.	c #41DAC0",
"{.	c #40D6BD",
"].	c #44E0C6",
"^.	c #63EBD4",
"/.	c #93F2E2",
"(.	c #7CF1DE",
"_.	c #42CEB7",
":.	c #285B52",
"<.	c #48AA99",
"[.	c #6FD5C4",
"}.	c #559B8F",
"|.	c #244841",
"1.	c #1A1817",
"2.	c #261D1B",
"3.	c #31211E",
"4.	c #1E1918",
"5.	c #20413B",
"6.	c #2F9281",
"7.	c #38BAA4",
"8.	c #3ECDB5",
"9.	c #44E2C7",
"0.	c #3ED0B7",
"a.	c #39BCA6",
"b.	c #46CCB6",
"c.	c #61E7D0",
"d.	c #6BEED8",
"e.	c #429284",
"f.	c #161312",
"g.	c #2B4943",
"h.	c #73E2CF",
"i.	c #79F1DD",
"j.	c #51DAC3",
"k.	c #2C7366",
"l.	c #1D1A19",
"m.	c #2F2422",
"n.	c #3A2E30",
"o.	c #382C2C",
"p.	c #291F21",
"q.	c #2E2321",
"r.	c #211918",
"s.	c #1C2D29",
"t.	c #2D8879",
"u.	c #34AD99",
"v.	c #45E8CC",
"w.	c #41D7BE",
"x.	c #35B39E",
"y.	c #39C2AB",
"z.	c #43D8BF",
"A.	c #254A42",
"B.	c #264740",
"C.	c #1F2D29",
"D.	c #38A996",
"E.	c #4FEBD1",
"F.	c #54E7CE",
"G.	c #359685",
"H.	c #1D1E1C",
"I.	c #382E28",
"J.	c #171115",
"K.	c #150C0C",
"L.	c #1A0E0D",
"M.	c #20120F",
"N.	c #180F13",
"O.	c #1C1312",
"P.	c #181010",
"Q.	c #214941",
"R.	c #34AB98",
"S.	c #3ECFB7",
"T.	c #43E1C7",
"U.	c #41D8BF",
"V.	c #3FD1B8",
"W.	c #37B5A0",
"X.	c #34AE99",
"Y.	c #38B7A1",
"Z.	c #1E3933",
"`.	c #3C796E",
" +	c #39554F",
".+	c #21463F",
"++	c #41D4BB",
"@+	c #3DC3AC",
"#+	c #1D2D2A",
"$+	c #191413",
"%+	c #2F221D",
"&+	c #241915",
"*+	c #211614",
"=+	c #1E181A",
"-+	c #110907",
";+	c #1C1619",
">+	c #201614",
",+	c #1A1313",
"'+	c #1A1917",
")+	c #27655A",
"!+	c #3BC5AE",
"~+	c #3DCCB4",
"{+	c #33A08E",
"]+	c #27685C",
"^+	c #214840",
"/+	c #20453D",
"(+	c #255E54",
"_+	c #265F55",
":+	c #1A2623",
"<+	c #429B8B",
"[+	c #42665F",
"}+	c #1A2522",
"|+	c #38AC98",
"1+	c #3CBFA9",
"2+	c #339484",
"3+	c #2F7F71",
"4+	c #21403A",
"5+	c #191313",
"6+	c #160E12",
"7+	c #3C3636",
"8+	c #382B2A",
"9+	c #231C1C",
"0+	c #1B2724",
"a+	c #297064",
"b+	c #37B49F",
"c+	c #3CC9B1",
"d+	c #2B7D6F",
"e+	c #222324",
"f+	c #303437",
"g+	c #343A3D",
"h+	c #292C2D",
"i+	c #191716",
"j+	c #27675C",
"k+	c #47DFC6",
"l+	c #4DA495",
"m+	c #1D2421",
"n+	c #1E302C",
"o+	c #1F302C",
"p+	c #245148",
"q+	c #3BBAA4",
"r+	c #349685",
"s+	c #1E1A18",
"t+	c #332824",
"u+	c #2D2629",
"v+	c #383435",
"w+	c #2F292D",
"x+	c #171518",
"y+	c #4B4140",
"z+	c #2C2221",
"A+	c #1C2B28",
"B+	c #2D8777",
"C+	c #37B7A2",
"D+	c #2C8172",
"E+	c #1B2321",
"F+	c #31373A",
"G+	c #4E5E65",
"H+	c #5E737C",
"I+	c #6B838E",
"J+	c #627780",
"K+	c #232526",
"L+	c #26655A",
"M+	c #3BC1AA",
"N+	c #37A08E",
"O+	c #1E2322",
"P+	c #52585C",
"Q+	c #7A8286",
"R+	c #4A4A4B",
"S+	c #213F39",
"T+	c #2A6C60",
"U+	c #221C1A",
"V+	c #352A28",
"W+	c #3B2F31",
"X+	c #3D3230",
"Y+	c #412E2A",
"Z+	c #241C1D",
"`+	c #235048",
" @	c #34AE9A",
".@	c #1C2B27",
"+@	c #32383B",
"@@	c #52646C",
"#@	c #5F747D",
"$@	c #6E8792",
"%@	c #708A95",
"&@	c #708994",
"*@	c #49565C",
"=@	c #202323",
"-@	c #1D2D29",
";@	c #1D2724",
">@	c #394145",
",@	c #6D858F",
"'@	c #8097A2",
")@	c #94A0A7",
"!@	c #313232",
"~@	c #191E1C",
"{@	c #2A2221",
"]@	c #3E302F",
"^@	c #43322D",
"/@	c #433532",
"(@	c #413131",
"_@	c #3D2F2F",
":@	c #4E4546",
"<@	c #3F2D29",
"[@	c #281F1E",
"}@	c #1A211E",
"|@	c #23554C",
"1@	c #252728",
"2@	c #4A5A60",
"3@	c #566A72",
"4@	c #6C848F",
"5@	c #6F8792",
"6@	c #5E717A",
"7@	c #515F66",
"8@	c #586971",
"9@	c #6C838E",
"0@	c #6F8893",
"a@	c #8A9FA8",
"b@	c #626669",
"c@	c #171513",
"d@	c #382A26",
"e@	c #412D26",
"f@	c #2B1E1B",
"g@	c #1C2623",
"h@	c #266459",
"i@	c #32A18F",
"j@	c #319D8B",
"k@	c #353D40",
"l@	c #404C51",
"m@	c #596D75",
"n@	c #718A95",
"o@	c #728B96",
"p@	c #718B96",
"q@	c #6F8994",
"r@	c #7B939D",
"s@	c #808A8E",
"t@	c #211D1B",
"u@	c #34231D",
"v@	c #382521",
"w@	c #211817",
"x@	c #35AF9B",
"y@	c #1C211F",
"z@	c #272A2B",
"A@	c #49585E",
"B@	c #69818B",
"C@	c #758E99",
"D@	c #8A979D",
"E@	c #282625",
"F@	c #342621",
"G@	c #2B2120",
"H@	c #1C2E2A",
"I@	c #2B7C6E",
"J@	c #33A794",
"K@	c #2A7C6D",
"L@	c #202222",
"M@	c #3D484D",
"N@	c #4E5F66",
"O@	c #6E8791",
"P@	c #61767F",
"Q@	c #4B595F",
"R@	c #4C595F",
"S@	c #536269",
"T@	c #5F737C",
"U@	c #6D8590",
"V@	c #6B838D",
"W@	c #6D848E",
"X@	c #8A989F",
"Y@	c #2D2C2B",
"Z@	c #332A25",
"`@	c #3B2D2C",
" #	c #453939",
".#	c #382A2A",
"+#	c #29201F",
"@#	c #1F3C36",
"##	c #1F413A",
"$#	c #48575E",
"%#	c #52636A",
"&#	c #60757E",
"*#	c #282B2C",
"=#	c #161D1A",
"-#	c #182621",
";#	c #1A2521",
">#	c #1F2221",
",#	c #3F494D",
"'#	c #6D8690",
")#	c #677E88",
"!#	c #3E484C",
"~#	c #2B2E30",
"{#	c #2A2D2F",
"]#	c #505557",
"^#	c #292726",
"/#	c #3A2C27",
"(#	c #423431",
"_#	c #443635",
":#	c #392C2B",
"<#	c #34221F",
"[#	c #171413",
"}#	c #1D1D1C",
"|#	c #49595F",
"1#	c #5A6F77",
"2#	c #3F484D",
"3#	c #141D19",
"4#	c #164E3E",
"5#	c #22755E",
"6#	c #28846B",
"7#	c #22604E",
"8#	c #1D2220",
"9#	c #5C6E76",
"0#	c #728C97",
"a#	c #171E1A",
"b#	c #1C493B",
"c#	c #1D463A",
"d#	c #1A1A19",
"e#	c #1C1919",
"f#	c #3A302D",
"g#	c #453F41",
"h#	c #3B2D2D",
"i#	c #3A2D2D",
"j#	c #251E1D",
"k#	c #1B211F",
"l#	c #404B50",
"m#	c #556971",
"n#	c #2C3033",
"o#	c #142E25",
"p#	c #20785F",
"q#	c #32AC8B",
"r#	c #3CCAA4",
"s#	c #34AC8B",
"t#	c #1C2C27",
"u#	c #4E5C63",
"v#	c #3A4146",
"w#	c #1A372D",
"x#	c #2EA182",
"y#	c #32A384",
"z#	c #1B2722",
"A#	c #392F2D",
"B#	c #403531",
"C#	c #443937",
"D#	c #392D2F",
"E#	c #1C1D1B",
"F#	c #181816",
"G#	c #2D3235",
"H#	c #51636B",
"I#	c #303538",
"J#	c #172C24",
"K#	c #238368",
"L#	c #37C29C",
"M#	c #44E6BA",
"N#	c #39B795",
"O#	c #1D2924",
"P#	c #55656C",
"Q#	c #3F474C",
"R#	c #1B352C",
"S#	c #32AF8C",
"T#	c #34A787",
"U#	c #1A231F",
"V#	c #392B2A",
"W#	c #201718",
"X#	c #221A19",
"Y#	c #1E1714",
"Z#	c #1B1918",
"`#	c #2A2E2F",
" $	c #2A2F31",
".$	c #181918",
"+$	c #1C4236",
"@$	c #26735D",
"#$	c #2C856B",
"$$	c #20493D",
"%$	c #2B2F30",
"&$	c #687E88",
"*$	c #1E2120",
"=$	c #1D4035",
"-$	c #1D362E",
";$	c #181615",
">$	c #191412",
",$	c #251C1A",
"'$	c #211A18",
")$	c #1C1818",
"!$	c #191715",
"~$	c #202121",
"{$	c #2A2E30",
"]$	c #576970",
"^$	c #465157",
"/$	c #191515",
"($	c #201A19",
"_$	c #2B2221",
":$	c #3B2D2B",
"<$	c #3C2F2E",
"[$	c #2B2423",
"}$	c #3D474C",
"|$	c #5C7079",
"1$	c #617780",
"2$	c #677E89",
"3$	c #4B595E",
"4$	c #1E1A1A",
"5$	c #332A28",
"6$	c #3B312F",
"7$	c #3F3534",
"8$	c #423735",
"9$	c #342925",
"0$	c #2B211E",
"a$	c #1D1918",
"b$	c #181716",
"c$	c #292D2F",
"d$	c #46545A",
"e$	c #506168",
"f$	c #2C3133",
"g$	c #303639",
"h$	c #282C2D",
"i$	c #282326",
"j$	c #392622",
"k$	c #271E1C",
"l$	c #1B2623",
"m$	c #308375",
"n$	c #275C52",
"o$	c #181413",
"p$	c #201F1F",
"q$	c #272728",
"r$	c #1E1E1E",
"s$	c #181515",
"t$	c #322D30",
"u$	c #453836",
"v$	c #483A37",
"w$	c #352A29",
"x$	c #2D221E",
"y$	c #1A1C1A",
"z$	c #32907F",
"A$	c #43DDC3",
"B$	c #245149",
"C$	c #252325",
"D$	c #3E4248",
"E$	c #4F545C",
"F$	c #3A3D41",
"G$	c #221F1E",
"H$	c #262321",
"I$	c #211F1D",
"J$	c #171514",
"K$	c #231F20",
"L$	c #312926",
"M$	c #3B302B",
"N$	c #3C2F29",
"O$	c #38251E",
"P$	c #281D19",
"Q$	c #1D1B1A",
"R$	c #1D1D1D",
"S$	c #26584E",
"T$	c #2D7A6C",
"U$	c #1C1F1E",
"V$	c #393C41",
"W$	c #4D525A",
"X$	c #555B64",
"Y$	c #4C5158",
"Z$	c #222122",
"`$	c #3B3733",
" %	c #2C2826",
".%	c #1E1B1A",
"+%	c #212020",
"@%	c #211B1A",
"#%	c #372420",
"$%	c #322825",
"%%	c #464950",
"&%	c #4A4E55",
"*%	c #232223",
"=%	c #171716",
"-%	c #292A2C",
";%	c #393D41",
">%	c #474B51",
",%	c #45494F",
"'%	c #242324",
")%	c #232324",
"!%	c #3C3936",
"~%	c #33302D",
"{%	c #2D2A28",
"]%	c #393532",
"^%	c #262627",
"/%	c #191817",
"(%	c #312823",
"_%	c #3C312B",
":%	c #333437",
"<%	c #404349",
"[%	c #2A2A2C",
"}%	c #1B1919",
"|%	c #2D2F31",
"1%	c #1D1C1C",
"2%	c #1E1B1C",
"3%	c #1A2420",
"4%	c #242425",
"5%	c #353331",
"6%	c #322F2D",
"7%	c #282829",
"8%	c #211E1D",
"9%	c #1B1716",
"0%	c #241E1E",
"a%	c #2E2526",
"b%	c #372B2B",
"c%	c #231E1C",
"d%	c #1E1D1D",
"e%	c #1C1A19",
"f%	c #1F1F1F",
"g%	c #1F1E1E",
"h%	c #294944",
"i%	c #294D47",
"j%	c #2C655B",
"k%	c #2A6359",
"l%	c #242424",
"m%	c #1E1D1E",
"n%	c #1B1A19",
"o%	c #272123",
"p%	c #2E2421",
"q%	c #28211E",
"r%	c #251E1C",
"s%	c #221B18",
"t%	c #1A1816",
"u%	c #222A29",
"v%	c #427E78",
"w%	c #46958C",
"x%	c #326B63",
"y%	c #1E2E2A",
"z%	c #232222",
"A%	c #221B1C",
"B%	c #2C262B",
"C%	c #231C1D",
"D%	c #433534",
"E%	c #251D1A",
"F%	c #1B1A1A",
"G%	c #232928",
"H%	c #232D2B",
"I%	c #222F2D",
"J%	c #1A1514",
"K%	c #1C1A1A",
"L%	c #1A1717",
"M%	c #231C1E",
"N%	c #2D2420",
"O%	c #252526",
"P%	c #191615",
"Q%	c #28201F",
"R%	c #281F21",
"S%	c #392F32",
"T%	c #191312",
"U%	c #191513",
"V%	c #19100F",
"W%	c #150E0D",
"X%	c #160F0F",
"Y%	c #160F0E",
"Z%	c #251D20",
"`%	c #362823",
" &	c #1F1917",
".&	c #1B1816",
"+&	c #241B19",
"@&	c #30201D",
"#&	c #342824",
"$&	c #302728",
"%&	c #302523",
"&&	c #3F312E",
"*&	c #3F3331",
"=&	c #403432",
"-&	c #463936",
";&	c #3C3539",
"  . + @ @ # + # # # # + # # # . # $ + % . @ @ & .   * = * - &   & & & & & & & & & - & ; & & > ; , , ",
"' - )   ,   ! ! . . . # # . % . . $ $ . . # ~ { @ @ & @ ] &   &   # # & &   & # ^ - ' - ^ & ; > ' ' ",
"- ) ) ) )   ! ! % % % / / / % % %       . . ( _   @ . = :   ) < & & & & & & & &     / & &   ! ; - & ",
"            % [ / } | 1 2 3 4 5 6 7 8 }   . - 9 & . . 0 ~   > ] @ # @ @ @ @ @ @ . . . . .   /     . ",
"/         /     % a a b c d e f g h i j k   / / . / ( l m n > > * * * ~ ~ ~ > ~ . .     /           ",
"+ . + / +   .   . / % % o p q r s t u v w x y z A B C = > ) / +       &   . . .   &   ; ! ;   ;     ",
"@ + + @ @ + . . 1 / / 1 / D E F G H I J K L M N O P Q R S w T ) - - & - - - ) ) -             / . / ",
"+ + @ + + . / / % / % % / U V W X Y Z ` X  ...+.@.#.$.%.&.*.=.-.7   &   &   )   . . / . + + + + @ @ ",
"  ;.  ;./ ^ @ >.! ! !   ,.U '.).!.X Y Z ~.{.].^./.(._.:.<.[.}.|.1.2.@ . .   / / + . . . . / . / + ;.",
"@ $ / + . / $ / . + . . / 3.4.5.6.7.8.X 9.0.a.b.c.d.e.f.g.h.i.j.k.l.m.  & & > ; n.a o.a n.n./ o.; ; ",
"@ +   ;.+ . $ + + p.p.+ p.p.q.r.s.t.u.8.Y v.w.x.y.z.A.B.C.D.E.F.G.H.I.> ~ )   . !   1 / . . . . ;.@ ",
"J.= = K.= = K.0 L.L.M.N.M.N.M.O.P.Q.R.S.T.U.V.W.X.Y.Z.`. +.+++@+#+$+2.%++ @ @ &+&+&+*+*+= *+= *+=+=+",
"= = -+K.=+=+= 0 *+*+;+*+*+N.>+,+'+)+!+~+{+]+^+/+(+_+:+<+[+}+|+1+2+3+4+5+L.L.K.L.N.= *+N.N.*+= N.6+K.",
"  + = . 7+& ; - a a   o.  8+9+0+a+b+c+d+s.e+f+g+h+i+j+k+l+m+n+o+p+q+r+s+t+!   ! + + p.. u+. / . v+w+",
"w+@ x+^ y+^ ^ ^ n.o.n.n.n.z+A+B+u.C+D+E+F+G+H+I+J+K+L+M+N+O+P+Q+R+S+T+U+V+- }   W+X+Y+W+X+W+X+X+] v+",
"@ @ = 7+{ / +   o.o.a a a Z+`+). @6..@+@@@#@$@%@&@*@=@-@;@>@,@'@)@!@~@{@]@^@( /@(@(@W+(@_@_@_@' :@v+",
"@ =+&+- % + ^@} (@| Y+| <@[@}@t.u.|@1@2@3@4@&@&@&@5@6@7@8@9@%@0@a@b@c@d@^@^@^@^@^@^@e@e@e@& % # @ $ ",
"& @ &+&   # - [ % # % % f@g@h@i@j@s.k@l@m@n@&@&@&@&@n@o@p@&@&@q@r@s@t@u@[ [ [ [ ^@^@^@e@e@^@^@e@: _@",
"  @ 0 @ . @ / $ # # % v@w@(+x@x@t.y@z@A@B@p@p@p@p@n@&@&@&@&@&@&@C@D@E@F@[ [ [ [ [ & e@e@% Y+, ,   / ",
"# @ &+  : & ^@_@| % | | G@H@I@J@K@L@M@N@O@P@Q@R@S@T@U@&@&@%@&@V@W@X@Y@Z@^@^@^@^@^@^@e@e@Y+& e@`@. + ",
"@ @ =+*  #_@X+(@| | a a .#+#e @###L@$#%#&#*#=#-#;#>#,#'#n@)#!#~#{#]#^#/#(#( /@( < ^@( ^@^@' ]@^@> / ",
"@ =+x+& _#. +   a a / % , :#<#w [#}#|#1#2#3#4#5#6#7#8#9#0#*@a#b#c#d#e#f#^@^@]@X+Y+& >.> `@- ]@: o.+ ",
"w+;.&+; g#h#+ 1 1 1 a a a a i#j#.@k#l#m#n#o#p#q#r#s#t#u#o@v#w#x#y#z#s+A#X+>.> > B#~ : : X+]@X+C#! . ",
"  @ K.  g#1 / 1 (@D#(@a h#h#h#z+E#F#G#H#I#J#K#L#M#N#O#P#0#Q#R#S#T#U#U+V#- >.>.>.> & / )   + / ) w++ ",
"K.x+= =+&+l l @ &+W#l l l *+&+&+X#Y#Z#`# $.$+$@$#$$$%$&$o@8@*$=$-$;$>$= 0 = = K.K.= L.= L.= 0 = = = ",
"@ @ $ l l @ @ @ . / . . . . / + l $ ,$'$)$!$;$~$1@{$]$n@&@0@^$/$$+($_$/ + .   +   + + + + @ ;.@ @ @ ",
"~ ~ & ) ) o.o.^ >.- >.> a >._@- :$_@(@W+<$[$i+}$|$@@1$0@&#2$3$4$5$6$( ( C#7$8$C#m 8$C#8$8$: ( ]@~ : ",
"& ^ ; ; >.n X+: _@n > X+W+X+W+]@:$:$} 9$0$a$b$z@k@c$d$e$f$g$h$i$  !   ! ) ) ) /   ! ! ! - >.- `@n > ",
"Y+`@Y+^@^@( (#(#(@^@(@^@]@- - - , % j$k$l$m$n$o$p$q$r$}#i+i s$t$) ! } ! , , !   + # % .   ! `@`@^@' ",
"u$_#v$_#u$_#_#/@^@^@]@- !   % # % w$x$y$z$A$B$C$D$E$F$G$H$I$J$K$L$M$]@' ' `@`@- } ! } - ]@' ^@^@/@( ",
"Y+^@e@:$, e@e@, N$, & , ! % , % O$P$Q$R$S$T$U$V$W$X$Y$Z$`$ %.%G$+%@%#%% % . # #   % % % , , , ! Y+e@",
"Y+`@! % % ! , , ! , ' ^@9 ^@( ( $%+%%%&%*%=%-%;%>%,%'%)%!%~%{%]%^%/%(%' ' & - ' &   ) ' `@' ^@^@Y+Y+",
"!   , ]@' ! ! `@, - o.> > > ^ _%j#:%,%<%[%}%|%1%2%*$3%4%5%6%7%8%9%0%a%. +   ) ]@- - >.- >.- - } :$e@",
"^@' - ]@]@- `@'   ) ) ) o.o.o.b%c%d%e%i+;$f%g%h%i%j%k%C$l%e#m%n%o%/ } | X+: X+n : : 7$: ( ( X+(@^@(@",
". @ @ $ @ @ . @ . +   / +   . . p%q%r%s%t%1%u%v%w%x%y%z%g%A%B%C%D%h#p.$ $ @ @ $ + + + + . + / . . + ",
".     #   ) - ! X+X+X+: 7$: : ^ %   k E%g%F%G%H%I%=.J%K%L%M%p.p.8$:$+ + / > n : ) ! ) ! ) ! ! ) ! / ",
"  - ]@> ; > ]@>   , - - ; - ) ) - `@N%1%O%b$9%P%9%Q%A%;$d R%1 1 . . %   ~ ~ ' , ~ ^@^@`@- ' > > S%S%",
"=+&+&+@ l ;+&+&+*+*+*+&+&+*+*+*+&+T%;$1%F%U%V%W%X%L.X%[#Y%= ;+*+l l $ $ &+&+M.M.l &+&+&+*+&+&+l $ Z%",
"@ = 0 l @ l &+$ @ @ # @ # # # # `% &.&+&@&#&  / /   $&%&+ u+/ / # $ $ l @ #   ! &+&+*+*+&+&+l $ $ $ ",
") l &+  ( ]@`@(@9 9 /@/@_#u$v$u$&&*&=&-&u$/@_#_#( 8$ #8$_#_#(@(@(@^@^@(@9 ]@- ! , ! % ! , `@' ]@]@]@",
"+ $ = p.p.% g#% ! % ! :$e@Y+Y+Y+& & & & ^@^@_@- :$:$| a 1 % e@e@. % % , , , ,   , % , %     & , _#/@",
"(@+ l . / / _#/ `@^@_@^@^@^@/@(#^@B#^@( ( ( ^@Y+Y+(@h#Y+(@Y+Y+Y+& ' ' & & ' ' ^@^@> 9 ' > ^@B#B#^@^@",
"_#/ l 1 (@n.(@1 ^@^@^@(#^@^@^@^@B#^@B#B#^@^@' N$Y+Y+e@e@Y+Y+^@^@`@& `@Y+' ^@^@& ' Y+^@^@^@^@^@Y+_#^@",
"n.p.*++ (@(@1 (@' ^@Y+^@^@^@Y+Y+^@^@^@^@^@^@`@N$:$:$} | e@| e@e@`@e@N$Y+& ^@> ^@N$`@& ^@' ^@' & ' `@",
"/ Z%*+l D#_#(@(@^@(@^@^@^@^@e@^@^@^@Y+^@^@^@^@^@^@^@^@^@^@^@^@^@^@/@^@^@B#9 9 ^@^@^@^@( ^@9 ^@9     ",
"/ W#l l / (@D#Y+Y+Y+Y+Y+e@Y+e@e@, N$! % Y+e@^@^@^@^@^@v$^@^@^@^@^@^@9 ^@, & , , , , & , , , , , ) ) ",
"D#= Z%p.+ (@Y+Y+Y+Y+Y+Y+e@e@e@e@, ! [ . e@e@Y+^@^@^@e@e@^@e@^@Y+Y+& N$, , [ [ [ [ [ # # # # # # 7+7+",
"_#6+W#/ p.% a (@(@(@^@^@^@^@^@e@'   % % , , Y+^@e@e@^@^@^@^@^@(#^@^@^@^@* * * ^@B#> ^@^@& ' > > ] ;&",
"Z%Z%Z%u+1 n.a a :$Y+:$Y+(@(@(@(@h#} , - - - ) ) - ; ; > > > >.> * ~ > > ; > > ^ ~ ~ ~ : : ~ > ; ! w+",
"x+J.;+Z%p./ + . + + + # . / / / / . . . . + . + + + + + + + u++ l @ l &+&+l l l l @ l l @ l l &+l =+"};
