/* XPM */
static char * 4_xpm[] = {
"50 50 658 2",
"  	c #352925",
". 	c #322624",
"+ 	c #2D2322",
"@ 	c #2C211E",
"# 	c #32241E",
"$ 	c #291E1C",
"% 	c #3A2622",
"& 	c #3A3027",
"* 	c #3F342E",
"= 	c #1D1312",
"- 	c #392E2A",
"; 	c #38302E",
"> 	c #3D322C",
", 	c #3A2B25",
"' 	c #3B302A",
") 	c #392D29",
"! 	c #362B29",
"~ 	c #3E332D",
"{ 	c #4C413D",
"] 	c #48403E",
"^ 	c #383232",
"/ 	c #312728",
"( 	c #413632",
"_ 	c #524743",
": 	c #3F3430",
"< 	c #463B35",
"[ 	c #39261F",
"} 	c #3A2C2B",
"| 	c #3D2D2D",
"1 	c #382C2E",
"2 	c #3D2B24",
"3 	c #34231F",
"4 	c #352727",
"5 	c #2B2222",
"6 	c #2F2420",
"7 	c #302521",
"8 	c #352B27",
"9 	c #392C2B",
"0 	c #40322F",
"a 	c #1A110F",
"b 	c #3A2C2C",
"c 	c #34292A",
"d 	c #201B1A",
"e 	c #1A1716",
"f 	c #1C2522",
"g 	c #1F312C",
"h 	c #1E2D29",
"i 	c #1D2623",
"j 	c #1C1B1A",
"k 	c #251F1E",
"l 	c #382D29",
"m 	c #251B1A",
"n 	c #433A3A",
"o 	c #3A3132",
"p 	c #392521",
"q 	c #2E201D",
"r 	c #1B1717",
"s 	c #234F47",
"t 	c #37B19C",
"u 	c #3EC7B0",
"v 	c #3AB49F",
"w 	c #1E342F",
"x 	c #191212",
"y 	c #241C1B",
"z 	c #251D1C",
"A 	c #281F1C",
"B 	c #2A201F",
"C 	c #281E1C",
"D 	c #2C221F",
"E 	c #382E2A",
"F 	c #1C1312",
"G 	c #3C312B",
"H 	c #2F2626",
"I 	c #231917",
"J 	c #1E3833",
"K 	c #34AB97",
"L 	c #41DAC0",
"M 	c #44E0C6",
"N 	c #2F8274",
"O 	c #29665B",
"P 	c #2A6B5F",
"Q 	c #2C695E",
"R 	c #2C6359",
"S 	c #28574E",
"T 	c #224841",
"U 	c #1E3832",
"V 	c #1E2724",
"W 	c #191A18",
"X 	c #231C1A",
"Y 	c #241B1B",
"Z 	c #302522",
"` 	c #2C2324",
" .	c #1A2320",
"..	c #2B7D6F",
"+.	c #3CC9B1",
"@.	c #45E6CB",
"#.	c #45E7CC",
"$.	c #4CE8CE",
"%.	c #5BE9D1",
"&.	c #67E7D2",
"*.	c #6AE2CE",
"=.	c #50D5BE",
"-.	c #3BBAA4",
";.	c #358D7E",
">.	c #347368",
",.	c #27433D",
"'.	c #1C1F1D",
").	c #28201D",
"!.	c #272121",
"~.	c #382E2D",
"{.	c #2B2223",
"].	c #1B1E1D",
"^.	c #266358",
"/.	c #35AE9A",
"(.	c #3FD4BB",
"_.	c #44E2C7",
":.	c #44E3C8",
"<.	c #40D6BD",
"[.	c #3FD2BA",
"}.	c #44DEC4",
"|.	c #6BEBD6",
"1.	c #96F2E2",
"2.	c #71F0DB",
"3.	c #39AD99",
"4.	c #23423C",
"5.	c #50B5A3",
"6.	c #7DE2D1",
"7.	c #59AD9E",
"8.	c #25544B",
"9.	c #1A1A19",
"0.	c #261D1B",
"a.	c #2F201D",
"b.	c #1D1A18",
"c.	c #21453E",
"d.	c #309584",
"e.	c #38B9A3",
"f.	c #3ECDB5",
"g.	c #44E3C9",
"h.	c #3ECFB7",
"i.	c #38BAA5",
"j.	c #45CBB5",
"k.	c #5AE6CF",
"l.	c #64E6D0",
"m.	c #33655C",
"n.	c #161111",
"o.	c #315A53",
"p.	c #6DE7D3",
"q.	c #70EFDA",
"r.	c #51DFC7",
"s.	c #2B6E62",
"t.	c #1F1918",
"u.	c #302523",
"v.	c #3A2E30",
"w.	c #382C2C",
"x.	c #291F21",
"y.	c #2D2321",
"z.	c #201918",
"A.	c #1D332E",
"B.	c #2F9080",
"C.	c #40D4BB",
"D.	c #46E8CD",
"E.	c #45E8CD",
"F.	c #40D6BC",
"G.	c #35B19C",
"H.	c #3AC5AD",
"I.	c #3DC5AE",
"J.	c #1F332F",
"K.	c #2E5C53",
"L.	c #20302C",
"M.	c #3AB6A1",
"N.	c #4BEACF",
"O.	c #4BD8C0",
"P.	c #2A665B",
"Q.	c #221C1A",
"R.	c #3A302A",
"S.	c #171115",
"T.	c #150C0C",
"U.	c #1A0E0D",
"V.	c #20120F",
"W.	c #180F13",
"X.	c #171110",
"Y.	c #255D53",
"Z.	c #36B39E",
"`.	c #41D7BE",
" +	c #42DCC2",
".+	c #3ECEB6",
"++	c #3BC2AB",
"@+	c #34A996",
"#+	c #34AD99",
"$+	c #34A390",
"%+	c #1B2A26",
"&+	c #478F82",
"*+	c #31413E",
"=+	c #234E46",
"-+	c #43DDC3",
";+	c #38AB98",
">+	c #1B2422",
",+	c #1A1817",
"'+	c #2E221D",
")+	c #241915",
"!+	c #211614",
"~+	c #1E181A",
"{+	c #110907",
"]+	c #1C1619",
"^+	c #201614",
"/+	c #191313",
"(+	c #1A2421",
"_+	c #2C8273",
":+	c #3AC1AB",
"<+	c #2D8778",
"[+	c #224E46",
"}+	c #1D3530",
"|+	c #1D3731",
"1+	c #225148",
"2+	c #20443D",
"3+	c #1D342F",
"4+	c #4EB7A5",
"5+	c #384E49",
"6+	c #1E3631",
"7+	c #35A491",
"8+	c #36A794",
"9+	c #36A28F",
"0+	c #359E8C",
"a+	c #22453E",
"b+	c #181211",
"c+	c #160E12",
"d+	c #3C3636",
"e+	c #362928",
"f+	c #1F1A19",
"g+	c #1E3732",
"h+	c #2D8777",
"i+	c #39BFA9",
"j+	c #39BCA6",
"k+	c #256056",
"l+	c #1C2220",
"m+	c #2A2C2F",
"n+	c #394145",
"o+	c #3D464B",
"p+	c #2D3032",
"q+	c #191A19",
"r+	c #2F8B7B",
"s+	c #4AE9CE",
"t+	c #469789",
"u+	c #1A1D1B",
"v+	c #222826",
"w+	c #252A29",
"x+	c #21413B",
"y+	c #3AB39F",
"z+	c #2E7C6E",
"A+	c #221A18",
"B+	c #342925",
"C+	c #2D2629",
"D+	c #383435",
"E+	c #2F292D",
"F+	c #171518",
"G+	c #4B4140",
"H+	c #392D2F",
"I+	c #271E1E",
"J+	c #1F3C36",
"K+	c #309987",
"L+	c #34AE9A",
"M+	c #36B49F",
"N+	c #1D1E1E",
"O+	c #3C464B",
"P+	c #54666E",
"Q+	c #637A84",
"R+	c #6F8893",
"S+	c #5F737C",
"T+	c #202323",
"U+	c #27665B",
"V+	c #37AE9A",
"W+	c #2C7669",
"X+	c #232424",
"Y+	c #67747A",
"Z+	c #8A959B",
"`+	c #515052",
" @	c #203D37",
".@	c #244E46",
"+@	c #271F1C",
"@@	c #3B2F31",
"#@	c #3D3230",
"$@	c #412E2A",
"%@	c #201B1B",
"&@	c #265F55",
"*@	c #2B7E70",
"=@	c #1C211F",
"-@	c #3D474C",
";@	c #556870",
">@	c #637A83",
",@	c #708994",
"'@	c #4A575D",
")@	c #232626",
"!@	c #1E2523",
"~@	c #242728",
"{@	c #4C5A60",
"]@	c #7D959F",
"^@	c #919EA4",
"/@	c #2D2D2D",
"(@	c #171816",
"_@	c #302626",
":@	c #3E302F",
"<@	c #43322D",
"[@	c #433532",
"}@	c #413131",
"|@	c #3D2F2F",
"1@	c #4E4546",
"2@	c #3D2B28",
"3@	c #221B1B",
"4@	c #1B2825",
"5@	c #33A794",
"6@	c #1F3F39",
"7@	c #2E3234",
"8@	c #4B5B62",
"9@	c #5A6E76",
"0@	c #6F8792",
"a@	c #708893",
"b@	c #647982",
"c@	c #5C6E77",
"d@	c #647A83",
"e@	c #8CA0A9",
"f@	c #595D5F",
"g@	c #1C1715",
"h@	c #3D2E29",
"i@	c #412D26",
"j@	c #261B19",
"k@	c #1D322E",
"l@	c #2A786A",
"m@	c #33A995",
"n@	c #2E8F7F",
"o@	c #1C2321",
"p@	c #3A4348",
"q@	c #3F4B50",
"r@	c #617680",
"s@	c #718A95",
"t@	c #718B96",
"u@	c #7F96A0",
"v@	c #777F83",
"w@	c #201A18",
"x@	c #36251E",
"y@	c #372421",
"z@	c #1E1918",
"A@	c #296F63",
"B@	c #35B09B",
"C@	c #2A776A",
"D@	c #1D1E1D",
"E@	c #2A2E2F",
"F@	c #506168",
"G@	c #6C858F",
"H@	c #708A95",
"I@	c #79919C",
"J@	c #838E93",
"K@	c #23201E",
"L@	c #362823",
"M@	c #3C2C2C",
"N@	c #1D302C",
"O@	c #2B7A6C",
"P@	c #33A491",
"Q@	c #276A5E",
"R@	c #232526",
"S@	c #414D52",
"T@	c #52646B",
"U@	c #56676F",
"V@	c #40494E",
"W@	c #414A4F",
"X@	c #49555B",
"Y@	c #586971",
"Z@	c #6B838D",
"`@	c #708995",
" #	c #637881",
".#	c #677C85",
"+#	c #818D92",
"@#	c #272423",
"##	c #362C26",
"$#	c #3B2D2C",
"%#	c #453939",
"&#	c #372A2A",
"*#	c #29201F",
"=#	c #1D1D1C",
"-#	c #1E3731",
";#	c #242627",
">#	c #4B5A61",
",#	c #576A72",
"'#	c #576970",
")#	c #1F2120",
"!#	c #15231E",
"~#	c #182F27",
"{#	c #1A2C26",
"]#	c #1B201E",
"^#	c #3D464A",
"/#	c #6E8691",
"(#	c #5E717A",
"_#	c #212323",
":#	c #404244",
"<#	c #232120",
"[#	c #423431",
"}#	c #443635",
"|#	c #251C1C",
"1#	c #181514",
"2#	c #1F2020",
"3#	c #4C5D64",
"4#	c #5A6E77",
"5#	c #353B3E",
"6#	c #13221D",
"7#	c #185A47",
"8#	c #258167",
"9#	c #2B9075",
"0#	c #236552",
"a#	c #1F2321",
"b#	c #5F727B",
"c#	c #718A96",
"d#	c #3D454A",
"e#	c #172620",
"f#	c #20614F",
"g#	c #205344",
"h#	c #181816",
"i#	c #3D332F",
"j#	c #453F41",
"k#	c #3B2D2D",
"l#	c #392C2C",
"m#	c #221C1B",
"n#	c #1C2E2A",
"o#	c #435055",
"p#	c #53666E",
"q#	c #27292A",
"r#	c #15372C",
"s#	c #238469",
"t#	c #36B894",
"u#	c #3FD5AC",
"v#	c #34A889",
"w#	c #1C2823",
"x#	c #56666D",
"y#	c #32373A",
"z#	c #1C4539",
"A#	c #34B491",
"B#	c #34A485",
"C#	c #1A211E",
"D#	c #3B302E",
"E#	c #403531",
"F#	c #443937",
"G#	c #3A2D2D",
"H#	c #1D1C1B",
"I#	c #181715",
"J#	c #2F3537",
"K#	c #4F6168",
"L#	c #2C3033",
"M#	c #172F27",
"N#	c #24866A",
"O#	c #38C29C",
"P#	c #42E2B7",
"Q#	c #339E80",
"R#	c #1F2523",
"S#	c #5E7079",
"T#	c #3B4246",
"U#	c #1B392F",
"V#	c #30A887",
"W#	c #2E896F",
"X#	c #191B19",
"Y#	c #251F1D",
"Z#	c #201718",
"`#	c #231A19",
" $	c #1F1715",
".$	c #1B1818",
"+$	c #26292A",
"@$	c #26282A",
"#$	c #181917",
"$$	c #1B3B31",
"%$	c #236250",
"&$	c #266B57",
"*$	c #1C342C",
"=$	c #373D40",
"-$	c #6D858F",
";$	c #596A72",
">$	c #1F2322",
",$	c #1A2F28",
"'$	c #1A2420",
")$	c #191311",
"!$	c #261C1A",
"~$	c #221B19",
"{$	c #1D1818",
"]$	c #1A1616",
"^$	c #191615",
"/$	c #252627",
"($	c #2C2F32",
"_$	c #343B3E",
":$	c #60747D",
"<$	c #475358",
"[$	c #1B1716",
"}$	c #241D1C",
"|$	c #2C2322",
"1$	c #3B2D2B",
"2$	c #3D2F2E",
"3$	c #2B2423",
"4$	c #5C7079",
"5$	c #506269",
"6$	c #617781",
"7$	c #6D8590",
"8$	c #627781",
"9$	c #404A4F",
"0$	c #211B1C",
"a$	c #382E2C",
"b$	c #3F3534",
"c$	c #423735",
"d$	c #332824",
"e$	c #1C1C1A",
"f$	c #242727",
"g$	c #2C3133",
"h$	c #414C51",
"i$	c #445156",
"j$	c #282B2D",
"k$	c #212223",
"l$	c #2C2729",
"m$	c #382521",
"n$	c #231C1B",
"o$	c #349A88",
"p$	c #286055",
"q$	c #181414",
"r$	c #242425",
"s$	c #2D2E31",
"t$	c #1E1D1C",
"u$	c #1B1918",
"v$	c #1B1917",
"w$	c #211E1D",
"x$	c #181615",
"y$	c #332D30",
"z$	c #453836",
"A$	c #483A37",
"B$	c #332927",
"C$	c #271E1A",
"D$	c #191F1C",
"E$	c #36A08E",
"F$	c #41D5BC",
"G$	c #21433D",
"H$	c #28282A",
"I$	c #41464B",
"J$	c #51575F",
"K$	c #3E4146",
"L$	c #242220",
"M$	c #282422",
"N$	c #211F1D",
"O$	c #171514",
"P$	c #1F1C1D",
"Q$	c #2B2421",
"R$	c #372E28",
"S$	c #3C2F29",
"T$	c #34231D",
"U$	c #211A17",
"V$	c #232223",
"W$	c #222222",
"X$	c #244C44",
"Y$	c #286156",
"Z$	c #1E1D1D",
"`$	c #3C4045",
" %	c #4E545C",
".%	c #555B64",
"+%	c #494E55",
"@%	c #212021",
"#%	c #3D3935",
"$%	c #2B2725",
"%%	c #1F1C1B",
"&%	c #242222",
"*%	c #272829",
"=%	c #1D1919",
"-%	c #2A2220",
";%	c #2B2C2E",
">%	c #51565E",
",%	c #4D5259",
"'%	c #222021",
")%	c #171513",
"!%	c #2C2D30",
"~%	c #373A3E",
"{%	c #44484E",
"]%	c #414449",
"^%	c #211F1F",
"/%	c #3E3A38",
"(%	c #312D2B",
"_%	c #2E2B29",
":%	c #373331",
"<%	c #242426",
"[%	c #191817",
"}%	c #2F2722",
"|%	c #35373A",
"1%	c #37393E",
"2%	c #35373B",
"3%	c #1C1B1B",
"4%	c #1B1A1A",
"5%	c #1C1A1A",
"6%	c #1D2220",
"7%	c #1B2724",
"8%	c #252426",
"9%	c #353231",
"0%	c #1F1D1C",
"a%	c #282121",
"b%	c #2F2526",
"c%	c #362B2A",
"d%	c #211C1A",
"e%	c #1D1B19",
"f%	c #1A1816",
"g%	c #201F20",
"h%	c #1D1D1D",
"i%	c #2E5751",
"j%	c #2C544E",
"k%	c #307267",
"l%	c #295C53",
"m%	c #262426",
"n%	c #1E1B1B",
"o%	c #1D1B1B",
"p%	c #272123",
"q%	c #2F2623",
"r%	c #29211E",
"s%	c #221B18",
"t%	c #1B1817",
"u%	c #25312F",
"v%	c #437E78",
"w%	c #449087",
"x%	c #2E5F58",
"y%	c #1C2623",
"z%	c #242223",
"A%	c #1E1C1C",
"B%	c #241C1D",
"C%	c #2F292F",
"D%	c #251D1E",
"E%	c #433534",
"F%	c #362B28",
"G%	c #211B19",
"H%	c #202020",
"I%	c #222727",
"J%	c #1F2524",
"K%	c #1F2826",
"L%	c #1C1919",
"M%	c #1A1514",
"N%	c #191617",
"O%	c #231C1F",
"P%	c #27201D",
"Q%	c #1F1F1F",
"R%	c #1D1817",
"S%	c #1A1615",
"T%	c #1E1919",
"U%	c #2A2120",
"V%	c #211B1B",
"W%	c #1E1817",
"X%	c #392F32",
"Y%	c #231915",
"Z%	c #191413",
"`%	c #1A100F",
" &	c #150D0D",
".&	c #160E0E",
"+&	c #16100F",
"@&	c #161312",
"#&	c #251D20",
"$&	c #352822",
"%&	c #1F1917",
"&&	c #281D1A",
"*&	c #33221F",
"=&	c #312523",
"-&	c #3F322F",
";&	c #413533",
">&	c #423634",
",&	c #3C3539",
"  . + @ @ # + # # # # + # # # . # $ + % . @ @ & .   * = * - &   & & & & & & & & & - & ; & & > ; , , ",
"' - )   ,   ! ! . . . # # . % . . $ $ . . # ~ { @ @ & @ ] &   &   # # & &   & # ^ - ' - ^ & ; > ' ' ",
"- ) ) ) )   ! ! % % % / / / % % %       . . ( _   @ . = :   ) < & & & & & & & &     / & &   ! ; - & ",
"            % [ / } | 1 2 3 4 5 6 7 8 9   . - 0 & . . a ~   > ] @ # @ @ @ @ @ @ . . . . .   /     . ",
"/         /     % b b c d e f g h i j k l   / / . / ( m n o > > * * * ~ ~ ~ > ~ . .     /           ",
"+ . + / +   .   . / % p q r s t u v w x y z A B C D E F G ) / +       &   . . .   &   ; ! ;   ;     ",
"@ + + @ @ + . . 1 / / 1 H I J K L M N O P Q R S T U V W X Y Z l - - & - - - ) ) -             / . / ",
"+ + @ + + . / / % / % % `  ...+.@.#.#.@.#.$.%.&.*.=.-.;.>.,.'.).Z   &   &   )   . . / . + + + + @ @ ",
"  !.  !./ ^ @ ~.! ! !   {.].^./.(._.#.:.<.[.}.|.1.2.3.4.5.6.7.8.9.0.@ . .   / / + . . . . / . / + !.",
"@ $ / + . / $ / . + . . / a.b.c.d.e.f.g._.h.i.j.k.l.m.n.o.p.q.r.s.t.u.  & & > ; v.b w.b v.v./ w.; ; ",
"@ +   !.+ . $ + + x.x.+ x.x.y.z.A.B./.C.D.E.F.G.H.I.J.K.L.M.N.O.P.Q.R.> ~ )   . !   1 / . . . . !.@ ",
"S.= = T.= = T.a U.U.V.W.V.W.V.F X.Y.Z.`. +.+++@+#+$+%+&+*+=+-+;+>+,+X '++ @ @ )+)+)+!+!+= !+= !+~+~+",
"= = {+T.~+~+= a !+!+]+!+!+W.^+/+(+_+.+:+<+[+}+|+1+2+3+4+5+6+7+8+9+0+a+b+U.U.T.U.W.= !+W.W.!+= W.c+T.",
"  + = . d+& ; - b b   w.  e+f+g+h+i+j+k+l+m+n+o+p+q+r+s+t+u+v+w+x+y+z+A+B+!   ! + + x.. C+. / . D+E+",
"E+@ F+^ G+^ ^ ^ v.w.v.v.H+I+J+K+L+M+^.N+O+P+Q+R+S+T+U+V+W+X+Y+Z+`+ @.@+@! - }   @@#@$@@@#@@@#@#@] D+",
"@ @ = d+{ / +   w.w.b b 9 %@&@K L+*@=@-@;@>@,@,@R+'@)@!@~@{@,@]@^@/@(@_@:@<@( [@}@}@@@}@|@|@|@' 1@D+",
"@ ~+)+- % + <@} }@| $@| 2@3@4@d.5@6@7@8@9@0@,@,@,@a@b@c@d@,@,@R+e@f@g@h@<@<@<@<@<@<@i@i@i@& % # @ $ ",
"& @ )+&   # - [ % # % p j@k@l@m@n@o@p@q@r@s@,@,@,@,@s@t@s@,@,@R+u@v@w@x@[ [ [ [ <@<@<@i@i@<@<@i@: |@",
"  @ a @ . @ / $ # # % y@z@A@G.B@C@D@E@F@G@t@s@s@t@t@,@,@,@,@,@H@I@J@K@L@[ [ [ [ [ & i@i@% $@, ,   / ",
"# @ )+  : & <@|@| % | M@B N@O@P@Q@R@S@T@0@U@V@W@X@Y@Z@`@,@,@Z@ #.#+#@###<@<@<@<@<@<@i@i@$@& i@$#. + ",
"@ @ ~+* %#|@#@}@| | b b &#*#=#-#3+;#>#,#'#)#!#~#{#]#^#/#s@(#7@T+_#:#<#h@[#( [@( < <@( <@<@' :@<@> / ",
"@ ~+F+& }#. +   b b / % , } 3 |#1#2#3#4#5#6#7#8#9#0#a#b#c#d#e#f#g#h#f+i#<@<@:@#@$@& ~.> $#- :@: w.+ ",
"E+!.)+; j#k#+ 1 1 1 b b b b l#m#n#]#o#p#q#r#s#t#u#v#w#x#,@y#z#A#B#C#m#D##@~.> > E#~ : : #@:@#@F#! . ",
"  @ T.  j#1 / 1 }@H+}@b k#k#G#5 H#I#J#K#L#M#N#O#P#Q#R#S#s@T#U#V#W#X#Y#} - ~.~.~.> & / )   + / ) E++ ",
"T.F+= ~+)+m m @ )+Z#m m m !+)+)+`# $.$+$@$#$$$%$&$*$=$-$t@;$>$,$'$1#)$= a = = T.T.= U.= U.= a = = = ",
"@ @ $ m m @ @ @ . / . . . . / + m $ !$~${$]$^$/$($_$:$s@R+,@<$1#[$}$|$/ + .   +   + + + + @ !.@ @ @ ",
"~ ~ & ) ) w.w.^ ~.- ~.> b ~.|@- 1$|@}@@@2$3$e S@4$5$6$7$,#8$9$0$a$#@( ( F#b$c$F#n c$F#c$c$: ( :@~ : ",
"& ^ ; ; ~.o #@: |@o > #@@@#@@@:@1$1$} d$+@e$q+f$g$)@h$i$R@j$k$l$  !   ! ) ) ) /   ! ! ! - ~.- $#o > ",
"$@$#$@<@<@( [#[#}@<@}@<@:@- - - , % m$n$w o$p$q$r$s$t$u$v$w$x$y$) ! } ! , , !   + # % .   ! $#$#<@' ",
"z$}#A$}#z$}#}#[@<@<@:@- !   % # % B$C$D$E$F$G$H$I$J$K$L$M$N$O$P$Q$R$:@' ' $#$#- } ! } - :@' <@<@[@( ",
"$@<@i@1$, i@i@, S$, & , ! % , % T$U$V$W$X$Y$Z$`$ %.%+%@%#%$%%%&%*%=%3 % % . # #   % % % , , , ! $@i@",
"$@$#! % % ! , , ! , ' <@0 <@( E#-%;%>%,%'%)%!%~%{%]%^%r$/%(%_%:%<%[%}%' ' & - ' &   ) ' $#' <@<@$@$@",
"!   , :@' ! ! $#, - w.> > > ^ R.d |%1%2%W$3%!%4%5%6%7%8%9%_%@%0%[$a%b%. +   ) :@- - ~.- ~.- - } 1$i@",
"<@' - :@:@- $#'   ) ) ) w.w.w.c%d%,+e%f%1#g%h%i%j%k%l%m%W$n%o%u$p%/ } | #@: #@o : : b$: ( ( #@}@<@}@",
". @ @ $ @ @ . @ . +   / +   . . Z q%r%s%t%o%u%v%w%x%y%z%A%B%C%D%E%k#x.$ $ @ @ $ + + + + . + / . . + ",
".     #   ) - ! #@#@#@: b$: : ^ %   F%G%H%u$I%J%K%L%M%5%N%O%x.x.c$1$+ + / > o : ) ! ) ! ) ! ! ) ! / ",
"  - :@> ; > :@>   , - - ; - ) ) - 9 P%Q%r$x$R%S%T%U%V%x$W%x.1 1 . . %   ~ ~ ' , ~ <@<@$#- ' > > X%X%",
"~+)+)+@ m ]+)+)+!+!+!+)+)+!+!+!+Y%Z%x$3%,+Z%`% &.&U.+&@&.&= ]+!+m m $ $ )+)+V.V.m )+)+)+!+)+)+m $ #&",
"@ = a m @ m )+$ @ @ # @ # # # # $&%&z@&&*&B+  / /   / =&+ C+/ / # $ $ m @ #   ! )+)+!+!+)+)+m $ $ $ ",
") m )+  ( :@$#}@0 0 [@[@}#z$A$z$-&;&>&A$z$[@}#}#( c$%#c$}#}#}@}@}@<@<@}@0 :@- ! , ! % ! , $#' :@:@:@",
"+ $ = x.x.% j#% ! % ! 1$i@$@$@$@& & & & <@<@|@- 1$1$| b 1 % i@i@. % % , , , ,   , % , %     & , }#[@",
"}@+ m . / / }#/ $#<@|@<@<@<@[@[#<@E#<@( ( ( <@$@$@}@k#$@}@$@$@$@& ' ' & & ' ' <@<@> 0 ' > <@E#E#<@<@",
"}#/ m 1 }@v.}@1 <@<@<@[#<@<@<@<@E#<@E#E#<@<@' S$$@$@i@i@$@$@<@<@$#& $#$@' <@<@& ' $@<@<@<@<@<@$@}#<@",
"v.x.!++ }@}@1 }@' <@$@<@<@<@$@$@<@<@<@<@<@<@$#S$1$1$} | i@| i@i@$#i@S$$@& <@> <@S$$#& <@' <@' & ' $#",
"/ #&!+m H+}#}@}@<@}@<@<@<@<@i@<@<@<@$@<@<@<@<@<@<@<@<@<@<@<@<@<@<@[@<@<@E#0 0 <@<@<@<@( <@0 <@0     ",
"/ Z#m m / }@H+$@$@$@$@$@i@$@i@i@, S$! % $@i@<@<@<@<@<@A$<@<@<@<@<@<@0 <@, & , , , , & , , , , , ) ) ",
"H+= #&x.+ }@$@$@$@$@$@$@i@i@i@i@, ! [ . i@i@$@<@<@<@i@i@<@i@<@$@$@& S$, , [ [ [ [ [ # # # # # # d+d+",
"}#c+Z#/ x.% b }@}@}@<@<@<@<@<@i@'   % % , , $@<@i@i@<@<@<@<@<@[#<@<@<@<@* * * <@E#> <@<@& ' > > ] ,&",
"#&#&#&C+1 v.b b 1$$@1$$@}@}@}@}@k#} , - - - ) ) - ; ; > > > ~.> * ~ > > ; > > ^ ~ ~ ~ : : ~ > ; ! E+",
"F+S.]+#&x./ + . + + + # . / / / / . . . . + . + + + + + + + C++ m @ m )+)+m m m m @ m m @ m m )+m ~+"};
