/* XPM */
static char * 5_xpm[] = {
"50 50 653 2",
"  	c #352925",
". 	c #322624",
"+ 	c #2D2322",
"@ 	c #2C211E",
"# 	c #32241E",
"$ 	c #291E1C",
"% 	c #3A2622",
"& 	c #3A3027",
"* 	c #3F342E",
"= 	c #1D1312",
"- 	c #392E2A",
"; 	c #38302E",
"> 	c #3D322C",
", 	c #3A2B25",
"' 	c #3B302A",
") 	c #392D29",
"! 	c #362B29",
"~ 	c #3E332D",
"{ 	c #4C413D",
"] 	c #48403E",
"^ 	c #383232",
"/ 	c #312728",
"( 	c #413632",
"_ 	c #524743",
": 	c #3F3430",
"< 	c #463B35",
"[ 	c #39261F",
"} 	c #3A2C2B",
"| 	c #3D2D2D",
"1 	c #372B2D",
"2 	c #3B2923",
"3 	c #32221E",
"4 	c #322525",
"5 	c #292021",
"6 	c #2D221F",
"7 	c #2E2420",
"8 	c #332926",
"9 	c #392C2B",
"0 	c #40322F",
"a 	c #1A110F",
"b 	c #3A2C2C",
"c 	c #302628",
"d 	c #1C1817",
"e 	c #191817",
"f 	c #1D302B",
"g 	c #203C36",
"h 	c #1F3732",
"i 	c #1E2D29",
"j 	c #1B1A19",
"k 	c #28211F",
"l 	c #382D29",
"m 	c #342825",
"n 	c #251B1A",
"o 	c #433A3A",
"p 	c #3A3132",
"q 	c #382521",
"r 	c #2D1F1C",
"s 	c #1A1818",
"t 	c #27675C",
"u 	c #3ABFA8",
"v 	c #41D2BA",
"w 	c #38AA97",
"x 	c #1B221F",
"y 	c #1A1514",
"z 	c #221B1A",
"A 	c #241C1A",
"B 	c #271D1C",
"C 	c #291F1C",
"D 	c #352B28",
"E 	c #1C1312",
"F 	c #3B302B",
"G 	c #382C2E",
"H 	c #2D2425",
"I 	c #1E1615",
"J 	c #235249",
"K 	c #38B9A3",
"L 	c #43E0C6",
"M 	c #42D7BE",
"N 	c #308677",
"O 	c #2E7D6F",
"P 	c #2F8173",
"Q 	c #338072",
"R 	c #347A6D",
"S 	c #2F6E62",
"T 	c #275D53",
"U 	c #224841",
"V 	c #1F3430",
"W 	c #1A221F",
"X 	c #201B19",
"Y 	c #211919",
"Z 	c #2E2421",
"` 	c #382C28",
" .	c #271F1F",
"..	c #1D312C",
"+.	c #309483",
"@.	c #3FD3BA",
"#.	c #45E7CC",
"$.	c #46E9CD",
"%.	c #45E8CD",
"&.	c #46E8CD",
"*.	c #4EEBD0",
"=.	c #5CECD4",
"-.	c #6EEDD7",
";.	c #74EAD6",
">.	c #51E0C8",
",.	c #3BBCA6",
"'.	c #399585",
").	c #3E8A7D",
"!.	c #30544D",
"~.	c #1E2623",
"{.	c #251E1B",
"].	c #272121",
"^.	c #382E2D",
"/.	c #282021",
"(.	c #1B2220",
"_.	c #286A5E",
":.	c #36B29D",
"<.	c #3FD4BB",
"[.	c #43E1C7",
"}.	c #45E6CB",
"|.	c #43E1C6",
"1.	c #3FD2BA",
"2.	c #3DCEB6",
"3.	c #45DCC3",
"4.	c #74ECD8",
"5.	c #92F1E1",
"6.	c #67EDD6",
"7.	c #308173",
"8.	c #203430",
"9.	c #5CC1B0",
"0.	c #87EBDA",
"a.	c #58BCAB",
"b.	c #276056",
"c.	c #1A1D1B",
"d.	c #261D1B",
"e.	c #302728",
"f.	c #2E1F1C",
"g.	c #1D1A19",
"h.	c #214942",
"i.	c #309887",
"j.	c #37B8A2",
"k.	c #3ECDB5",
"l.	c #44E4C9",
"m.	c #44E2C8",
"n.	c #3ECFB7",
"o.	c #38B8A3",
"p.	c #42CAB3",
"q.	c #54E6CE",
"r.	c #5AD4C0",
"s.	c #26403A",
"t.	c #171716",
"u.	c #356C62",
"v.	c #65EAD4",
"w.	c #68EED7",
"x.	c #4FE2C9",
"y.	c #286056",
"z.	c #211918",
"A.	c #3A2E30",
"B.	c #382C2C",
"C.	c #291F21",
"D.	c #2D2220",
"E.	c #1F1818",
"F.	c #1E3933",
"G.	c #309886",
"H.	c #35B09C",
"I.	c #42DAC1",
"J.	c #35AF9B",
"K.	c #3BC7B0",
"L.	c #37AA96",
"M.	c #1E2F2A",
"N.	c #366A60",
"O.	c #20332F",
"P.	c #3BBDA7",
"Q.	c #48E9CE",
"R.	c #40B9A4",
"S.	c #203B36",
"T.	c #261F1D",
"U.	c #3A302A",
"V.	c #171115",
"W.	c #150C0C",
"X.	c #1A0E0D",
"Y.	c #20120F",
"Z.	c #180F13",
"`.	c #1B1413",
" +	c #181413",
".+	c #297165",
"++	c #38BCA6",
"@+	c #42DBC1",
"#+	c #3BC0AA",
"$+	c #36AE9A",
"%+	c #329E8C",
"&+	c #34AB97",
"*+	c #2F8878",
"=+	c #1B2825",
"-+	c #509C8F",
";+	c #282F2C",
">+	c #265B52",
",+	c #349987",
"'+	c #1D2F2B",
")+	c #1C2320",
"!+	c #211C1A",
"~+	c #2E221C",
"{+	c #241915",
"]+	c #211614",
"^+	c #1E181A",
"/+	c #110907",
"(+	c #1C1619",
"_+	c #1F1514",
":+	c #191414",
"<+	c #1E3530",
"[+	c #329C8A",
"}+	c #3ED1B9",
"|+	c #36B09C",
"1+	c #286C60",
"2+	c #1E3833",
"3+	c #1C2926",
"4+	c #1C2C29",
"5+	c #20433C",
"6+	c #1C2E2A",
"7+	c #24534A",
"8+	c #55C5B2",
"9+	c #2F3E3A",
"0+	c #21453E",
"a+	c #2F8B7B",
"b+	c #308E7D",
"c+	c #38AA96",
"d+	c #3BB6A1",
"e+	c #22423C",
"f+	c #181110",
"g+	c #160E12",
"h+	c #3C3636",
"i+	c #322726",
"j+	c #1C1A19",
"k+	c #224C44",
"l+	c #309987",
"m+	c #3BC6AF",
"n+	c #35A995",
"o+	c #20453E",
"p+	c #1F2020",
"q+	c #33393D",
"r+	c #434E54",
"s+	c #47545A",
"t+	c #2F3234",
"u+	c #1A2522",
"v+	c #35A996",
"w+	c #4BECD1",
"x+	c #3D8578",
"y+	c #1A1918",
"z+	c #2E2E2E",
"A+	c #303030",
"B+	c #203631",
"C+	c #38A996",
"D+	c #285F55",
"E+	c #261C1A",
"F+	c #2D2629",
"G+	c #383435",
"H+	c #2F292D",
"I+	c #171518",
"J+	c #4B4140",
"K+	c #221C1B",
"L+	c #33A592",
"M+	c #35AF9A",
"N+	c #35AB97",
"O+	c #214740",
"P+	c #232324",
"Q+	c #46545A",
"R+	c #586C75",
"S+	c #69808A",
"T+	c #718B96",
"U+	c #5B6D75",
"V+	c #1E2322",
"W+	c #256156",
"X+	c #319382",
"Y+	c #234F46",
"Z+	c #2F3335",
"`+	c #778991",
" @	c #93A1A8",
".@	c #545557",
"+@	c #1E3732",
"@@	c #1F3631",
"#@	c #2C2320",
"$@	c #3B2F31",
"%@	c #3D3230",
"&@	c #412E2A",
"*@	c #372A2A",
"=@	c #1D1B1A",
"-@	c #34AC98",
";@	c #34AD99",
">@	c #26665B",
",@	c #1F1F1F",
"'@	c #576B73",
")@	c #687F89",
"!@	c #708A95",
"~@	c #708994",
"{@	c #6E8792",
"]@	c #4C5A60",
"^@	c #292B2D",
"/@	c #232526",
"(@	c #313538",
"_@	c #5C6F78",
":@	c #7B939D",
"<@	c #8E9AA0",
"[@	c #2A2928",
"}@	c #191615",
"|@	c #352A29",
"1@	c #3E302F",
"2@	c #43322D",
"3@	c #433532",
"4@	c #413131",
"5@	c #3D2F2F",
"6@	c #4E4546",
"7@	c #3A2926",
"8@	c #1E1817",
"9@	c #1D342F",
"0@	c #329F8D",
"a@	c #319D8B",
"b@	c #373F42",
"c@	c #4A5960",
"d@	c #5F747D",
"e@	c #667B85",
"f@	c #6C848F",
"g@	c #718A95",
"h@	c #6F8893",
"i@	c #8EA1AA",
"j@	c #505355",
"k@	c #221B18",
"l@	c #40302B",
"m@	c #412D26",
"n@	c #372521",
"o@	c #221A18",
"p@	c #20423B",
"q@	c #2D8979",
"r@	c #2B7E6F",
"s@	c #1D1F1E",
"t@	c #3C464A",
"u@	c #424F54",
"v@	c #687E88",
"w@	c #8399A3",
"x@	c #6D7477",
"y@	c #211917",
"z@	c #38251E",
"A@	c #35231F",
"B@	c #1C1C1A",
"C@	c #2B7D6F",
"D@	c #35B19C",
"E@	c #26665A",
"F@	c #1F1E1E",
"G@	c #2D3335",
"H@	c #566971",
"I@	c #6F8792",
"J@	c #6F8892",
"K@	c #718A96",
"L@	c #7D95A0",
"M@	c #7A8388",
"N@	c #211B1A",
"O@	c #372923",
"P@	c #3C2C2C",
"Q@	c #281F1E",
"R@	c #1D312D",
"S@	c #2A776A",
"T@	c #32A08D",
"U@	c #24594F",
"V@	c #282A2C",
"W@	c #435156",
"X@	c #6D858F",
"Y@	c #4A575C",
"Z@	c #353B3E",
"`@	c #373D40",
" #	c #3F474C",
".#	c #505E65",
"+#	c #627780",
"@#	c #56676E",
"##	c #5F6F77",
"$#	c #747D81",
"%#	c #241F1E",
"&#	c #382D28",
"*#	c #3B2D2C",
"=#	c #453939",
"-#	c #29201F",
";#	c #1E1C1B",
">#	c #1B2926",
",#	c #282C2D",
"'#	c #4D5D64",
")#	c #5B6F78",
"!#	c #191B19",
"~#	c #152D24",
"{#	c #1A3B30",
"]#	c #1B362D",
"^#	c #19211E",
"/#	c #3C4549",
"(#	c #6E8791",
"_#	c #506066",
":#	c #212323",
"<#	c #1C201E",
"[#	c #323233",
"}#	c #231F1D",
"|#	c #3F2F2B",
"1#	c #423431",
"2#	c #443635",
"3#	c #231B1B",
"4#	c #181716",
"5#	c #222525",
"6#	c #4F6068",
"7#	c #586C74",
"8#	c #2C2F31",
"9#	c #132A22",
"0#	c #1B6550",
"a#	c #288C71",
"b#	c #2E9C7E",
"c#	c #246754",
"d#	c #212423",
"e#	c #32373A",
"f#	c #18342B",
"g#	c #257A62",
"h#	c #225D4C",
"i#	c #171715",
"j#	c #231C1C",
"k#	c #453F41",
"l#	c #3B2D2D",
"m#	c #382B2B",
"n#	c #1E1B1A",
"o#	c #1C2F2B",
"p#	c #1C1F1E",
"q#	c #51636A",
"r#	c #222324",
"s#	c #164134",
"t#	c #278E71",
"u#	c #39C39D",
"v#	c #42DEB4",
"w#	c #33A284",
"x#	c #1E2522",
"y#	c #5C6F77",
"z#	c #6D8590",
"A#	c #1F5444",
"B#	c #38C39D",
"C#	c #339E81",
"D#	c #26201E",
"E#	c #3C312F",
"F#	c #403531",
"G#	c #443937",
"H#	c #392D2F",
"I#	c #2C2222",
"J#	c #181615",
"K#	c #303638",
"L#	c #292D2E",
"M#	c #173229",
"N#	c #25876B",
"O#	c #37C09A",
"P#	c #40DAB0",
"Q#	c #2D8169",
"R#	c #242627",
"S#	c #657A84",
"T#	c #383F43",
"U#	c #1B382F",
"V#	c #2D9779",
"W#	c #276855",
"X#	c #292120",
"Y#	c #201718",
"Z#	c #231A19",
"`#	c #1F1715",
" $	c #1A1717",
".$	c #232525",
"+$	c #181816",
"@$	c #1B332B",
"#$	c #205042",
"$$	c #215243",
"%$	c #1B2622",
"&$	c #434E53",
"*$	c #708893",
"=$	c #5A6D75",
"-$	c #19221E",
";$	c #181A18",
">$	c #181515",
",$	c #1A1210",
"'$	c #271D1B",
")$	c #1E1919",
"!$	c #1B1615",
"~$	c #2C2F32",
"{$	c #363C40",
"]$	c #3E494E",
"^$	c #667C86",
"/$	c #6D8691",
"($	c #455056",
"_$	c #171414",
":$	c #1E1918",
"<$	c #271F1E",
"[$	c #3B2D2B",
"}$	c #3D2F2E",
"|$	c #2A2322",
"1$	c #191716",
"2$	c #435055",
"3$	c #4C5D63",
"4$	c #617680",
"5$	c #4E5E64",
"6$	c #5B6E76",
"7$	c #363D40",
"8$	c #261F1F",
"9$	c #3B302F",
"0$	c #3F3534",
"a$	c #423735",
"b$	c #322723",
"c$	c #1C221F",
"d$	c #1A1F1D",
"e$	c #222323",
"f$	c #242727",
"g$	c #3A4347",
"h$	c #374044",
"i$	c #1D1D1D",
"j$	c #212223",
"k$	c #1D1C1D",
"l$	c #2F2A2D",
"m$	c #362420",
"n$	c #201A19",
"o$	c #22473F",
"p$	c #39AF9B",
"q$	c #1A1615",
"r$	c #2A2B2D",
"s$	c #343639",
"t$	c #1E1D1D",
"u$	c #1B1917",
"v$	c #24211F",
"w$	c #332D30",
"x$	c #453836",
"y$	c #483A37",
"z$	c #2F2524",
"A$	c #201917",
"B$	c #3EC8B0",
"C$	c #2C2C2F",
"D$	c #43484E",
"E$	c #535961",
"F$	c #41454A",
"G$	c #262422",
"H$	c #2A2624",
"I$	c #211E1D",
"J$	c #171514",
"K$	c #1D1A1A",
"L$	c #25201E",
"M$	c #332A25",
"N$	c #3D302F",
"O$	c #3C2F29",
"P$	c #2F201B",
"Q$	c #2E2F31",
"R$	c #272728",
"S$	c #21403A",
"T$	c #234A43",
"U$	c #201E1F",
"V$	c #3F4349",
"W$	c #50555D",
"X$	c #555B64",
"Y$	c #464A51",
"Z$	c #201F20",
"`$	c #3F3A37",
" %	c #292624",
".%	c #201E1C",
"+%	c #272626",
"@%	c #2F3033",
"#%	c #1B1918",
"$%	c #31211E",
"%%	c #3E3330",
"&%	c #221D1B",
"*%	c #393B3F",
"=%	c #555B63",
"-%	c #4D5159",
";%	c #201E1E",
">%	c #171413",
",%	c #34363A",
"'%	c #42454A",
")%	c #3C3E43",
"!%	c #1E1C1C",
"~%	c #242426",
"{%	c #403C39",
"]%	c #2E2A28",
"^%	c #2E2B29",
"/%	c #35312F",
"(%	c #222122",
"_%	c #1A1817",
":%	c #2F2722",
"<%	c #372D28",
"[%	c #303133",
"}%	c #2A2A2C",
"|%	c #2B2C2E",
"1%	c #1D1C1B",
"2%	c #1E1D1E",
"3%	c #1A1B1A",
"4%	c #1B1919",
"5%	c #1D2523",
"6%	c #1C2A26",
"7%	c #262527",
"8%	c #353231",
"9%	c #2B2323",
"0%	c #302627",
"a%	c #352A2A",
"b%	c #1B1816",
"c%	c #221F1D",
"d%	c #1C1918",
"e%	c #1D1E1D",
"f%	c #33655E",
"g%	c #2F5C55",
"h%	c #337D71",
"i%	c #27554C",
"j%	c #272527",
"k%	c #212020",
"l%	c #211D1E",
"m%	c #1E1B1D",
"n%	c #272123",
"o%	c #342A27",
"p%	c #2B2220",
"q%	c #1C1B1A",
"r%	c #283836",
"s%	c #427B76",
"t%	c #428980",
"u%	c #2A524C",
"v%	c #1A201E",
"w%	c #242324",
"x%	c #1C1B1B",
"y%	c #251D1E",
"z%	c #322B31",
"A%	c #261D1F",
"B%	c #433534",
"C%	c #332A26",
"D%	c #1F1A18",
"E%	c #212121",
"F%	c #212524",
"G%	c #1D201E",
"H%	c #1D2220",
"I%	c #1E191A",
"J%	c #1B1A1A",
"K%	c #191616",
"L%	c #241C1F",
"M%	c #372A29",
"N%	c #231D1A",
"O%	c #212122",
"P%	c #1B1715",
"Q%	c #211B1B",
"R%	c #2B2120",
"S%	c #201A1B",
"T%	c #1F1817",
"U%	c #392F32",
"V%	c #231915",
"W%	c #191514",
"X%	c #191412",
"Y%	c #1A0F0E",
"Z%	c #140C0C",
"`%	c #150D0D",
" &	c #161010",
".&	c #161211",
"+&	c #251D20",
"@&	c #342722",
"#&	c #211A17",
"$&	c #312624",
"%&	c #433634",
"&&	c #443735",
"*&	c #3C3539",
"  . + @ @ # + # # # # + # # # . # $ + % . @ @ & .   * = * - &   & & & & & & & & & - & ; & & > ; , , ",
"' - )   ,   ! ! . . . # # . % . . $ $ . . # ~ { @ @ & @ ] &   &   # # & &   & # ^ - ' - ^ & ; > ' ' ",
"- ) ) ) )   ! ! % % % / / / % % %       . . ( _   @ . = :   ) < & & & & & & & &     / & &   ! ; - & ",
"            % [ / } | 1 2 3 4 5 6 7 8 9   . - 0 & . . a ~   > ] @ # @ @ @ @ @ @ . . . . .   /     . ",
"/         /     % b b c d e f g h i j k l m / / . / ( n o p > > * * * ~ ~ ~ > ~ . .     /           ",
"+ . + / +   .   . / % q r s t u v w x y z z A B n C D E F ) / +       &   . . .   &   ; ! ;   ;     ",
"@ + + @ @ + . . G / / G H I J K L M N O P Q R S T U V W X Y Z ` - - & - - - ) ) -             / . / ",
"+ + @ + + . / / % / % %  ...+.@.#.#.$.%.&.*.=.-.;.>.,.'.).!.~.{.Z   &   &   )   . . / . + + + + @ @ ",
"  ].  ]./ ^ @ ^.! ! !   /.(._.:.<.[.}.|.1.2.3.4.5.6.7.8.9.0.a.b.c.d.@ . .   / / + . . . . / . / + ].",
"@ $ / + . / $ / . + . . e.f.g.h.i.j.k.l.m.n.o.p.q.r.s.t.u.v.w.x.y.z..   & & > ; A.b B.b A.A./ B.; ; ",
"@ +   ].+ . $ + + C.C.+ C.C.D.E.F.G.H.I.&.%.@.J.K.L.M.N.O.P.Q.R.S.T.U.> ~ )   . !   G / . . . . ].@ ",
"V.= = W.= = W.a X.X.Y.Z.Y.Z.Y.`. +.+++@+@.#+$+%+&+*+=+-+;+>+l.,+'+)+!+~++ @ @ {+{+{+]+]+= ]+= ]+^+^+",
"= = /+W.^+^+= a ]+]+(+]+]+Z._+:+<+[+}+|+1+2+3+4+5+6+7+8+9+0+a+b+c+d+e+f+X.X.W.X.Z.= ]+Z.Z.]+= Z.g+W.",
"  + = . h+& ; - b b   B.  i+j+k+l+m+n+o+p+q+r+s+t+u+v+w+x+y+z+A+B+C+D+E+  !   ! + + C.. F+. / . G+H+",
"H+@ I+^ J+^ ^ ^ A.B.A.A.G K+J L+M+N+O+P+Q+R+S+T+U+V+W+X+Y+Z+`+ @.@+@@@#@! - }   $@%@&@$@%@$@%@%@] G+",
"@ @ = h+{ / +   B.B.b b *@=@1+-@;@>@,@Q+'@)@!@~@{@]@^@/@(@_@!@:@<@[@}@|@1@2@( 3@4@4@$@4@5@5@5@' 6@G+",
"@ ^+{+- % + 2@} 4@| &@| 7@8@9@0@a@6+b@c@d@~@~@~@~@~@S+e@f@g@~@h@i@j@k@l@2@2@2@2@2@2@m@m@m@& % # @ $ ",
"& @ {+&   # - [ % # % n@o@p@q@;@r@s@t@u@v@g@~@~@~@~@!@g@~@~@~@h@w@x@y@z@[ [ [ [ 2@2@2@m@m@2@2@m@: 5@",
"  @ a @ . @ / $ # # % A@B@C@D@J.E@F@G@H@I@g@J@h@g@T+!@~@~@~@g@K@L@M@N@O@[ [ [ [ [ & m@m@% &@, ,   / ",
"# @ {+  : & 2@5@| % | P@Q@R@S@T@U@V@W@H@X@Y@Z@`@ #.#S+!@~@I@+#@###$#%#&#2@2@2@2@2@2@m@m@&@& m@*#. + ",
"@ @ ^+* =#5@%@4@| | b b *@-#;#..>#,#'#)#]@!#~#{#]#^#/#(#g@_#:#x <#[#}#|#1#( 3@( < 2@( 2@2@' 1@2@> / ",
"@ ^+I+& 2#. +   b b / % , } A@3#4#5#6#7#8#9#0#a#b#c#d#+#I@e#f#g#h#i#j#: 2@2@1@%@&@& ^.> *#- 1@: B.+ ",
"H+].{+; k#l#+ G G G b b b b m#n#o#p#Q+q#r#s#t#u#v#w#x#y#z#8#A#B#C#!#D#E#%@^.> > F#~ : : %@1@%@G#! . ",
"  @ W.  k#G / G 4@H#4@b l#l#b I#;#J#K#'#L#M#N#O#P#Q#R#S#~@T#U#V#W#J#X#} - ^.^.^.> & / )   + / ) H++ ",
"W.I+= ^+{+n n @ {+Y#n n n ]+{+{+Z#`# $.$r#+$@$#$$$%$&$*$T+=$5#-$;$>$,$= a = = W.W.= X.= X.= a = = = ",
"@ @ $ n n @ @ @ . / . . . . / + n $ '$A )$!$ $~${$]$^$g@/$g@($_$:$<$+ / + .   +   + + + + @ ].@ @ @ ",
"~ ~ & ) ) B.B.^ ^.- ^.> b ^.5@- [$5@4@$@}$|$1$2$7#3$4$S+5$6$7$8$9$%@( ( G#0$a$G#o a$G#a$a$: ( 1@~ : ",
"& ^ ; ; ^.p %@: 5@p > %@$@%@$@1@[$[$} b$A c$d$e$f$p+g$h$i$j$k$l$  !   ! ) ) ) /   ! ! ! - ^.- *#p > ",
"&@*#&@2@2@( 1#1#4@2@4@2@1@- - - , % m$n$o$p$y.q$r$s$t$u$n#v$1$w$` ! } ! , , !   + # % .   ! *#*#2@' ",
"x$2#y$2#x$2#2#3@2@2@1@- !   % # % z$A$W c+B$h C$D$E$F$G$H$I$J$K$L$M$N$' ' *#*#- } ! } - 1@' 2@2@3@( ",
"&@2@m@[$, m@m@, O$, & , ! % , % P$n#Q$R$S$T$U$V$W$X$Y$Z$`$ %.%+%@%#%$%% % . # #   % % % , , , ! &@m@",
"&@*#! % % ! , , ! , ' 2@0 2@( %%&%*%=%-%;%>%@%,%'%)%!%~%{%]%^%/%(%_%:%' ' & - ' &   ) ' *#' 2@2@&@&@",
"!   , 1@' ! ! *#, - B.> > > ^ <%=@[%}%|%1%2%r$3%4%5%6%7%8%H$4%;#d 9%0%. +   ) 1@- - ^.- ^.- - } [$m@",
"2@' - 1@1@- *#'   ) ) ) B.B.B.a%!+b%c%d%}@Z$e%f%g%h%i%j%k%l%m%#%n%/ } | %@: %@p : : 0$: ( ( %@4@2@4@",
". @ @ $ @ @ . @ . +   / +   . . b$o%p%k@4%q%r%s%t%u%v%w%x%y%z%A%B%l#C.$ $ @ @ $ + + + + . + / . . + ",
".     #   ) - ! %@%@%@: 0$: : ^ %   C%D%E%s F%G%H%I%q$J%K%L%C.C.a$[$+ + / > p : ) ! ) ! ) ! ! ) ! / ",
"  - 1@> ; > 1@>   , - - ; - ) ) - M%N%O%O%J#:$P%Q%R%S%J#T%C.G G . . %   ~ ~ ' , ~ 2@2@*#- ' > > U%U%",
"^+{+{+@ n (+{+{+]+]+]+{+{+]+]+]+V%W%J#j }@X%Y%Z%`%X. &.&`%= (+]+n n $ $ {+{+Y.Y.n {+{+{+]+{+{+n $ +&",
"@ = a n @ n {+$ @ @ # @ # # # # @&#&N@r m$    / /   / $&+ F+/ / # $ $ n @ #   ! {+{+]+]+{+{+n $ $ $ ",
") n {+  ( 1@*#4@0 0 3@3@2#x$y$x$0 %&&&y$x$3@2#2#( a$=#a$2#2#4@4@4@2@2@4@0 1@- ! , ! % ! , *#' 1@1@1@",
"+ $ = C.C.% k#% ! % ! [$m@&@&@&@& & & & 2@2@5@- [$[$| b G % m@m@. % % , , , ,   , % , %     & , 2#3@",
"4@+ n . / / 2#/ *#2@5@2@2@2@3@1#2@F#2@( ( ( 2@&@&@4@l#&@4@&@&@&@& ' ' & & ' ' 2@2@> 0 ' > 2@F#F#2@2@",
"2#/ n G 4@A.4@G 2@2@2@1#2@2@2@2@F#2@F#F#2@2@' O$&@&@m@m@&@&@2@2@*#& *#&@' 2@2@& ' &@2@2@2@2@2@&@2#2@",
"A.C.]++ 4@4@G 4@' 2@&@2@2@2@&@&@2@2@2@2@2@2@*#O$[$[$} | m@| m@m@*#m@O$&@& 2@> 2@O$*#& 2@' 2@' & ' *#",
"/ +&]+n H#2#4@4@2@4@2@2@2@2@m@2@2@2@&@2@2@2@2@2@2@2@2@2@2@2@2@2@2@3@2@2@F#0 0 2@2@2@2@( 2@0 2@0     ",
"/ Y#n n / 4@H#&@&@&@&@&@m@&@m@m@, O$! % &@m@2@2@2@2@2@y$2@2@2@2@2@2@0 2@, & , , , , & , , , , , ) ) ",
"H#= +&C.+ 4@&@&@&@&@&@&@m@m@m@m@, ! [ . m@m@&@2@2@2@m@m@2@m@2@&@&@& O$, , [ [ [ [ [ # # # # # # h+h+",
"2#g+Y#/ C.% b 4@4@4@2@2@2@2@2@m@'   % % , , &@2@m@m@2@2@2@2@2@1#2@2@2@2@* * * 2@F#> 2@2@& ' > > ] *&",
"+&+&+&F+G A.b b [$&@[$&@4@4@4@4@l#} , - - - ) ) - ; ; > > > ^.> * ~ > > ; > > ^ ~ ~ ~ : : ~ > ; ! H+",
"I+V.(++&C./ + . + + + # . / / / / . . . . + . + + + + + + + F++ n @ n {+{+n n n n @ n n @ n n {+n ^+"};
