/* XPM */
static char * 6_xpm[] = {
"50 50 650 2",
"  	c #352925",
". 	c #322624",
"+ 	c #2D2322",
"@ 	c #2C211E",
"# 	c #32241E",
"$ 	c #291E1C",
"% 	c #3A2622",
"& 	c #3A3027",
"* 	c #3F342E",
"= 	c #1D1312",
"- 	c #392E2A",
"; 	c #38302E",
"> 	c #3D322C",
", 	c #3A2B25",
"' 	c #3B302A",
") 	c #392D29",
"! 	c #362B29",
"~ 	c #3E332D",
"{ 	c #4C413D",
"] 	c #48403E",
"^ 	c #383232",
"/ 	c #312728",
"( 	c #413632",
"_ 	c #524743",
": 	c #3F3430",
"< 	c #463B35",
"[ 	c #39261F",
"} 	c #3A2C2B",
"| 	c #3D2D2D",
"1 	c #352A2C",
"2 	c #382822",
"3 	c #2F201D",
"4 	c #302323",
"5 	c #271E1F",
"6 	c #2B211E",
"7 	c #2C221F",
"8 	c #322825",
"9 	c #392C2B",
"0 	c #40322F",
"a 	c #1A110F",
"b 	c #3A2C2C",
"c 	c #2B2324",
"d 	c #191615",
"e 	c #191C1A",
"f 	c #203D37",
"g 	c #234841",
"h 	c #22423C",
"i 	c #1E322E",
"j 	c #191817",
"k 	c #2B2321",
"l 	c #372D29",
"m 	c #332824",
"n 	c #302627",
"o 	c #251B1A",
"p 	c #433A3A",
"q 	c #3A3132",
"r 	c #382521",
"s 	c #2B1E1B",
"t 	c #1A1D1B",
"u 	c #2C8071",
"v 	c #3DC9B2",
"w 	c #43DCC2",
"x 	c #339584",
"y 	c #181817",
"z 	c #1B1817",
"A 	c #1F1B1A",
"B 	c #1F1C1A",
"C 	c #211B19",
"D 	c #231B1B",
"E 	c #221918",
"F 	c #261D1A",
"G 	c #312825",
"H 	c #1B1212",
"I 	c #392F29",
"J 	c #382D29",
"K 	c #382C2E",
"L 	c #292122",
"M 	c #296F62",
"N 	c #3BC4AD",
"O 	c #44E5CA",
"P 	c #40CEB6",
"Q 	c #339282",
"R 	c #339484",
"S 	c #359887",
"T 	c #3C9788",
"U 	c #3D9283",
"V 	c #378678",
"W 	c #2D7367",
"X 	c #275C53",
"Y 	c #22453E",
"Z 	c #1D2D29",
"` 	c #1E1D1B",
" .	c #1F1818",
"..	c #372B28",
"+.	c #211B1B",
"@.	c #21453E",
"#.	c #33A794",
"$.	c #41DAC1",
"%.	c #45E7CC",
"&.	c #45E8CC",
"*.	c #46E9CE",
"=.	c #46E8CD",
"-.	c #4FEBD1",
";.	c #5DEDD5",
">.	c #78F0DC",
",.	c #7BEFDC",
"'.	c #50E6CD",
").	c #39AF9B",
"!.	c #3D9A8A",
"~.	c #49A191",
"{.	c #3B6860",
"].	c #212F2C",
"^.	c #221C1A",
"/.	c #2D2320",
"(.	c #272121",
"_.	c #382E2D",
":.	c #261F1F",
"<.	c #1B2724",
"[.	c #296F63",
"}.	c #37B49F",
"|.	c #3FD3BA",
"1.	c #43E0C6",
"2.	c #45E6CB",
"3.	c #43DFC5",
"4.	c #3ECFB7",
"5.	c #3CCBB3",
"6.	c #48DBC2",
"7.	c #79EDD9",
"8.	c #8AF0DF",
"9.	c #5DE3CD",
"0.	c #26554C",
"a.	c #21342F",
"b.	c #67CDBB",
"c.	c #89F0DF",
"d.	c #56C8B5",
"e.	c #2A6C60",
"f.	c #1B1E1C",
"g.	c #271E1B",
"h.	c #2D1E1C",
"i.	c #1D1B1A",
"j.	c #224D45",
"k.	c #319B89",
"l.	c #37B7A1",
"m.	c #3ECEB6",
"n.	c #45E5CA",
"o.	c #44E3C8",
"p.	c #3ECFB6",
"q.	c #37B7A2",
"r.	c #3FC9B2",
"s.	c #50E7CE",
"t.	c #4DB6A4",
"u.	c #1F2B27",
"v.	c #1A1F1D",
"w.	c #377E71",
"x.	c #5DECD4",
"y.	c #62EDD5",
"z.	c #4CDEC5",
"A.	c #234B43",
"B.	c #251C1A",
"C.	c #3A2E30",
"D.	c #382C2C",
"E.	c #291F21",
"F.	c #2C2220",
"G.	c #1E1917",
"H.	c #204039",
"I.	c #319E8C",
"J.	c #36B49F",
"K.	c #34AE9A",
"L.	c #3BC9B2",
"M.	c #308A7A",
"N.	c #213934",
"O.	c #3C7066",
"P.	c #203732",
"Q.	c #3CC2AB",
"R.	c #46E7CC",
"S.	c #338E7E",
"T.	c #29211F",
"U.	c #171115",
"V.	c #150C0C",
"W.	c #1A0E0D",
"X.	c #20120F",
"Y.	c #180F13",
"Z.	c #1B1312",
"`.	c #191A19",
" +	c #2D8677",
".+	c #3BC5AE",
"++	c #3CC7B0",
"@+	c #36AD99",
"#+	c #329987",
"$+	c #2F9382",
"%+	c #33A592",
"&+	c #28675C",
"*+	c #203530",
"=+	c #55A093",
"-+	c #1F1F1E",
";+	c #2B7064",
">+	c #329181",
",+	c #22463F",
"'+	c #1E332E",
")+	c #201C1A",
"!+	c #2E221C",
"~+	c #241915",
"{+	c #211614",
"]+	c #1E181A",
"^+	c #110907",
"/+	c #1C1619",
"(+	c #1D1514",
"_+	c #224B44",
":+	c #37B29D",
"<+	c #225048",
"[+	c #1C2926",
"}+	c #1D2321",
"|+	c #1C2623",
"1+	c #1D342F",
"2+	c #1A2421",
"3+	c #2D7C6E",
"4+	c #58C8B5",
"5+	c #2A3532",
"6+	c #214941",
"7+	c #27695D",
"8+	c #2A7366",
"9+	c #38AD99",
"0+	c #3EC4AD",
"a+	c #203A34",
"b+	c #19110F",
"c+	c #160E12",
"d+	c #3C3636",
"e+	c #2E2322",
"f+	c #1B1E1D",
"g+	c #266459",
"h+	c #33A693",
"i+	c #3CC8B1",
"j+	c #2F8F7F",
"k+	c #1C2F2B",
"l+	c #252628",
"m+	c #3D474C",
"n+	c #4C5B62",
"o+	c #516168",
"p+	c #2F3234",
"q+	c #1D332E",
"r+	c #3ABDA7",
"s+	c #4AE8CE",
"t+	c #336D62",
"u+	c #1F1B1B",
"v+	c #424244",
"w+	c #3E3D3E",
"x+	c #202F2B",
"y+	c #359C8A",
"z+	c #22443E",
"A+	c #2A201D",
"B+	c #2D2629",
"C+	c #383435",
"D+	c #2F292D",
"E+	c #171518",
"F+	c #4B4140",
"G+	c #1E1B1B",
"H+	c #27695E",
"I+	c #34AC98",
"J+	c #35AF9B",
"K+	c #1D312C",
"L+	c #2C2F31",
"M+	c #4E5E65",
"N+	c #5D727B",
"O+	c #6D8590",
"P+	c #728C97",
"Q+	c #56676E",
"R+	c #1E2321",
"S+	c #23554C",
"T+	c #2A7265",
"U+	c #41494D",
"V+	c #7E949D",
"W+	c #98A7AF",
"X+	c #545658",
"Y+	c #1C2F2A",
"Z+	c #1C2522",
"`+	c #312723",
" @	c #3B2F31",
".@	c #3D3230",
"+@	c #412E2A",
"@@	c #352828",
"#@	c #2A7769",
"$@	c #33A995",
"%@	c #5A6E76",
"&@	c #6C848F",
"*@	c #708995",
"=@	c #708994",
"-@	c #6E8792",
";@	c #505E65",
">@	c #303437",
",@	c #2D2F31",
"'@	c #424C51",
")@	c #687E88",
"!@	c #6F8994",
"~@	c #7B929D",
"{@	c #8A969B",
"]@	c #262424",
"^@	c #1E1918",
"/@	c #392C2C",
"(@	c #3E302F",
"_@	c #43322D",
":@	c #433532",
"<@	c #413131",
"[@	c #3D2F2F",
"}@	c #4E4546",
"|@	c #362723",
"1@	c #1B1615",
"2@	c #20433C",
"3@	c #33A894",
"4@	c #2E8D7D",
"5@	c #1C2422",
"6@	c #3F4A4F",
"7@	c #48575D",
"8@	c #647A84",
"9@	c #708A95",
"0@	c #718A95",
"a@	c #6D8690",
"b@	c #90A2AA",
"c@	c #484A4B",
"d@	c #281F1C",
"e@	c #42312D",
"f@	c #412D26",
"g@	c #352320",
"h@	c #1E1B19",
"i@	c #23544B",
"j@	c #309786",
"k@	c #276A5E",
"l@	c #1F1F1F",
"m@	c #3C464B",
"n@	c #48565C",
"o@	c #6F8893",
"p@	c #869CA6",
"q@	c #62676A",
"r@	c #231A16",
"s@	c #38261F",
"t@	c #33221E",
"u@	c #1B201E",
"v@	c #2D8879",
"w@	c #35B19C",
"x@	c #212121",
"y@	c #333A3D",
"z@	c #5C7079",
"A@	c #6F8792",
"B@	c #6B838D",
"C@	c #6F8892",
"D@	c #718B96",
"E@	c #8198A3",
"F@	c #70777A",
"G@	c #382A24",
"H@	c #3B2C2B",
"I@	c #261E1D",
"J@	c #1D322D",
"K@	c #297467",
"L@	c #309987",
"M@	c #2E3234",
"N@	c #445258",
"O@	c #5B6F77",
"P@	c #3C4448",
"Q@	c #2B2F30",
"R@	c #2D3133",
"S@	c #353A3D",
"T@	c #475358",
"U@	c #677D87",
"V@	c #6B828C",
"W@	c #54656C",
"X@	c #475258",
"Y@	c #546066",
"Z@	c #63696C",
"`@	c #251E1C",
" #	c #3B2D2C",
".#	c #453939",
"+#	c #372A2A",
"@#	c #2A201F",
"##	c #1E1C1A",
"$#	c #1D2A27",
"%#	c #19221F",
"&#	c #2D3234",
"*#	c #4F6067",
"=#	c #5E737C",
"-#	c #3F494D",
";#	c #151B18",
">#	c #16382D",
",#	c #1C493B",
"'#	c #1D4438",
")#	c #19231F",
"!#	c #3C4549",
"~#	c #414C51",
"{#	c #191D1B",
"]#	c #192B24",
"^#	c #1A221E",
"/#	c #262525",
"(#	c #25201E",
"_#	c #41312C",
":#	c #423431",
"<#	c #443635",
"[#	c #211A1A",
"}#	c #181918",
"|#	c #26292A",
"1#	c #51636B",
"2#	c #55676F",
"3#	c #242627",
"4#	c #13342A",
"5#	c #1E7059",
"6#	c #2B977A",
"7#	c #31A786",
"8#	c #246754",
"9#	c #232626",
"0#	c #667B85",
"a#	c #292C2D",
"b#	c #1B4639",
"c#	c #2A9175",
"d#	c #256452",
"e#	c #171514",
"f#	c #271F1F",
"g#	c #403531",
"h#	c #453F41",
"i#	c #3B2D2D",
"j#	c #1C1A19",
"k#	c #1D1F1E",
"l#	c #49585E",
"m#	c #4E5F66",
"n#	c #1F201F",
"o#	c #174A3B",
"p#	c #2A9879",
"q#	c #3CCCA5",
"r#	c #44E5BA",
"s#	c #31977B",
"t#	c #202423",
"u#	c #637781",
"v#	c #6A818B",
"w#	c #27292A",
"x#	c #22614F",
"y#	c #3BCDA5",
"z#	c #309076",
"A#	c #181716",
"B#	c #2B2422",
"C#	c #443937",
"D#	c #392D2F",
"E#	c #2C2322",
"F#	c #201C1B",
"G#	c #191716",
"H#	c #303639",
"I#	c #49595F",
"J#	c #18332A",
"K#	c #25856A",
"L#	c #36BB96",
"M#	c #3CCCA4",
"N#	c #266452",
"O#	c #2B2E30",
"P#	c #6A828C",
"Q#	c #373D40",
"R#	c #1A352C",
"S#	c #288067",
"T#	c #214A3D",
"U#	c #181514",
"V#	c #2D2423",
"W#	c #201718",
"X#	c #241A19",
"Y#	c #1F1715",
"Z#	c #1A1716",
"`#	c #202021",
" $	c #1A2C25",
".$	c #1E3F35",
"+$	c #1E3C32",
"@$	c #1E2221",
"#$	c #505F66",
"$$	c #5D7079",
"%$	c #262829",
"&$	c #181615",
"*$	c #181515",
"=$	c #1A1110",
"-$	c #271D1B",
";$	c #261D1B",
">$	c #201A1A",
",$	c #1C1716",
"'$	c #1B1919",
")$	c #353B3F",
"!$	c #414A4F",
"~$	c #69808A",
"{$	c #404A4F",
"]$	c #221C1B",
"^$	c #2A2120",
"/$	c #3B2D2B",
"($	c #3C2E2D",
"_$	c #292121",
":$	c #191717",
"<$	c #435055",
"[$	c #51626A",
"}$	c #47555B",
"|$	c #5F757E",
"1$	c #627781",
"2$	c #424F54",
"3$	c #2C3132",
"4$	c #2B2223",
"5$	c #3F3534",
"6$	c #423735",
"7$	c #302522",
"8$	c #211A18",
"9$	c #1D2B28",
"0$	c #1B2422",
"a$	c #1D1C1C",
"b$	c #32393C",
"c$	c #2C3133",
"d$	c #1B1918",
"e$	c #1E1D1C",
"f$	c #312C2F",
"g$	c #32221E",
"h$	c #1D1C1B",
"i$	c #275E54",
"j$	c #3DC0AA",
"k$	c #275F54",
"l$	c #1C1818",
"m$	c #313336",
"n$	c #3B3D42",
"o$	c #212020",
"p$	c #1D1B19",
"q$	c #201D1C",
"r$	c #262321",
"s$	c #312B2E",
"t$	c #362B27",
"u$	c #453836",
"v$	c #483A37",
"w$	c #28211F",
"x$	c #1B2522",
"y$	c #38AC98",
"z$	c #3AB5A0",
"A$	c #1D2C29",
"B$	c #303134",
"C$	c #444950",
"D$	c #545A62",
"E$	c #44474D",
"F$	c #272423",
"G$	c #2B2826",
"H$	c #211E1C",
"I$	c #211D1C",
"J$	c #2D2522",
"K$	c #3C2F29",
"L$	c #392522",
"M$	c #271C19",
"N$	c #232323",
"O$	c #3C3E43",
"P$	c #2D2C2F",
"Q$	c #1F3631",
"R$	c #1F3732",
"S$	c #222022",
"T$	c #41464B",
"U$	c #51575F",
"V$	c #555B63",
"W$	c #43464C",
"X$	c #201F1F",
"Y$	c #413C38",
"Z$	c #282523",
"`$	c #221F1D",
" %	c #2B2A2A",
".%	c #35373A",
"+%	c #2D1F1C",
"@%	c #3A302C",
"#%	c #1E1C1C",
"$%	c #51565F",
"%%	c #484C53",
"&%	c #1D1A1A",
"*%	c #303336",
"=%	c #303235",
"-%	c #3E4146",
";%	c #37383C",
">%	c #252527",
",%	c #413D3A",
"'%	c #2F2C29",
")%	c #322F2D",
"!%	c #1E1D1D",
"~%	c #1E1A18",
"{%	c #302723",
"]%	c #332A25",
"^%	c #1C1B1A",
"/%	c #252526",
"(%	c #222121",
"_%	c #242324",
":%	c #1A1817",
"<%	c #202020",
"[%	c #28282A",
"}%	c #1A1918",
"|%	c #1D2B27",
"1%	c #272628",
"2%	c #353230",
"3%	c #272422",
"4%	c #1C1817",
"5%	c #2E2425",
"6%	c #352929",
"7%	c #261F1D",
"8%	c #211C1A",
"9%	c #201F20",
"0%	c #1D2120",
"a%	c #38726B",
"b%	c #31645D",
"c%	c #358578",
"d%	c #254C45",
"e%	c #292729",
"f%	c #1F1E1E",
"g%	c #231F21",
"h%	c #221E21",
"i%	c #1C1919",
"j%	c #272123",
"k%	c #342925",
"l%	c #372C29",
"m%	c #2C2320",
"n%	c #211A17",
"o%	c #1C1A1A",
"p%	c #2C3E3C",
"q%	c #407670",
"r%	c #3E7F77",
"s%	c #264540",
"t%	c #1A1C1B",
"u%	c #242425",
"v%	c #261D1F",
"w%	c #332C33",
"x%	c #271E20",
"y%	c #302724",
"z%	c #1E1A19",
"A%	c #222222",
"B%	c #1F2221",
"C%	c #1B1B1A",
"D%	c #1B1D1C",
"E%	c #1F1A1B",
"F%	c #1A1616",
"G%	c #1B1A19",
"H%	c #241D1F",
"I%	c #342827",
"J%	c #232324",
"K%	c #1F1E1F",
"L%	c #1A1615",
"M%	c #201A19",
"N%	c #241D1D",
"O%	c #2C2221",
"P%	c #1F191A",
"Q%	c #201918",
"R%	c #392F32",
"S%	c #221815",
"T%	c #1A1818",
"U%	c #191311",
"V%	c #1A0F0E",
"W%	c #140B0B",
"X%	c #150D0D",
"Y%	c #161110",
"Z%	c #151110",
"`%	c #251D20",
" &	c #332621",
".&	c #251C18",
"+&	c #251D1C",
"@&	c #31211E",
"#&	c #443836",
"$&	c #3C3539",
"  . + @ @ # + # # # # + # # # . # $ + % . @ @ & .   * = * - &   & & & & & & & & & - & ; & & > ; , , ",
"' - )   ,   ! ! . . . # # . % . . $ $ . . # ~ { @ @ & @ ] &   &   # # & &   & # ^ - ' - ^ & ; > ' ' ",
"- ) ) ) )   ! ! % % % / / / % % %       . . ( _   @ . = :   ) < & & & & & & & &     / & &   ! ; - & ",
"            % [ / } | 1 2 3 4 5 6 7 8 9   . - 0 & . . a ~   > ] @ # @ @ @ @ @ @ . . . . .   /     . ",
"/         /     % b b c d e f g h i j k l m n n . / ( o p q > > * * * ~ ~ ~ > ~ . .     /           ",
"+ . + / +   .   . / % r s t u v w x y z A B C D E F G H I J / +       &   . . .   &   ; ! ;   ;     ",
"@ + + @ @ + . . K / / K L z M N O P Q R S T U V W X Y Z `  .7 ..- - & - - - ) ) -             / . / ",
"+ + @ + + . / / % / % r +.@.#.$.%.&.*.&.=.-.;.>.,.'.).!.~.{.].^./.  &   &   )   . . / . + + + + @ @ ",
"  (.  (./ ^ @ _.! ! !   :.<.[.}.|.1.2.3.4.5.6.7.8.9.0.a.b.c.d.e.f.g.@ . .   / / + . . . . / . / + (.",
"@ $ / + . / $ / . + . . n h.i.j.k.l.m.n.o.p.q.r.s.t.u.v.w.x.y.z.A.B..   & & > ; C.b D.b C.C./ D.; ; ",
"@ +   (.+ . $ + + E.E.+ E.E.F.G.H.I.J.1.%.%.m.K.L.M.N.O.P.Q.R.S.v.T.I > ~ )   . !   K / . . . . (.@ ",
"U.= = V.= = V.a W.W.X.Y.X.Y.X.Z.`. +.+$.++@+#+$+%+&+*+=+-+;+n.>+,+'+)+!++ @ @ ~+~+~+{+{+= {+= {+]+]+",
"= = ^+V.]+]+= a {+{+/+{+{+Y.(+j _+:+m.k.<+[+}+|+1+2+3+4+5+6+7+8+9+0+a+b+W.W.V.W.Y.= {+Y.Y.{+= Y.c+V.",
"  + = . d+& ; - b b   D.  e+f+g+h+i+j+k+l+m+n+o+p+q+r+s+t+u+v+w+x+y+z+A+  !   ! + + E.. B+. / . C+D+",
"D+@ E+^ F+^ ^ ^ C.D.C.C.1 G+H+I+J+k.K+L+M+N+O+P+Q+R+S+T+q+U+V+W+X+Y+Z+`+! - }    @.@+@ @.@ @.@.@] C+",
"@ @ = d+{ / +   D.D.b b @@f.#@I+$@j.l+M+%@&@*@=@-@;@>@,@'@)@!@~@{@]@^@/@(@_@( :@<@<@ @<@[@[@[@' }@C+",
"@ ]+~+- % + _@} <@| +@| |@1@2@3@4@5@6@7@8@9@=@=@=@0@a@&@=@9@=@!@b@c@d@e@_@_@_@_@_@_@f@f@f@& % # @ $ ",
"& @ ~+&   # - [ % # % g@h@i@j@K.k@l@m@n@&@=@=@=@=@=@=@=@=@=@=@o@p@q@r@s@[ [ [ [ _@_@_@f@f@_@_@f@: [@",
"  @ a @ . @ / $ # # % t@u@v@w@K.i@x@y@z@=@A@B@&@C@0@0@=@=@*@D@0@E@F@E G@[ [ [ [ [ & f@f@% +@, ,   / ",
"# @ ~+  : & _@[@| % | H@I@J@K@L@6+M@N@O@)@P@Q@R@S@T@U@0@=@V@W@X@Y@Z@`@I _@_@_@_@_@_@f@f@+@& f@ #. + ",
"@ @ ]+* .#[@.@<@| | b b +#@###$#%#&#*#=#-#;#>#,#'#)#!#A@=@~#{#]#^#/#(#_#:#( :@( < _@( _@_@' (@_@> / ",
"@ ]+E+& <#. +   b b / % , } g@[#}#|#1#2#3#4#5#6#7#8#9#0#V@a#b#c#d#e#f#g#_@_@(@.@+@& _.>  #- (@: D.+ ",
"D+(.~+; h#i#+ K K K b b b b +#j#k+k#l#m#n#o#p#q#r#s#t#u#v#w#x#y#z#A#B#.@.@_.> > g#~ : : .@(@.@C#! . ",
"  @ V.  h#K / K <@D#<@b i#i#b E#F#G#H#I#w#J#K#L#M#N#O#P#C@Q#R#S#T#U#V#} - _._._.> & / )   + / ) D++ ",
"V.E+= ]+~+o o @ ~+W#o o o {+~+~+X#Y#Z#`#l@A# $.$+$@$#$0@D@$$%$y &$*$=$= a = = V.V.= W.= W.= a = = = ",
"@ @ $ o o @ @ @ . / . . . . / + o $ -$;$>$,$'$)$!$n@~$=@B@*@{$U#]$^$+ / + .   +   + + + + @ (.@ @ @ ",
"~ ~ & ) ) D.D.^ _.- _.> b _.[@- /$[@<@ @($_$:$<$[$}$|$1$2$o+3$4$.@.@( ( C#5$6$C#p 6$C#6$6$: ( (@~ : ",
"& ^ ; ; _.q .@: [@q > .@ @.@ @(@/$/$} 7$8$9$0$l@l@a$b$c$d$e$j#f$  !   ! ) ) ) /   ! ! ! - _.-  #q > ",
"+@ #+@_@_@( :#:#<@_@<@_@(@- - - , % g$h$i$j$k$l$m$n$o$p$q$r$:$s$t$! } ! , , !   + # % .   !  # #_@' ",
"u$<#v$<#u$<#<#:@_@_@(@- !   % # r w$1@x$y$z$A$B$C$D$E$F$G$H$e#d$I$J$($' '  # #- } ! } - (@' _@_@:@( ",
"+@_@f@/$, f@f@, K$, & , ! % , L$M$N$O$P$Q$R$S$T$U$V$W$X$Y$Z$`$ %.%'$+%% % . # #   % % % , , , ! +@f@",
"+@ #! % % ! , , ! , ' _@0 _@( @%#%W$$%%%&%*$*%=%-%;%j#>%,%G$'%)%!%~%{%' ' & - ' &   ) '  #' _@_@+@+@",
"!   , (@' ! !  #, - D.> > > ^ ]%^%/%(%_%:%<%[%t }%|%A$1%2%3%G#j#4%5%/ . +   ) (@- - _.- _.- - } /$f@",
"_@' - (@(@-  #'   ) ) ) D.D.D.6%7%8%r$~%d 9%0%a%b%c%d%e%f%g%h%i%j%/ } | .@: .@q : : 5$: ( ( .@<@_@<@",
". @ @ $ @ @ . @ . +   / +   . . k%l%m%n%^%o%p%q%r%s%t%u%'$v%w%x%<#i#E.$ $ @ @ $ + + + + . + / . . + ",
".     #   ) - ! .@.@.@: 5$: : ^ %   y%z%A%j B%C%D%E%F%G%*$H%E.E.6$/$+ + / > q : ) ! ) ! ) ! ! ) ! / ",
"  - (@> ; > (@>   , - - ; - ) ) - I%~%J%K%L%M%z N%O%P%&$Q%E.K K . . %   ~ ~ ' , ~ _@_@ #- ' > > R%R%",
"]+~+~+@ o /+~+~+{+{+{+~+~+{+{+{+S%U#&$T%U#U%V%W%X%W.Y%Z%X%= /+{+o o $ $ ~+~+X.X.o ~+~+~+{+~+~+o $ `%",
"@ = a o @ o ~+$ @ @ # @ # # # #  &.&+&@&r     / /   / . + B+/ / # $ $ o @ #   ! ~+~+{+{+~+~+o $ $ $ ",
") o ~+  ( (@ #<@0 0 :@:@<#u$v$u$0 #&u$v$u$:@<#<#( 6$.#6$<#<#<@<@<@_@_@<@0 (@- ! , ! % ! ,  #' (@(@(@",
"+ $ = E.E.% h#% ! % ! /$f@+@+@+@& & & & _@_@[@- /$/$| b K % f@f@. % % , , , ,   , % , %     & , <#:@",
"<@+ o . / / <#/  #_@[@_@_@_@:@:#_@g#_@( ( ( _@+@+@<@i#+@<@+@+@+@& ' ' & & ' ' _@_@> 0 ' > _@g#g#_@_@",
"<#/ o K <@C.<@K _@_@_@:#_@_@_@_@g#_@g#g#_@_@' K$+@+@f@f@+@+@_@_@ #&  #+@' _@_@& ' +@_@_@_@_@_@+@<#_@",
"C.E.{++ <@<@K <@' _@+@_@_@_@+@+@_@_@_@_@_@_@ #K$/$/$} | f@| f@f@ #f@K$+@& _@> _@K$ #& _@' _@' & '  #",
"/ `%{+o D#<#<@<@_@<@_@_@_@_@f@_@_@_@+@_@_@_@_@_@_@_@_@_@_@_@_@_@_@:@_@_@g#0 0 _@_@_@_@( _@0 _@0     ",
"/ W#o o / <@D#+@+@+@+@+@f@+@f@f@, K$! % +@f@_@_@_@_@_@v$_@_@_@_@_@_@0 _@, & , , , , & , , , , , ) ) ",
"D#= `%E.+ <@+@+@+@+@+@+@f@f@f@f@, ! [ . f@f@+@_@_@_@f@f@_@f@_@+@+@& K$, , [ [ [ [ [ # # # # # # d+d+",
"<#c+W#/ E.% b <@<@<@_@_@_@_@_@f@'   % % , , +@_@f@f@_@_@_@_@_@:#_@_@_@_@* * * _@g#> _@_@& ' > > ] $&",
"`%`%`%B+K C.b b /$+@/$+@<@<@<@<@i#} , - - - ) ) - ; ; > > > _.> * ~ > > ; > > ^ ~ ~ ~ : : ~ > ; ! D+",
"E+U./+`%E./ + . + + + # . / / / / . . . . + . + + + + + + + B++ o @ o ~+~+o o o o @ o o @ o o ~+o ]+"};
