/* XPM */
static char * 7_xpm[] = {
"50 50 663 2",
"  	c #352925",
". 	c #322624",
"+ 	c #2D2322",
"@ 	c #2C211E",
"# 	c #32241E",
"$ 	c #291E1C",
"% 	c #3A2622",
"& 	c #3A3027",
"* 	c #3F342E",
"= 	c #1D1312",
"- 	c #392E2A",
"; 	c #38302E",
"> 	c #3D322C",
", 	c #3A2B25",
"' 	c #3B302A",
") 	c #392D29",
"! 	c #362B29",
"~ 	c #3E332D",
"{ 	c #4C413D",
"] 	c #48403E",
"^ 	c #383232",
"/ 	c #312728",
"( 	c #413632",
"_ 	c #524743",
": 	c #3F3430",
"< 	c #463B35",
"[ 	c #39261F",
"} 	c #3A2C2B",
"| 	c #3D2D2D",
"1 	c #362B2D",
"2 	c #3C2A24",
"3 	c #34221F",
"4 	c #352727",
"5 	c #2B2223",
"6 	c #2F2421",
"7 	c #302522",
"8 	c #362C28",
"9 	c #3B2D2C",
"0 	c #40322F",
"a 	c #1A110F",
"b 	c #3A2C2C",
"c 	c #382B2B",
"d 	c #251F1F",
"e 	c #1C1817",
"f 	c #1C201E",
"g 	c #1E2E2A",
"h 	c #1E2F2B",
"i 	c #1D2B27",
"j 	c #1C201D",
"k 	c #1F1B1A",
"l 	c #322826",
"m 	c #382D29",
"n 	c #342824",
"o 	c #302728",
"p 	c #251B1A",
"q 	c #433A3A",
"r 	c #3A3132",
"s 	c #30211E",
"t 	c #201716",
"u 	c #1E3530",
"v 	c #339E8C",
"w 	c #3DC5AE",
"x 	c #3EC6AF",
"y 	c #26594F",
"z 	c #171010",
"A 	c #1E1818",
"B 	c #221B1A",
"C 	c #211B1A",
"D 	c #231C1A",
"E 	c #261C1C",
"F 	c #241A19",
"G 	c #281F1C",
"H 	c #342A27",
"I 	c #1C1312",
"J 	c #382C2E",
"K 	c #261E1F",
"L 	c #1A201E",
"M 	c #2F9180",
"N 	c #3ECFB6",
"O 	c #45E8CD",
"P 	c #37A693",
"Q 	c #2C7467",
"R 	c #2F7F71",
"S 	c #328375",
"T 	c #378476",
"U 	c #367F72",
"V 	c #2F7367",
"W 	c #286358",
"X 	c #244F47",
"Y 	c #203B35",
"Z 	c #1B2522",
"` 	c #1F1B19",
" .	c #201918",
"..	c #2E2320",
"+.	c #382C28",
"@.	c #352320",
"#.	c #1C1919",
"$.	c #24584F",
"%.	c #37B5A0",
"&.	c #44E2C7",
"*.	c #45E7CC",
"=.	c #45E8CC",
"-.	c #48E9CE",
";.	c #54ECD2",
">.	c #64EDD6",
",.	c #7BEFDB",
"'.	c #6CEBD6",
").	c #46DCC3",
"!.	c #379E8C",
"~.	c #42A392",
"{.	c #489487",
"].	c #345952",
"^.	c #1E2623",
"/.	c #261F1C",
"(.	c #272121",
"_.	c #382E2D",
":.	c #322723",
"<.	c #1E1A19",
"[.	c #214941",
"}.	c #319A89",
"|.	c #3DCBB3",
"1.	c #42DDC3",
"2.	c #45E5CA",
"3.	c #45E5CB",
"4.	c #41DAC1",
"5.	c #3ECEB6",
"6.	c #3ED2B9",
"7.	c #55E3CB",
"8.	c #87F0DE",
"9.	c #83F0DE",
"0.	c #4CCDB7",
"a.	c #1D312C",
"b.	c #2F5A52",
"c.	c #7BE7D4",
"d.	c #81EAD8",
"e.	c #47B9A5",
"f.	c #25564D",
"g.	c #1A1818",
"h.	c #291F1C",
"i.	c #2C2324",
"j.	c #221918",
"k.	c #1D2F2B",
"l.	c #2A796B",
"m.	c #35B09C",
"n.	c #3AC1AB",
"o.	c #42DBC1",
"p.	c #45E6CB",
"q.	c #42DCC3",
"r.	c #3BC3AC",
"s.	c #39B9A4",
"t.	c #46D5BD",
"u.	c #57EAD2",
"v.	c #428E81",
"w.	c #1B221F",
"x.	c #1C2421",
"y.	c #45AB99",
"z.	c #5FEDD5",
"A.	c #5FEED6",
"B.	c #42C3AD",
"C.	c #1C2C28",
"D.	c #2A201F",
"E.	c #3A2E30",
"F.	c #382C2C",
"G.	c #291F21",
"H.	c #271E20",
"I.	c #251D1B",
"J.	c #1B1E1C",
"K.	c #27685D",
"L.	c #33A996",
"M.	c #3ABFA9",
"N.	c #3AC1AA",
"O.	c #35B19C",
"P.	c #3ED1B8",
"Q.	c #275F55",
"R.	c #2B534B",
"S.	c #34564F",
"T.	c #245249",
"U.	c #40D6BD",
"V.	c #44DEC4",
"W.	c #2A6459",
"X.	c #191615",
"Y.	c #2E2523",
"Z.	c #3A2F2A",
"`.	c #171115",
" +	c #150C0C",
".+	c #1A0E0D",
"++	c #20120F",
"@+	c #180F13",
"#+	c #1A1211",
"$+	c #1C2B27",
"%+	c #319D8B",
"&+	c #3CC9B1",
"*+	c #3DCAB3",
"=+	c #38B6A0",
"-+	c #339F8D",
";+	c #319C8A",
">+	c #34A894",
",+	c #234B44",
"'+	c #508B80",
")+	c #191817",
"!+	c #349887",
"~+	c #43DFC5",
"{+	c #2E7C6E",
"]+	c #244C44",
"^+	c #1E332E",
"/+	c #211C1A",
"(+	c #30231D",
"_+	c #241915",
":+	c #211614",
"<+	c #1E181A",
"[+	c #110907",
"}+	c #1C1619",
"|+	c #1D1514",
"1+	c #191716",
"2+	c #234F47",
"3+	c #39BAA4",
"4+	c #3DCDB5",
"5+	c #319987",
"6+	c #235249",
"7+	c #1C2C29",
"8+	c #1C2523",
"9+	c #1C2D29",
"0+	c #1E3933",
"a+	c #1B2724",
"b+	c #379B8A",
"c+	c #56AFA0",
"d+	c #212624",
"e+	c #24574D",
"f+	c #266257",
"g+	c #2B7568",
"h+	c #3BB8A3",
"i+	c #3BB6A1",
"j+	c #1C2724",
"k+	c #191110",
"l+	c #160E12",
"m+	c #3C3636",
"n+	c #2E2322",
"o+	c #1A1D1C",
"p+	c #266056",
"q+	c #2E8979",
"r+	c #262728",
"s+	c #3C454A",
"t+	c #49575D",
"u+	c #49565C",
"v+	c #242324",
"w+	c #214B43",
"x+	c #3ED0B8",
"y+	c #4BE0C7",
"z+	c #294B44",
"A+	c #252222",
"B+	c #4A4B4D",
"C+	c #3C3A3B",
"D+	c #203833",
"E+	c #349988",
"F+	c #1E2C28",
"G+	c #2D2629",
"H+	c #383435",
"I+	c #2F292D",
"J+	c #171518",
"K+	c #4B4140",
"L+	c #34292B",
"M+	c #1D1D1C",
"N+	c #286A5F",
"O+	c #34AB97",
"P+	c #35B29D",
"Q+	c #319886",
"R+	c #2E3234",
"S+	c #4E5F67",
"T+	c #5E747D",
"U+	c #6D8691",
"V+	c #728B97",
"W+	c #475359",
"X+	c #1B2623",
"Y+	c #26655A",
"Z+	c #296E62",
"`+	c #1D2926",
" @	c #505C62",
".@	c #8499A3",
"+@	c #98A6AC",
"@@	c #444546",
"#@	c #1C2E29",
"$@	c #1D1F1C",
"%@	c #352A26",
"&@	c #3B2F31",
"*@	c #3D3230",
"=@	c #412E2A",
"-@	c #302525",
";@	c #1B2825",
">@	c #2F9281",
",@	c #34AE9A",
"'@	c #33A693",
")@	c #20453E",
"!@	c #282A2B",
"~@	c #4F6068",
"{@	c #5B7078",
"]@	c #6D8590",
"^@	c #708994",
"/@	c #708995",
"(@	c #6B828C",
"_@	c #455156",
":@	c #2C2F31",
"<@	c #2D3033",
"[@	c #49555B",
"}@	c #6C848E",
"|@	c #6F8893",
"1@	c #8097A1",
"2@	c #80898D",
"3@	c #1E1C1B",
"4@	c #241D1D",
"5@	c #3C2E2E",
"6@	c #3E302F",
"7@	c #43322D",
"8@	c #433532",
"9@	c #413131",
"0@	c #3D2F2F",
"a@	c #4E4546",
"b@	c #352623",
"c@	c #191514",
"d@	c #23544B",
"e@	c #34AD99",
"f@	c #2C8475",
"g@	c #1D2220",
"h@	c #414D53",
"i@	c #4C5D64",
"j@	c #677E88",
"k@	c #708A95",
"l@	c #6C848F",
"m@	c #718A95",
"n@	c #91A1A8",
"o@	c #393A3A",
"p@	c #2F2420",
"q@	c #412D26",
"r@	c #214740",
"s@	c #2E8E7D",
"t@	c #34AE99",
"u@	c #255D53",
"v@	c #232324",
"w@	c #404D52",
"x@	c #6E8791",
"y@	c #8C9FA8",
"z@	c #535658",
"A@	c #271B17",
"B@	c #2F201D",
"C@	c #1B2926",
"D@	c #309886",
"E@	c #34AA97",
"F@	c #214840",
"G@	c #212122",
"H@	c #353D41",
"I@	c #5F747D",
"J@	c #6E8691",
"K@	c #6E8792",
"L@	c #718B96",
"M@	c #869CA6",
"N@	c #62686A",
"O@	c #241A18",
"P@	c #392B25",
"Q@	c #382929",
"R@	c #1F1C1B",
"S@	c #224E46",
"T@	c #2F9080",
"U@	c #32A390",
"V@	c #1F3F39",
"W@	c #313639",
"X@	c #435156",
"Y@	c #60757E",
"Z@	c #687E88",
"`@	c #3F494D",
" #	c #313538",
".#	c #33373A",
"+#	c #3A4145",
"@#	c #4D5B61",
"##	c #6A828C",
"$#	c #687F89",
"%#	c #505F65",
"&#	c #424C51",
"*#	c #545F64",
"=#	c #585D5F",
"-#	c #281F1D",
";#	c #3A2F29",
">#	c #453939",
",#	c #332727",
"'#	c #231C1B",
")#	c #1F3E38",
"!#	c #1A2522",
"~#	c #32393C",
"{#	c #4D5E65",
"]#	c #3E474B",
"^#	c #151B18",
"/#	c #16352B",
"(#	c #1B4236",
"_#	c #1B3C32",
":#	c #19201D",
"<#	c #444F54",
"[#	c #3A4346",
"}#	c #181E1B",
"|#	c #192F27",
"1#	c #1A221E",
"2#	c #232121",
"3#	c #27221F",
"4#	c #42312C",
"5#	c #423431",
"6#	c #443635",
"7#	c #382B2A",
"8#	c #31201D",
"9#	c #1E1817",
"0#	c #171614",
"a#	c #2A2F31",
"b#	c #53666E",
"c#	c #55676F",
"d#	c #222424",
"e#	c #13362B",
"f#	c #1E7059",
"g#	c #2B9678",
"h#	c #2FA282",
"i#	c #225B4A",
"j#	c #272A2B",
"k#	c #69808A",
"l#	c #242627",
"m#	c #1C4F40",
"n#	c #2C977A",
"o#	c #245F4E",
"p#	c #171414",
"q#	c #2A2121",
"r#	c #453F41",
"s#	c #3B2D2D",
"t#	c #362929",
"u#	c #1C1B1A",
"v#	c #1C302B",
"w#	c #202222",
"x#	c #4D5D64",
"y#	c #4C5B62",
"z#	c #1D1E1D",
"A#	c #184F3E",
"B#	c #2A997B",
"C#	c #3CCDA5",
"D#	c #43E2B7",
"E#	c #2F8C72",
"F#	c #232526",
"G#	c #667C85",
"H#	c #677D87",
"I#	c #242626",
"J#	c #236A55",
"K#	c #3CD0A7",
"L#	c #2E856D",
"M#	c #181514",
"N#	c #2D2624",
"O#	c #403531",
"P#	c #443937",
"Q#	c #392D2F",
"R#	c #392B2B",
"S#	c #271F1E",
"T#	c #1C1C1B",
"U#	c #181716",
"V#	c #374043",
"W#	c #4C5C62",
"X#	c #183B30",
"Y#	c #278E71",
"Z#	c #38C19C",
"`#	c #3DCFA7",
" $	c #26614F",
".$	c #2D3133",
"+$	c #6C838E",
"@$	c #34393D",
"#$	c #1A372D",
"$$	c #277A62",
"%$	c #1F4036",
"&$	c #191515",
"*$	c #2F2624",
"=$	c #201718",
"-$	c #231915",
";$	c #221A19",
">$	c #1E1714",
",$	c #1B1918",
"'$	c #242728",
")$	c #202121",
"!$	c #181917",
"~$	c #1B332B",
"{$	c #1F493C",
"]$	c #1F4237",
"^$	c #1D2221",
"/$	c #516067",
"($	c #718A96",
"_$	c #5C6F78",
":$	c #262829",
"<$	c #171716",
"[$	c #181414",
"}$	c #261C1A",
"|$	c #231C19",
"1$	c #1E1919",
"2$	c #1B1615",
"3$	c #1B1919",
"4$	c #32363A",
"5$	c #3D454A",
"6$	c #47545A",
"7$	c #69818B",
"8$	c #6B838D",
"9$	c #231D1C",
"0$	c #2B2221",
"a$	c #3B2D2B",
"b$	c #3B2E2D",
"c$	c #282120",
"d$	c #1A1817",
"e$	c #465359",
"f$	c #54666D",
"g$	c #49575E",
"h$	c #60767F",
"i$	c #627881",
"j$	c #424F54",
"k$	c #505F66",
"l$	c #2B2F31",
"m$	c #3F3534",
"n$	c #423735",
"o$	c #211B19",
"p$	c #1A2320",
"q$	c #212222",
"r$	c #1D1D1D",
"s$	c #333B3E",
"t$	c #2D3235",
"u$	c #1B1A19",
"v$	c #1D1C1C",
"w$	c #312C2F",
"x$	c #392622",
"y$	c #1C1D1B",
"z$	c #29655A",
"A$	c #3DC0AA",
"B$	c #265950",
"C$	c #1B1717",
"D$	c #2F3033",
"E$	c #3A3C41",
"F$	c #201F1F",
"G$	c #1C1918",
"H$	c #221F1E",
"I$	c #272422",
"J$	c #322C2F",
"K$	c #362B27",
"L$	c #453836",
"M$	c #483A37",
"N$	c #362420",
"O$	c #241E1D",
"P$	c #1A1615",
"Q$	c #1C2925",
"R$	c #3AB39E",
"S$	c #39AE9A",
"T$	c #1D2A26",
"U$	c #303235",
"V$	c #444950",
"W$	c #545A63",
"X$	c #414449",
"Y$	c #282523",
"Z$	c #201D1C",
"`$	c #171514",
" %	c #211D1C",
".%	c #2C2521",
"+%	c #3C2F29",
"@%	c #372521",
"#%	c #231B18",
"$%	c #2A2A2C",
"%%	c #41444A",
"&%	c #2C2C2E",
"*%	c #1F3833",
"=%	c #1E322D",
"-%	c #232223",
";%	c #42474D",
">%	c #51565E",
",%	c #555B64",
"'%	c #43474D",
")%	c #1F1E1E",
"!%	c #423D39",
"~%	c #252220",
"{%	c #2B2B2C",
"]%	c #383A3E",
"^%	c #2C1E1C",
"/%	c #352C29",
"(%	c #212020",
"_%	c #474B51",
":%	c #4E535B",
"<%	c #43474C",
"[%	c #1A1717",
"}%	c #191616",
"|%	c #323438",
"1%	c #313336",
"2%	c #43464C",
"3%	c #38393D",
"4%	c #1D1B1B",
"5%	c #262627",
"6%	c #443F3C",
"7%	c #34302E",
"8%	c #312E2D",
"9%	c #201F20",
"0%	c #2F2722",
"a%	c #2F2723",
"b%	c #1C1B1B",
"c%	c #211F1F",
"d%	c #212021",
"e%	c #181616",
"f%	c #222222",
"g%	c #272729",
"h%	c #1A1B1A",
"i%	c #282729",
"j%	c #393533",
"k%	c #1C1A19",
"l%	c #1D1B1A",
"m%	c #2D2425",
"n%	c #342929",
"o%	c #28211E",
"p%	c #251E1C",
"q%	c #292523",
"r%	c #1D1A18",
"s%	c #1E2423",
"t%	c #38746C",
"u%	c #2E5A53",
"v%	c #35877A",
"w%	c #23423C",
"x%	c #2A292B",
"y%	c #1E1D1C",
"z%	c #242021",
"A%	c #221E20",
"B%	c #252022",
"C%	c #372C29",
"D%	c #2C2320",
"E%	c #201917",
"F%	c #1B1A1A",
"G%	c #2F4644",
"H%	c #427D77",
"I%	c #3E8178",
"J%	c #264640",
"K%	c #1A1D1B",
"L%	c #262527",
"M%	c #1A1718",
"N%	c #332C33",
"O%	c #433534",
"P%	c #2D2522",
"Q%	c #212121",
"R%	c #1F2322",
"S%	c #1B1D1C",
"T%	c #1C1E1D",
"U%	c #1E191A",
"V%	c #251D20",
"W%	c #312625",
"X%	c #242426",
"Y%	c #1B1816",
"Z%	c #201A19",
"`%	c #251E1F",
" &	c #1D1818",
".&	c #181615",
"+&	c #211918",
"@&	c #392F32",
"#&	c #201815",
"$&	c #191513",
"%&	c #191311",
"&&	c #1A0F0E",
"*&	c #140B0B",
"=&	c #171211",
"-&	c #151110",
";&	c #312520",
">&	c #261C19",
",&	c #261E1D",
"'&	c #33221F",
")&	c #392521",
"!&	c #302627",
"~&	c #312624",
"{&	c #3C3539",
"  . + @ @ # + # # # # + # # # . # $ + % . @ @ & .   * = * - &   & & & & & & & & & - & ; & & > ; , , ",
"' - )   ,   ! ! . . . # # . % . . $ $ . . # ~ { @ @ & @ ] &   &   # # & &   & # ^ - ' - ^ & ; > ' ' ",
"- ) ) ) )   ! ! % % % / / / % % %       . . ( _   @ . = :   ) < & & & & & & & &     / & &   ! ; - & ",
"            % [ / } | 1 2 3 4 5 6 7 8 9   . - 0 & . . a ~   > ] @ # @ @ @ @ @ @ . . . . .   /     . ",
"/         /     % b c d e f g h i j k l m n o / . / ( p q r > > * * * ~ ~ ~ > ~ . .     /           ",
"+ . + / +   .   . / % s t u v w x y z A B C D E F G H I ' ) / +       &   . . .   &   ; ! ;   ;     ",
"@ + + @ @ + . . J / / J K L M N O P Q R S T U V W X Y Z `  ...+.- - & - - - ) ) -             / . / ",
"+ + @ + + . / / % / % @.#.$.%.&.*.=.O =.-.;.>.,.'.).!.~.{.].^./.7   &   &   )   . . / . + + + + @ @ ",
"  (.  (./ ^ @ _.! ! ! :.<.[.}.|.1.2.3.4.5.6.7.8.9.0.a.b.c.d.e.f.g.h.@ . .   / / + . . . . / . / + (.",
"@ $ / + . / $ / . + . . i.j.k.l.m.n.o.p.q.r.s.t.u.v.w.x.y.z.A.B.C.D..   & & > ; E.b F.b E.E./ F.; ; ",
"@ +   (.+ . $ + + G.G.+ G.H.I.J.K.L.M.p.=.2.N.O.P.Q.R.S.T.U.V.W.X.Y.Z.> ~ )   . !   J / . . . . (.@ ",
"`.= =  += =  +a .+.+++@+++@+++#+$+%+&+1.*+=+-+;+>+,+R.'+)+!+~+{+]+^+/+(++ @ @ _+_+_+:+:+= :+= :+<+<+",
"= = [+ +<+<+= a :+:+}+:+:+@+|+1+2+3+4+5+6+7+8+9+0+a+b+c+d+e+f+g+h+i+j+k+.+.+ +.+@+= :+@+@+:+= @+l+ +",
"  + = . m+& ; - b b   F.  n+o+p+>+|.q+9+r+s+t+u+v+w+x+y+z+A+B+C+D+E+F+6   !   ! + + G.. G+. / . H+I+",
"I+@ J+^ K+^ ^ ^ E.F.E.E.L+M+N+O+P+Q+C.R+S+T+U+V+W+X+Y+Z+`+ @.@+@@@#@$@%@! - }   &@*@=@&@*@&@*@*@] H+",
"@ @ = m+{ / +   F.F.b b -@;@>@,@'@)@!@~@{@]@^@/@(@_@:@<@[@}@|@1@2@3@4@5@6@7@( 8@9@9@&@9@0@0@0@' a@H+",
"@ <+_+- % + 7@} 9@| =@| b@c@d@e@f@g@h@i@j@k@^@^@/@^@}@l@k@^@^@m@n@o@p@7@7@7@7@7@7@7@q@q@q@& % # @ $ ",
"& @ _+&   # - [ % # % @.` r@s@t@u@v@w@t+x@^@^@^@^@^@^@^@^@^@^@|@y@z@A@[ [ [ [ [ 7@7@7@q@q@7@7@q@: 0@",
"  @ a @ . @ / $ # # % B@C@D@m.E@F@G@H@I@k@^@J@K@^@L@/@^@^@k@L@k@M@N@O@P@[ [ [ [ [ & q@q@% =@, ,   / ",
"# @ _+  : & 7@0@| % | Q@R@S@T@U@V@W@X@Y@Z@`@ #.#+#@###k@/@$#%#&#*#=#-#;#7@7@7@7@7@7@q@q@=@& q@9 . + ",
"@ @ <+* >#0@*@9@| | b b ,#'#x.)#!#~#{#Y@]#^#/#(#_#:#<#^@K@[#}#|#1#2#3#4#5#( 8@( < 7@( 7@7@' 6@7@> / ",
"@ <+J+& 6#. +   b b / % , 7#8#9#0#a#b#c#d#e#f#g#h#i#j#k#j@l#m#n#o#p#q#( 7@7@6@*@=@& _.> 9 - 6@: F.+ ",
"I+(._+; r#s#+ J J J b b b b t#u#v#w#x#y#z#A#B#C#D#E#F#G#H#I#J#K#L#M#N#*@*@_.> > O#~ : : *@6@*@P#! . ",
"  @  +  r#J / J 9@Q#9@b s#s#R#S#T#U#V#W#I#X#Y#Z#`# $.$+$J@@$#$$$%$&$*$} - _._._.> & / )   + / ) I++ ",
" +J+= <+_+p p @ _+=$p p p :+_+-$;$>$,$'$)$!$~${$]$^$/$m@($_$:$<$M#[$a = a = =  + += .+= .+= a = = = ",
"@ @ $ p p @ @ @ . / . . . . / + p $ }$|$1$2$3$4$5$6$7$^@8$^@`@c@9$0$+ / + .   +   + + + + @ (.@ @ @ ",
"~ ~ & ) ) F.F.^ _.- _.> b _.0@- a$0@9@&@b$c$d$e$f$g$h$i$j$k$l$i.*@*@( ( P#m$n$P#q n$P#n$n$: ( 6@~ : ",
"& ^ ; ; _.r *@: 0@r > *@&@*@&@6@a$a$} 6 o$i p$)$q$r$s$t$u$v$u$w$  !   ! ) ) ) /   ! ! ! - _.- 9 r > ",
"=@9 =@7@7@( 5#5#9@7@9@7@6@- - - , x$B@y$z$A$B$C$D$E$F$G$H$I$g.J$K$! } ! , , !   + # % .   ! 9 9 7@' ",
"L$6#M$6#L$6#6#8@7@7@6@- !   % # N$O$P$Q$R$S$T$U$V$W$X$Y$Y$Z$`$u$ %.%b$' ' 9 9 - } ! } - 6@' 7@7@8@( ",
"=@7@q@a$, q@q@, +%, & , ! % , @%#%$%%%&%*%=%-%;%>%,%'%)%!%~%R@{%]%u$^%% % . # #   % % % , , , ! =@q@",
"=@9 ! % % ! , , ! , ' 7@0 7@( /%(%_%:%<%[%}%|%1%2%3%4%5%6%I$7%8%9%<.0%' ' & - ' &   ) ' 9 ' 7@7@=@=@",
"!   , 6@' ! ! 9 , - F.> > > ^ a%b%(%c%d%e%f%g%h%3$`+X+i%j%~%k%l%C$m%/ . +   ) 6@- - _.- _.- - } a$q@",
"7@' - 6@6@- 9 '   ) ) ) F.F.F.n%o%p%q%r%1+9%s%t%u%v%w%x%y%z%A%3$B%/ } | *@: *@r : : m$: ( ( *@9@7@9@",
". @ @ $ @ @ . @ . +   / +   . .   C%D%E%4%F%G%H%I%J%K%L%M%H.N%H.O%s#G.$ $ @ @ $ + + + + . + / . . + ",
".     #   ) - ! *@*@*@: m$: : ^ %   P%l%Q%g.R%S%T%U%1+u#[$V%G.G.n$a$+ + / > r : ) ! ) ! ) ! ! ) ! / ",
"  - 6@> ; > 6@>   , - - ; - ) ) - W%G$X%v$Y%Z%P$`%0$ &.&+&G.J J . . %   ~ ~ ' , ~ 7@7@9 - ' > > @&@&",
"<+_+_+@ p }+_+_+:+:+:+_+_+:+:+:+#&.&1+g.$&%&&&*& +.+=&-& += }+:+p p $ $ _+_+++++p _+_+_+:+_+_+p $ V%",
"@ = a p @ p _+$ @ @ # @ # # # # ;&>&,&'&)&    / /   !&~&+ G+/ / # $ $ p @ #   ! _+_+:+:+_+_+p $ $ $ ",
") p _+  ( 6@9 9@0 0 8@8@6#L$M$L$0 L$L$M$L$8@6#6#( n$>#n$6#6#9@9@9@7@7@9@0 6@- ! , ! % ! , 9 ' 6@6@6@",
"+ $ = G.G.% r#% ! % ! a$q@=@=@=@& & & & 7@7@0@- a$a$| b J % q@q@. % % , , , ,   , % , %     & , 6#8@",
"9@+ p . / / 6#/ 9 7@0@7@7@7@8@5#7@O#7@( ( ( 7@=@=@9@s#=@9@=@=@=@& ' ' & & ' ' 7@7@> 0 ' > 7@O#O#7@7@",
"6#/ p J 9@E.9@J 7@7@7@5#7@7@7@7@O#7@O#O#7@7@' +%=@=@q@q@=@=@7@7@9 & 9 =@' 7@7@& ' =@7@7@7@7@7@=@6#7@",
"E.G.:++ 9@9@J 9@' 7@=@7@7@7@=@=@7@7@7@7@7@7@9 +%a$a$} | q@| q@q@9 q@+%=@& 7@> 7@+%9 & 7@' 7@' & ' 9 ",
"/ V%:+p Q#6#9@9@7@9@7@7@7@7@q@7@7@7@=@7@7@7@7@7@7@7@7@7@7@7@7@7@7@8@7@7@O#0 0 7@7@7@7@( 7@0 7@0     ",
"/ =$p p / 9@Q#=@=@=@=@=@q@=@q@q@, +%! % =@q@7@7@7@7@7@M$7@7@7@7@7@7@0 7@, & , , , , & , , , , , ) ) ",
"Q#= V%G.+ 9@=@=@=@=@=@=@q@q@q@q@, ! [ . q@q@=@7@7@7@q@q@7@q@7@=@=@& +%, , [ [ [ [ [ # # # # # # m+m+",
"6#l+=$/ G.% b 9@9@9@7@7@7@7@7@q@'   % % , , =@7@q@q@7@7@7@7@7@5#7@7@7@7@* * * 7@O#> 7@7@& ' > > ] {&",
"V%V%V%G+J E.b b a$=@a$=@9@9@9@9@s#} , - - - ) ) - ; ; > > > _.> * ~ > > ; > > ^ ~ ~ ~ : : ~ > ; ! I+",
"J+`.}+V%G./ + . + + + # . / / / / . . . . + . + + + + + + + G++ p @ p _+_+p p p p @ p p @ p p _+p <+"};
