/* XPM */
static char * 8_xpm[] = {
"50 50 654 2",
"  	c #352925",
". 	c #322624",
"+ 	c #2D2322",
"@ 	c #2C211E",
"# 	c #32241E",
"$ 	c #291E1C",
"% 	c #3A2622",
"& 	c #3A3027",
"* 	c #3F342E",
"= 	c #1D1312",
"- 	c #392E2A",
"; 	c #38302E",
"> 	c #3D322C",
", 	c #3A2B25",
"' 	c #3B302A",
") 	c #392D29",
"! 	c #362B29",
"~ 	c #3E332D",
"{ 	c #4C413D",
"] 	c #48403E",
"^ 	c #383232",
"/ 	c #312728",
"( 	c #413632",
"_ 	c #524743",
": 	c #3F3430",
"< 	c #463B35",
"[ 	c #39261F",
"} 	c #3A2C2B",
"| 	c #3D2D2D",
"1 	c #372C2D",
"2 	c #3E2B25",
"3 	c #362420",
"4 	c #382929",
"5 	c #2D2425",
"6 	c #312623",
"7 	c #322723",
"8 	c #372D29",
"9 	c #3B2D2C",
"0 	c #40322F",
"a 	c #1A110F",
"b 	c #3A2C2C",
"c 	c #382B2A",
"d 	c #272020",
"e 	c #201B1A",
"f 	c #1E1D1C",
"g 	c #1E2220",
"h 	c #1E2321",
"i 	c #1D201E",
"j 	c #1D1C1A",
"k 	c #231E1C",
"l 	c #342928",
"m 	c #251B1A",
"n 	c #433A3A",
"o 	c #3A3132",
"p 	c #392521",
"q 	c #2B1E1C",
"r 	c #1B1615",
"s 	c #1F3D37",
"t 	c #339A89",
"u 	c #3AB5A0",
"v 	c #39B09C",
"w 	c #224740",
"x 	c #181111",
"y 	c #211A1A",
"z 	c #251C1B",
"A 	c #241C1B",
"B 	c #261E1B",
"C 	c #291E1E",
"D 	c #261C1B",
"E 	c #2B211E",
"F 	c #362C29",
"G 	c #1C1312",
"H 	c #3C312B",
"I 	c #382C2E",
"J 	c #372C2E",
"K 	c #241D1E",
"L 	c #1B2522",
"M 	c #319A89",
"N 	c #3FD3BA",
"O 	c #45E7CC",
"P 	c #328E7E",
"Q 	c #275E54",
"R 	c #2A695E",
"S 	c #2D6E63",
"T 	c #306F64",
"U 	c #2E6A5F",
"V 	c #296056",
"W 	c #245149",
"X 	c #21403A",
"Y 	c #1E302B",
"Z 	c #191D1B",
"` 	c #221B19",
" .	c #231A1A",
"..	c #302521",
"+.	c #382D29",
"@.	c #35231F",
"#.	c #1D1B1A",
"$.	c #23544B",
"%.	c #37B5A0",
"&.	c #43E1C7",
"*.	c #45E6CB",
"=.	c #45E4CA",
"-.	c #4AE8CE",
";.	c #57EAD2",
">.	c #65EBD5",
",.	c #74EBD7",
"'.	c #63E5CF",
").	c #42D4BC",
"!.	c #379C8B",
"~.	c #419D8D",
"{.	c #408176",
"].	c #2D4A44",
"^.	c #1C201E",
"/.	c #29211E",
"(.	c #272121",
"_.	c #382E2D",
":.	c #302622",
"<.	c #1B1A1A",
"[.	c #255C52",
"}.	c #34AA97",
"|.	c #3FD3BB",
"1.	c #44E2C7",
"2.	c #45E7CB",
"3.	c #45E5CA",
"4.	c #41DAC0",
"5.	c #3ED1B8",
"6.	c #40D7BE",
"7.	c #5BE7CF",
"8.	c #8DF1E0",
"9.	c #82F1DE",
"0.	c #47C8B2",
"a.	c #1D312D",
"b.	c #367065",
"c.	c #7FECDA",
"d.	c #7CE3D2",
"e.	c #40A997",
"f.	c #1B1716",
"g.	c #2A201D",
"h.	c #292122",
"i.	c #1E1A18",
"j.	c #20403A",
"k.	c #2E8D7D",
"l.	c #37B8A3",
"m.	c #3CC9B1",
"n.	c #43DFC5",
"o.	c #44E4C9",
"p.	c #41D7BE",
"q.	c #39BFA9",
"r.	c #3CBEA8",
"s.	c #4DDBC3",
"t.	c #5CEBD3",
"u.	c #428A7D",
"v.	c #1E2825",
"w.	c #4DBBA8",
"x.	c #64EED7",
"y.	c #5FEED6",
"z.	c #3EBAA5",
"A.	c #1C2623",
"B.	c #2C2120",
"C.	c #3A2E30",
"D.	c #382C2C",
"E.	c #291F21",
"F.	c #261D1F",
"G.	c #211A19",
"H.	c #1C2724",
"I.	c #2B7B6D",
"J.	c #34AB97",
"K.	c #3BC4AD",
"L.	c #46E8CD",
"M.	c #38BCA6",
"N.	c #36B49F",
"O.	c #25564D",
"P.	c #2C574F",
"Q.	c #2E4943",
"R.	c #276358",
"S.	c #42DEC3",
"T.	c #45DCC2",
"U.	c #296358",
"V.	c #1A1615",
"W.	c #302725",
"X.	c #171115",
"Y.	c #150C0C",
"Z.	c #1A0E0D",
"`.	c #20120F",
" +	c #180F13",
".+	c #191211",
"++	c #1D332F",
"@+	c #32A18E",
"#+	c #3CC8B1",
"$+	c #43E0C5",
"%+	c #3FD1B9",
"&+	c #3BC2AB",
"*+	c #35AA96",
"=+	c #32A390",
"-+	c #35AD99",
";+	c #224941",
">+	c #2F5B53",
",+	c #4D8278",
"'+	c #191B19",
")+	c #37A491",
"!+	c #43DDC3",
"~+	c #2B6E62",
"{+	c #22423C",
"]+	c #1D2C28",
"^+	c #231D1B",
"/+	c #31231D",
"(+	c #241915",
"_+	c #211614",
":+	c #1E181A",
"<+	c #110907",
"[+	c #1C1619",
"}+	c #1E1514",
"|+	c #191414",
"1+	c #214942",
"2+	c #38B8A3",
"3+	c #3ECFB7",
"4+	c #33A390",
"5+	c #255F54",
"6+	c #1D3530",
"7+	c #1C2C28",
"8+	c #1D3731",
"9+	c #20433C",
"0+	c #1B2623",
"a+	c #389A89",
"b+	c #54A395",
"c+	c #286E61",
"d+	c #2E8172",
"e+	c #38AB97",
"f+	c #1B211F",
"g+	c #191110",
"h+	c #160E12",
"i+	c #3C3636",
"j+	c #302524",
"k+	c #1B1B1A",
"l+	c #24554C",
"m+	c #3DCDB5",
"n+	c #2F9180",
"o+	c #222324",
"p+	c #373E42",
"q+	c #434E53",
"r+	c #414A4F",
"s+	c #201E1F",
"t+	c #235148",
"u+	c #3FD4BC",
"v+	c #4DDCC4",
"w+	c #28433E",
"x+	c #242121",
"y+	c #444345",
"z+	c #343333",
"A+	c #359E8C",
"B+	c #1D2825",
"C+	c #2F2521",
"D+	c #2D2629",
"E+	c #383435",
"F+	c #2F292D",
"G+	c #171518",
"H+	c #4B4140",
"I+	c #342A2B",
"J+	c #1E1C1B",
"K+	c #266056",
"L+	c #33A894",
"M+	c #36B39E",
"N+	c #329F8C",
"O+	c #1D312C",
"P+	c #2B2D30",
"Q+	c #4C5C63",
"R+	c #5D727B",
"S+	c #6C858F",
"T+	c #718A95",
"U+	c #404A4F",
"V+	c #1B2B27",
"W+	c #2A7568",
"X+	c #2C7B6D",
"Y+	c #1D2A26",
"Z+	c #515D62",
"`+	c #869AA4",
" @	c #95A1A7",
".@	c #3C3D3E",
"+@	c #1D322E",
"@@	c #1E1E1D",
"#@	c #352A26",
"$@	c #3B2F31",
"%@	c #3D3230",
"&@	c #412E2A",
"*@	c #2F2424",
"=@	c #309987",
"-@	c #34AE9A",
";@	c #33A794",
">@	c #214A42",
",@	c #262728",
"'@	c #4D5E65",
")@	c #5A6F78",
"!@	c #708995",
"~@	c #677E88",
"{@	c #3D464A",
"]@	c #27292A",
"^@	c #292B2D",
"/@	c #455055",
"(@	c #6B838E",
"_@	c #6F8894",
":@	c #849AA4",
"<@	c #7A8286",
"[@	c #1C1918",
"}@	c #251E1D",
"|@	c #3C2E2E",
"1@	c #3E302F",
"2@	c #43322D",
"3@	c #433532",
"4@	c #413131",
"5@	c #3D2F2F",
"6@	c #4E4546",
"7@	c #362723",
"8@	c #191716",
"9@	c #255D53",
"0@	c #34AE99",
"a@	c #2D8677",
"b@	c #1D2221",
"c@	c #404C51",
"d@	c #4F6068",
"e@	c #667D87",
"f@	c #708A95",
"g@	c #708994",
"h@	c #6F8893",
"i@	c #69808A",
"j@	c #6A818B",
"k@	c #728B96",
"l@	c #91A0A7",
"m@	c #343535",
"n@	c #302421",
"o@	c #412D26",
"p@	c #1F3934",
"q@	c #2C8374",
"r@	c #255E54",
"s@	c #242425",
"t@	c #424F54",
"u@	c #47555B",
"v@	c #6E8691",
"w@	c #8DA0A9",
"x@	c #4E5153",
"y@	c #281C17",
"z@	c #2F1F1C",
"A@	c #1C2A26",
"B@	c #309785",
"C@	c #35AF9B",
"D@	c #34AA96",
"E@	c #214740",
"F@	c #212021",
"G@	c #353E41",
"H@	c #5E737C",
"I@	c #718B96",
"J@	c #879DA7",
"K@	c #5F6466",
"L@	c #251A17",
"M@	c #362828",
"N@	c #1D1D1C",
"O@	c #266055",
"P@	c #319D8B",
"Q@	c #1F3E38",
"R@	c #303537",
"S@	c #435055",
"T@	c #61767F",
"U@	c #6A828C",
"V@	c #475358",
"W@	c #393F43",
"X@	c #3A4145",
"Y@	c #424B51",
"Z@	c #54646B",
"`@	c #6C848F",
" #	c #54656C",
".#	c #5A666B",
"+#	c #595D60",
"@#	c #281F1C",
"##	c #3A2F29",
"$#	c #453939",
"%#	c #1F1B1A",
"&#	c #1D302B",
"*#	c #224F46",
"=#	c #1B2A26",
"-#	c #343A3E",
";#	c #4B5B62",
">#	c #60767F",
",#	c #424D52",
"'#	c #171B18",
")#	c #162E25",
"!#	c #1A392F",
"~#	c #1A332B",
"{#	c #1B201D",
"]#	c #48555B",
"^#	c #6F8792",
"/#	c #191E1B",
"(#	c #192A24",
"_#	c #1B211E",
":#	c #252423",
"<#	c #282220",
"[#	c #42312C",
"}#	c #423431",
"|#	c #443635",
"1#	c #362928",
"2#	c #2D1E1C",
"3#	c #1D1717",
"4#	c #171413",
"5#	c #2C3133",
"6#	c #54676F",
"7#	c #576A72",
"8#	c #242626",
"9#	c #133329",
"0#	c #1D6C55",
"a#	c #299074",
"b#	c #2D9A7C",
"c#	c #205445",
"d#	c #292C2D",
"e#	c #6A818C",
"f#	c #687E88",
"g#	c #252727",
"h#	c #1C4C3D",
"i#	c #2A9275",
"j#	c #235A4A",
"k#	c #2A2121",
"l#	c #453F41",
"m#	c #3B2D2D",
"n#	c #362929",
"o#	c #1C2E2A",
"p#	c #212424",
"q#	c #4E5F66",
"r#	c #4C5B62",
"s#	c #1D1E1D",
"t#	c #174D3D",
"u#	c #299678",
"v#	c #3BC8A2",
"w#	c #42DDB3",
"x#	c #2E8A70",
"y#	c #232525",
"z#	c #667B85",
"A#	c #677D87",
"B#	c #232526",
"C#	c #236A56",
"D#	c #3CD0A7",
"E#	c #2E866D",
"F#	c #181514",
"G#	c #2D2524",
"H#	c #403531",
"I#	c #443937",
"J#	c #392D2F",
"K#	c #382B2B",
"L#	c #231D1D",
"M#	c #1A1D1B",
"N#	c #191817",
"O#	c #3B4549",
"P#	c #232425",
"Q#	c #183F33",
"R#	c #289375",
"S#	c #39C7A0",
"T#	c #40D8AE",
"U#	c #286A57",
"V#	c #2B2E30",
"W#	c #6B828D",
"X#	c #6D8590",
"Y#	c #32373A",
"Z#	c #1B3B31",
"`#	c #298369",
" $	c #20453A",
".$	c #191514",
"+$	c #2E2524",
"@$	c #201718",
"#$	c #231915",
"$$	c #211918",
"%$	c #1D1614",
"&$	c #1C1B1B",
"*$	c #292D2F",
"=$	c #181B18",
"-$	c #1C3D32",
";$	c #215647",
">$	c #214F41",
",$	c #1C2320",
"'$	c #4D5A61",
")$	c #718A96",
"!$	c #5A6C74",
"~$	c #181917",
"{$	c #181615",
"]$	c #181415",
"^$	c #281E1C",
"/$	c #241C1A",
"($	c #211A18",
"_$	c #1D1818",
":$	c #1A1817",
"<$	c #2C2F32",
"[$	c #363C3F",
"}$	c #424E53",
"|$	c #68808A",
"1$	c #404A4E",
"2$	c #221C1B",
"3$	c #2A2120",
"4$	c #3B2D2B",
"5$	c #3B2E2D",
"6$	c #282120",
"7$	c #1A1818",
"8$	c #47555A",
"9$	c #586B73",
"0$	c #617781",
"a$	c #657C86",
"b$	c #2E3335",
"c$	c #2A2223",
"d$	c #3F3534",
"e$	c #423735",
"f$	c #302522",
"g$	c #211B19",
"h$	c #1C2522",
"i$	c #1A1F1D",
"j$	c #242627",
"k$	c #1F1F1F",
"l$	c #384144",
"m$	c #32393C",
"n$	c #1C1B1A",
"o$	c #1E1E1E",
"p$	c #1C1A1A",
"q$	c #312B2F",
"r$	c #31211E",
"s$	c #275C53",
"t$	c #3BB8A3",
"u$	c #26584E",
"v$	c #2B2C2E",
"w$	c #36383B",
"x$	c #1F1D1D",
"y$	c #1B1817",
"z$	c #23201E",
"A$	c #262321",
"B$	c #1B1818",
"C$	c #342E31",
"D$	c #372C28",
"E$	c #453836",
"F$	c #483A37",
"G$	c #261F1E",
"H$	c #1C2A27",
"I$	c #3BB7A2",
"J$	c #3AB49F",
"K$	c #1D2C29",
"L$	c #2F3033",
"M$	c #43484F",
"N$	c #545A63",
"O$	c #3E4146",
"P$	c #282523",
"Q$	c #201E1C",
"R$	c #171514",
"S$	c #1D1A1A",
"T$	c #221E1C",
"U$	c #2E2723",
"V$	c #3C2F2E",
"W$	c #3C2F29",
"X$	c #382521",
"Y$	c #231B18",
"Z$	c #28282A",
"`$	c #29292B",
" %	c #213F38",
".%	c #1F3731",
"+%	c #232122",
"@%	c #42464C",
"#%	c #50555D",
"$%	c #565C64",
"%%	c #45494F",
"&%	c #413C39",
"*%	c #23201F",
"=%	c #1D1A19",
"-%	c #2A2A2B",
";%	c #36383C",
">%	c #1B1A19",
",%	c #2D1F1C",
"'%	c #352C29",
")%	c #202020",
"!%	c #474B52",
"~%	c #51565E",
"{%	c #43464C",
"]%	c #1A1716",
"^%	c #191616",
"/%	c #323438",
"(%	c #34363A",
"_%	c #464A50",
":%	c #3B3D41",
"<%	c #1F1E1E",
"[%	c #252526",
"}%	c #443F3C",
"|%	c #36322F",
"1%	c #312F2E",
"2%	c #232223",
"3%	c #2E2622",
"4%	c #2F2722",
"5%	c #1D1C1C",
"6%	c #222020",
"7%	c #222223",
"8%	c #191A18",
"9%	c #1D2623",
"0%	c #1A221F",
"a%	c #3C3835",
"b%	c #252220",
"c%	c #1F1C1B",
"d%	c #1B1717",
"e%	c #2C2424",
"f%	c #302627",
"g%	c #332828",
"h%	c #26201D",
"i%	c #292523",
"j%	c #1E2422",
"k%	c #366E66",
"l%	c #2A504A",
"m%	c #348477",
"n%	c #22403A",
"o%	c #2B292C",
"p%	c #1F1E1D",
"q%	c #231F21",
"r%	c #201C1E",
"s%	c #241F21",
"t%	c #362C28",
"u%	c #2B221F",
"v%	c #201A17",
"w%	c #2F4845",
"x%	c #44857E",
"y%	c #3F857C",
"z%	c #284D47",
"A%	c #1B1F1D",
"B%	c #272628",
"C%	c #1A1717",
"D%	c #271E20",
"E%	c #322C32",
"F%	c #261E1F",
"G%	c #433534",
"H%	c #2D2522",
"I%	c #1A1918",
"J%	c #212625",
"K%	c #1D211F",
"L%	c #1D2220",
"M%	c #1D1819",
"N%	c #191615",
"O%	c #1D1B1B",
"P%	c #181414",
"Q%	c #251D20",
"R%	c #312625",
"S%	c #1A1715",
"T%	c #1E1918",
"U%	c #241E1E",
"V%	c #2B2120",
"W%	c #1C1818",
"X%	c #392F32",
"Y%	c #201815",
"Z%	c #191311",
"`%	c #1A0F0E",
" &	c #150D0C",
".&	c #171312",
"+&	c #151111",
"@&	c #2F241F",
"#&	c #251B18",
"$&	c #251E1C",
"%&	c #32221E",
"&&	c #312523",
"*&	c #443836",
"=&	c #3C3539",
"  . + @ @ # + # # # # + # # # . # $ + % . @ @ & .   * = * - &   & & & & & & & & & - & ; & & > ; , , ",
"' - )   ,   ! ! . . . # # . % . . $ $ . . # ~ { @ @ & @ ] &   &   # # & &   & # ^ - ' - ^ & ; > ' ' ",
"- ) ) ) )   ! ! % % % / / / % % %       . . ( _   @ . = :   ) < & & & & & & & &     / & &   ! ; - & ",
"            % [ / } | 1 2 3 4 5 6 7 8 9   . - 0 & . . a ~   > ] @ # @ @ @ @ @ @ . . . . .   /     . ",
"/         /     % b c d e f g h i j k l -   / / . / ( m n o > > * * * ~ ~ ~ > ~ . .     /           ",
"+ . + / +   .   . / p q r s t u v w x y z A B C D E F G H ) / +       &   . . .   &   ; ! ;   ;     ",
"@ + + @ @ + . . I / / J K L M N O P Q R S T U V W X Y Z `  ...+.- - & - - - ) ) -             / . / ",
"+ + @ + + . / / % / % @.#.$.%.&.O *.=.*.-.;.>.,.'.).!.~.{.].^./.6   &   &   )   . . / . + + + + @ @ ",
"  (.  (./ ^ @ _.! ! ! :.<.[.}.|.1.2.3.4.5.6.7.8.9.0.a.b.c.d.e.w f.g.@ . .   / / + . . . . / . / + (.",
"@ $ / + . / $ / . + . . h.i.j.k.l.m.n.o.p.q.r.s.t.u.Z v.w.x.y.z.A.B..   & & > ; C.b D.b C.C./ D.; ; ",
"@ +   (.+ . $ + + E.E.+ E.F.G.H.I.J.K.*.L.1.M.N.N O.P.Q.R.S.T.U.V.W.' > ~ )   . !   I / . . . . (.@ ",
"X.= = Y.= = Y.a Z.Z.`. +`. +`..+++@+#+$+%+&+*+=+-+;+>+,+'+)+!+~+{+]+^+/++ @ @ (+(+(+_+_+= _+= _+:+:+",
"= = <+Y.:+:+= a _+_+[+_+_+ +}+|+1+2+3+4+5+6+7+8+9+0+a+b+g R.c+d+r.e+f+g+Z.Z.Y.Z. += _+ + +_+=  +h+Y.",
"  + = . i+& ; - b b   D.  j+k+l+4+m+n+++o+p+q+r+s+t+u+v+w+x+y+z+{+A+B+C+  !   ! + + E.. D+. / . E+F+",
"F+@ G+^ H+^ ^ ^ C.D.C.C.I+J+K+L+M+N+O+P+Q+R+S+T+U+V+W+X+Y+Z+`+ @.@+@@@#@! - }   $@%@&@$@%@$@%@%@] E+",
"@ @ = i+{ / +   D.D.b b *@7+=@-@;@>@,@'@)@S+!@T+~@{@]@^@/@(@_@:@<@[@}@|@1@2@( 3@4@4@$@4@5@5@5@' 6@E+",
"@ :+(+- % + 2@} 4@| &@| 7@8@9@0@a@b@c@d@e@f@g@g@T+h@i@j@g@g@g@k@l@m@n@2@2@2@2@2@2@2@o@o@o@& % # @ $ ",
"& @ (+&   # - [ % # % 3 G.p@q@0@r@s@t@u@v@g@g@g@g@g@f@!@g@g@g@h@w@x@y@[ [ [ [ [ 2@2@2@o@o@2@2@o@: 5@",
"  @ a @ . @ / $ # # % z@A@B@C@D@E@F@G@H@!@T+g@g@T+I@g@g@g@f@I@f@J@K@L@, [ [ [ [ [ & o@o@% &@, ,   / ",
"# @ (+  : & 2@5@| % | M@N@O@P@;@Q@R@S@T@U@V@W@X@Y@Z@`@g@g@j@ #V@.#+#@###2@2@2@2@2@2@o@o@&@& o@9 . + ",
"@ @ :+* $#5@%@4@| | b b *@%#&#*#=#-#;#>#,#'#)#!#~#{#]#f@^#{@/#(#_#:#<#[#}#( 3@( < 2@( 2@2@' 1@2@> / ",
"@ :+G+& |#. +   b b / % , 1#2#3#4#5#6#7#8#9#0#a#b#c#d#e#f#g#h#i#j#4#k#( 2@2@1@%@&@& _.> 9 - 1@: D.+ ",
"F+(.(+; l#m#+ I I I b b b b n##.o#p#q#r#s#t#u#v#w#x#y#z#A#B#C#D#E#F#G#%@%@_.> > H#~ : : %@1@%@I#! . ",
"  @ Y.  l#I / I 4@J#4@b m#m#K#L#M#N#O#'@P#Q#R#S#T#U#V#W#X#Y#Z#`# $.$+$} - _._._.> & / )   + / ) F++ ",
"Y.G+= :+(+m m @ (+@$m m m _+(+#$$$%$&$*$o+=$-$;$>$,$'$T+)$!$8#~${$]$a = a = = Y.Y.= Z.= Z.= a = = = ",
"@ @ $ m m @ @ @ . / . . . . / + m ^$/$($_$V.:$<$[$}$|$f@`@f@1$F#2$3$+ / + .   +   + + + + @ (.@ @ @ ",
"~ ~ & ) ) D.D.^ _.- _.> b _.5@- 4$5@4@$@5$6$7$8$9$Q+0$a$u@ #b$c$%@%@( ( I#d$e$I#n e$I#e$e$: ( 1@~ : ",
"& ^ ; ; _.o %@: 5@o > %@$@%@$@1@4$4$} f$g$h$i$P#j$k$l$m$n$o$p$q$  !   ! ) ) ) /   ! ! ! - _.- 9 o > ",
"&@9 &@2@2@( }#}#4@2@4@2@1@- - - , % r$j s$t$u$V.v$w$x$y$z$A$B$C$D$! } ! , , !   + # % .   ! 9 9 2@' ",
"E$|#F$|#E$|#|#3@2@2@1@- !   % # 3 G$V.H$I$J$K$L$M$N$O$P$A$Q$R$S$T$U$V$' ' 9 9 - } ! } - 1@' 2@2@3@( ",
"&@2@o@4$, o@o@, W$, & , ! % , X$Y$Z$O$`$ %.%+%@%#%$%%%x$&%*%=%-%;%>%,%% % . # #   % % % , , , ! &@o@",
"&@9 ! % % ! , , ! , ' 2@0 2@( '%)%!%~%{%]%^%/%(%_%:%<%[%}%A$|%1%2%[@3%' ' & - ' &   ) ' 9 ' 2@2@&@&@",
"!   , 1@' ! ! 9 , - D.> > > ^ 4%5%2%6%2%8@7%Z$8%S$9%0%Z$a%b%c%c%d%e%f%. +   ) 1@- - _.- _.- - } 4$o@",
"2@' - 1@1@- 9 '   ) ) ) D.D.D.g%h%^+i%[@8@F@j%k%l%m%n%o%p%q%r%:$s%/ } | %@: %@o : : d$: ( ( %@4@2@4@",
". @ @ $ @ @ . @ . +   / +   . .   t%u%v%&$p$w%x%y%z%A%B%C%D%E%F%G%m#E.$ $ @ @ $ + + + + . + / . . + ",
".     #   ) - ! %@%@%@: d$: : ^ %   H%#.F@I%J%K%L%M%N%O%P%Q%E.E.e$4$+ + / > o : ) ! ) ! ) ! ! ) ! / ",
"  - 1@> ; > 1@>   , - - ; - ) ) - R%[@[%5%S%T%V.U%V%W%{$$$E.I I . . %   ~ ~ ' , ~ 2@2@9 - ' > > X%X%",
":+(+(+@ m [+(+(+_+_+_+(+(+_+_+_+Y%{$8@I%.$Z%`% & &Z..&+& &= [+_+m m $ $ (+(+`.`.m (+(+(+_+(+(+m $ Q%",
"@ = a m @ m (+$ @ @ # @ # # # # @&#&$&%&X$    / /   f%&&+ D+/ / # $ $ m @ #   ! (+(+_+_+(+(+m $ $ $ ",
") m (+  ( 1@9 4@0 0 3@3@|#E$F$E$0 *&E$F$E$3@|#|#( e$$#e$|#|#4@4@4@2@2@4@0 1@- ! , ! % ! , 9 ' 1@1@1@",
"+ $ = E.E.% l#% ! % ! 4$o@&@&@&@& & & & 2@2@5@- 4$4$| b I % o@o@. % % , , , ,   , % , %     & , |#3@",
"4@+ m . / / |#/ 9 2@5@2@2@2@3@}#2@H#2@( ( ( 2@&@&@4@m#&@4@&@&@&@& ' ' & & ' ' 2@2@> 0 ' > 2@H#H#2@2@",
"|#/ m I 4@C.4@I 2@2@2@}#2@2@2@2@H#2@H#H#2@2@' W$&@&@o@o@&@&@2@2@9 & 9 &@' 2@2@& ' &@2@2@2@2@2@&@|#2@",
"C.E._++ 4@4@I 4@' 2@&@2@2@2@&@&@2@2@2@2@2@2@9 W$4$4$} | o@| o@o@9 o@W$&@& 2@> 2@W$9 & 2@' 2@' & ' 9 ",
"/ Q%_+m J#|#4@4@2@4@2@2@2@2@o@2@2@2@&@2@2@2@2@2@2@2@2@2@2@2@2@2@2@3@2@2@H#0 0 2@2@2@2@( 2@0 2@0     ",
"/ @$m m / 4@J#&@&@&@&@&@o@&@o@o@, W$! % &@o@2@2@2@2@2@F$2@2@2@2@2@2@0 2@, & , , , , & , , , , , ) ) ",
"J#= Q%E.+ 4@&@&@&@&@&@&@o@o@o@o@, ! [ . o@o@&@2@2@2@o@o@2@o@2@&@&@& W$, , [ [ [ [ [ # # # # # # i+i+",
"|#h+@$/ E.% b 4@4@4@2@2@2@2@2@o@'   % % , , &@2@o@o@2@2@2@2@2@}#2@2@2@2@* * * 2@H#> 2@2@& ' > > ] =&",
"Q%Q%Q%D+I C.b b 4$&@4$&@4@4@4@4@m#} , - - - ) ) - ; ; > > > _.> * ~ > > ; > > ^ ~ ~ ~ : : ~ > ; ! F+",
"G+X.[+Q%E./ + . + + + # . / / / / . . . . + . + + + + + + + D++ m @ m (+(+m m m m @ m m @ m m (+m :+"};
