/* XPM */
static char * 9_xpm[] = {
"50 50 653 2",
"  	c #352925",
". 	c #322624",
"+ 	c #2D2322",
"@ 	c #2C211E",
"# 	c #32241E",
"$ 	c #291E1C",
"% 	c #3A2622",
"& 	c #3A3027",
"* 	c #3F342E",
"= 	c #1D1312",
"- 	c #392E2A",
"; 	c #38302E",
"> 	c #3D322C",
", 	c #3A2B25",
"' 	c #3B302A",
") 	c #392D29",
"! 	c #362B29",
"~ 	c #3E332D",
"{ 	c #4C413D",
"] 	c #48403E",
"^ 	c #383232",
"/ 	c #312728",
"( 	c #413632",
"_ 	c #524743",
": 	c #3F3430",
"< 	c #463B35",
"[ 	c #39261F",
"} 	c #3A2C2B",
"| 	c #3D2D2D",
"1 	c #382C2E",
"2 	c #3F2C25",
"3 	c #372421",
"4 	c #392A2A",
"5 	c #2E2425",
"6 	c #322723",
"7 	c #332723",
"8 	c #382D29",
"9 	c #3B2D2C",
"0 	c #40322F",
"a 	c #1A110F",
"b 	c #3A2C2C",
"c 	c #2B2324",
"d 	c #211B1B",
"e 	c #1E1C1A",
"f 	c #1E201D",
"g 	c #1E201F",
"h 	c #1D1E1C",
"i 	c #211C1B",
"j 	c #322826",
"k 	c #251B1A",
"l 	c #433A3A",
"m 	c #3A3132",
"n 	c #2F201D",
"o 	c #1E1816",
"p 	c #1C2A26",
"q 	c #2E8677",
"r 	c #38AD99",
"s 	c #39AD99",
"t 	c #296359",
"u 	c #171211",
"v 	c #21191A",
"w 	c #271E1D",
"x 	c #29201D",
"y 	c #2C2120",
"z 	c #281E1D",
"A 	c #2D231F",
"B 	c #392F2B",
"C 	c #1C1312",
"D 	c #3C322C",
"E 	c #292121",
"F 	c #1A1817",
"G 	c #2C8071",
"H 	c #3CCAB2",
"I 	c #46EACF",
"J 	c #37A592",
"K 	c #255148",
"L 	c #26594F",
"M 	c #285D54",
"N 	c #2A5D54",
"O 	c #29584F",
"P 	c #244F47",
"Q 	c #20423B",
"R 	c #1E322E",
"S 	c #1D2522",
"T 	c #181816",
"U 	c #251D1B",
"V 	c #251C1B",
"W 	c #312622",
"X 	c #382521",
"Y 	c #221C1C",
"Z 	c #1F3D37",
"` 	c #33A18E",
" .	c #42DBC1",
"..	c #45E6CB",
"+.	c #45E5CA",
"@.	c #44E1C7",
"#.	c #44E3C8",
"$.	c #47E5CB",
"%.	c #54E7CE",
"&.	c #61E7D1",
"*.	c #6BE5D1",
"=.	c #60DEC9",
"-.	c #43CEB7",
";.	c #37A491",
">.	c #398C7E",
",.	c #366E63",
"'.	c #263C37",
").	c #1C1B1B",
"!.	c #2B231F",
"~.	c #272121",
"{.	c #382E2D",
"].	c #332824",
"^.	c #1E1919",
"/.	c #214841",
"(.	c #32A08E",
"_.	c #3ECFB6",
":.	c #42DDC3",
"<.	c #40D4BB",
"[.	c #41D9BF",
"}.	c #53E6CD",
"|.	c #87F0DE",
"1.	c #8DF1E0",
"2.	c #52E1C9",
"3.	c #26584F",
"4.	c #2F6259",
"5.	c #71E1CE",
"6.	c #7DDCCC",
"7.	c #429C8C",
"8.	c #20413A",
"9.	c #1B1716",
"0.	c #291F1D",
"a.	c #2C2324",
"b.	c #211918",
"c.	c #1E3631",
"d.	c #2C8374",
"e.	c #37B6A1",
"f.	c #3CC8B0",
"g.	c #42DEC4",
"h.	c #44E4C9",
"i.	c #3AC1AB",
"j.	c #3CBFA9",
"k.	c #50DBC3",
"l.	c #61EDD5",
"m.	c #52B7A5",
"n.	c #1C2623",
"o.	c #1A1D1B",
"p.	c #4CA797",
"q.	c #6DF0DA",
"r.	c #64EED7",
"s.	c #44C9B3",
"t.	c #1F3732",
"u.	c #3A2E30",
"v.	c #382C2C",
"w.	c #291F21",
"x.	c #271E1F",
"y.	c #241C1A",
"z.	c #1B211E",
"A.	c #286D61",
"B.	c #33A996",
"C.	c #39BDA7",
"D.	c #46E8CD",
"E.	c #44E3C9",
"F.	c #3AC1AA",
"G.	c #35B29E",
"H.	c #3FD7BD",
"I.	c #2E7C6F",
"J.	c #233D38",
"K.	c #2E4F49",
"L.	c #24544B",
"M.	c #42DBC2",
"N.	c #4AE6CC",
"O.	c #379988",
"P.	c #1B2522",
"Q.	c #2E2623",
"R.	c #3C312B",
"S.	c #171115",
"T.	c #150C0C",
"U.	c #1A0E0D",
"V.	c #20120F",
"W.	c #180F13",
"X.	c #1A1212",
"Y.	c #2F9382",
"Z.	c #39BFA9",
"`.	c #43E1C6",
" +	c #3ECEB6",
".+	c #39B9A4",
"++	c #33A794",
"@+	c #36B5A0",
"#+	c #296A5E",
"$+	c #243F3A",
"%+	c #519387",
"&+	c #1C1D1C",
"*+	c #328D7D",
"=+	c #2B6F62",
"-+	c #1C2926",
";+	c #1C211F",
">+	c #241E1B",
",+	c #30231D",
"'+	c #241915",
")+	c #211614",
"!+	c #1E181A",
"~+	c #110907",
"{+	c #1C1619",
"]+	c #1F1614",
"^+	c #191312",
"/+	c #1D342F",
"(+	c #34A692",
"_+	c #3FD2B9",
":+	c #37B5A0",
"<+	c #2A776A",
"[+	c #20463F",
"}+	c #1D3631",
"|+	c #1F3F39",
"1+	c #23564C",
"2+	c #1C2A27",
"3+	c #2C6E62",
"4+	c #57B1A2",
"5+	c #212321",
"6+	c #286459",
"7+	c #319382",
"8+	c #329584",
"9+	c #3AB39F",
"0+	c #37A693",
"a+	c #1C2B27",
"b+	c #191110",
"c+	c #160E12",
"d+	c #3C3636",
"e+	c #332726",
"f+	c #1D1919",
"g+	c #3DCBB3",
"h+	c #34A894",
"i+	c #214840",
"j+	c #2E3235",
"k+	c #3A4347",
"l+	c #3A4246",
"m+	c #222021",
"n+	c #1E3732",
"o+	c #3BC2AC",
"p+	c #50E4CB",
"q+	c #315951",
"r+	c #1C1B1A",
"s+	c #2F2F2F",
"t+	c #2A2C2B",
"u+	c #234A42",
"v+	c #3AB5A0",
"w+	c #203C36",
"x+	c #2D2629",
"y+	c #383435",
"z+	c #2F292D",
"A+	c #171518",
"B+	c #4B4140",
"C+	c #372C2E",
"D+	c #224C44",
"E+	c #35B19D",
"F+	c #36AF9A",
"G+	c #20453E",
"H+	c #232324",
"I+	c #455258",
"J+	c #586C74",
"K+	c #68808A",
"L+	c #708994",
"M+	c #475358",
"N+	c #1B2925",
"O+	c #2D8374",
"P+	c #349F8D",
"Q+	c #203E38",
"R+	c #3D4246",
"S+	c #80929A",
"T+	c #8F9BA0",
"U+	c #3D3D3E",
"V+	c #1D2824",
"W+	c #322724",
"X+	c #3B2F31",
"Y+	c #3D3230",
"Z+	c #412E2A",
"`+	c #332727",
" @	c #1B221F",
".@	c #2E8C7C",
"+@	c #34AE9A",
"@@	c #34AC98",
"#@	c #266156",
"$@	c #1F2020",
"%@	c #47555B",
"&@	c #69808B",
"*@	c #708A95",
"=@	c #718A95",
"-@	c #687F89",
";@	c #212424",
">@	c #33393C",
",@	c #627781",
"'@	c #849BA5",
")@	c #7F888C",
"!@	c #1E1C1B",
"~@	c #1E1A19",
"{@	c #392C2C",
"]@	c #3E302F",
"^@	c #43322D",
"/@	c #433532",
"(@	c #413131",
"_@	c #3D2F2F",
":@	c #4E4546",
"<@	c #392925",
"[@	c #1C1716",
"}@	c #224E46",
"|@	c #34AA96",
"1@	c #309684",
"2@	c #394246",
"3@	c #4F6068",
"4@	c #6E8691",
"5@	c #637881",
"6@	c #627780",
"7@	c #6C848F",
"8@	c #91A1A9",
"9@	c #3C3D3D",
"0@	c #42312D",
"a@	c #412D26",
"b@	c #372521",
"c@	c #241B19",
"d@	c #1D302B",
"e@	c #2A7668",
"f@	c #34AD99",
"g@	c #297165",
"h@	c #202121",
"i@	c #424F54",
"j@	c #6B828D",
"k@	c #6F8893",
"l@	c #8A9EA8",
"m@	c #595D5F",
"n@	c #251A17",
"o@	c #32211E",
"p@	c #1A221F",
"q@	c #2E8A7B",
"r@	c #35B09B",
"s@	c #24574E",
"t@	c #1F1E1E",
"u@	c #31383B",
"v@	c #596C75",
"w@	c #718B96",
"x@	c #718A96",
"y@	c #839AA4",
"z@	c #6B7174",
"A@	c #221917",
"B@	c #392A24",
"C@	c #382929",
"D@	c #1F1C1B",
"E@	c #24594F",
"F@	c #319C8A",
"G@	c #34AB97",
"H@	c #214C44",
"I@	c #2B2D30",
"J@	c #414D52",
"K@	c #5C717A",
"L@	c #526168",
"M@	c #424B50",
"N@	c #434D52",
"O@	c #4B575E",
"P@	c #5B6D75",
"Q@	c #6D8690",
"R@	c #6F8792",
"S@	c #57676F",
"T@	c #65757D",
"U@	c #6A7174",
"V@	c #251E1C",
"W@	c #392F29",
"X@	c #453939",
"Y@	c #312625",
"Z@	c #201B19",
"`@	c #1D2F2B",
" #	c #23534A",
".#	c #1C322D",
"+#	c #2F3437",
"@#	c #4A5A60",
"##	c #5D727B",
"$#	c #4D5C62",
"%#	c #1A1C1B",
"&#	c #162620",
"*#	c #192F27",
"=#	c #1A2A25",
"-#	c #1D201F",
";#	c #49565B",
">#	c #708995",
",#	c #4C5960",
"'#	c #212323",
")#	c #1E2120",
"!#	c #313131",
"~#	c #24201E",
"{#	c #41312C",
"]#	c #423431",
"^#	c #443635",
"/#	c #372A29",
"(#	c #2E1E1C",
"_#	c #1E1818",
":#	c #171413",
"<#	c #282C2E",
"[#	c #52656D",
"}#	c #5A6D76",
"|#	c #2A2E2F",
"1#	c #132B23",
"2#	c #1A624E",
"3#	c #26866C",
"4#	c #2B9075",
"5#	c #205444",
"6#	c #27292A",
"7#	c #687E88",
"8#	c #6C848E",
"9#	c #2C2F31",
"0#	c #19392F",
"a#	c #257B63",
"b#	c #215445",
"c#	c #171514",
"d#	c #261F1E",
"e#	c #403531",
"f#	c #453F41",
"g#	c #3B2D2D",
"h#	c #382B2A",
"i#	c #1E1B1A",
"j#	c #1C2D29",
"k#	c #202222",
"l#	c #4C5C63",
"m#	c #4F6067",
"n#	c #164537",
"o#	c #278D71",
"p#	c #38BF9B",
"q#	c #40D6AE",
"r#	c #2F9277",
"s#	c #202423",
"t#	c #61767F",
"u#	c #6A818B",
"v#	c #215F4D",
"w#	c #39C7A0",
"x#	c #309277",
"y#	c #292221",
"z#	c #443937",
"A#	c #392D2F",
"B#	c #382B2B",
"C#	c #241E1C",
"D#	c #1A1F1D",
"E#	c #191817",
"F#	c #3A4448",
"G#	c #4F6168",
"H#	c #242627",
"I#	c #183D31",
"J#	c #289375",
"K#	c #3ACAA2",
"L#	c #42E2B6",
"M#	c #2D8169",
"N#	c #252728",
"O#	c #677D87",
"P#	c #6E8791",
"Q#	c #32373A",
"R#	c #1C4135",
"S#	c #2E9D7E",
"T#	c #26604F",
"U#	c #181514",
"V#	c #2B2321",
"W#	c #201718",
"X#	c #231915",
"Y#	c #1C1614",
"Z#	c #1D1C1C",
"`#	c #2C3234",
" $	c #181B19",
".$	c #1C4538",
"+$	c #246754",
"@$	c #256653",
"#$	c #1B2A24",
"$$	c #424C51",
"%$	c #708993",
"&$	c #55666E",
"*$	c #19231F",
"=$	c #181A18",
"-$	c #181515",
";$	c #1A1210",
">$	c #281E1C",
",$	c #201A18",
"'$	c #1C1818",
")$	c #191615",
"!$	c #191716",
"~$	c #262829",
"{$	c #2D3133",
"]$	c #657B85",
"^$	c #6E8792",
"/$	c #424D51",
"($	c #1E1918",
"_$	c #28201F",
":$	c #3B2D2B",
"<$	c #3B2E2D",
"[$	c #1A1818",
"}$	c #465459",
"|$	c #5B6F78",
"1$	c #506169",
"2$	c #637982",
"3$	c #6A828C",
"4$	c #51626A",
"5$	c #5E727A",
"6$	c #363D40",
"7$	c #261F1F",
"8$	c #3B302F",
"9$	c #3F3534",
"0$	c #423735",
"a$	c #1C1E1C",
"b$	c #191B19",
"c$	c #26292A",
"d$	c #2A2F30",
"e$	c #232525",
"f$	c #404B50",
"g$	c #3D474C",
"h$	c #232526",
"i$	c #1E1D1E",
"j$	c #2E292C",
"k$	c #352320",
"l$	c #1F1B1A",
"m$	c #22443D",
"n$	c #37A492",
"o$	c #181414",
"p$	c #262627",
"q$	c #2F3033",
"r$	c #201D1B",
"s$	c #24211F",
"t$	c #352F32",
"u$	c #453836",
"v$	c #483A37",
"w$	c #392622",
"x$	c #2D2423",
"y$	c #1F1816",
"z$	c #1B2723",
"A$	c #3AB29E",
"B$	c #3EC8B0",
"C$	c #2B2B2D",
"D$	c #42464C",
"E$	c #535861",
"F$	c #3C3E43",
"G$	c #272422",
"H$	c #252220",
"I$	c #211E1D",
"J$	c #1F1C1D",
"K$	c #27211F",
"L$	c #342B26",
"M$	c #3D302F",
"N$	c #3C2F29",
"O$	c #2C1F1A",
"P$	c #1F1C1C",
"Q$	c #252526",
"R$	c #244C45",
"S$	c #234C44",
"T$	c #201E1F",
"U$	c #3F4449",
"V$	c #4E545C",
"W$	c #565C64",
"X$	c #484C52",
"Y$	c #3F3A37",
"Z$	c #1C1918",
"`$	c #252525",
" %	c #303134",
".%	c #1B1A19",
"+%	c #30211E",
"@%	c #3B312E",
"#%	c #201C1B",
"$%	c #3F4247",
"%%	c #565B64",
"&%	c #484C53",
"*%	c #1C1A19",
"=%	c #303235",
"-%	c #373A3F",
";%	c #494D54",
">%	c #404348",
",%	c #222122",
"'%	c #242425",
")%	c #433E3B",
"!%	c #282523",
"~%	c #332F2D",
"{%	c #33312F",
"]%	c #262628",
"^%	c #2D2521",
"/%	c #332A25",
"(%	c #2F3032",
"_%	c #29292B",
":%	c #2C2C2E",
"<%	c #1B1919",
"[%	c #201F20",
"}%	c #2B2C2E",
"|%	c #1A1918",
"1%	c #1E1C1C",
"2%	c #1D2221",
"3%	c #1A201E",
"4%	c #272729",
"5%	c #3C3836",
"6%	c #201E1C",
"7%	c #1A1616",
"8%	c #2A2222",
"9%	c #2F2627",
"0%	c #332828",
"a%	c #201B1A",
"b%	c #1C1917",
"c%	c #1B1817",
"d%	c #181615",
"e%	c #212121",
"f%	c #1D1F1E",
"g%	c #316059",
"h%	c #274742",
"i%	c #31796D",
"j%	c #244741",
"k%	c #2A282A",
"l%	c #21201F",
"m%	c #211E1F",
"n%	c #1C1A1B",
"o%	c #241F21",
"p%	c #342A27",
"q%	c #2A221F",
"r%	c #211A18",
"s%	c #1B1A1A",
"t%	c #1C1A1A",
"u%	c #2C403E",
"v%	c #468982",
"w%	c #428D84",
"x%	c #2C5C54",
"y%	c #1C2421",
"z%	c #1B1819",
"A%	c #261D1F",
"B%	c #312A31",
"C%	c #251D1E",
"D%	c #423534",
"E%	c #312825",
"F%	c #212021",
"G%	c #232A2A",
"H%	c #1F2625",
"I%	c #202927",
"J%	c #1D1819",
"K%	c #191515",
"L%	c #241D1F",
"M%	c #352928",
"N%	c #1F1F1F",
"O%	c #1D1817",
"P%	c #191514",
"Q%	c #2A2120",
"R%	c #1F1918",
"S%	c #392F32",
"T%	c #221815",
"U%	c #1A0F0E",
"V%	c #150E0D",
"W%	c #150D0D",
"X%	c #171212",
"Y%	c #161312",
"Z%	c #251D20",
"`%	c #302420",
" &	c #201917",
".&	c #211B1A",
"+&	c #2E1F1C",
"@&	c #372420",
"#&	c #312523",
"$&	c #3F312E",
"%&	c #433634",
"&&	c #443735",
"*&	c #3C3539",
"  . + @ @ # + # # # # + # # # . # $ + % . @ @ & .   * = * - &   & & & & & & & & & - & ; & & > ; , , ",
"' - )   ,   ! ! . . . # # . % . . $ $ . . # ~ { @ @ & @ ] &   &   # # & &   & # ^ - ' - ^ & ; > ' ' ",
"- ) ) ) )   ! ! % % % / / / % % %       . . ( _   @ . = :   ) < & & & & & & & &     / & &   ! ; - & ",
"            % [ / } | 1 2 3 4 5 6 7 8 9   . - 0 & . . a ~   > ] @ # @ @ @ @ @ @ . . . . .   /     . ",
"/         /     % b b c d e f g h e i j -   / / . / ( k l m > > * * * ~ ~ ~ > ~ . .     /           ",
"+ . + / +   .   . / % n o p q r s t u v w w x y z A B C D ) / +       &   . . .   &   ; ! ;   ;     ",
"@ + + @ @ + . . 1 / / 1 E F G H I J K L M N O P Q R S T U V W ) - - & - - - ) ) -             / . / ",
"+ + @ + + . / / % / % X Y Z `  ...+.@.#.$.%.&.*.=.-.;.>.,.'.).!.6   &   &   )   . . / . + + + + @ @ ",
"  ~.  ~./ ^ @ {.! ! ! ].^./.(._.@.....:.<.[.}.|.1.2.3.4.5.6.7.8.9.0.@ . .   / / + . . . . / . / + ~.",
"@ $ / + . / $ / . + . . a.b.c.d.e.f.g.h.[.i.j.k.l.m.n.o.p.q.r.s.t.z .   & & > ; u.b v.b u.u./ v.; ; ",
"@ +   ~.+ . $ + + w.w.+ w.x.y.z.A.B.C.h.D.E.F.G.H.I.J.K.L.M.N.O.P.Q.R.> ~ )   . !   1 / . . . . ~.@ ",
"S.= = T.= = T.a U.U.V.W.V.W.V.X.P.Y.Z.`.[. +.+++@+#+$+%+&+*+..=+-+;+>+,++ @ @ '+'+'+)+)+= )+= )+!+!+",
"= = ~+T.!+!+= a )+)+{+)+)+W.]+^+/+(+_+:+<+[+}+|+1+2+3+4+5+6+7+8+9+0+a+b+U.U.T.U.W.= )+W.W.)+= W.c+T.",
"  + = . d+& ; - b b   v.  e+f+Q Y.g+h+i+g j+k+l+m+n+o+p+q+r+s+t+u+v+w+@   !   ! + + w.. x+. / . y+z+",
"z+@ A+^ B+^ ^ ^ u.v.u.u.C+d D+(.E+F+G+H+I+J+K+L+M+N+O+P+Q+R+S+T+U+Q V+W+! - }   X+Y+Z+X+Y+X+Y+Y+] y+",
"@ @ = d+{ / +   v.v.b b `+ @.@+@@@#@$@%@J+&@*@=@-@l+;@;@>@,@*@'@)@!@~@{@]@^@( /@(@(@X+(@_@_@_@' :@y+",
"@ !+'+- % + ^@} (@| Z+| <@[@}@|@1@-+2@3@,@L+L+L+*@4@5@6@7@=@L+=@8@9@x 0@^@^@^@^@^@^@a@a@a@& % # @ $ ",
"& @ '+&   # - [ % # % b@c@d@e@f@g@h@i@i@j@L+L+L+L+L+=@=@L+L+L+k@l@m@n@[ [ [ [ [ ^@^@^@a@a@^@^@a@: _@",
"  @ a @ . @ / $ # # % o@p@q@r@f@s@t@u@v@k@w@=@x@w@w@L+L+L+L+=@*@y@z@A@B@[ [ [ [ [ & a@a@% Z+, ,   / ",
"# @ '+  : & ^@_@| % | C@D@E@F@G@H@I@J@K@4@L@M@N@O@P@Q@L+L+R@6@S@T@U@V@W@^@^@^@^@^@^@a@a@Z+& a@9 . + ",
"@ @ !+* X@_@Y+(@| | b b Y@Z@`@ #.#+#@###$#%#&#*#=#-#;#L+>#,#'# @)#!#~#{#]#( /@( < ^@( ^@^@' ]@^@> / ",
"@ !+A+& ^#. +   b b / % , /#(#_#:#<#[#}#|#1#2#3#4#5#6#7#8#9#0#a#b#c#d#e#^@^@]@Y+Z+& {.> 9 - ]@: v.+ ",
"z+~.'+; f#g#+ 1 1 1 b b b b h#i#j#k#l#m#$@n#o#p#q#r#s#t#u#6#v#w#x#T y#Y+Y+{.> > e#~ : : Y+]@Y+z#! . ",
"  @ T.  f#1 / 1 (@A#(@b g#g#B#C#D#E#F#G#H#I#J#K#L#M#N#O#P#Q#R#S#T#U#V#} - {.{.{.> & / )   + / ) z++ ",
"T.A+= !+'+k k @ '+W#k k k )+'+X#b.Y#Z#`#N# $.$+$@$#$$$%$x@&$k#*$=$-$;$= a = = T.T.= U.= U.= a = = = ",
"@ @ $ k k @ @ @ . / . . . . / + k >$c@,$'$)$!$~${$2@]$=@^$L+/$:#($_$+ / + .   +   + + + + @ ~.@ @ @ ",
"~ ~ & ) ) v.v.^ {.- {.> b {._@- :$_@(@X+<$y#[$}$|$1$2$3$4$5$6$7$8$Y+( ( z#9$0$z#l 0$z#0$0$: ( ]@~ : ",
"& ^ ; ; {.m Y+: _@m > Y+X+Y+X+]@:$:$} 6 U a$b$c$d$e$f$g$$@h$i$j$  !   ! ) ) ) /   ! ! ! - {.- 9 m > ",
"Z+9 Z+^@^@( ]#]#(@^@(@^@]@- - - , % k$l$m$n$3.o$p$q$Z#F r$s$F t$) ! } ! , , !   + # % .   ! 9 9 ^@' ",
"u$^#v$^#u$^#^#/@^@^@]@- !   % # w$x$y$z$A$B$t.C$D$E$F$G$H$I$c#J$K$L$M$' ' 9 9 - } ! } - ]@' ^@^@/@( ",
"Z+^@a@:$, a@a@, N$, & , ! % , % O$P$q$Q$R$S$T$U$V$W$X$t@Y$H$Z$`$ %.%+%% % . # #   % % % , , , ! Z+a@",
"Z+9 ! % % ! , , ! , ' ^@0 ^@( @%#%$%%%&%*%U#=%-%;%>%,%'%)%!%~%{%]%E#^%' ' & - ' &   ) ' 9 ' ^@^@Z+Z+",
"!   , ]@' ! ! 9 , - v.> > > ^ /%Z#(%_%:%<%[%}%|%1%2%3%4%5%!%D@6%7%8%9%. +   ) ]@- - {.- {.- - } :$a@",
"^@' - ]@]@- 9 '   ) ) ) v.v.v.0%a%b%s$c%d%e%f%g%h%i%j%k%l%m%n%!$o%/ } | Y+: Y+m : : 9$: ( ( Y+(@^@(@",
". @ @ $ @ @ . @ . +   / +   . . 7 p%q%r%s%t%u%v%w%x%y%p$z%A%B%C%D%g#w.$ $ @ @ $ + + + + . + / . . + ",
".     #   ) - ! Y+Y+Y+: 9$: : ^ %   E%~@F%|%G%H%I%J%)$Z#K%L%w.w.0$:$+ + / > m : ) ! ) ! ) ! ! ) ! / ",
"  - ]@> ; > ]@>   , - - ; - ) ) - M%Z@H+N%)$O%P%d Q%f+d%R%w.1 1 . . %   ~ ~ ' , ~ ^@^@9 - ' > > S%S%",
"!+'+'+@ k {+'+'+)+)+)+'+'+)+)+)+T%U#!$t%-$^+U%V%W%U.X%Y%W%= {+)+k k $ $ '+'+V.V.k '+'+'+)+'+'+k $ Z%",
"@ = a k @ k '+$ @ @ # @ # # # # `% &.&+&@&    / /   9%#&+ x+/ / # $ $ k @ #   ! '+'+)+)+'+'+k $ $ $ ",
") k '+  ( ]@9 (@0 0 /@/@^#u$v$u$$&%&&&v$u$/@^#^#( 0$X@0$^#^#(@(@(@^@^@(@0 ]@- ! , ! % ! , 9 ' ]@]@]@",
"+ $ = w.w.% f#% ! % ! :$a@Z+Z+Z+& & & & ^@^@_@- :$:$| b 1 % a@a@. % % , , , ,   , % , %     & , ^#/@",
"(@+ k . / / ^#/ 9 ^@_@^@^@^@/@]#^@e#^@( ( ( ^@Z+Z+(@g#Z+(@Z+Z+Z+& ' ' & & ' ' ^@^@> 0 ' > ^@e#e#^@^@",
"^#/ k 1 (@u.(@1 ^@^@^@]#^@^@^@^@e#^@e#e#^@^@' N$Z+Z+a@a@Z+Z+^@^@9 & 9 Z+' ^@^@& ' Z+^@^@^@^@^@Z+^#^@",
"u.w.)++ (@(@1 (@' ^@Z+^@^@^@Z+Z+^@^@^@^@^@^@9 N$:$:$} | a@| a@a@9 a@N$Z+& ^@> ^@N$9 & ^@' ^@' & ' 9 ",
"/ Z%)+k A#^#(@(@^@(@^@^@^@^@a@^@^@^@Z+^@^@^@^@^@^@^@^@^@^@^@^@^@^@/@^@^@e#0 0 ^@^@^@^@( ^@0 ^@0     ",
"/ W#k k / (@A#Z+Z+Z+Z+Z+a@Z+a@a@, N$! % Z+a@^@^@^@^@^@v$^@^@^@^@^@^@0 ^@, & , , , , & , , , , , ) ) ",
"A#= Z%w.+ (@Z+Z+Z+Z+Z+Z+a@a@a@a@, ! [ . a@a@Z+^@^@^@a@a@^@a@^@Z+Z+& N$, , [ [ [ [ [ # # # # # # d+d+",
"^#c+W#/ w.% b (@(@(@^@^@^@^@^@a@'   % % , , Z+^@a@a@^@^@^@^@^@]#^@^@^@^@* * * ^@e#> ^@^@& ' > > ] *&",
"Z%Z%Z%x+1 u.b b :$Z+:$Z+(@(@(@(@g#} , - - - ) ) - ; ; > > > {.> * ~ > > ; > > ^ ~ ~ ~ : : ~ > ; ! z+",
"A+S.{+Z%w./ + . + + + # . / / / / . . . . + . + + + + + + + x++ k @ k '+'+k k k k @ k k @ k k '+k !+"};
