/* XPM */
static char *e1a2481308a445eac5c4823fadde5e94ujh91u3TpaI9OlaK[] = {
/* columns rows colors chars-per-pixel */
"50 50 92 1 ",
"  c #050404",
". c #080505",
"X c #100706",
"o c #180C06",
"O c #160B0A",
"+ c #1D0D0A",
"@ c #1D1010",
"# c #210F0B",
"$ c #211207",
"% c #281607",
"& c #24110D",
"* c #29130F",
"= c #2E1908",
"- c #351D06",
"; c #331C09",
": c #2D1510",
"> c #2D1A16",
", c #311712",
"< c #351913",
"1 c #3B1D15",
"2 c #351D1B",
"3 c #3B1E1A",
"4 c #3B201C",
"5 c #141D26",
"6 c #172027",
"7 c #1C2327",
"8 c #172028",
"9 c #1A242B",
"0 c #1F292D",
"q c #20262B",
"w c #212B2F",
"e c #3D2323",
"r c #232D32",
"t c #272F38",
"y c #263135",
"u c #293236",
"i c #2C353B",
"p c #2E393D",
"a c #303B3E",
"s c #401F18",
"d c #422509",
"f c #4F2C0A",
"g c #532E0B",
"h c #56320F",
"j c #45221A",
"k c #49241D",
"l c #5D3610",
"z c #6B3D10",
"x c #422625",
"c c #4D2923",
"v c #452C2C",
"b c #4E2F2F",
"n c #532E29",
"m c #54312E",
"M c #5A322E",
"N c #553333",
"B c #5C3533",
"V c #623936",
"C c #653C3A",
"Z c #734414",
"A c #794715",
"S c #7C4916",
"D c #2F3641",
"F c #303743",
"G c #333D43",
"H c #373E4A",
"J c #364145",
"K c #384247",
"L c #3A444A",
"P c #3D4552",
"I c #414A55",
"U c #454E5A",
"Y c #46505A",
"T c #49525D",
"R c #6D4242",
"E c #724544",
"W c #7B4C4C",
"Q c #4B5461",
"! c #4F5865",
"~ c #525B69",
"^ c #814C17",
"/ c #884F17",
"( c #844E18",
") c #8C5319",
"_ c #91551A",
"` c #96581A",
"' c #9D5D1C",
"] c #A15E1C",
"[ c #A5611D",
"{ c #A8631E",
"} c #B56B21",
"| c #855252",
/* pixels */
"IYYYYYTPJJGJJJGGwYYYH.... ...uJJauYYYYYY!aJJJJJJJp",
"GLLLLLLPLLLLLLLL0KaO<<:jkkk:,:XaJyLLLLLLYGLLLKLLKJ",
"JLLLLLLPLLLLLLLG7&3CE1:ccRC:<kj*OqGLLLLLUGLLLLLLLJ",
"0rrrwrwDiiuiiiw@xmRmC,*BCCB&,s,1m,X7rwywDtuiiiiipu",
"aJp0TTTQTQ!tau$4Ejj,$;;;;;;;;$<jEn*euFTTTTTTTuGGaG",
"LLKyLLLLLLYGa>mj*11;lAZ^^^^ZAl;1s*sExwLLLLLLUpLLLL",
"LLKyLKLLLLUu&vE41-l^'')}}}}_'`(h-ssjscaLLLLLUDLLLL",
"pJp9iiipiiinj*>dh()}}')}}}}_'}})(gd1*E2wiipuGrGGaJ",
"ypiippu9PL@R<4l_`{(}}')}}}}_'}}){`_l111:0wYYTUUTYT",
"pKLKLLL0L.4:*;^}}{)}}'_}}}})'}}){}}^;*:j uLLLLLLLT",
"aLLLLLLwL jCj;^}}{)}}'_}}}}_'}}/{}}^;jkC rLLLLLLLY",
"yaaapGG0G.<Rj;^}}{)}}')}}}})'}}/{}}^;BkE 9aGDGGFaI",
"IIPiPYPUP.<<=;^}}{)}}'_}}}}_'}}){}}^;B3,.IIILDIIIU",
"LLJyLLLLL k<,;^}}{)}}'_}}}}_'}}/{}}^;,<< LLLTiLLLL",
"LLKyLLLLL kEj;^}}{(}}')}}}}_'}}/{}}^;jkk LLLUiLLLL",
"LLK0LLLLL.>N:=S}}[)}}'_}}}})'}}){}}^;sk> LLLPiLLLL",
"HLLHHLLir R<,;^}}{)}}'_}}}})'}}){}}z$**v.rrrr0rrrr",
"LPIPIIIPJ VEj;^}}{(}}'_}}}}_'}})zzz-.<1W GLGJLJJJG",
"GLLLLLLPL kMs;^}}[)}}'_}}}}_'}}(-   .sEM FLLLLLLLJ",
"GLLJLJLPL k@+;^}}[)}}')}}}})'}})']]g.+Mk GLLLLLLLJ",
"0ww9iiDFF.&WE;(}}{)}}'_}}}}_'}}){}}A=1## FGGirtrrr",
"GKGtUUYYU.1BW;^}}{(}}')}}}}_'}}){}}^;sss UUUQuJJJJ",
"LLKrLLLLL.kkc;^}}{)}}')}}}})'}}({}}^;sjk LLLIiLLLL",
"LLKrLLLLL.XOs;^}}{)}}'_}}}})'}}){}}(;skk.LLLUDLLLL",
"uur500000 k| ;^}}{(}}'_}}}}_'}}){}}^;sX .000t8tyut",
"uJJJJGJ0T jjs;^}]  Z}')}}}})'}}){}}^; jk uTQQQQQQ~",
"pLLLLLK0L jjj;^}}'Z}}')}}}}_'}}({}}^;sk| yLLLLLLLY",
"pLLLLLLwL.++1;^}}`l}}'_}}}})'}}){}}^;1ss yLLLLLLLY",
"9yuuuuu6t kj+;^}`fdA{'_}}}})'}}){}}^-+#$.8uuttuuuJ",
"YUUiYYYYU kks;^]h{)_S'_}}}}_'}}({}}^;skk UUUUGYYUY",
"LLJyLLLLL.ss1;^{z'A)('_}}}})'}}){}}^;nk4 LLLUiLLLL",
"LLJyLLLLL.###;^}{gd(}'_}}}})'}}){}}^;Rx& LLLUiLLLL",
"JHG8JJJLJ kjj;^}}{)}}'_}}}})'}}){}}S;&*k GGGGrGJGJ",
"PPPPPPPFt Ck4;^}}{(}}'_}}}}_'}}){}}S;skC tyyuuuuuu",
"LLLLLLLPL |,,;^}}{)}}'_}}}})'}}){}}S;<kE DLLLLLLLG",
"JLLLLLLPL R:*;^}}[)}}')}}}}_'}}({}}A%*<< GLLLLLLLJ",
"GJJJJJJPJ.:jj;^}}{)}}'_}}}}_'}}))))d.j,: FLLLLLLLG",
"0005HHPLL.kcC;^}}{(}}')}}}}_'}}(4   .jkR HLLD80000",
"LKJyLPLLP.:3W;^}}{)}}')}}}})'}})())d *j| LLPTiLLLL",
"LLJyLLLLL <1N;^}}{)}}'_}}}}_'}})[}}Z%;:N LLLUiLLLL",
"LLJrJJJJJ kk,;^}}{)}}')}}}}_'}}/{}}^;s<< LJKUiLLJL",
"rrr9www8i kEs;^}}{)}}'_}}}}_'}}){}}^;jkk 8DDDiGFGG",
"iJJJJJJwI :b#;^}}{(}}')}}}})'}}/{}}^;jE:.iPUIIPYI!",
"DLLLLLLwL 11<;^}}[)}}')}}}})'}}/{}}^;#xs yLLLLLLLY",
"pLLLLLG0L kjk;^}}{)}}')}}}})'}}){}}^;11W yJLLLLLJU",
"8w000rr9w #ks;^}}{)}}'_}}}}`'}}){}}^;jWN 8ww00y0ri",
"TTYpTTTUT W#+;^}}{)}}')}}}}_'}}){}}^;+|k TTTQJYYTT",
"LLJrLLLLJ ns1;ZSSZZSSZZSSSSZZAAZZAAZ;32+ JLLUiLLLL",
"LLJtLLLLL |js.oooooooooooooooooooooo.jj| JLLUiLLLL",
"ipi5upDip.  ...... ........... ........ .iipt0iDpD"
};
