/* XPM */
static char * door2_xpm[] = {
"50 50 602 2",
"  	c #1D1D1D",
". 	c #171717",
"+ 	c #161616",
"@ 	c #131313",
"# 	c #101010",
"$ 	c #242424",
"% 	c #1F1F1F",
"& 	c #1E1E1E",
"* 	c #2D1E1D",
"= 	c #DC3926",
"- 	c #CB3523",
"; 	c #282828",
"> 	c #1C1C1C",
", 	c #DC3925",
"' 	c #281312",
") 	c #222222",
"! 	c #252525",
"~ 	c #262626",
"{ 	c #111111",
"] 	c #1A1A1A",
"^ 	c #191919",
"/ 	c #181818",
"( 	c #0F0F0F",
"_ 	c #1B1B1B",
": 	c #373737",
"< 	c #2B2B2B",
"[ 	c #2C2C2C",
"} 	c #232323",
"| 	c #4B2D2B",
"1 	c #9E2E23",
"2 	c #EA3D27",
"3 	c #CB3625",
"4 	c #363636",
"5 	c #212121",
"6 	c #AC3021",
"7 	c #DB3924",
"8 	c #CB3525",
"9 	c #5F322F",
"0 	c #343434",
"a 	c #333333",
"b 	c #323232",
"c 	c #353535",
"d 	c #272727",
"e 	c #292929",
"f 	c #141414",
"g 	c #3A3A3A",
"h 	c #602D2A",
"i 	c #D33724",
"j 	c #D63926",
"k 	c #A13329",
"l 	c #232424",
"m 	c #363737",
"n 	c #202020",
"o 	c #78271F",
"p 	c #C33423",
"q 	c #F53F28",
"r 	c #703431",
"s 	c #212222",
"t 	c #272828",
"u 	c #151515",
"v 	c #3E3E3E",
"w 	c #672723",
"x 	c #EB3D28",
"y 	c #902D24",
"z 	c #2A2828",
"A 	c #272626",
"B 	c #393434",
"C 	c #2E1F1E",
"D 	c #431F1D",
"E 	c #5D2521",
"F 	c #6B2520",
"G 	c #372221",
"H 	c #4E2422",
"I 	c #A92E21",
"J 	c #EB3C27",
"K 	c #6C3633",
"L 	c #313131",
"M 	c #424242",
"N 	c #2F2F2F",
"O 	c #552320",
"P 	c #C03322",
"Q 	c #842216",
"R 	c #4C1E1A",
"S 	c #2C2323",
"T 	c #411A17",
"U 	c #581811",
"V 	c #8F2519",
"W 	c #CD3522",
"X 	c #73251F",
"Y 	c #BF3324",
"Z 	c #E93C26",
"` 	c #C23221",
" .	c #5C3432",
"..	c #303030",
"+.	c #4A4A4A",
"@.	c #3F3F3F",
"#.	c #3C3C3C",
"$.	c #3D3D3D",
"%.	c #483E3D",
"&.	c #773C38",
"*.	c #54231F",
"=.	c #521C17",
"-.	c #5B211C",
";.	c #5D1911",
">.	c #62190F",
",.	c #812115",
"'.	c #AD2D1C",
").	c #D63723",
"!.	c #B53427",
"~.	c #E13B27",
"{.	c #E13E2B",
"].	c #70312D",
"^.	c #403D3C",
"/.	c #3B3B3B",
"(.	c #393939",
"_.	c #212122",
":.	c #202021",
"<.	c #1D1D1E",
"[.	c #2A2A2A",
"}.	c #363637",
"|.	c #382E2E",
"1.	c #3A2928",
"2.	c #3A2A2A",
"3.	c #372928",
"4.	c #3D1B19",
"5.	c #50140D",
"6.	c #61190F",
"7.	c #4C130C",
"8.	c #6B1C11",
"9.	c #822215",
"0.	c #882416",
"a.	c #A42A1B",
"b.	c #DD3924",
"c.	c #EA3F2A",
"d.	c #AF3327",
"e.	c #B03225",
"f.	c #B23427",
"g.	c #8F2E26",
"h.	c #1C1C1D",
"i.	c #262627",
"j.	c #0B0B0B",
"k.	c #0A0A0A",
"l.	c #0D0D0D",
"m.	c #070707",
"n.	c #171212",
"o.	c #1F1211",
"p.	c #3C120D",
"q.	c #47120B",
"r.	c #41100A",
"s.	c #51140D",
"t.	c #5C170E",
"u.	c #340D08",
"v.	c #751F13",
"w.	c #8F2618",
"x.	c #761F13",
"y.	c #3C0F09",
"z.	c #D43722",
"A.	c #FB4028",
"B.	c #EB3C26",
"C.	c #F13E27",
"D.	c #D23623",
"E.	c #761F17",
"F.	c #761E16",
"G.	c #441815",
"H.	c #121212",
"I.	c #0E0E0E",
"J.	c #0C0C0C",
"K.	c #271412",
"L.	c #3F110B",
"M.	c #3F100B",
"N.	c #56160E",
"O.	c #641A10",
"P.	c #641910",
"Q.	c #631910",
"R.	c #4B130C",
"S.	c #50140C",
"T.	c #651A10",
"U.	c #8D2517",
"V.	c #8A2417",
"W.	c #892416",
"X.	c #B8301E",
"Y.	c #E73B25",
"Z.	c #952718",
"`.	c #942718",
" +	c #B52F1D",
".+	c #DA3723",
"++	c #F53E28",
"@+	c #F43E27",
"#+	c #92271C",
"$+	c #2B1413",
"%+	c #43130D",
"&+	c #671A10",
"*+	c #661A10",
"=+	c #5F180F",
"-+	c #54150D",
";+	c #4F140C",
">+	c #842315",
",+	c #8B2517",
"'+	c #922618",
")+	c #DF3924",
"!+	c #CA3421",
"~+	c #9F2A1A",
"{+	c #8C2517",
"]+	c #962719",
"^+	c #A12A1A",
"/+	c #B02E1D",
"(+	c #D23622",
"_+	c #E03924",
":+	c #AA2D1E",
"<+	c #0D0B0B",
"[+	c #291210",
"}+	c #44140F",
"|+	c #58160E",
"1+	c #681A10",
"2+	c #52150D",
"3+	c #681B10",
"4+	c #781F13",
"5+	c #46120B",
"6+	c #751E13",
"7+	c #832215",
"8+	c #922718",
"9+	c #AC2D1C",
"0+	c #B42E1D",
"a+	c #7C2014",
"b+	c #6A1C11",
"c+	c #902618",
"d+	c #A92C1C",
"e+	c #D53722",
"f+	c #A52C1E",
"g+	c #241211",
"h+	c #130E0E",
"i+	c #220D0C",
"j+	c #42120D",
"k+	c #59170E",
"l+	c #63190F",
"m+	c #57160E",
"n+	c #3A0F09",
"o+	c #731E12",
"p+	c #A32B1B",
"q+	c #7B2116",
"r+	c #3F120D",
"s+	c #5D180F",
"t+	c #9E291A",
"u+	c #E33A26",
"v+	c #932719",
"w+	c #691B10",
"x+	c #802215",
"y+	c #42110A",
"z+	c #3E100A",
"A+	c #A42B1B",
"B+	c #E53A25",
"C+	c #89251B",
"D+	c #401917",
"E+	c #181919",
"F+	c #191819",
"G+	c #271817",
"H+	c #56160D",
"I+	c #2B0A06",
"J+	c #2A0A06",
"K+	c #280A06",
"L+	c #4D140C",
"M+	c #972719",
"N+	c #C1321F",
"O+	c #E83C26",
"P+	c #C13729",
"Q+	c #2A2221",
"R+	c #41140F",
"S+	c #771F13",
"T+	c #A62C1B",
"U+	c #ED3D28",
"V+	c #802D27",
"W+	c #000000",
"X+	c #4B140D",
"Y+	c #260906",
"Z+	c #2D0B07",
"`+	c #721E12",
" @	c #A92C1B",
".@	c #D03622",
"+@	c #F03E28",
"@@	c #8A2D25",
"#@	c #342D2D",
"$@	c #2E2E2E",
"%@	c #2D2D2D",
"&@	c #2B2C2C",
"*@	c #2C1817",
"=@	c #42140F",
"-@	c #812215",
";@	c #741F13",
">@	c #902517",
",@	c #BB301E",
"'@	c #E83C25",
")@	c #F23E27",
"!@	c #B23429",
"~@	c #622925",
"{@	c #2C201F",
"]@	c #411611",
"^@	c #6A1B11",
"/@	c #892619",
"(@	c #7E2921",
"_@	c #400F09",
":@	c #731E13",
"<@	c #872416",
"[@	c #D13622",
"}@	c #E43A25",
"|@	c #A43024",
"1@	c #1C1D1D",
"2@	c #311F1E",
"3@	c #451713",
"4@	c #8E2617",
"5@	c #A62B1B",
"6@	c #DB3C29",
"7@	c #BA3C30",
"8@	c #B83427",
"9@	c #713431",
"0@	c #2B1817",
"a@	c #3D130E",
"b@	c #5A170E",
"c@	c #5E180F",
"d@	c #6D1D12",
"e@	c #932718",
"f@	c #AA2C1C",
"g@	c #D43926",
"h@	c #A62D21",
"i@	c #291B1A",
"j@	c #1A1919",
"k@	c #232222",
"l@	c #391613",
"m@	c #6D1C12",
"n@	c #43110B",
"o@	c #9D291A",
"p@	c #CD3521",
"q@	c #DF3C28",
"r@	c #BA3A2E",
"s@	c #38100C",
"t@	c #320C08",
"u@	c #711E12",
"v@	c #DE3924",
"w@	c #E13A26",
"x@	c #301B1A",
"y@	c #262121",
"z@	c #3C1612",
"A@	c #2C0B07",
"B@	c #59160E",
"C@	c #A7382F",
"D@	c #360D08",
"E@	c #60180F",
"F@	c #380E09",
"G@	c #300C07",
"H@	c #C93421",
"I@	c #541D19",
"J@	c #251B1A",
"K@	c #272020",
"L@	c #3C1613",
"M@	c #56170F",
"N@	c #782014",
"O@	c #BF311F",
"P@	c #98362E",
"Q@	c #310C07",
"R@	c #681B11",
"S@	c #7A2014",
"T@	c #D93824",
"U@	c #69211C",
"V@	c #363030",
"W@	c #3F1410",
"X@	c #711D12",
"Y@	c #DD3D2A",
"Z@	c #AF3D35",
"`@	c #1F1717",
" #	c #5D2520",
".#	c #6F1C12",
"+#	c #8E2517",
"@#	c #972819",
"##	c #BD311F",
"$#	c #F74029",
"%#	c #732C27",
"&#	c #2A2424",
"*#	c #35201E",
"=#	c #4A150F",
"-#	c #DC3B28",
";#	c #511E1A",
">#	c #6E1D12",
",#	c #862316",
"'#	c #E63B25",
")#	c #A92D20",
"!#	c #61211D",
"~#	c #2C1413",
"{#	c #721D12",
"]#	c #A82B1B",
"^#	c #E53B25",
"/#	c #361411",
"(#	c #50150E",
"_#	c #832315",
":#	c #932618",
"<#	c #C53320",
"[#	c #F53F27",
"}#	c #AA2B1D",
"|#	c #2C1513",
"1#	c #3B0F09",
"2#	c #CC3421",
"3#	c #581D19",
"4#	c #211B1B",
"5#	c #371614",
"6#	c #240905",
"7#	c #2E0B07",
"8#	c #4A130C",
"9#	c #9A2819",
"0#	c #EE3D26",
"a#	c #AA2C1D",
"b#	c #2D1615",
"c#	c #621A10",
"d#	c #8B2416",
"e#	c #E83B25",
"f#	c #B43022",
"g#	c #2F1715",
"h#	c #EC3C26",
"i#	c #2E1917",
"j#	c #842316",
"k#	c #D83823",
"l#	c #D83927",
"m#	c #962D23",
"n#	c #2B1B1A",
"o#	c #3F1511",
"p#	c #ED3D26",
"q#	c #AA2D20",
"r#	c #252222",
"s#	c #341B19",
"t#	c #792014",
"u#	c #F43F28",
"v#	c #812D27",
"w#	c #41100B",
"x#	c #741E13",
"y#	c #B63224",
"z#	c #4B211F",
"A#	c #0D0C0C",
"B#	c #310E0B",
"C#	c #4C140C",
"D#	c #58170E",
"E#	c #A72C1B",
"F#	c #7D2118",
"G#	c #40100A",
"H#	c #48120B",
"I#	c #45120B",
"J#	c #E43B25",
"K#	c #CA3524",
"L#	c #1E1818",
"M#	c #350F0B",
"N#	c #3D0F09",
"O#	c #240805",
"P#	c #50150D",
"Q#	c #7D2219",
"R#	c #40100B",
"S#	c #44110B",
"T#	c #53150D",
"U#	c #BD301E",
"V#	c #D63825",
"W#	c #35100C",
"X#	c #3E0F0A",
"Y#	c #49130C",
"Z#	c #F63F27",
"`#	c #7E221A",
" $	c #3F100A",
".$	c #B72F1D",
"+$	c #201A1A",
"@$	c #340F0B",
"#$	c #6D1C11",
"$$	c #AB2D1C",
"%$	c #E63A25",
"&$	c #75211A",
"*$	c #3C100C",
"=$	c #701D12",
"-$	c #D63824",
";$	c #1F1919",
">$	c #8A2517",
",$	c #621A13",
"'$	c #201717",
")$	c #55150D",
"!$	c #211C1C",
"~$	c #35130F",
"{$	c #6E1C11",
"]$	c #E43C26",
"^$	c #3A1511",
"/$	c #D63B29",
"($	c #2D2929",
"_$	c #36110D",
":$	c #AB2C1C",
"<$	c #39100C",
"[$	c #44110A",
"}$	c #5B170E",
"|$	c #D53723",
"1$	c #170E0E",
"2$	c #37120E",
"3$	c #3A0E09",
"4$	c #8B2316",
"5$	c #E53B26",
"6$	c #3A110D",
"7$	c #2F0B07",
"8$	c #191111",
"9$	c #35110D",
"0$	c #4D130C",
"a$	c #210805",
"b$	c #8C2316",
"c$	c #330D08",
"d$	c #7B2014",
"e$	c #D33622",
"f$	c #1D1717",
"g$	c #36120E",
"h$	c #2F0C07",
"i$	c #360E08",
"j$	c #1A1313",
"k$	c #37130F",
"l$	c #8A2316",
"m$	c #57170E",
"n$	c #1B1414",
"o$	c #381815",
"p$	c #390E09",
"q$	c #832316",
"r$	c #972618",
"s$	c #E53D29",
"t$	c #3B1613",
"u$	c #370E09",
"v$	c #B02D1C",
"w$	c #292525",
"x$	c #361613",
"y$	c #691B11",
"z$	c #852316",
"A$	c #E53C26",
"B$	c #39110D",
"C$	c #D03522",
"D$	c #D53724",
"E$	c #090909",
"F$	c #3D0F0A",
"G$	c #E43B26",
"H$	c #7F2115",
"I$	c #181010",
"J$	c #361310",
"K$	c #B62F1E",
"L$	c #BE3426",
"M$	c #5F1E19",
"N$	c #4E150E",
"O$	c #371310",
"P$	c #6C1C12",
"Q$	c #701E12",
"R$	c #982719",
"S$	c #F83F29",
"T$	c #7F241C",
"U$	c #3D100A",
"V$	c #B12D1C",
"W$	c #230805",
"X$	c #2B0A07",
"Y$	c #F63F29",
"Z$	c #7E2820",
"`$	c #CE3521",
" %	c #381613",
".%	c #350D08",
"+%	c #7F2A24",
"@%	c #41110B",
"#%	c #41110A",
"$%	c #AE2C1C",
"%%	c #391B18",
"&%	c #43110A",
"*%	c #55160D",
"=%	c #8F2517",
"-%	c #81302B",
";%	c #231E1E",
">%	c #371613",
",%	c #972718",
"'%	c #D43622",
")%	c #F63F28",
"!%	c #802C25",
"~%	c #41110C",
"{%	c #371715",
"]%	c #290A06",
"^%	c #270A06",
"/%	c #42110B",
"(%	c #381916",
"_%	c #631A10",
":%	c #A02A1A",
"<%	c #81322C",
"[%	c #41120D",
"}%	c #7D2114",
"|%	c #D53825",
"1%	c #371A18",
"2%	c #4F1812",
"3%	c #250905",
"4%	c #82322D",
"5%	c #41120C",
"6%	c #4E140C",
"7%	c #A22A1A",
"8%	c #DA3824",
"9%	c #CF3624",
"0%	c #942618",
"a%	c #82342F",
"b%	c #671B11",
"c%	c #FF4129",
"d%	c #444444",
"e%	c #F7402A",
"f%	c #853D39",
"g%	c #431814",
"h%	c #220805",
"i%	c #60190F",
"j%	c #B42F1D",
"k%	c #FE4129",
"  . + + + + @ @ # $ % %       &   % * = - + ;       > > - , ' ) ! ! ! ~ ) )   { & > > ] ] >   ^ / ( ",
"; _ _ ^ / _ / _ _ : < [ ; ! [ } ) | 1 2 3 & 4 5 ) % % ) 6 7 8 9 0 a a b 0 c b   d ) ) ) ) $ ! 5 } ] ",
"e _ ] . f / / . > g } ~ ! e e $ ) h i j k l m 5 n   ] % o p q r b b b b a b b s t } $ $ } ) } 5 )   ",
"< _ . ] . ] _ u   v ; d $ < ! 5 $ w x y z A B C D E F G H I J K a b L b b L L ! < ! ! } } ) ) 5 )   ",
"<   . ^ . . / u % M N ; ! e $ } } O P Q R S T U V W J X Y Z `  .b b a ....L L ! [ ) ) n ) } 5 5 ) & ",
"L d 5 ) 5 ~ } ! e +.@.#.#.g g #.$.%.&.*.=.-.;.>.,.'.).!.~.{.].^././.(.g (.g g N (...N L b a L b 0 ..",
"% _.:.n n ) ) ) <.[.}.0 : 0 c |.1.2.3.4.5.6.7.8.9.0.,.a.b.c.d.e.f.g.! ! ! $ $ h.% ; i.d ; d d ~ d ) ",
"# j.j.k.k.j.l.k.k.m.l.@ n.o.o.p.q.q.q.r.s.t.u.v.w.x.y.9.z.A.B.B.C.D.E.F.G.H.H.( j.n ] ] ^ ^ ] + ^ # ",
"@ l.l.l.l.l.I.J.J.J.{ + K.L.M.N.O.P.Q.R.S.T.Q.9.U.V.W.X.Y.b.Z.`. +.+++@+#+u H.@ { $ > ^ + f / / ^ / ",
"f I.( ( I.l.l.J.j.j.H.$+%+t.t.Q.&+*+T.=+-+;+*+>+U.,+'+)+!+~+{+{+]+^+/+(+_+:+f + u ~ _ ^ ^ + ^ ] + . ",
"+ I.I.l.J.l.J.j.J.<+[+}+|+&+1+2+S.3+v.4+=+5+T.6+7+8+9+C.0+x.a+V.b+8.c+d+e+e+f+g+u d   . ] / / ] u ^ ",
". I.J.J.l.( l.J.h+i+j+k+l+m+m+u.n+o+Z.p+q+r+s+Q.4+t+(+u+v+s+w+x+y+z+v.v.A+e+B+C+D+e n ^ ] / > ^ ] & ",
"] ^ . / E+] ^ F+G+j+s+1+H+I+J+K+L+M+N+O+P+Q+R+t.S+T+U+V+W+X+O.*+y.Y+J+Z+`+ @.@+@@@#@$@[.[.[.%@&@%@< ",
"% & &   > & n *@=@s+P.S+-@v.;@>@,@'@)@!@~@W+{@]@^@/@(@W+W+W+_@_@2+|+t.:@<@'+A+[@}@|@      > 1@^ _ { ",
"e } } ) ) } 2@3@|+1+4+*+O.4@5@[@6@7@8@9@W+W+W+0@R -.W+W+W+W+W+W+a@b@^@S+c@d@e@f@).g@h@i@. + j@/ _ . ",
"< } $ ! $ k@l@2+Q.m+m@n@r.o@p@q@r@W+W+W+W+W+W+W+W+W+W+W+W+W+W+W+W+s@c@Q.t@n@u@:@5@v@w@x@/ u / ^ + + ",
"N ! ~ } ) y@z@-+k+Z+A@J+B@!++@C@W+W+W+W+W+W+W+W+W+W+W+W+W+W+W+W+W+W+D@E@F@K+A@G@x.H@w@I@J@/ ^ ] u / ",
"L ) ) 5 K@L@M@>.^@N@N@'+O@U+P@W+W+W+W+W+W+W+W+W+W+W+W+W+W+W+W+W+W+W+W+Q@-+R@S@S@<@/+T@w@U@. / / + _ ",
"/.a L a V@W@t.X@x+4@{+O@Y@Z@W+W+W+W+W+W+W+W+W+W+W+W+W+W+W+W+W+W+W+W+W+`@ #.#a++#{+@###$#%#~ < ; < [.",
"d ~ ~ &#*#=#=+S@<@u@'+e+-#W+W+W+W+W+W+W+W+W+W+W+W+W+W+W+W+W+W+W+W+W+W+W+;#=+&+>#,#,+5@'#)#!#> ^ ^ f ",
"; ] ^ ~#5+l+6.{#>#G@]#^#i W+W+W+W+W+W+W+W+W+W+W+W+W+W+W+W+W+W+W+W+W+W+W+/#(#H+I+d@_#:#<#[#}#H.# { J.",
"[.] ^ |#5+>.1#Z+Z+Z+2#P 3#W+W+W+W+W+W+W+W+W+W+W+W+W+W+W+W+W+W+W+W+W+W+W+4#5#z+6#7#G@8#9#0#a#H.{ { I.",
"[ > . b#5+Q.O.c#^@d#e#f#W+W+W+W+W+W+W+W+W+W+W+W+W+W+W+W+W+W+W+W+W+W+W+W+W+g#y+7.R.m+d@e@h#a#{ # { I.",
"N 5 > i#5+O.j#4@~+k#l#m#W+W+W+W+W+W+W+W+W+W+W+W+W+W+W+W+W+W+W+W+W+W+W+W+W+n#o#k+P.a+4@Z.p#q#u + . u ",
"! $ r#s#8#O.t#j#5@u#v#W+W+W+W+W+W+W+W+W+W+W+W+W+W+W+W+W+W+W+W+W+W+W+W+W+W+W+W+w#s+x#_#`.Y.y#z#    / ",
"# A#B#C#>.P.1#D#E#@+F#W+W+W+W+W+W+W+W+W+W+W+W+W+W+W+W+W+W+W+W+W+W+W+W+W+W+W+W+G#c@H#I#+#N+J#K#L#_ { ",
"H.A#M#N#F@D@O#P#5@@+Q#W+W+W+W+W+W+W+W+W+W+W+W+W+W+W+W+W+W+W+W+W+W+W+W+W+W+W+W+R#=+r.K+S#T#U#V#L#^ u ",
"f I.W#X#N#H#Y#:@X.Z#`#W+W+W+W+W+W+W+W+W+W+W+W+W+W+W+W+W+W+W+W+W+W+W+W+W+W+W+W+w#c@5. $H#5+.$V#+$u + ",
"u I.@$;+#$V.{+$$).%$&$W+W+W+W+W+W+W+W+W+W+W+W+W+W+W+W+W+W+W+W+W+W+W+W+W+W+W+W+*$k+Q.=${+{+(+-$;$u / ",
". I.@$;+#$W.>$N+B+,$W+W+W+W+W+W+W+W+W+W+W+W+W+W+W+W+W+W+W+W+W+W+W+W+W+W+W+W+W+'$a@)$X@,+,+(+j !$% & ",
"] / ~$;+{$W.{+<#]$W+W+W+W+W+W+W+W+W+W+W+W+W+W+W+W+W+W+W+W+W+W+W+W+W+W+W+W+W+W+W+^$-+{#,+,+(+/$($< ~ ",
"/ u _$y+-+<@R@:$^#W+W+W+W+W+W+W+W+W+W+W+W+W+W+W+W+W+W+W+W+W+W+W+W+W+W+W+W+W+W+W+<$[$}$,+,+(+|$1$j.( ",
"& _ 2$F@3$u@u.4$5$W+W+W+W+W+W+W+W+W+W+W+W+W+W+W+W+W+W+W+W+W+W+W+W+W+W+W+W+W+W+W+6$7$F@N@0.(+|$8$I.I.",
"& ^ 9$0$m+G@a$b$5$W+W+W+W+W+W+W+W+W+W+W+W+W+W+W+W+W+W+W+W+W+W+W+W+W+W+W+W+W+W+W+6$G@O#c$d$e$).f$# I.",
"%   g$3$X#b+c$4$5$W+W+W+W+W+W+W+W+W+W+W+W+W+W+W+W+W+W+W+W+W+W+W+W+W+W+W+W+W+W+W+6$h$i$:@W.e$|$j${ I.",
"% & k$t@t@7+n+l$5$W+W+W+W+W+W+W+W+W+W+W+W+W+W+W+W+W+W+W+W+W+W+W+W+W+W+W+W+W+W+W+6$7$h$D#m$U#V#n$H.( ",
"& ; o$p$G#q$7.r$s$W+W+W+W+W+W+W+W+W+W+W+W+W+W+W+W+W+W+W+W+W+W+W+W+W+W+W+W+W+W+W+t$F@t@u$D@v$/$w$> ( ",
"^   x$0$y$j#z$N+A$W+W+W+W+W+W+W+W+W+W+W+W+W+W+W+W+W+W+W+W+W+W+W+W+W+W+W+W+W+W+W+B$S.y$9.,#C$D$8$I.E$",
"; ^ /#5.=+F$x#<#G$W+W+W+W+W+W+W+W+W+W+W+W+W+W+W+W+W+W+W+W+W+W+W+W+W+W+W+W+W+W+W+B$F@t@z+H$e$|$I${ k.",
"[.^ J$r.5+k+H$K$7 L$M$W+W+W+W+W+W+W+W+W+W+W+W+W+W+W+W+W+W+W+W+W+W+W+W+W+W+W+W+W+N$p$7$N.2+,@D$I${ l.",
"< / O$c$7#P$Q$R$e$S$T$W+W+W+W+W+W+W+W+W+W+W+W+W+W+W+W+W+W+W+W+W+W+W+W+W+W+W+W+w#=+r.U$z$H#V$D$8${ l.",
"[ ] O$u.W$X$6#X@e+Y$Z$W+W+W+W+W+W+W+W+W+W+W+W+W+W+W+W+W+W+W+W+W+W+W+W+W+W+W+W+w#=+r.F$W._#`$|$I${ I.",
"b %  %c$G@=$.%#$e+Y$+%W+W+W+W+W+W+W+W+W+W+W+W+W+W+W+W+W+W+W+W+W+W+W+W+W+W+W+W+@%=+G#y.7+#%$%V#f$/ f ",
"$@[.%%&%*%W.8.=%z.Y$-%W+W+W+W+W+W+W+W+W+W+W+W+W+W+W+W+W+W+W+W+W+W+W+W+W+W+W+W+@%c@Q.P$<@O.O@j ;%& ^ ",
"$ % >%;+3+P$P$,%'%)%!%W+W+W+W+W+W+W+W+W+W+W+W+W+W+W+W+W+W+W+W+W+W+W+W+W+W+W+W+~%s+^@x.{+U.e$V#f$^ I.",
"< ) {%S.}$]%^%6+e+)%-%W+W+W+W+W+W+W+W+W+W+W+W+W+W+W+W+W+W+W+W+W+W+W+W+W+W+W+W+~%c@q./%-@V.(+-$L#] + ",
"%@$ (%S.}$]%_%:%'%)%<%W+W+W+W+W+W+W+W+W+W+W+W+W+W+W+W+W+W+W+W+W+W+W+W+W+W+W+W+[%s+x#y$3$}%e$|%^ + + ",
"L 1%2%7..%3%u@f@'%)%4%W+W+W+W+W+W+W+W+W+W+W+W+W+W+W+W+W+W+W+W+W+W+W+W+W+W+W+W+5%s+}%z$O.6%7%8%9%u / ",
"b G#b@b@I#q.s+0%'%Y$a%W+W+W+W+W+W+W+W+W+W+W+W+W+W+W+W+W+W+W+W+W+W+W+W+W+W+W+W+[%s+b%y$O.X$6+`$c%^ _ ",
"d%G#B@x.{+W.1#{$e+e%f%W+W+W+W+W+W+W+W+W+W+W+W+W+W+W+W+W+W+W+W+W+W+W+W+W+W+W+W+g%=+&%a$h%a$i%j%k%a $@"};
