/* XPM */
static char *enemy[] = {
/* columns rows colors chars-per-pixel */
"50 50 137 2 ",
"   c #050000",
".  c #0A0301",
"X  c #0D0905",
"o  c #110705",
"O  c #120906",
"+  c #140D0A",
"@  c #190E0C",
"#  c #16110E",
"$  c #1A120E",
"%  c #171412",
"&  c #1C1412",
"*  c #1E1916",
"=  c #191718",
"-  c #1E1A1A",
";  c #20140F",
":  c #221613",
">  c #231915",
",  c #251C1A",
"<  c #291E1B",
"1  c #26211D",
"2  c #2C221D",
"3  c #32241E",
"4  c #3B291F",
"5  c #262421",
"6  c #2D2422",
"7  c #2E2926",
"8  c #2D2928",
"9  c #322623",
"0  c #382720",
"q  c #342A25",
"w  c #3A2C25",
"e  c #302729",
"r  c #352C29",
"t  c #3A2E2A",
"y  c #3C3027",
"u  c #36302C",
"i  c #3C312C",
"p  c #382F32",
"a  c #363231",
"s  c #3D3431",
"d  c #3D3936",
"f  c #3D3439",
"g  c #3D3938",
"h  c #412E26",
"j  c #412F29",
"k  c #42332C",
"l  c #49362C",
"z  c #423632",
"x  c #483730",
"c  c #443935",
"v  c #433D3B",
"b  c #493F3D",
"n  c #45413E",
"m  c #4A413D",
"M  c #444240",
"N  c #4B4542",
"B  c #4D4A47",
"V  c #4D4C49",
"C  c #524743",
"Z  c #514947",
"A  c #534D4B",
"S  c #55514E",
"D  c #565251",
"F  c #5A5553",
"G  c #5C5956",
"H  c #5D5B59",
"J  c #615957",
"K  c #625C5B",
"L  c #65615E",
"P  c #69615F",
"I  c #656362",
"U  c #6B6563",
"Y  c #6E6966",
"T  c #6F6B69",
"R  c #706865",
"E  c #736D6B",
"W  c #796E6C",
"Q  c #75716E",
"!  c #767271",
"~  c #797574",
"^  c #7E7976",
"/  c #827D7B",
"(  c #85827E",
")  c #848482",
"_  c #8B8482",
"`  c #8E8986",
"'  c #8D8C8A",
"]  c #928987",
"[  c #968F8D",
"{  c #95918E",
"}  c #98908E",
"|  c #9C9493",
" . c #9F9A97",
".. c #9C9B99",
"X. c #A09896",
"o. c #A39D9B",
"O. c #A4A29E",
"+. c #A8A09E",
"@. c #A6A4A2",
"#. c #ABA4A2",
"$. c #ADAAA6",
"%. c #ADA9A8",
"&. c #B1A7A6",
"*. c #B0A8A6",
"=. c #B3ADAA",
"-. c #B4B1AE",
";. c #B7B4B2",
":. c #BBB4B2",
">. c #BDB9B7",
",. c #BEBBBA",
"<. c #C1B7B5",
"1. c #C3BFBE",
"2. c #C7C5C5",
"3. c #CCC7C7",
"4. c #CFCAC7",
"5. c gray81",
"6. c #D2CDCB",
"7. c #D4D3CF",
"8. c #D5D4D2",
"9. c #DBD6D4",
"0. c #DBD9D6",
"q. c #D9D7D8",
"w. c #DDDDDB",
"e. c #E2DDDB",
"r. c #E3E1DE",
"t. c #E6E4E1",
"y. c #E9E5E3",
"u. c #EBE9E7",
"i. c #EFEDEB",
"p. c #F0EDEB",
"a. c #F3F1EF",
"s. c #F5F5F3",
"d. c #F9F7F5",
"f. c #F6F8F6",
"g. c #FAF9F6",
"h. c #F7F9F8",
"j. c #FEFEFC",
/* pixels */
"9 9 3 2 2 3 2 3 3 < 3 < 3 3 3 0 < 9 < e 9 2 3 w 7 3 y > y y q q y y y y y y y y y y u y w u y w r y ",
"y y r r r q q w 9 0 3 0 3 0 0 0 < < < 3 7 2 y m 2 2 y 2 n w 7 q 3 3 q q q y y q y u u y y u y u y y ",
"u r r r w r w w 0 e 0 9 e 0 0 e 9 9 e 0 3 9 z C 3 1 3 & c w w n y q w y y y y 4 4 y 7 q w w w r r w ",
"q q q q q 9 9 9 r 0 p r j e e 0 j e p j r 9 r s u 3 q $ i 3 y m 2 3 2 3 1 1 1 3 2 3 7 3 9 9 9 9 3 q ",
"9 q q 9 9 q 9 q w r r j t e r 0 9 9 w t e w q 7 9 r i > n u u y i i i u u y u i 3 7 3 9 q q q q 7 q ",
"6 6 6 6 9 9 e 9 9 w 0 r w w w r 9 6 9 e e r r r 9 r t , y q r 9 q 4 y y q 4 q 3 q u r r r r w r q q ",
"6 5 < 6 6 6 9 9 9 9 e w e w r r w 9 e < : > < - > > : O $ $ 6 q q q y y y r r r y q q q q q q r 7 q ",
"6 6 2 6 6 6 9 e e e w e r e t t e e 9 <                     * 7 3 q r r w r r r 3 7 3 7 2 3 2 2 1 2 ",
"q 5 9 6 e p < t e e t r e t 9 e , @   .   & $ = & & & & *   O   # , 2 < 9 9 r 3 6 9 9 9 0 e 9 e 6 6 ",
"1 < 9 5 9 e < e 9 < 9 9 9 9 : . X X     * (  .{ | | |  ./ *       . @ 5 y q u i j r p p p r p t u u ",
", 6 e 5 6 6 1 6 < , 2 2 < > O       v ( $.r.t.t.e.y.u.y.e.-.( n       O 2 i r 1 e 9 e 0 6 6 6 6 1 1 ",
"$ & & + & & + @ @ @ & $ @     # M G @.u.j.j.h.j.j.j.j.j.j.j.u.#.G M $     : , , : ; : : ; ; & & * = ",
"& & X + * & & @ & , & + . . O S 3.p.j.j.j.j.j.j.j.j.j.j.j.j.j.j.a.>.F #   o + . : @ @ : $ : $ & % + ",
"7 5 = 7 c i p t e p , .   + G <.i.j.j.j.j.j.j.h.j.j.j.j.j.j.j.j.j.h.>.F o   + , < e e < 9 9 9 9 a 8 ",
"7 6 = a N i u a t < @   # G =.d.j.j.g.g.j.j.j.j.j.g.j.j.g.j.j.j.h.j.i.,.I + . @ , j j p s p r z M g ",
"5 < & s n 6 6 7 e O . % D ,.g.g.j.h.j.j.j.j.j.j.j.j.g.d.j.j.s.j.h.j.j.a.>.D = . @ t z e j p r i M g ",
"3 ; 1 y 9 3 k 4 t $   v 1.p.j.g.j.j.h.h.s.h.h.j.j.f.j.j.j.s.j.j.h.h.h.j.a.,.N   + w w 4 w h w 2 2 < ",
"y > > y 9 2 y 2 O o   H a.j.h.j.j.h.j.t.>.d.j.j.j.j.j.j.h.2.w.j.j.j.j.j.j.s.G   . + 4 k h l y q z p ",
"q > # 1 2 2 9 :   . v @.j.j.g.j.j.j.j.h.7.@.8.j.h.j.j.q.@.5.h.h.s.j.j.j.j.j.@.M     2 w 3 h w y e 9 ",
"y 1 * w s y w > X   / u.j.h.j.j.j.h.j.d.r.V ..s.h.j.s...D u.h.j.j.j.j.j.h.j.u.(     1 w k y 4 w 9 2 ",
"1 1 > y n y , .   , %.d.s.g.a.j.j.j.g.j.t.g T ,.j.j.3.I M q.j.j.j.g.j.d.d.g.j.=.>     > k y i k i r ",
"1 1 * u c 7 #   , ! t.i.-.;.-.q.j.j.j.f.j.w.G U g.h.U F t.j.g.j.j.j.8.-.-.=.p.r./ =   < t r c k r 6 ",
"7 7 * 7 n u * . , X.4.| c d n Q 0.j.j.j.j.e.c N 4.7.b v e.s.j.j.j.0.T v n v o.4.| &   < i r a s 8 7 ",
"5 1 % 7 n u &   # X._ v       1 ~ ;.q.y.0.-.v c &.#.f c =.r.w.w.,.! 1       n ` | ,   $ r r < s 7 6 ",
"; $ $ & > > #   & | m   X     . + v ( o.+.+.p z &.&.c r +.+.o.^ n % .     .   V | &   + @ $ @ & $ $ ",
"1 1 1 1 1 1 &   * | B       X O   X # u I H , c &.=.v & U U e & #     . . .   n } >   * 2 9 5 < 1 1 ",
"d i i q r r >   X L 7     .     .   . # * > Z ( &.+._ A % % +                 7 U +   < a s s z i i ",
"y u y y w a <   # V s % .     .     .     d } 7.6.4.6.o.s           .       % d N +   , i r y t i i ",
"t t t t k z 2   O n N 7                 6 #.i.j.j.j.j.y...5                 6 Z v O   & r r y r y y ",
"c x x l z k <   . + & +           . . > J q.g.g.j.d.j.j.t.G =               @ + $   . > t y i y l x ",
"j t h w w t e : .   N ` O.@.O.O.O.O.) S 5 D +.%.A D %.%.D , F _ O.O.O.O.$.O.) N     , 9 w r w w t h ",
"k w w 4 3 w w 3     J >.i.j.j.j.j.d.+.I J A _ ! F A / ~ D K U @.s.g.j.h.j.a.:.H .   6 r t k w w h k ",
"w q r t t r 9 9 O o r T =.0.r.w.q.#.7 H h.j.' ) j.j.) ) g.j.I 8 O.5.w.r.9.=.E r   $ 6 r t r r t w w ",
"s t t y z t t w r   . q L T d 1 5 % X L g.j.H K j.j.L H j.j.G . % 5 1 n Q L 7 . $ 6 a z z f s s k k ",
"9 2 < < < 9 9 2 , O O   q ( ^ d       - D H = 5 A F - , D S 2       n / ^ r     O < q 5 2 9 9 9 e 6 ",
"9 9 q 9 9 t t t s 6 O   + K @.' f 5 . > K D , = F H = - G L , . 1 d ' O.G # X # > q r q 9 9 r r e e ",
"q t t t t t t t 6 r > @   . J #.+.U e J e.9.N G h.h.H V 9.q.J 2 T $.+.J O   . , i i k i i t t i p p ",
": > , < < > : , , : > O     $ Z &.+.o.W 2 5 O F j.j.G   5 7 K X.+.+.A o   o O & 1 , > : , : > > , , ",
"< : @ < 2 < > < 2 ; 9 2 & +   # A &.:.| Y P N N F G v N T R | <.#.F $   o $ 3 k : > ; $ > , > , < 1 ",
"t , > 9 p t t p k k z s z 6 O . o J W _ :.:.| P v v P | -.<.( / L X   O < z z 9 4 w w 3 q i i i s i ",
"6 < > 2 < e b 9 q q r w w r < @ $   X d {  .| | | [ | | | [ c     + # & 3 y q 4 q 4 q 3 q w w q z z ",
"p 6 > e r e z r t t t z x x j w 3 #   X & & * > * > * > = > +   $ 2 w y u u w x k i k k i k k i k k ",
"z 9 > e z r p t t p l j k x x x d y q 2               .     < 9 2 y i i k i y i y y k y y k y i k k ",
"p < : 6 z t p k j k j j j h h h i i y u & 1 1 > , , : : 2 : w h t k w w k k y y w y y h y h y y k w ",
"9 - : - t z p t j k k j k j j h i k i y t k l j k y y h k j l h l l k k y k k i i y k k l k y k q 9 ",
"e , , , e z j t p j j h j j h w 4 4 w 4 z j j l l l l l h l h l y k k y y q y w y 4 y y y w 4 w r r ",
"p = , 6 9 p r t j t h w h h w w y 4 3 2 w 3 w j h k k l h k h j y y w w y y 4 3 3 3 7 3 3 3 3 3 f f ",
"f @ : e 2 e 0 s j j z j j j j j u q 4 4 q w k k k w h w z j k x l i k k y i i d k y y y y y y i M g ",
"- - - e p e e t j t t t j p j p t p t r r w t r p t p p p t p p i s i i p t a s z s s t z s p t r r ",
"= = - , e 6 9 e 3 < < 9 e e 9 9 9 e 9 9 e 9 9 9 6 6 2 6 6 6 6 2 , , , > , , , , < , , , , < , > * - "
};
