/* XPM */
static char *_ef3eed4f7894a09f37136d5b52990410iZwctsRfdbSkJrS[] = {
/* columns rows colors chars-per-pixel */
"50 50 138 2 ",
"   c #130707",
".  c #110907",
"X  c #110708",
"o  c #150C0C",
"O  c #1A0E0D",
"+  c #1A110F",
"@  c #160E12",
"#  c #180F13",
"$  c #171115",
"%  c #1D1312",
"&  c #171518",
"*  c #1C1619",
"=  c #1E181A",
"-  c #20120F",
";  c #211614",
":  c #241915",
">  c #201718",
",  c #251B1A",
"<  c #291E1C",
"1  c #2C211E",
"2  c #32241E",
"3  c #39261F",
"4  c #251D20",
"5  c #291F21",
"6  c #272121",
"7  c #2D2322",
"8  c #2D2629",
"9  c #2F292D",
"0  c #322624",
"q  c #3A2622",
"w  c #352925",
"e  c #3A2B25",
"r  c #312728",
"t  c #362B29",
"y  c #3A2C2B",
"u  c #392E2A",
"i  c #3A2F2B",
"p  c #392D29",
"a  c #3C2F29",
"s  c #382C2C",
"d  c #392D2D",
"f  c #3A2C2C",
"g  c #3B2D2C",
"h  c #3B2D2D",
"j  c #392E2C",
"k  c #382E2D",
"l  c #3A2F2D",
"z  c #382C2E",
"x  c #392D2F",
"c  c #392F2E",
"v  c #382E2F",
"b  c #3A2E2E",
"n  c #3B2F2F",
"m  c #3D2D2D",
"M  c #3D2F2C",
"N  c #3C2E2E",
"B  c #3D2F2E",
"V  c #3D2F2F",
"C  c #3B2D2B",
"Z  c #3A3027",
"A  c #3B302A",
"S  c #3B302C",
"D  c #38302E",
"F  c #39312F",
"G  c #3B302E",
"H  c #3C312D",
"J  c #3E302D",
"K  c #3D322C",
"L  c #3E332D",
"P  c #3C312F",
"I  c #3F312E",
"U  c #3E302F",
"Y  c #3D322E",
"T  c #3F342E",
"R  c #3D312D",
"E  c #342D34",
"W  c #392F30",
"Q  c #3A2E30",
"!  c #3B2F31",
"~  c #392F32",
"^  c #373135",
"/  c #393031",
"(  c #3A3132",
")  c #3B3132",
"_  c #383232",
"`  c #3C3030",
"'  c #3D3131",
"]  c #3E3030",
"[  c #3F3130",
"{  c #3D3230",
"}  c #3E3331",
"|  c #3C3032",
" . c #3D3133",
".. c #3E3232",
"X. c #3F3333",
"o. c #3F3430",
"O. c #3F3432",
"+. c #3E3234",
"@. c #383435",
"#. c #3F3534",
"$. c #3C3636",
"%. c #3D3231",
"&. c #3C3539",
"*. c #412D26",
"=. c #412E2A",
"-. c #40322F",
";. c #43322D",
":. c #413131",
">. c #413330",
",. c #403231",
"<. c #403531",
"1. c #423431",
"2. c #403533",
"3. c #413632",
"4. c #413634",
"5. c #423735",
"6. c #443635",
"7. c #433532",
"8. c #403836",
"9. c #463B35",
"0. c #443937",
"q. c #453836",
"w. c #483A37",
"e. c #453939",
"r. c #463B39",
"t. c #473C38",
"y. c #433A3A",
"u. c #4A3F3B",
"i. c #4D3F3E",
"p. c #4C413D",
"a. c #48403E",
"s. c #453F41",
"d. c #4B4140",
"f. c #4A4142",
"g. c #4F4442",
"h. c #4E4546",
"j. c #524743",
"k. c #544848",
/* pixels */
"w 0 7 1 1 2 7 2 2 2 2 7 2 2 2 0 2 < 7 q 0 1 1 Z 0 w T % T u Z w Z Z Z Z Z Z Z Z Z u Z D Z Z K D e e ",
"A u p w e w t t 0 0 0 2 2 0 q 0 0 < < 0 0 2 L p.1 1 Z 1 a.Z w Z w 2 2 Z Z w Z 2 _ u A u _ Z D K A A ",
"u p p p p w t t q q q r r r q q q w w w 0 0 3.j.w 1 0 % o.w p 9.Z Z Z Z Z Z Z Z w w r Z Z w t D u Z ",
"w w w w w w q 3 r y m z *.q m r w w u g w 0 u -.Z 0 0 + L w K a.1 2 1 1 1 1 1 1 0 0 0 0 0 w r w w 0 ",
"r w w w w r w w q f f z f f q z w w t t u w r r 0 r 3., y.( K K T T T L L L K L 0 0 w w r w w w w w ",
"7 0 7 r 7 w 0 w 0 r q q q r z q w r 0 r t t p y 0 w o.% K p r 7 w w w Z w 0 0 0 w Z w D t D w D w w ",
"1 7 7 1 1 7 0 0 z r r z r q q z w w w w t t k k K r p o p 7 w p u u Z u u u p p u w w w w w w r 0 r ",
"7 7 1 7 7 0 r r q r q q z x m :.s k  .! p t u t #.p { 1 r.r r K w w Z w Z w p w 0 0 r 0 7 7 7 7 1 1 ",
"w 6 w 6 r _ 1 k t t t w r r q r 7 7 q r 5 , 5 :.7 r r > 7 , :.s., 1 1 0 0 w r r 7 0 0 0 0 r 0 r 7 6 ",
"1 < r 7 0 r < r 0 7 0 0 r q q r r 7 5 5 , 5 :.k.s w w < y 5 h 6.w 0 0 w Z Z K D Q f s f Q Q r s D D ",
"1 7 w 6 7 0 < 7 7 5 5 7 5 5 0 0 0 5 7 0 0 0 h e.r 5 0 <  .s :.:.#.o.K K L p w 0 t w z r 0 0 0 0 6 1 ",
"$ % % o % % o + O O - # - # - % O - ; < , ; - # : : , , Q w s y D p w 2 7 1 1 : : : ; ; % ; % ; = = ",
"% % . o = = % + ; ; * ; ; # ; % - # # - ; # ; > O O # X > O ; ; o O o + O O o O # % ; # # ; % # @ o ",
"w 7 % 0 $.Z D u f f w s w y r w q z 7 r w w f r f V ! 0 ! t f f p w 0 w w t w t 7 7 5 0 8 0 r 0 @.9 ",
"9 1 & _ d._ _ _ Q s Q Q Q f Q f f z ! ! ! f w r w Q Q r  .Q ! { U K p p t u y w ! { =.! { ! { { a.@.",
"1 1 % $.p.r 7 w s s f f h Q h Q m :.Q m h ! ! :.h ! :.w 6.:.:.f U U V V U ;.3.7.:.:.! :.V V V A h.@.",
"1 = : u q 7 ;.y :.m =.m =.:.=.=.=.=.=.=.;.*.=.*.*.*.*.;.*.*.*.*.;.*.;.;.;.;.;.;.;.;.*.*.*.Z q 2 1 < ",
"Z 1 : Z w 2 u 3 q 2 q q q q q q q q *.=.*.;.;.;.*.*.*.*.*.*.*.*.e 3 3 3 3 3 3 3 ;.;.;.*.*.;.;.*.o.V ",
"w 1 + 1 0 1 r < 2 2 q q q m =.=.*.*.e =.a *.=.*.;.*.;.*.;.*.*.*.e 3 q e 3 3 3 3 3 Z *.*.q =.e e w r ",
"2 1 : w o.Z ;.V m q m m m m =.=.;.;.=.=.*.;.=.;.;.w.w.;.w.;.;.*.=.=.;.A ;.;.;.;.;.;.*.*.=.Z *.g 0 7 ",
"1 1 = T e.V { :.m m f f f y y y g a C e =.;.;.;.=.;.1.;.;.;.;.;.;.;.3.;.1.3.7.3.9.;.3.;.;.A U ;.K r ",
"1 = & Z 6.0 7 w f f r q e y q m C C C C C y g u y y V k *.;.;.;.:.3.:.3.;.;.U { =.Z k K g u U o.s 7 ",
"9 6 : D s.h 7 z z z f f f f h h =.V V C y w r r w w t p s y =.*.{ o.{ { { k K K <.L o.o.{ U { 0.t 0 ",
"w 1 o w s.z r z :.x :.f h h h f V h V g y y w w w t r r s t t w t t t y u k k k K Z r p w 7 r p 9 7 ",
"o & % = : , , 1 : > , , , ; : : , : : : % : : % # > 5 > > > > # % # + % + % % o o % O % O % + % % % ",
"1 1 < , , 1 1 1 0 r 0 0 0 0 r 7 , < < 1 5 < , , < 5 > % * 4 8 5 7 7 7 r 7 0 w 7 w 7 7 7 7 1 6 1 1 1 ",
"L L Z p p s s _ k u k K f k V u C V :.! U k Q ( ! s 4 $ = 9 ^ ! { { 3.3.0.#.5.0.y.5.0.5.5.o.3.U L o.",
"Z _ D D k ( { o.V ( K { ! { ! U C C y w w w { 5.r 5 * # = r ^ ^ w t w t p p p r w t t t u k u g ( K ",
"=.g =.;.;.3.1.1.:.;.:.;.U u u u e q q 0 1 0 y :.6 < , $ = 9 &.&.p t y t e e t w 7 2 q 0 w t g g ;.A ",
"q.6.w.6.q.6.6.7.;.;.U u t w q 2 q t e e t e y u V t 5 % = 8 ^ &.o.L U A A g g u y t y u U A ;.;.7.3.",
"=.;.*.C e *.*.e a e Z e t q e q 3 3 t e y w w 0 t 7 > o # 4 8 7 w 0 q q q 0 2 2 w q q q e e e t =.*.",
"=.g t q q t e e t e A ;.-.;.3.3.-.;.;.=.=.V h k 7 5 * % 4 E &.Q s A A A A Z u A Z w p A g A ;.;.=.=.",
"t w e U A t t g e u s K K K _ K U U U A u w r r r r 4 $ * 8 9 8 5 r r 0 7 w p U u u k u k u u y C *.",
";.A u U U u g A w p p p s s s s u u e 0 7 r s #.6 6 = # * 9 E 9 8 r y m { o.{ ( o.o.#.o.3.3.{ :.;.:.",
"0 1 1 < 1 1 0 1 0 7 w r 7 w 0 0 w u w 2 1 0 K y.r 7 4 # $ 5 E 5 6.h 5 < < 1 1 < 7 7 7 7 0 7 r 0 0 7 ",
"0 w w 2 w p u t { { { o.#.o.o._ q w u e 0 7 7 t r 8 , # # 4 5 5 5.C 7 7 r K ( o.p t p t p t t p t r ",
"w u U K D K U K w e u u D u p p u g a a u t 0 0 r 7 5 > , 5 z z 0 0 q w L L A e L ;.;.g u A K K ~ ~ ",
"= : : 1 , * : : ; ; ; : : ; ; ; : + O O + + O   o O o X o % * ; , , < < : : - - , : : : ; : : , < 4 ",
"1 % + , 1 , : < 1 1 2 1 2 2 2 2 e 3 0 q q w w r r w r 0 7 8 r r 2 < < , 1 2 w t : : ; ; : : , < < < ",
"p , : w 3.U g :.-.-.7.7.6.q.w.q.-.q.q.w.q.7.6.6.3.5.e.5.6.6.:.:.:.;.;.:.-.U u t e t q t e g A U U U ",
"7 < % 5 5 q s.q t q t C *.=.=.=.Z Z Z Z ;.;.V u C C m f z q *.*.0 q q e e e e w e q e q w w Z e 6.7.",
":.7 , 0 r r 6.r g ;.V ;.;.;.7.1.;.<.;.3.3.3.;.=.=.:.h =.:.=.=.=.Z A A Z Z A A ;.;.K -.A K ;.<.<.;.;.",
"6.r , z :.Q :.z ;.;.;.1.;.;.;.;.<.;.<.<.;.;.A a =.=.*.*.=.=.;.;.g Z g =.A ;.;.Z A =.;.;.;.;.;.=.6.;.",
"Q 5 ; 7 :.:.z :.A ;.=.;.;.;.=.=.;.;.;.;.;.;.g a C C y m *.m *.*.g *.a =.Z ;.K ;.a g Z ;.A ;.A Z A g ",
"r 4 ; , x 6.:.:.;.:.;.;.;.;.*.;.;.;.=.;.;.;.;.;.;.;.;.;.;.;.;.;.;.7.;.;.<.-.-.;.;.;.;.3.;.-.;.-.w w ",
"r > , , r :.x =.=.=.=.=.*.=.*.*.e a t q =.*.;.;.;.;.;.w.;.;.;.;.;.;.-.;.e Z e e e e Z e e e e e p p ",
"x % 4 5 7 :.=.=.=.=.=.=.*.*.*.*.e t 3 0 *.*.=.;.;.;.*.*.;.*.;.=.=.Z a e e 3 3 3 3 3 2 2 2 2 2 2 $.$.",
"6.@ > r 5 q f :.:.:.;.;.;.;.;.*.A w q q e e =.;.*.*.;.;.;.;.;.1.;.;.;.;.T T T ;.<.K ;.;.Z A K K a.&.",
"4 4 4 8 z Q f f C =.C =.:.:.:.:.h y e u u u p p u D D K K K k K T L K K D K K _ L L L o.o.L K D t 9 ",
"& $ * 4 5 r 7 0 7 7 7 2 0 r r r r 0 0 0 0 7 0 7 7 7 7 7 7 7 8 7 , 1 , : : , , , , 1 , , 1 , , : , = "
};
