/* XPM */
static char *_08605449e1444efaac1aff6b4651f3cyoS3Tx7My6VLZO7i[] = {
/* columns rows colors chars-per-pixel */
"50 50 136 2 ",
"   c #020101",
".  c #090605",
"X  c #0E0907",
"o  c #0E0908",
"O  c #140E0B",
"+  c #17100E",
"@  c #1B120A",
"#  c #1D1512",
"$  c #21170D",
"%  c #25190E",
"&  c #231A15",
"*  c #2B1E13",
"=  c #251C19",
"-  c #291F1B",
";  c #2E2114",
":  c #2D221C",
">  c #332416",
",  c #33261B",
"<  c #36281E",
"1  c #3B2B1D",
"2  c #2F2421",
"3  c #312621",
"4  c #362921",
"5  c #3D2D22",
"6  c #402E1D",
"7  c #45311E",
"8  c #4A351F",
"9  c #402F22",
"0  c #453323",
"q  c #4A3624",
"w  c #4E3925",
"e  c #4C3A2B",
"r  c #523C27",
"t  c #583F24",
"y  c #553E29",
"u  c #4D3D32",
"i  c #4C3F38",
"p  c #513F32",
"a  c #564126",
"s  c #5A4126",
"d  c #57412A",
"f  c #5E4429",
"g  c #5D442B",
"h  c #5E442A",
"j  c #5E452A",
"k  c #5F452A",
"l  c #5D4429",
"z  c #59422C",
"x  c #5A432C",
"c  c #59432F",
"v  c #5B452D",
"b  c #5A4229",
"n  c #5D482D",
"m  c #5F4A2D",
"M  c #564332",
"N  c #5E4630",
"B  c #5F4730",
"V  c #5B4635",
"C  c #5D4632",
"Z  c #5E4834",
"A  c #5E4836",
"S  c #554438",
"D  c #55453A",
"F  c #554539",
"G  c #57483F",
"H  c #5A483A",
"J  c #5C4939",
"K  c #5D4939",
"L  c #594A3F",
"P  c #5D4A3B",
"I  c #60462A",
"U  c #61462A",
"Y  c #61472A",
"T  c #61462A",
"R  c #62482B",
"E  c #64482B",
"W  c #64492B",
"Q  c #654D2F",
"!  c #64492C",
"~  c #694C2C",
"^  c #66502F",
"/  c #604933",
"(  c #634C34",
")  c #684F32",
"_  c #604C3A",
"`  c #644E3A",
"'  c #634D3A",
"]  c #675031",
"[  c #6C5132",
"{  c #6F5433",
"}  c #6D5435",
"|  c #66513F",
" . c #6F573A",
".. c #6A533C",
"X. c #715635",
"o. c #725937",
"O. c #735A36",
"+. c #795C37",
"@. c #73593B",
"#. c #7A5F3A",
"$. c #795D39",
"%. c #7D623C",
"&. c #524640",
"*. c #5A4D45",
"=. c #5D4E44",
"-. c #5B4B42",
";. c #5F5045",
":. c #634F41",
">. c #645346",
",. c #675547",
"<. c #655344",
"1. c #63544A",
"2. c #66584F",
"3. c #6C594B",
"4. c #6E5B4A",
"5. c #775E40",
"6. c #755E48",
"7. c #665951",
"8. c #7A624B",
"9. c #6C625C",
"0. c #706156",
"q. c #726258",
"w. c #786960",
"e. c #82643D",
"r. c #82663F",
"t. c #826640",
"y. c #876A41",
"u. c #8B6C42",
"i. c #896C45",
"p. c #957548",
"a. c #9B794A",
"s. c #927552",
"d. c #967953",
"f. c #997D58",
"g. c #907962",
"h. c #937F69",
/* pixels */
"O 3 r r r 0 w 0 0 r 5 y 1.r r S > = 4 r r w 0 q 6 q r r =.H r q y y r r r r 0 ! r r r w s -.y r i 0 ",
"  : q r r 5 & = , w > 0 8 0 0 r @ . 3 w r w 1 # # 9 r : w 8 q q 6 7 r r r r q E r r r q 1 w 0 0 y % ",
"  # 0 r r : O 4 w r , t.t U U y &   , w r q O - 5 r r @.X.g v U q w r r w r 0 b r r q q y.b b v Y , ",
"O 3 f r r * O - 5 r 5 0 4.r u z , + 0 y r w o & : 0 r 0 =._ w D w w r r 9 r 0 Y r r b w b ,.y w V 9 ",
"0 b f w r $ : , , 9 : 0 y r M y 0 1 E y w q   9 # 9 0 - w r r A w q r r 0 r 0 b r r r q b y r r / 1 ",
"f y r r r ; 0 5 , 5 & q r r r r w y y r r q > q > 5 5 & w r r r q w r r r y 0 ! r r r w f r r r r > ",
"r r r y t 6 y e r e 1 0 r r r r 6 r r r y q w r e w p - w r r r q 1 r r q r 6 E e r e e b r r w r , ",
"y r f f s 1 y C r d * 3 w y f r w y y t b w 8 t / w y - 5 r y y w q r r y r 6 Y M z y y b y r y r 9 ",
"E y R a Y 7 r 7 , # . 1 1 b r r r b b b f y a 8 1 > # & , 0 Y r q r r r t r 6 Q 8 w r 1 w r r d r 1 ",
"E y b r b n [ r = + : b r r r r y y b y y r #.y 9 = = 0 y r r r w r r r r r 0 y.d b l w y r r w r 9 ",
"f h.v H y 7  .@.4 : = r r r f r r H f.e A q r d.r 2 - 6 y r y y q w 9.r.&.b 0 Y d.,.| q r r r r r 1 ",
"E b r y r 0 r q r 5 : r b r ~ y r b y y y w w r w r 2 5 r b t Y 8 w s r b r 0 b r r r q 7 r r 0 r > ",
"1 0 6 1 0 ; r r e w 4 b Y r b r > 7 1 1 9 , 6 r r w w w y Y r b q * 0 9 1 0 * y r r r w d r r 0 r > ",
"a.Y b y @ * y q ; y 1 a r b r r %.+.Y Y q   8 r > 1 r 7 y y b r w %.Y b Y R 0 b r r l w w r r 0 r , ",
"Y D r w & 1 y 4 4 0 5 f r f 0 r y y M y q O r r , 4 r w y y r r w r i y r u w ! r q w q l r r w r 9 ",
"b f r r 0 q t r w r < f r r r r q y t r w 9 y r r r r r y r r r q q b r r b q R r r r w s r r r r 1 ",
"E r r r r 0 y r r r 5 f w r r w y b r r r q r r r r r r r r r r w r r r r r 0 E r r r w f w r r w 5 ",
"E r 5 w r w b r r r 5 w q.r q :.y y r r r w t r r r r w 2.<.r e C r r 0 q r q E r r r q y 7.b w -.q ",
"y r 3 w r w t r r r ; d 6 q q 0 6 y r r r w t r r r r 8 w 6 0 q , 7 r 4 0 r 0 E r r w q d 7 0 0 q @ ",
"E 0 # 0 r 1 y r r 5 - X.P b y y r y r r q w w r r r r ( | A b d w r r # 3 y 0 b r r 0 3 O.H f b y 5 ",
"b q & 5 r 0 y r w q 2 5 4.r i b w y r w 0 w r r r y r r ,._ w H w w r * : r 0 Y r w q 4 0 >.y e ( 5 ",
"b w 3 q r 0 y r r 0 # 0 r r y r w y r r w q w r r r r 8 s r r b q q r 3 5 r 0 b r r w : 3 w r r y 1 ",
"z w 0 q r 7 y r r 9 # 0 r r r r 7 y r r r w r r r r r w y r w r q 0 r q 0 r 0 R r r q - , r r r y > ",
"r r y w y 6 y &.q =   0 r b r r 7 r r r w 0 r q A w =.r s r r r q 0 r r q r 6 ! i u : . , r d b r 4 ",
"g r r y y 1 r q , o O 2 q f b r w y r y b q 8 r y r b w t r y y w w r r f r 6 b q 5 # . 2 9 b R r 9 ",
"E r r r r r a 6 7 w @ w q b r r r b r r r q ~ 6 8 w 7 , r r r r q r r r r r 6 O.7 7 w > 4 w w b y , ",
"E q r w r q r z -.d 5 f r b r r y y r w w w t i r 7.r r y r w r w y q r q r 0 Y M *.P w f y t r r 9 ",
"U g.M _ y 0 } [ C y > r R v r r r P s.u ( q y i.r ( r 1 y r r r q 8 0.%.P b 0 R i.C b q q b E r r > ",
"f y r r r 6 r q 0 w 1 r E r r r 8 a r r y w 7 r r r r 1 r r w w q 7 a r d r 0 d w 0 w w q Y b r r > ",
"+.r q 7 : * r 0 , r 5 d f r q r W R w q r 6 6 r r t r q y r q w q n r q 8 , @ r w : w w r y b q r > ",
"+.r y y $ > d < - w 5 b r r 5 r ) ( a y y w r r r r r w y r w w w / y y b ,   Y 0 = 0 q t r r 9 r 5 ",
"s <.y q - 6 b 5 0 q > f r r w r r y / r p P y r r w r w y r w r w w H b r < # R w 5 0 q f r r r r 5 ",
"Y y r r w q y r r r 5 b y r r r r y y r r r t r r r r r y r r r w r y r r w 0 R r r r q b r r r r 5 ",
"E r r r r 0 b r r r 9 s H r r p y t r w r q y r r r r r H M r r w 5 5 q r r 0 d w q r w b H y r u 0 ",
"R r r r r w y r r r 1 w 6.r w ` y s w 4 r w y r r r r 0 <._ r p z o = 0 r r 0 0 & & 9 w w <.y r _ 6 ",
"f r r r r q t r w q * t.r b b r 7 y 9 4 r w t r r q w X.X.t b b 6     3 r r q X 2 0 r q y.y t b b % ",
"E r r q r 0 y r y y 5 y 0.r w r y s , # q q r r r e 2 w 7.<.r 0 w # # y r r 7   2 4 b w b 7.b w q 5 ",
"r r r 0 r 5 y r r r 1 I y r S g 0 r 0 : 0 w 8 r r q 0 - w y r :.r - , ~ q r 6 O 4 , 4 q , y w y ` 0 ",
"E r r r r w y r r r > b r r r r r y 4 4 r w a r r r 3 & w r r r q r r s r r 1 - 0 = 0 3 3 r r r r > ",
"r r r w r 6 s q r w 9 I r r 0 r 6 r y w q q w r q 0 2 # w r r r 0 1 r r r r 6 E w r 0 0 , y r r r , ",
"r r r r r 6 y :.y -.0 I r r r r 0 r r r r q t q ` 3   = 0 r E y w 0 y b r Y 6 E D C u d 3 w r b r 5 ",
"v r r d r > 6 q 9 w * y r r y r r y r y y 0 > , , = O & 9 w E r q w r E r E 6 7 7 6 , @ : , r f r 1 ",
"! r r r r R X.b f Y > y r r r r r s r r r q r.s f s y 1 r r y r w r r E r b 6 p.s , # = q w r y r 1 ",
"Y ,.r y r q A ` 2.t 5 b r r r r y M ..e r w y 4.r q.r w b b t r w r G ! u y q b 6.9 - : t r r y r 5 ",
"Y 8.y v r 0 E U r r > r r r r r w C #.y v w y X.r y r 1 b ~ y r q 8 <.[ C y 0 Y  .w q : q r y Y y > ",
"r w q w q 1 r r r r 5 y r r 5 r 7 w q q w 0 6 r 0 0 r 9 y E r r 8 1 q w q w 1 r w r q 4 w b f b b > ",
"%.w q r w , r r y y 5 y r r 9 r ) ! 8 w 1 O 7 r : 6 r q y y w w q ) r q w :   y r 1 y w y y b y r , ",
"Y w r r w w t r w r 5 I r r 9 r y y r r q   r r - 3 r r y r w w w r w r r 1   ! q , 4 w b r f r r 0 ",
"y ..r w ( w y r r r > I r r r r q y / r 0 : y r q w r 8 t r r r q 0 K b r 5 - E w w q q s r r r r < ",
"E r r r r 0 y r r y 9 b r r r r y y r r r w y r r r r r y r r r w r r r r r 0 E r r r w l r r r r 5 "
};
