/* XPM */
static char *_d4469a0c01149f7e322b0dd0a9fcf5dioK9vJST5jnEpUbs[] = {
/* columns rows colors chars-per-pixel */
"50 50 182 2 ",
"   c #020101",
".  c #090605",
"X  c #0E0907",
"o  c #0E0908",
"O  c #130E0C",
"+  c #180A0E",
"@  c #17100E",
"#  c #1B120A",
"$  c #171513",
"%  c #191614",
"&  c #1C1816",
"*  c #1C1C1B",
"=  c #21170D",
"-  c #25190E",
";  c #221A16",
":  c #2A1E13",
">  c #251D19",
",  c #291F1B",
"<  c #16231D",
"1  c #19231F",
"2  c #2F2114",
"3  c #26201C",
"4  c #2D221B",
"5  c #332416",
"6  c #33261B",
"7  c #36281D",
"8  c #3B2B1D",
"9  c #1A2B25",
"0  c #1C2E2A",
"q  c #1A342C",
"w  c #1C3730",
"e  c #1C3A34",
"r  c #222324",
"t  c #2E2522",
"y  c #282727",
"u  c #262B2D",
"i  c #2A2A2C",
"p  c #322621",
"a  c #362922",
"s  c #3D2D22",
"d  c #312D2A",
"f  c #35312E",
"g  c #2A2E31",
"h  c #2A3638",
"j  c #323436",
"k  c #34363A",
"l  c #36393D",
"z  c #402E1D",
"x  c #45321D",
"c  c #4A351E",
"v  c #402F22",
"b  c #453323",
"n  c #4A3624",
"m  c #4D3926",
"M  c #4C3A2B",
"N  c #523C27",
"B  c #583F24",
"V  c #553E29",
"C  c #4D3D32",
"Z  c #4A3D35",
"A  c #503E30",
"S  c #194436",
"D  c #1D443B",
"F  c #5A4126",
"G  c #56412A",
"H  c #5B4229",
"J  c #5C462A",
"K  c #554232",
"L  c #5D4632",
"P  c #5E4835",
"I  c #554539",
"U  c #57483F",
"Y  c #5D4A3B",
"T  c #61462A",
"R  c #64492B",
"E  c #684C2C",
"W  c #634C33",
"Q  c #684F32",
"!  c #644D3A",
"~  c #6D5334",
"^  c #6C543B",
"/  c #715635",
"(  c #745A37",
")  c #73593B",
"_  c #795D39",
"`  c #7C613C",
"'  c #383E43",
"]  c #1E4940",
"[  c #195644",
"{  c #374247",
"}  c #3B454A",
"|  c #3D494E",
" . c #20544A",
".. c #21594E",
"X. c #3E4B51",
"o. c #215C51",
"O. c #216253",
"+. c #216A56",
"@. c #2B665D",
"#. c #246A5D",
"$. c #256E61",
"%. c #3F6E6B",
"&. c #277567",
"*. c #247F66",
"=. c #297D6F",
"-. c #40444A",
";. c #534A44",
":. c #5A4C43",
">. c #444D53",
",. c #4A4F57",
"<. c #46545B",
"1. c #4D545C",
"2. c #5E5751",
"3. c #51565F",
"4. c #634F41",
"5. c #655344",
"6. c #6E5B4B",
"7. c #765E44",
"8. c #665951",
"9. c #6C5C52",
"0. c #7A624B",
"q. c #6C625C",
"w. c #706157",
"e. c #4B5C63",
"r. c #555B64",
"t. c #52656D",
"y. c #576A73",
"u. c #586B74",
"i. c #596D76",
"p. c #5D727B",
"a. c #6F7272",
"s. c #82653E",
"d. c #856841",
"f. c #896C43",
"g. c #987749",
"h. c #947752",
"j. c #927C66",
"k. c #278469",
"l. c #2B8374",
"z. c #2B8A7A",
"x. c #3D8376",
"c. c #2D9679",
"v. c #637983",
"b. c #2F9483",
"n. c #3A9485",
"m. c #319D8A",
"M. c #2FA685",
"N. c #32A489",
"B. c #33B28F",
"V. c #33A793",
"C. c #38A794",
"Z. c #34AA96",
"A. c #34AC98",
"S. c #36B39E",
"D. c #37BC98",
"F. c #3AB8A3",
"G. c #439589",
"H. c #6B838D",
"J. c #6E8691",
"K. c #6F8893",
"L. c #708994",
"P. c #3CC4AD",
"I. c #3ECDB5",
"U. c #3FD2BA",
"Y. c #40C1AB",
"T. c #41D6BD",
"R. c #6EC7B7",
"E. c #6CD0BE",
"W. c #43DBC2",
"Q. c #48E7C7",
"!. c #45E5CA",
"~. c #56E8CF",
"^. c #5EE8D0",
"/. c #71E1CD",
"(. c #69EAD3",
"). c #7AECD8",
"_. c #99A5AB",
"`. c #9AAAB3",
"'. c #A3B1B8",
"]. c #86DECE",
"[. c #85EEDB",
"{. c #9AF2E2",
/* pixels */
"O p N N N v N z b N v V 5.N N K 7 ; a N N m n m z m N N 4.Y N M V V N N N N b E N N N n B :.V N Z n ",
"  3 n N N s ; , 6 n 5 b n n b N # . 6 N N m 7 % % v N 2 n b v m z x N N N N n R N N N n 8 m b n N - ",
"  % n N N , O a n N 7 s.V T T V :   4 m N n O , s N N ) / V T T n N N N n N b H N N n n f.V H T T 6 ",
"O p H N N : O , s N s b 6.N C V 6 O n V N n o ; , b N n 4.! m I m m N N b N b J N N V M H 5.V M L v ",
"x V T n N - 6 4 6 b 4 b N N A N s 8 T V M n   v ; v v , M V N W m n N N b N b H N N N n H V N N T s ",
"T V N N N 5 v s 6 s ; n 6 % % & % % ; 7 N n 6 n , s v ; n N N m n c N N N N b E N N N n F N N N N 6 ",
"N N N V N z V M N Z 7 b b > o.F.T.I. .; 8 8 z z b m C , m N N N n z N N b N 8 E M V M N T N N m N 6 ",
"V N T H F z N W m G 2 6 m s % V.T.!.b.=.l.=.&.#.0 $ & ; 6 n V V M n N N G N z T G J V A H N N V N v ",
"E V T V T x V x 5 ;   8 7 % z.P.!.!.!.!.!.~.(.).(.W.P.C.$.% 6 n n N N N V N z E n m N 8 m N N G N s ",
"T V F V V J ~ V ; @ , H M ; +.Z.U.!.!.!.U.U.!.[.{.^.b.n.).].G.& 8 V N N N N b f.H H J n V N N n N v ",
"T j.J Y V b / ) s , > V N n 2 ] m.S.I.!.!.I.F.W.(./.e % E.).(.P.% n q.d.U H z T h.5.! n N N N N N 7 ",
"R V N V N b V n N v , N H N E 7 0 m.A.W.!.!.U.A.T.Z...x.b.!.~.P.% x V N G N b H N V N n c N N n N 2 ",
"v v z z v 2 N N M m a V T N V N % &.F.W.W.I.F.A.Z.m.D R.% P.!.e * & s v 7 b : V N N N m N N N b N 5 ",
"g.T H V # : N n : V 8 V N T m 4 e m.T.F.l.] * w $.0 b.R.$ Z.F.I.Y.b.4 H R T x H N N J n N N N b N 7 ",
"T I V m : 8 V a a n a H N V ; o.V.P.F. .9 >.e.t.' [ T.~.%.& * $ N.P.; V N Z N T N n N n H N N n N v ",
"H T N N v n V N V N 7 T N 8 ..Z.A.S.o.g r.i.J.K.p.0 c.S.S p.`._.$ l.4 N N H n R N N N n H N N N N 8 ",
"R N N N N b V N N N v H M 6 o.Z.A.l.1 e.u.J.L.L.L.t.g g t.K.L.`.a.& s m G m b R N N N m H m N N M s ",
"R N s m N m F N N N s N 9., 0 m.A.e X.e.v.L.L.L.K.K.L.L.K.K.L.L._.% n b M N b R N N N m B 8.F N :.n ",
"V N p M N n B N N M 2 G > O.Z.Z.m.$ X.e.K.K.K.K.L.L.K.L.L.L.L.L.'.O m 8 b N b R N N m b G x b b m # ",
"R n = b N z V N N v , / a #.Z.A.z.u ' v.L.K.L.K.L.L.L.L.L.L.K.L.'.y b % a m b J N N b 6 ( Y H H V 8 ",
"V n ; s N b V N n b t v 5.; [ z.=.h e.i.v.X.1 h | t.L.L.L.J.p.u._.j b , 4 N b T N M b a b 5.V M W v ",
"T m p b N b V N N n % n N m s ; $ u e.v.<.9 [ +.O.9 u.L.K.u 9 0 l > b a s N b J N N N 4 6 M N N N 7 ",
"V m b m N x V m N s @ n N N N 6 e $ t.v.* S *.M.M.+.X.L.p.< *.c.9 % n n b N b R N m n , 6 N N N N 5 ",
"V N m m N z V ;.n >   n N V N 4 D $ e.t.$ ..M.U.Q.c.>.L.p.< B.U.D & N N n N 8 R Z K t . 6 N G H N s ",
"T N N V N 8 N m 6 O O p n H H m 8 3 u <.h q k.D.D.S t.L.H.< +.k.% 6 N N J N z H b z % . 4 v V E N v ",
"R N N N N m B z x n # n n H N N N G 8 * % % $ + # } J.L.L.y.& % % c N N N N z ( z x m 7 s m N V N 7 ",
"R n N m N n V A :.V v J N H N N F N M m b 4 u i.i.y.L.H.H.H.% 7 n V n N n V n T L :.! n H N V N N v ",
"T j.V ! N b / ~ L V 5 N R H N N c Y h.K M % % <.| <.H.<.{ <.3 N n c w.` Y G b T f.L H n b T R N N 5 ",
"T V N V N z N n b m 7 N E N N N c H G 8 e S.h $ i & i % t $ 8 m n x V N V N b V n n n n n T T N N 5 ",
"_ N b b 6 : N b 7 V 8 F H N n N E J 8 w T.T.< l ,.1.u f d $ 3 8 b W N n m 6 # N N 4 n M N V B n N 6 ",
"_ N V V - 5 V 6 , m s F N N s N W x $ < m.l.y >.3.r.' y 2.* d u ; T V V V 5   T n > v m V N N v N v ",
"H ! N n : v V v v n 7 J N N N N 8 r 1.,.* % ' } r.k * i 2.* 2.j % 8 U H N s % T n b b n T N N m m z ",
"T V N N m n V N N N v T N N N N 4 -.,.>.i i g $ 9 ] % k ;.j r > p n V N N N v T N N N n T N N N N v ",
"T V N N N n V N N N v V Y N N A 5 1 % % % i u n.@.F.% l , % * s V a s m N N b H n n N m H I V N A v ",
"T N N N N n V N N N 8 n 6.V n ! n 8 6 , * * %.G.n.h % g Z L b V G o , b N N n b ; ; v n N 5.V N ! 8 ",
"T N N N N m B N N n 2 s.B V H N x G a $ i % g * % 6 % * T V J V z     t N N b X p b N n s.V V H H - ",
"T V N n N v V N V V v N w.N m N V V & g 1 % 2 % b n % ; 8.4.N n m % # V N N v   p a H n T 8.V N n v ",
"N N N b N v V N N N 7 T V V P V b : % & : b n n V n p > M V N 4.N 4 7 E n N z O p 6 a n 6 V N N ! v ",
"T N N N N n V N N N 2 T N N N N b 4 , p N n B N N M p ; n N N N b c V H N N z > n > b p p N N N N 5 ",
"V N N N N z B n N m s T N N n N z N N n n n N N n M 4 % m N N N n z N N N N z R n m b n 6 N N N N 5 ",
"N N N N N z V 4.V 4.n T N N N N b N N N N b B b ! p   : n m T V n b N V N T z R I W A V p m N H N v ",
"T N N V N 5 z b v m : V N N V N N V N B V c 5 7 6 > O ; v m E V n N N T N E z z z z 6 + 4 7 V H N 8 ",
"R N N N N E / H V T 5 V N N N N V V N N N n d.F F F V 8 N m V N M N V E N H z g.B 6 % , n n N V N s ",
"T 5.V N V b L ! 9.V s B N N N N V K ^ M N m N 6.V w.N m V T V N m N I W M V b T 7.b , 4 V N N V N v ",
"R 0.V L N b R T N N 5 N N N n N N L _ V T m N / N V N 7 T E N N n c 5.Q W V b T / n n , n B V T N 5 ",
"N n n n m 8 N N N N s V N N v N z m n n n b z N b b N n V T N N c z m n b n 8 N M N n s N V J F H 5 ",
"` N n N m 5 N N V V s V N N v N Q E m c v o x N 4 v N b V B m N n E N n c 6   V N z N m V N H V N 7 ",
"T M N N m m V N m N v J N N b N V V N N b . N N , p N N V N n m m N M N N 8   T m p a n T N T N N v ",
"V ~ V n ! m V N N N 5 H N N N N n V W N n , V N n m N c V N N N n b ! V N s , T N n n n F N N N N 7 ",
"T N N N N x V N N V v T N N N N V V N N N n V N N N N N V N N N m V N N N N z R N V N m T N N N N v "
};
