/* XPM */
static char *e65ab656250d46c8cbe52cadce960e12DpykYJx65BGMVB7t[] = {
/* columns rows colors chars-per-pixel */
"50 50 173 2 ",
"   c #020101",
".  c #090605",
"X  c #0E0907",
"o  c #0E0908",
"O  c #140E0C",
"+  c #1B120A",
"@  c #1D1513",
"#  c #21170D",
"$  c #25190E",
"%  c #241A15",
"&  c #2A1E14",
"*  c #251C19",
"=  c #291F1B",
"-  c #2E2114",
";  c #2D221C",
":  c #332416",
">  c #3B2D14",
",  c #33261B",
"<  c #36281D",
"1  c #3B2B1D",
"2  c #3D3015",
"3  c #2F2421",
"4  c #312621",
"5  c #362921",
"6  c #3D2D22",
"7  c #402E1D",
"8  c #44311D",
"9  c #4A351E",
"0  c #4E3D1F",
"q  c #533F1C",
"w  c #402F22",
"e  c #453323",
"r  c #4A3624",
"t  c #4E3925",
"y  c #4C3A2B",
"u  c #523C27",
"i  c #583F24",
"p  c #553E28",
"a  c #4C3D33",
"s  c #4C3F38",
"d  c #513F32",
"f  c #574518",
"g  c #56411F",
"h  c #5B491D",
"j  c #695609",
"k  c #735F0B",
"l  c #624E1C",
"z  c #655016",
"x  c #6E5917",
"c  c #65501E",
"v  c #69551C",
"b  c #6F591B",
"n  c #705B16",
"m  c #725D1B",
"M  c #7C650E",
"N  c #776113",
"B  c #7C6514",
"V  c #7C641D",
"C  c #564125",
"Z  c #5B4226",
"A  c #5F4A23",
"S  c #56412A",
"D  c #5B4229",
"F  c #5D492B",
"G  c #564332",
"H  c #5D4632",
"J  c #5E4835",
"K  c #554539",
"L  c #57483F",
"P  c #5C493B",
"I  c #624B24",
"U  c #61462A",
"Y  c #64492B",
"T  c #64492C",
"R  c #694D2B",
"E  c #645021",
"W  c #6C5423",
"Q  c #735B21",
"!  c #7A5F2E",
"~  c #624B34",
"^  c #634D3A",
"/  c #6D5434",
"(  c #67523E",
")  c #6A533C",
"_  c #715735",
"`  c #735A37",
"'  c #795E39",
"]  c #7A6221",
"[  c #7D623C",
"{  c #524640",
"}  c #5B4C43",
"|  c #634F41",
" . c #655344",
".. c #63544A",
"X. c #66584F",
"o. c #6E5B4B",
"O. c #775E40",
"+. c #755E48",
"@. c #665951",
"#. c #6C625C",
"$. c #706156",
"%. c #706158",
"&. c #846B1D",
"*. c #8C721A",
"=. c #9A7F16",
"-. c #91761C",
";. c #957A1A",
":. c #997D1A",
">. c #806722",
",. c #836922",
"<. c #8C742C",
"1. c #927922",
"2. c #82653E",
"3. c #977D30",
"4. c #826640",
"5. c #876A41",
"6. c #896C44",
"7. c #8F7143",
"8. c #987A48",
"9. c #927552",
"0. c #967953",
"q. c #907962",
"w. c #937F69",
"e. c #9E8305",
"r. c #9D8115",
"t. c #9E811C",
"y. c #A1850F",
"u. c #AA8C0F",
"i. c #AE900E",
"p. c #BA9B07",
"a. c #B3940D",
"s. c #BC9C0E",
"d. c #A38616",
"f. c #A68916",
"g. c #AB8D13",
"h. c #A4861A",
"j. c #AB8D19",
"k. c #AF9013",
"l. c #AE901F",
"z. c #B59613",
"x. c #B79811",
"c. c #BD9C13",
"v. c #BC9B1A",
"b. c #A38621",
"n. c #A08329",
"m. c #C19F12",
"M. c #C5A407",
"N. c #C4A30D",
"B. c #C9A70C",
"V. c #CCAA0C",
"C. c #D1AE0B",
"Z. c #D6B306",
"A. c #DAB606",
"S. c #DFBA07",
"D. c #D6B20B",
"F. c #DAB60A",
"G. c #DEB90A",
"H. c #C2A115",
"J. c #D1AE13",
"K. c #D2AE1A",
"L. c #D8B414",
"P. c #E2BC06",
"I. c #E2BC0A",
"U. c #C7A72D",
"Y. c #E6C006",
"T. c #ECC406",
"R. c #E6C009",
"E. c #EBC40A",
"W. c #F3CB07",
"Q. c #F8CF07",
"!. c #F5CC08",
"~. c #FCD207",
"^. c #FFD907",
/* pixels */
"O 4 t u u e t e e u w i ..u t K , % 5 u u t e t 7 t u u } J u y u p u u u u e Y u u u t D } p u s e ",
"  ; r u u 6 % * , r : w t e e u + X 5 t u t < @ @ 6 u = t r r r 7 9 u u u u r Y u u u r 1 t e e u & ",
"  @ e u u = O 5 t u < 2.i U U p *   , t u r O * 6 u u ` _ p D U r t u u r u e D u u r t 5.i D F U , ",
"O 4 D p u & O ; 6 u w e o.u a p < O e p u t o % = e u r | | t K u t u u e t e U u u D y D ..p t H w ",
"e Z Z t u # ; , , w , w p u G S w 7 Y p u r . w @ w e = t u u J t e u u e u e D u u u r Z p u u D 6 ",
"U p p u u : e 1 , 6 % e u u p u 9 p p u u r : r , 6 6 % t u u u r t u u p p e Y u u u r Z u u t u : ",
"u u p p p 7 p y u a , e u u u u 7 u u u u 9 t u y t a = t u u u r 1 u u r u 7 Y e p y y D u u u u < ",
"p u D D Z 1 p J p S & , t p D u t u p p U t 9 u H t p = 6 u p p t r u u p u 7 U H S p G D p u p u w ",
"Y p U p U 8 u i > f   1 1 I &.*.i I D S Z i p r 1 : @ % : e U u r u u u Z u 7 T r t u 1 t u u p u 6 ",
"Y p Z u C D ] c.V.M.k.C z.m.F.S.s.;.W C p u ' p w * * e p u u u t u u u u u e 6.D D D t p u u r u w ",
"D w.D P p 9 L.v.f.N P.G.N.*.I t k.H.8.y J r u 0.u 3 = 7 p p p p r t #.2.{ D e U 0. .~ r u u u u u < ",
"Y D u p i -.B.g u 6 N G.x.I R u t H.H.D p t t u t u 4 6 u D p U 9 t D u p u e D u u u r r u u r u : ",
"7 w w 7 w M C.A t t h r.,.u S u : r.B.1 1 1 7 u u t t r p U u p r & e w 1 e & p u u u t p u u e u : ",
"8.Y D p + j P.f.> C < Q I D u u [ h.k.I r   9 u : 1 u 9 p p D u t [ U D Y U e S u u D t u u u e u < ",
"U K u t * 1 &.Z.V.b v s.A.&.l Q -.V.b.u r O u u 4 5 u t p i u u t u s p u a u T u r t t D u u r u w ",
"D F u u e e I V.S.f.< J.T.S.D.G.p.l.S u t w p u u u u t D u u u r r D u u D e T u u u t D u u u u 1 ",
"T u u u u e j.s.m p 6 l V.Q.Z.B.8 p u u u r p u u u u u u u u t t u u u u u w Y u u u t D t u u r w ",
"U u 6 t u e z.j.Z u 6 u U.P.Q.Q.D.V W u u t p u u u u t X. .u y H u u e r u r T u u u t p @.D t } r ",
"S u , r u C C.:.u u : S u.a.z.Q.W.A.s.u u t i u u u u 9 t 8 t e : 7 u 6 r u r T u u t e S 9 w r t + ",
"T r @ e u 7 f.z.I 6 = ! l.=.&.s.W.~.N.I t r r u u u u ~ ( H D S t u u @ 4 u w D u u r 4 ` P D D p 6 ",
"p r % 6 u e ;.B.*.&.n r.J.1.a m Y.E.T.x.] r u u u p u u  .^ t P u r u % ; u e Y u t r 5 w ..p t J 6 ",
"D t 4 r u 7 p h.s.V.Z.a.t.u p u c r J.!.N.&.u u u u u 9 S u u D r t u 5 6 u e D u u t 4 , u u p i 1 ",
"S t e r u 9 C u W t j e u u u u 9 u r c.Q.V.-.u u u u u S u t t r 7 u e w u e Y u u r = , u u u u : ",
"u u p t u 7 p L r *   e u S u u e u u r f.~.Z.:.~ r } u D u u u t e u u t u 7 Y s a 3   4 u p p u 6 ",
"D p u p u 1 u r < o O 4 r D D u u p u p u *.!.P.f.I D t i u p p t t u u Z u 7 D r 6 @ . 3 w i Y u 6 ",
"T u u u u t Z 7 8 t + r r D u u u S u u u e ] W.T.g.l , u u u p t t u u u u 7 ` 8 8 t , 1 t u p u 1 ",
"T t u t u r u G } p e D u D u u p p u u t t u y I.W.z.V i u t t t u t u t u e U K } J t D u p p u w ",
"U q.G ^ p e / / H u , u Y D u u t J 9.a ~ r p 5.e K.Q.s.,.u u u r t $.' P p e Y 6.H S r t D Y u u : ",
"Z p u u u 7 u r e t 1 u R u u u 9 S u C u r r u u r c.~.V.-.t t r 9 u u p u e S t e r t r U D u u : ",
"' t r 9 ; & u e < u 1 p D u r u T T r r u 7 1 p u C r f.~.D.:.p r F u r 9 < + p t ; t t u p D r u : ",
"' p p u # : p < = t 6 D u u 1 u ~ ~ C p p t p u u t u e ;.!.P.d.A ~ p p Z ,   D e * e t D u u w u 6 ",
"Z | p t = 1 Z w e r < D u u t u u p ~ u d P i u u t u 9 u &.E.E.g.v } D u < @ T t 6 e r Z u u t u 6 ",
"U p u u u e p u u u 6 U u u u u u i u u u u p u u u u u p t m I.W.z.] u u t e U u u u t D u u u u 6 ",
"Y u u u u e i u u u w i P u t d p p u t u t i u u u u u P G u E J.~.c.V u u e S t r t t D K p u a e ",
"T u u u u t p u u u 5 t o.u t ^ i u t 5 u t p u u u u w  .^ u p A p.~.B.*.u 8 9 % % e r t  .p u ^ 1 ",
"D u u u u t i u u t - 2.i D i u 9 p w 5 u t p u u t t ` / Z D D N j e.Q.D.;.0 X 3 e u r 5.p D D D $ ",
"Y u u e u e u u i p w u %.u t u u p < @ e t t u u t 4 y @.| u g p.p.k a.~.D.=.7 3 5 S t Z @.D t t w ",
"u u u e u w p u p u 5 U p p K D e u e 3 r t t u u e e = t p &.n.T.W.F.F.A.Q.R.e.h , 6 e , p u y ^ w ",
"T u u u u t i u u u : D u u u u i p 5 5 u t p u u u 4 % t ,.C.~.W.^.~.~.W.M.I.W.z.> e , 5 u u u u : ",
"u u u u u 7 p r p t w D u p r u 7 u u t e r i u t e = % D u.W.F.a.R.~.~.!.s.B L.S.B V r , u u u u , ",
"u u u u u 7 u | p } r U u u u u e u u u u r q e ^ 4   * r >.x.*.I I.Q.~.~.G.y.&.1.!.z.F , t u S u 6 ",
"F u u p u : 7 r w r = i u u p u u i u p p r : , , * O % w t R t s.I.C.C.~.W.N.z n g.i.O ; , p D u 1 ",
"T u u u u Y _ D D U , p u u t u p p u u u r 4.Z U i p 1 u t p D k.a.I H.W.m.x 7.Z 2 & = r t u p u 6 ",
"U  .p p u r J ^ X.i 6 i u u u u p G ) t u r p o.p %.u t p U p u t A <.P.~.d.e D +.e = ; Z u u p u 6 ",
"T +.p ~ u r T U u u : u u u t u u F O.p D t u _ u p u < U T u u r 0 3.A.c.W e U ) t e ; e u p U p : ",
"t t t r r 1 t u u u 6 p u u w u 7 t e t t r w u e e u e i T p u 9 1 t V l t 1 p t u r 6 u Z D D D : ",
"' u r t t , u u p p 6 p u u w u R ~ t t 1 O 7 u = 7 u t p p t t t ~ u r t ;   p u 1 p t p p D p u , ",
"T t u u y t i u t u w D u u e u p u u u r   i u = 5 u t p t t t t u r u u 1   Y r < 5 t Z p D u u w ",
"p ) u t ^ t i u u u : U u u u u e d ~ u e 3 p u e t p 9 i u u u r e ^ p u 6 = U t r t r D u u u u 1 ",
"T u u u u 7 i u p p 6 D u u u u p i u p u r u u u u u u i u p u t p u u u u 9 Y u t u t D u u u u 6 "
};
