/* XPM */
static char * key_xpm[] = {
"50 50 390 2",
"  	c #352925",
". 	c #322624",
"+ 	c #2D2322",
"@ 	c #2C211E",
"# 	c #32241E",
"$ 	c #291E1C",
"% 	c #3A2622",
"& 	c #3A3027",
"* 	c #3F342E",
"= 	c #1D1312",
"- 	c #392E2A",
"; 	c #38302E",
"> 	c #3D322C",
", 	c #3A2B25",
"' 	c #3B302A",
") 	c #392D29",
"! 	c #362B29",
"~ 	c #3E332D",
"{ 	c #4C413D",
"] 	c #48403E",
"^ 	c #383232",
"/ 	c #312728",
"( 	c #413632",
"_ 	c #524743",
": 	c #3F3430",
"< 	c #463B35",
"[ 	c #39261F",
"} 	c #3A2C2B",
"| 	c #3D2D2D",
"1 	c #382C2E",
"2 	c #412D26",
"3 	c #3B2D2C",
"4 	c #40322F",
"5 	c #1A110F",
"6 	c #3A2C2C",
"7 	c #251B1A",
"8 	c #433A3A",
"9 	c #3A3132",
"0 	c #362320",
"a 	c #231512",
"b 	c #080506",
"c 	c #020203",
"d 	c #000101",
"e 	c #030304",
"f 	c #040405",
"g 	c #030405",
"h 	c #030305",
"i 	c #010202",
"j 	c #1F1715",
"k 	c #2F2526",
"l 	c #1D1617",
"m 	c #0E1015",
"n 	c #202531",
"o 	c #1B1F29",
"p 	c #07080A",
"q 	c #2B2F40",
"r 	c #35394D",
"s 	c #34394D",
"t 	c #33384C",
"u 	c #2E3445",
"v 	c #14171E",
"w 	c #211917",
"x 	c #2D1D1A",
"y 	c #0B0B0E",
"z 	c #31384A",
"A 	c #333B4E",
"B 	c #232936",
"C 	c #090A0E",
"D 	c #393F55",
"E 	c #464C66",
"F 	c #454B65",
"G 	c #444A64",
"H 	c #3C445B",
"I 	c #1B1E28",
"J 	c #1F1714",
"K 	c #272121",
"L 	c #382E2D",
"M 	c #211A18",
"N 	c #181B23",
"O 	c #3A4257",
"P 	c #323A4C",
"Q 	c #232835",
"R 	c #090A0D",
"S 	c #393E53",
"T 	c #434963",
"U 	c #3C4359",
"V 	c #1A1E28",
"W 	c #1C1516",
"X 	c #1D1513",
"Y 	c #444B65",
"Z 	c #211B1A",
"` 	c #3A2E30",
" .	c #382C2C",
"..	c #291F21",
"+.	c #171011",
"@.	c #32394C",
"#.	c #242A38",
"$.	c #0F1117",
"%.	c #3B4057",
"&.	c #373C52",
"*.	c #3D4259",
"=.	c #171115",
"-.	c #150C0C",
";.	c #1A0E0D",
">.	c #110806",
",.	c #31394B",
"'.	c #2A3140",
").	c #32384A",
"!.	c #444A65",
"~.	c #3D425A",
"{.	c #0F1016",
"].	c #131416",
"^.	c #18191B",
"/.	c #111113",
"(.	c #15171F",
"_.	c #414760",
":.	c #130C09",
"<.	c #241915",
"[.	c #211614",
"}.	c #1E181A",
"|.	c #110907",
"1.	c #0E0A0C",
"2.	c #262D3B",
"3.	c #1B1E29",
"4.	c #3E445B",
"5.	c #3A4056",
"6.	c #111215",
"7.	c #959494",
"8.	c #C4C4C3",
"9.	c #7D7D7C",
"0.	c #0F1116",
"a.	c #40465E",
"b.	c #0D0505",
"c.	c #180F13",
"d.	c #160E12",
"e.	c #3C3636",
"f.	c #08090C",
"g.	c #141517",
"h.	c #B5B5B5",
"i.	c #EFEFEF",
"j.	c #989898",
"k.	c #101117",
"l.	c #40465F",
"m.	c #1F1817",
"n.	c #2D2629",
"o.	c #383435",
"p.	c #2F292D",
"q.	c #171518",
"r.	c #4B4140",
"s.	c #221A1B",
"t.	c #424760",
"u.	c #41465F",
"v.	c #373C51",
"w.	c #B3B3B3",
"x.	c #ECECEC",
"y.	c #979796",
"z.	c #0F1015",
"A.	c #3C4259",
"B.	c #424861",
"C.	c #3B2F31",
"D.	c #3D3230",
"E.	c #412E2A",
"F.	c #221919",
"G.	c #40455E",
"H.	c #181A23",
"I.	c #0D0E13",
"J.	c #121313",
"K.	c #B8B8B8",
"L.	c #9C9C9C",
"M.	c #09090A",
"N.	c #1E212C",
"O.	c #434862",
"P.	c #281F1D",
"Q.	c #413131",
"R.	c #3D2F2F",
"S.	c #4E4546",
"T.	c #43322D",
"U.	c #271A17",
"V.	c #0E0F12",
"W.	c #717170",
"X.	c #999999",
"Y.	c #969696",
"Z.	c #A2A2A2",
"`.	c #DBDBDB",
" +	c #E7E7E7",
".+	c #D4D4D4",
"++	c #9D9D9C",
"@+	c #5D5D5C",
"#+	c #281D19",
"$+	c #221512",
"%+	c #3C4159",
"&+	c #121316",
"*+	c #B1B1B1",
"=+	c #EBEBEB",
"-+	c #E6E6E6",
";+	c #E5E5E5",
">+	c #F0F0F0",
",+	c #939392",
"'+	c #101218",
")+	c #211510",
"!+	c #0F1013",
"~+	c #868686",
"{+	c #B2B2B2",
"]+	c #BBBBBB",
"^+	c #E0E0E0",
"/+	c #B7B7B7",
"(+	c #B6B6B6",
"_+	c #6F6F6E",
":+	c #1A1E27",
"<+	c #211410",
"[+	c #241919",
"}+	c #3F445C",
"|+	c #12141B",
"1+	c #101113",
"2+	c #141417",
"3+	c #1C1D1D",
"4+	c #121213",
"5+	c #131316",
"6+	c #0E0F11",
"7+	c #191B24",
"8+	c #212632",
"9+	c #2F221F",
"0+	c #453939",
"a+	c #3E435B",
"b+	c #3B4056",
"c+	c #32364A",
"d+	c #121215",
"e+	c #3F455D",
"f+	c #3B4359",
"g+	c #373D50",
"h+	c #3D3534",
"i+	c #3E302F",
"j+	c #443635",
"k+	c #454B66",
"l+	c #131417",
"m+	c #2C2422",
"n+	c #453F41",
"o+	c #3B2D2D",
"p+	c #191A1D",
"q+	c #3C435A",
"r+	c #1A1D27",
"s+	c #241C18",
"t+	c #403531",
"u+	c #443937",
"v+	c #392D2F",
"w+	c #271C1C",
"x+	c #404660",
"y+	c #6E717D",
"z+	c #DDDDDC",
"A+	c #EAEAEA",
"B+	c #211A19",
"C+	c #201718",
"D+	c #140D0D",
"E+	c #3F455E",
"F+	c #595B65",
"G+	c #090505",
"H+	c #B4B4B4",
"I+	c #191312",
"J+	c #292120",
"K+	c #423735",
"L+	c #241D19",
"M+	c #423431",
"N+	c #453836",
"O+	c #483A37",
"P+	c #433532",
"Q+	c #251B1B",
"R+	c #B6B6B5",
"S+	c #999998",
"T+	c #211A17",
"U+	c #3B2D2B",
"V+	c #3C2F29",
"W+	c #221B15",
"X+	c #111114",
"Y+	c #90908F",
"Z+	c #BDBDBD",
"`+	c #797978",
" @	c #1D130F",
".@	c #231B17",
"+@	c #3D435A",
"@@	c #121214",
"#@	c #161619",
"$@	c #0F1012",
"%@	c #161820",
"&@	c #211919",
"*@	c #444A63",
"=@	c #393E55",
"-@	c #221C1D",
";@	c #3F3534",
">@	c #170F0E",
",@	c #241D1B",
"'@	c #393E54",
")@	c #434A63",
"!@	c #3C445A",
"~@	c #251E1B",
"{@	c #3A4358",
"]@	c #212633",
"^@	c #08090D",
"/@	c #363A4F",
"(@	c #394055",
"_@	c #191C26",
":@	c #221814",
"<@	c #392F32",
"[@	c #1C1619",
"}@	c #110A09",
"|@	c #171A23",
"1@	c #202532",
"2@	c #0D0F15",
"3@	c #030404",
"4@	c #0E0F13",
"5@	c #101217",
"6@	c #0D0F14",
"7@	c #060709",
"8@	c #251D20",
"9@	c #020305",
"0@	c #292722",
"a@	c #857F6B",
"b@	c #A59E85",
"c@	c #A69F86",
"d@	c #A59F86",
"e@	c #A6A086",
"f@	c #A29B83",
"g@	c #2E2C25",
"h@	c #0D1016",
"i@	c #1E1D19",
"j@	c #C9C1A3",
"k@	c #FFF9D3",
"l@	c #FFFAD3",
"m@	c #F6EDC8",
"n@	c #847F6B",
"o@	c #666252",
"p@	c #676354",
"q@	c #656152",
"r@	c #1D1C17",
"s@	c #181C26",
"t@	c #151820",
"u@	c #635F4F",
"v@	c #FFF6D0",
"w@	c #FFF5CF",
"x@	c #F4EAC6",
"y@	c #8D8872",
"z@	c #716D5C",
"A@	c #736E5D",
"B@	c #706B5B",
"C@	c #201F1A",
"D@	c #171C25",
"E@	c #261C1C",
"F@	c #696142",
"G@	c #FFF3BC",
"H@	c #FFF5CE",
"I@	c #FFF5D0",
"J@	c #F8EEC9",
"K@	c #B0A990",
"L@	c #9A947E",
"M@	c #9B957F",
"N@	c #9C967F",
"O@	c #98927C",
"P@	c #2C2A23",
"Q@	c #171B25",
"R@	c #352723",
"S@	c #2B2615",
"T@	c #DBC675",
"U@	c #FFF09C",
"V@	c #FFEFA2",
"W@	c #FFF0A3",
"X@	c #F2DF97",
"Y@	c #655C38",
"Z@	c #413B21",
"`@	c #433D22",
" #	c #423B21",
".#	c #131109",
"+#	c #191D27",
"@#	c #3F2C28",
"##	c #241A17",
"$#	c #3D371F",
"%#	c #A59553",
"&#	c #C3B062",
"*#	c #BDAB60",
"=#	c #BAA85F",
"-#	c #B6A45D",
";#	c #342F1A",
">#	c #10141C",
",#	c #3F2F2A",
"'#	c #291E1A",
")#	c #100B08",
"!#	c #0D0C07",
"~#	c #0E0C07",
"{#	c #040302",
"]#	c #010102",
"^#	c #2B1F1C",
"/#	c #3C3539",
"  . + @ @ # + # # # # + # # # . # $ + % . @ @ & .   * = * - &   & & & & & & & & & - & ; & & > ; , , ",
"' - )   ,   ! ! . . . # # . % . . $ $ . . # ~ { @ @ & @ ] &   &   # # & &   & # ^ - ' - ^ & ; > ' ' ",
"- ) ) ) )   ! ! % % % / / / % % %       . . ( _   @ . = :   ) < & & & & & & & &     / & &   ! ; - & ",
"            % [ / } | 1 2 % | /     - 3   . - 4 & . . 5 ~   > ] @ # @ @ @ @ @ @ . . . . .   /     . ",
"/         /     % 6 6 1 6 6 % 1     ! ! -   / / . / ( 7 8 9 > > * * * ~ ~ ~ > ~ . .     /           ",
"+ . + / +   .   . / % 0 a b c d e f g g g g g g g g g g g g g g g g g f g h i j   &   ; ! ;   ;     ",
"@ + + @ @ + . . 1 / k l m n o p q r s s s s s s s s s s s s s s s s s s t u v w -             / . / ",
"+ + @ + + . / / % / x y z A B C D E F F F F F F F F F F F F F F F F F F G H I J . . / . + + + + @ @ ",
"  K   K / ^ @ L ! ! M N O P Q R S F G G G G G G G G G G G G G G G G G G T U V W + . . . . / . / + K ",
"@ $ / + . / $ / . + X V O P Q R S F G G G G G G G F F F F Y G G G G G G T U V Z ` 6  .6 ` ` /  .; ; ",
"@ +   K + . $ + + ..+.V O @.#.$.%.F G G G G G G T %.&.&.&.*.G G G G G G T U V X !   1 / . . . . K @ ",
"=.= = -.= = -.5 ;.;.>.V O ,.'.).T G G G G G G !.~.{.].^./.(._.G G G G G T U V :.<.<.[.[.= [.= [.}.}.",
"= = |.-.}.}.= 5 [.[.1.V O @.2.3.4.!.G G G G G F 5.6.7.8.9.0.a.G G G G G T U V b.c.= [.c.c.[.= c.d.-.",
"  + = . e.& ; - 6 6 J V O P Q f.S F G G G G G F 5.g.h.i.j.k.l.Y G G G G T U V m.+ + ... n.. / . o.p.",
"p.@ q.^ r.^ ^ ^ `  .s.V O P Q R S F G G G t.a.u.v.].w.x.y.z.A.a.a.B.G G T U V J C.D.E.C.D.C.D.D.] o.",
"@ @ = e.{ / +    . .F.V O P Q R S F G G G.H.z.k.I.J.K.x.L.M.z.k.m N.O.G T U V P.Q.Q.C.Q.R.R.R.' S.o.",
"@ }.<.- % + T.} Q.| U.V O P Q R S F G Y A.V.W.X.Y.Z.`. +.+++y.X.@+k._.G T U V #+T.T.2 2 2 & % # @ $ ",
"& @ <.&   # - [ % # $+V O P Q R S F G Y %+&+*+i.x.=+-+;+ +x.x.>+,+'+_.G T U V )+T.T.T.2 2 T.T.2 : R.",
"  @ 5 @ . @ / $ # # $+V O P Q R S F G Y A.!+~+h.{+]+^+-+`./+{+(+_+k._.G T U :+<+[ & 2 2 % E., ,   / ",
"# @ <.  : & T.R.| % [+V O P Q R S F G !.}+|+1+2+6.3+]+=+Z.4+5+2+6+7+B.G T U 8+9+T.T.2 2 E.& 2 3 . + ",
"@ @ }.* 0+R.D.Q.| | F.V O P Q R S F G G G a+b+%.c+d+w.x.Y.I.v.%.b+e+G G T f+g+h+< T.( T.T.' i+T.> / ",
"@ }.q.& j+. +   6 6 W V O P Q R S F G G G !.F k+%.l+w.x.y.k.u.F F G G G T U Q m+E.& L > 3 - i+:  .+ ",
"p.K <.; n+o++ 1 1 1 F.V O P Q R S F G G G G G F %.p+/+x.y.k.a.G G G G G T q+r+s+t+~ : : D.i+D.u+! . ",
"  @ -.  n+1 / 1 Q.v+w+V O P Q R S F G G G G G G x+y+z+A+y.k.a.G G G G G T U V B+> & / )   + / ) p.+ ",
"-.q.= }.<.7 7 @ <.C+D+V O P Q R S F G G G G G G E+F+.+A+y.k.a.G G G G G T U V G+-.= ;.= ;.= 5 = = = ",
"@ @ $ 7 7 @ @ @ . / X V O P Q R S F G G G G G F 5.l+H+x.y.k.a.G G G G G T U V I+  + + + + @ K @ @ @ ",
"~ ~ & ) )  . .^ L - B+V O P Q R S F G G G G G F 5.2+w.x.y.k.a.G G G G G T U V J+8 K+u+K+K+: ( i+~ : ",
"& ^ ; ; L 9 D.: R.9 L+V O P Q R S F G G G G G F 5.2+w.x.y.k.a.G G G G G T U V W   ! ! ! - L - 3 9 > ",
"E.3 E.T.T.( M+M+Q.T.w+V O P Q R S F G G G G G F 5.2+w.x.y.k.a.G G G G G T U V J + # % .   ! 3 3 T.' ",
"N+j+O+j+N+j+j+P+T.T.Q+V O P Q R S F G G G G G F 5.g.R+i.S+k.a.G G G G G T U V T+} ! } - i+' T.T.P+( ",
"E.T.2 U+, 2 2 , V+, W+V O P Q R S F G G G G G F 5.X+Y+Z+`+{.a.G G G G G T U V  @  % % % , , , ! E.2 ",
"E.3 ! % % ! , , ! , .@V O P Q R S F G G G G G !.+@'+@@#@$@%@_.G G G G G T U V .@&   ) ' 3 ' T.T.E.E.",
"!   , i+' ! ! 3 , - &@V O P Q R S F G G G G G G *@*.=@=@D a+G G G G G G T U V Q+- - L - L - - } U+2 ",
"T.' - i+i+- 3 '   ) w V O P Q R S F G G G G G G G Y F F F !.G G G G G G T U V -@: : ;@: ( ( D.Q.T.Q.",
". @ @ $ @ @ . @ . + J V O P Q R S F G G G G G G G G G G G G G G G G G G T U V >@+ + + + . + / . . + ",
".     #   ) - ! D.D.,@V O P B R '@F G G G G G G G G G G G G G G G G G G )@!@V ~@) ! ) ! ) ! ! ) ! / ",
"  - i+> ; > i+>   , T+I {@z ]@^@/@_.l.l.l.l.l.l.l.l.l.l.l.l.l.l.l.l.l.l.a.(@_@:@~ T.T.3 - ' > > <@<@",
"}.<.<.@ 7 [@<.<.[.[.}@|@1@2@R 3@4@5@5@5@5@5@5@5@5@5@5@5@5@5@5@5@5@5@5@5@{.6@7@>.7 <.<.<.[.<.<.7 $ 8@",
"@ = 5 7 @ 7 <.$ @ @  @9@0@a@b@c@d@e@c@c@c@c@c@c@c@c@c@c@c@c@c@c@c@c@c@f@g@h@6@m.<.<.[.[.<.<.7 $ $ $ ",
") 7 <.  ( i+3 Q.4 4 P.i@j@k@k@l@m@n@o@p@p@p@p@p@p@p@p@p@p@p@p@p@p@p@p@q@r@s@t@m., ! % ! , 3 ' i+i+i+",
"+ $ = ....% n+% ! % m.u@v@w@w@v@x@y@z@A@A@A@A@A@A@A@A@A@A@A@A@A@A@A@A@B@C@D@t@J , % , %     & , j+P+",
"Q.+ 7 . / / j+/ 3 T.E@F@G@H@w@I@J@K@L@M@M@M@M@M@M@M@M@M@M@M@M@M@M@M@N@O@P@Q@t@#+T.> 4 ' > T.t+t+T.T.",
"j+/ 7 1 Q.` Q.1 T.T.R@S@T@U@V@W@X@Y@Z@`@`@`@`@`@`@`@`@`@`@`@`@`@`@`@`@ #.#+#t@W+' E.T.T.T.T.T.E.j+T.",
"` ..[.+ Q.Q.1 Q.' T.@###$#%#&#&#&#*#=#=#=#=#=#=#=#=#=#=#=#=#=#=#=#=#=#-#;#>#'+#+V+3 & T.' T.' & ' 3 ",
"/ 8@[.7 v+j+Q.Q.T.Q.T.,#'#)#!#!#!#~#~#~#~#~#~#~#~#~#~#~#~#~#~#~#~#~#~#!#{#]#]#^#T.T.T.( T.4 T.4     ",
"/ C+7 7 / Q.v+E.E.E.E.E.2 E.2 2 , V+! % E.2 T.T.T.T.T.O+T.T.T.T.T.T.4 T., & , , , , & , , , , , ) ) ",
"v+= 8@..+ Q.E.E.E.E.E.E.2 2 2 2 , ! [ . 2 2 E.T.T.T.2 2 T.2 T.E.E.& V+, , [ [ [ [ [ # # # # # # e.e.",
"j+d.C+/ ..% 6 Q.Q.Q.T.T.T.T.T.2 '   % % , , E.T.2 2 T.T.T.T.T.M+T.T.T.T.* * * T.t+> T.T.& ' > > ] /#",
"8@8@8@n.1 ` 6 6 U+E.U+E.Q.Q.Q.Q.o+} , - - - ) ) - ; ; > > > L > * ~ > > ; > > ^ ~ ~ ~ : : ~ > ; ! p.",
"q.=.[@8@../ + . + + + # . / / / / . . . . + . + + + + + + + n.+ 7 @ 7 <.<.7 7 7 7 @ 7 7 @ 7 7 <.7 }."};
