/* XPM */
static char * lose_xpm[] = {
"50 50 264 2",
"  	c #352925",
". 	c #322624",
"+ 	c #2D2322",
"@ 	c #2C211E",
"# 	c #32241E",
"$ 	c #291E1C",
"% 	c #2D1C19",
"& 	c #0E0404",
"* 	c #080000",
"= 	c #0F0605",
"- 	c #2D241D",
"; 	c #3A3027",
"> 	c #392E2A",
", 	c #38302E",
"' 	c #3D322C",
") 	c #3A2B25",
"! 	c #3B302A",
"~ 	c #392D29",
"{ 	c #362B29",
"] 	c #3A2622",
"^ 	c #2D2220",
"/ 	c #1E1412",
"( 	c #1D1312",
"_ 	c #1C1211",
": 	c #0B0202",
"< 	c #0C0302",
"[ 	c #1E1411",
"} 	c #29211A",
"| 	c #271C19",
"1 	c #2D201A",
"2 	c #383232",
"3 	c #312728",
"4 	c #392622",
"5 	c #36231F",
"6 	c #291916",
"7 	c #0F0504",
"8 	c #0A0101",
"9 	c #5A5454",
"0 	c #100604",
"a 	c #29201A",
"b 	c #362D24",
"c 	c #392F27",
"d 	c #39261F",
"e 	c #3A2C2B",
"f 	c #3D2D2D",
"g 	c #382C2E",
"h 	c #412D26",
"i 	c #392A2A",
"j 	c #1F1717",
"k 	c #120806",
"l 	c #B4A9A8",
"m 	c #110605",
"n 	c #1C1210",
"o 	c #291F1C",
"p 	c #3A2C2C",
"q 	c #352727",
"r 	c #281815",
"s 	c #140A0B",
"t 	c #FFFFFF",
"u 	c #160D0B",
"v 	c #2B221D",
"w 	c #382E28",
"x 	c #3E332D",
"y 	c #22191A",
"z 	c #0F0506",
"A 	c #0F0604",
"B 	c #251B18",
"C 	c #2F2321",
"D 	c #34292B",
"E 	c #1F1617",
"F 	c #140706",
"G 	c #130A08",
"H 	c #251B19",
"I 	c #352A26",
"J 	c #34211E",
"K 	c #13090A",
"L 	c #120807",
"M 	c #281D1A",
"N 	c #302521",
"O 	c #272121",
"P 	c #382E2D",
"Q 	c #281F1D",
"R 	c #0E0504",
"S 	c #0D0404",
"T 	c #2A201F",
"U 	c #312524",
"V 	c #251A18",
"W 	c #130B0A",
"X 	c #251B1C",
"Y 	c #362929",
"Z 	c #382C2C",
"` 	c #3A2E30",
" .	c #2B2120",
"..	c #211819",
"+.	c #170D0E",
"@.	c #595353",
"#.	c #180F0E",
"$.	c #171115",
"%.	c #150C0C",
"&.	c #1A110F",
"*.	c #180C0B",
"=.	c #0E0403",
"-.	c #110705",
";.	c #211612",
">.	c #211614",
",.	c #1E181A",
"'.	c #110907",
").	c #1E1311",
"!.	c #100505",
"~.	c #0D0305",
"{.	c #1A100F",
"].	c #180F13",
"^.	c #160E12",
"/.	c #3C3636",
"(.	c #332925",
"_.	c #291D1D",
":.	c #150A0A",
"<.	c #110707",
"[.	c #201716",
"}.	c #251B1D",
"|.	c #2D2629",
"1.	c #383435",
"2.	c #2F292D",
"3.	c #171518",
"4.	c #4B4140",
"5.	c #292424",
"6.	c #100606",
"7.	c #090000",
"8.	c #100706",
"9.	c #30201D",
"0.	c #3B2F31",
"a.	c #3D3230",
"b.	c #48403E",
"c.	c #4C413D",
"d.	c #261B18",
"e.	c #2A2021",
"f.	c #403030",
"g.	c #3D2F2F",
"h.	c #4E4546",
"i.	c #241915",
"j.	c #43322D",
"k.	c #2A1E1D",
"l.	c #0C0303",
"m.	c #0D0302",
"n.	c #2F1F1A",
"o.	c #352B27",
"p.	c #271712",
"q.	c #0B0201",
"r.	c #0C0202",
"s.	c #2E201C",
"t.	c #3D2A23",
"u.	c #3F3430",
"v.	c #1A1212",
"w.	c #110706",
"x.	c #1A0D0A",
"y.	c #231511",
"z.	c #412E2A",
"A.	c #3B2D2C",
"B.	c #3F342E",
"C.	c #453939",
"D.	c #3E302F",
"E.	c #443635",
"F.	c #453F41",
"G.	c #3B2D2D",
"H.	c #443937",
"I.	c #251B1A",
"J.	c #1A0E0D",
"K.	c #423735",
"L.	c #413632",
"M.	c #3A3132",
"N.	c #453836",
"O.	c #483A37",
"P.	c #120808",
"Q.	c #433532",
"R.	c #3B2D2B",
"S.	c #33221C",
"T.	c #2A1D19",
"U.	c #090101",
"V.	c #170D0B",
"W.	c #201713",
"X.	c #2A1F1E",
"Y.	c #261D1C",
"Z.	c #3A2D2C",
"`.	c #2A211C",
" +	c #2D2524",
".+	c #413131",
"++	c #241917",
"@+	c #190F0E",
"#+	c #170D0D",
"$+	c #241B1A",
"%+	c #352A28",
"&+	c #342A28",
"*+	c #1B1211",
"=+	c #190F0D",
"-+	c #2E2422",
";+	c #382C28",
">+	c #312521",
",+	c #1B100D",
"'+	c #1D1511",
")+	c #3E2D29",
"!+	c #392F32",
"~+	c #1C1619",
"{+	c #251D20",
"]+	c #281E1B",
"^+	c #160C0B",
"/+	c #3E302D",
"(+	c #342825",
"_+	c #241A18",
":+	c #1D1413",
"<+	c #2F221D",
"[+	c #342927",
"}+	c #291F21",
"|+	c #2C2220",
"1+	c #1D1211",
"2+	c #0F0403",
"3+	c #0D0303",
"4+	c #1C110E",
"5+	c #2B201D",
"6+	c #3B2E2E",
"7+	c #392A26",
"8+	c #201512",
"9+	c #1C1310",
"0+	c #332823",
"a+	c #41312C",
"b+	c #40322F",
"c+	c #403531",
"d+	c #403330",
"e+	c #372824",
"f+	c #251815",
"g+	c #201714",
"h+	c #1F1210",
"i+	c #2F261F",
"j+	c #3C2F29",
"k+	c #392D2F",
"l+	c #382620",
"m+	c #211512",
"n+	c #3A2A26",
"o+	c #3E3330",
"p+	c #201718",
"q+	c #402C25",
"r+	c #35241E",
"s+	c #201411",
"t+	c #30221D",
"u+	c #1A0D09",
"v+	c #180D0B",
"w+	c #1D110F",
"x+	c #211411",
"y+	c #30261F",
"z+	c #392E28",
"A+	c #35221E",
"B+	c #2A1A16",
"C+	c #130806",
"D+	c #31231F",
"E+	c #3C2F2C",
"F+	c #3D2D29",
"G+	c #41302B",
"H+	c #3C3539",
"I+	c #342926",
"J+	c #2A201D",
"K+	c #28211F",
"L+	c #2C221E",
"M+	c #2B221E",
"N+	c #2D241F",
"O+	c #332928",
"  . + @ @ # + # # # # + # # # . # $ + % & * * * * * * * * = -   ; ; ; ; ; ; ; ; ; > ; , ; ; ' , ) ) ",
"! > ~   )   { { . . . # # . ] . ^ / ( _ : * * * * * * * * < [ } | 1 # ; ;   ; # 2 > ! > 2 ; , ' ! ! ",
"> ~ ~ ~ ~   { { ] ] ] 3 3 3 4 5 6 7 8 8 * 9 9 9 9 9 9 9 9 * 8 : 0 a b c ; ; ; ;     3 ; ;   { , > ; ",
"            ] d 3 e f g h ] i j k * * * 9 l l l l l l l l 9 * * * m n o @ @ @ @ . . . . .   3     . ",
"3         3     ] p p g p q r s * * 9 l l l t t t t t t l l l 9 * * u v w x ' x . .     3           ",
"+ . + 3 +   .   . 3 ] 4 5 y z * 9 9 l t t t t t t t t t t t t l 9 9 9 A B C . .   ;   , { ,   ,     ",
"@ + + @ @ + . . g 3 3 D E F * * l t t t t t t t t t t t t t t t t l l 9 G H I ~ >             3 . 3 ",
"+ + @ + + . 3 3 ] 3 J r K * * 9 l t t t t t t t t t t t t t t t t t l 9 * L M N . . 3 . + + + + @ @ ",
"  O   O 3 2 @ P { { Q R * * 9 l t t t t l t t t t t t t t l t t t t t 9 * * S y T U . . . 3 . 3 + O ",
"@ $ 3 + . 3 $ 3 . + V : * 9 l t t t t t t l l t t t t l l t t t t t t l 9 * * W X Y Z p ` ` 3 Z , , ",
"@ +   O + . $ +  ...+.@.9 l t t t t t t t l l t t t t l l t t t t t t t l 9 9 * #.N g 3 . . . . O @ ",
"$.( ( %.( ( %.&.*.=.* 9 l l t t t t t t t l 9 l t t l 9 l t t t t t t t l l 9 * -.;.>.>.( >.( >.,.,.",
"( ( '.%.,.,.( &.).!.* 9 l t t t t t t t t l 9 l t t l 9 l t t t t t t t t l 9 * ~.{.>.].].>.( ].^.%.",
"  + ( . /.; , (._.:.9 l l t t t t t t t t l l l t t l l l t t t t t t t t l l 9 <.[.}.. |.. 3 . 1.2.",
"2.@ 3.2 4.2 2 5.6.* 9 l t t t t t t t t t t l 9 l l 9 l t t t t t t t t t t l 9 7.8.9.0.a.0.a.a.b.1.",
"@ @ ( /.c.3 + d.8 * 9 l l l l l t t t t t t l 9 l l 9 l t t t t t t l l l l l 9 * : e.f.g.g.g.! h.1.",
"@ ,.i.> ] + j.k.l.* l l l l l l l l t t t l l 9 l l 9 l l t t t l l l l l l l l * m.n.h h ; ] # @ $ ",
"; @ i.;   # o.p.q.9 l t l * 9 9 9 9 l l l l l 9 l l 9 l l l l l 9 9 9 9 * l t l 9 r.s.t.h j.j.h u.g.",
"  @ &.@ . @ v.w.9 l l l 9 * * * * 9 9 9 9 9 9 9 l l 9 9 9 9 9 9 9 * * * * 9 l l l 9 x.y.] z.) )   3 ",
"# @ i.  u.; * * 9 l l 9 9 * * * * * * * 9 9 9 9 l l 9 9 9 9 * * * * * * * 9 9 l l 9 * * z.; h A.. + ",
"@ @ ,.B.C.g.* * 9 l l 9 * * * * * * * * * 9 9 l l l l 9 9 * * * * * * * * * 9 l l 9 * * j.! D.j.' 3 ",
"@ ,.3.; E.. * * 9 l l * * * * * * * * * 9 9 l t t t t l 9 9 * * * * * * * * * l l 9 * * A.> D.u.Z + ",
"2.O i., F.G.* * 9 l l * * * * * * * * * 9 l t t t t t t l 9 * * * * * * * * * l l 9 * * a.D.a.H.{ . ",
"  @ %.  F.g * * 9 l l * * * * * * * * * 9 t t t t t t t t 9 * * * * * * * * * l l 9 * *   + 3 ~ 2.+ ",
"%.3.( ,.i.I.* * 9 l l * * * * * * * * * 9 t t t t t t t t 9 * * * * * * * * * l l 9 * * J.( &.( ( ( ",
"@ @ $ I.I.@ * * 9 l 9 9 * * 9 l l l 9 9 9 l t t t l l t l 9 * 9 9 l l 9 * * 9 9 l 9 * * + @ O @ @ @ ",
"x x ; ~ ~ Z * * * 9 9 9 9 9 9 t t t l l 9 9 l l l 9 9 l l 9 9 9 l t t 9 9 9 9 9 9 * * * K.u.L.D.x u.",
"; 2 , , P M.* * * 9 9 9 l l t t t l l l l l l l l l l l l l l l l t t t l l 9 9 9 * * * > P > A.M.' ",
"z.A.z.j.j.L.* * 9 9 l l t t t t t l 9 l t t l l t t t l l t t t l l t t t t l l 9 9 * *   { A.A.j.! ",
"N.E.O.E.N.E.P.& 9 l l t t t t t l 9 * l t t l 9 l t t l l t t t 9 l l t t t t l l 9 * * D.! j.j.Q.L.",
"z.j.h R.) h S.;.8 9 l t t t t t l 9 * 9 l l l 9 l l l 9 9 l l l 9 9 l t t t t l 9 * * * ) ) ) { z.h ",
"z.A.{ ] ] { ) T.: * l t t t t l 9 * * * * * * * * * * * * * * * * * l t t t t l * U.V.W.A.! j.j.z.z.",
"{   ) D.! { { X.r.* 9 l t t t l 9 * * * * * * * * * * * * * * * * * l t t t l 9 * : Y.o.P > > e R.h ",
"j.! > D.D.> Z.`.U.* 9 l l l l 9 * * * * * * * * * * * * * * * * * * 9 l l l l 9 * 8  +u.L.L.a..+j..+",
". @ @ $ @ @ . ++@+l.9 9 9 9 9 9 9 * * * * * * * * * * * * * * * * * 9 9 9 9 9 9 l.#+$++ . + 3 . . + ",
".     #   ~ > %+&+*+* * 9 9 l l 9 * * * * * * * * * * * * * * * * * 9 l l 9 * * =+-+;+{ ~ { { ~ { 3 ",
"  > D.' , ' D.' >+,+* * 9 l l l l * * * * * * * * * * * * * * * * * 9 l l 9 * * '+)+j.A.> ! ' ' !+!+",
",.i.i.@ I.~+i.i.).!.* * 9 l l l l * * * * * * * * * * * * * * * * * 9 l l 9 * * <.;.i.i.>.i.i.I.$ {+",
"@ ( &.I.@ I.i.$ ]+^+* * * 9 l l l * * * * * * * * * * * * * * * * * 9 l 9 * * * k ;.>.>.i.i.I.$ $ $ ",
"~ I.i.  L.D.A..+/+(+_+7.* 9 9 l l * * * * * * * * * * * * * * * * 9 l 9 9 * * :+<+[+] { ) A.! D.D.D.",
"+ $ ( }+}+] F.] { ] |+1+2+* 9 l l 9 * * * * * * * * * * * * * * 9 l l 9 * 3+4+5+) ] ) ]     ; ) E.Q.",
".++ I.. 3 3 E.3 A.j.6+7+8+7.* 9 9 l 9 * 9 9 9 * * * * 9 9 9 * 9 l l l 9 * 9+0+a+j.' b+! ' j.c+c+j.j.",
"E.3 I.g .+` .+g j.j.j.d+e+f+U.* 9 l l l l l l 9 * * 9 l l l l l l 9 9 9 g+e+a+; ! z.j.j.j.j.j.z.E.j.",
"` }+>.+ .+.+g .+! j.z.j.j.e+h+2+9 9 l l t t l 9 l l 9 l t t l l 9 9 =.h+i+j.' j.j+A.; j.! j.! ; ! A.",
"3 {+>.I.k+E..+.+j..+j.j.j.a+l+m+7.* 9 9 9 9 9 l l l l 9 9 9 9 9 * 7.m+n+o+b+b+j.j.j.j.L.j.b+j.b+    ",
"3 p+I.I.3 .+k+z.z.z.z.z.h z.q+r+s+U.* * * * 9 9 l l 9 9 * * * * U.f+(+a+) ; ) ) ) ) ; ) ) ) ) ) ~ ~ ",
"k+( {+}++ .+z.z.z.z.z.z.h h h h t+*+u+L U.* * * * * * * * U.v+w+x+y+j+) ) d d d d d # # # # # # /./.",
"E.^.p+3 }+] p .+.+.+j.j.j.j.j.h z+N A+B+m 8 r.r.r.r.r.r.8 C+D+E+F+G+j.j.B.B.B.j.c+' j.j.; ! ' ' b.H+",
"{+{+{+|.g ` p p R.z.R.z..+.+.+.+G.e ) I+J+o o o o K+K+L+M+N+O+' B.x ' ' , ' ' 2 x x x u.u.x ' , { 2.",
"3.$.~+{+}+3 + . + + + # . 3 3 3 3 . . . . + . + + + + + + + |.+ I.@ I.i.i.I.I.I.I.@ I.I.@ I.I.i.I.,."};
