/* XPM */
static char *d5b2fb1b5fb94a63c27f4173ca01603d543SZJPlCYcX9Er1[] = {
/* columns rows colors chars-per-pixel */
"50 50 138 2 ",
"   c #000000",
".  c #0D0707",
"X  c #0B0708",
"o  c #0C0909",
"O  c #140B0B",
"+  c #190D0D",
"@  c #1F100F",
"#  c #0C1316",
"$  c #1E1010",
"%  c #141B1E",
"&  c #2A1707",
"*  c #371F09",
"=  c #241413",
"-  c #2A1716",
";  c #2D1917",
":  c #2E1A19",
">  c #341D1B",
",  c #381F1D",
"<  c #3D2007",
"1  c #35211F",
"2  c #3B211F",
"3  c #3C291E",
"4  c #161D21",
"5  c #181E21",
"6  c #161F28",
"7  c #1A2226",
"8  c #172029",
"9  c #1B242A",
"0  c #1F292E",
"q  c #20272B",
"w  c #212B2F",
"e  c #352322",
"r  c #3D2320",
"t  c #332A2C",
"y  c #232D32",
"u  c #272F3A",
"i  c #273135",
"p  c #283236",
"a  c #2C363C",
"s  c #2E393C",
"d  c #303135",
"f  c #36373A",
"g  c #313B3F",
"h  c #41250A",
"j  c #492709",
"k  c #4E2A09",
"l  c #512D0C",
"z  c #59320C",
"x  c #5A381D",
"c  c #64360C",
"v  c #6F3D0D",
"b  c #633A10",
"n  c #6C3E11",
"m  c #422623",
"M  c #452826",
"N  c #492926",
"B  c #452B29",
"V  c #4C2C29",
"C  c #512E2B",
"Z  c #4B302E",
"A  c #56322E",
"S  c #4C3230",
"D  c #4B3A3B",
"F  c #553633",
"G  c #5C3532",
"H  c #553835",
"J  c #5D3A36",
"K  c #573A38",
"L  c #5D3C39",
"P  c #603734",
"I  c #613935",
"U  c #653D39",
"Y  c #7A430F",
"T  c #7B4612",
"R  c #7D4B1C",
"E  c #764A27",
"W  c #65413D",
"Q  c #69413E",
"!  c #724E3A",
"~  c #2F3741",
"^  c #2F3840",
"/  c #303743",
"(  c #343D43",
")  c #383C44",
"_  c #373E4A",
"`  c #364145",
"'  c #384247",
"]  c #3A444A",
"[  c #3D4552",
"{  c #3F4851",
"}  c #444A4E",
"|  c #534641",
" . c #5D4D4B",
".. c #414A55",
"X. c #4C4C55",
"o. c #454E5A",
"O. c #494F58",
"+. c #46505A",
"@. c #48515D",
"#. c #6A4340",
"$. c #6D4643",
"%. c #6D4744",
"&. c #6B4F43",
"*. c #6F4845",
"=. c #714A47",
"-. c #734D4A",
";. c #63504D",
":. c #4D5662",
">. c #4F5865",
",. c #4F5866",
"<. c #525B69",
"1. c #707375",
"2. c #717678",
"3. c #804B16",
"4. c #834D16",
"5. c #874E15",
"6. c #854D16",
"7. c #8B4E13",
"8. c #894F16",
"9. c #8C5117",
"0. c #8D5217",
"q. c #8E5217",
"w. c #905317",
"e. c #915317",
"r. c #995514",
"t. c #995716",
"y. c #9A5716",
"u. c #9C5917",
"i. c #A35B15",
"p. c #A15C18",
"a. c #A45E18",
"s. c #AC6117",
"d. c #AA6018",
"f. c #AF6318",
"g. c #B66619",
"h. c #B96819",
"j. c #BA6919",
"k. c #CBCCCD",
/* pixels */
"..+.+.+.+.+.@.[ ( ( ` ` ` ` ` ( w O.X.t o - - - - + = g g ` ` ( s p +.+.+.+.+.+.>.s ] ` ` ` ` ` ` g ",
"( ] ] ] ] ] ] [ ] ] ] ] ] ] ] ` 7 D U I = I I I J r A > e / ` ] ` i ] ] ] ] ] ] +.( ] ] ] ] ] ] ] ` ",
"` ] ] ] ] ] ] [ ] ] ] ] ] ] a d B V $.U = I U #.#.2 A G N r t f ` w ] ] ] ] ] ] +.( ] ] ] ] ] ] ] ` ",
"0 y y y y w y ~ a a a a a q o J U J Z m + m S B B = , m V U U ; % 8 w i i w w w ^ y s i s p a a a p ",
"g ` s 0 @.@.:.@.@.@.>.p i B C Z J C =                 X m U G M L t ` g s ^ :.&.! ! ! ;.@.i ( s ( g ",
"] ] ' i ] ] ] ] ] ] O.y B %.I C - =                     . ; m G U H 9 ] p x E R f.f.i.E  .s ] ] ] ] ",
"] ] ' i ] ' ] ] ] ] ) V m A X                                   A = &.& z R d.q.h.h.d.4.9.6.| ] ] ] ",
"s ` s 9 a a a s a y Z I A =                                         l 9.5.d.j.q.h.h.d.u.g.9.4.( ( ( ",
"i s p s s s s 9 ] : A r =                                           9.h.f.p.j.q.g.j.s.u.j.w.5.+.+.@.",
"s ' ] ] ] ] ] 0 ( : U U r                                           q.h.d.d.j.q.h.j.s.u.j.w.R ] ] +.",
"s ] ] ] ] ] [ 0 ( @ F U 2                                         o q.j.p.d.h.q.j.j.s.y.j.w.T ] ] +.",
"i s ( s ^ ( ^ 0 p - N - +                                           9.j.d.p.h.9.j.j.s.u.j.w.R ` ( ..",
"....{ a { o.{ { [ : I J 2                                         o 9.j.d.d.j.q.h.j.s.t.j.w.5.} ....",
"] ] ` i ] ] ] ] ( - L L >                                           9.h.u.d.j.9.j.j.d.t.j.w.R ' ] ] ",
"] ] ' i ] ] ] ] ` = B r =                                           T h.d.u.j.9.j.j.d.t.j.w.5.] ] ] ",
"] ] ' 0 ] ] ] ] ( 1 $.U 2                                           < t.d.d.j.9.h.h.d.u.j.q.Y ] ] ] ",
"_ ] ] _ _ _ _ a w ; U U 2                                           o < T d.j.w.h.j.d.u.j.w.R i w i ",
"] ] ........o.[ ( : C : +                                           h s.t.d.h.q.j.j.d.u.j.w.R ` ] ^ ",
"_ ] ] ] ] ] ] [ ( X S U ,                                         o 5.h.u.p.h.q.h.h.d.u.j.w.4.' ] ` ",
"( ] ` ] ` ] ' [ ( : I $.B                                           9.h.d.p.h.w.h.h.d.u.j.q.4.' ] ` ",
"9 w w 9 a ~ a ( a = C G 2                                         o 8.h.d.p.j.q.h.h.d.t.h.9.R p i w ",
"` ` ( u O.+.+.o...+ B V ;                                           9.h.d.s.j.q.j.j.d.u.h.q.R ' ` ` ",
"] ] ` y ] ] ] ] ( : U G :                                           q.j.p.p.j.q.h.j.d.u.j.q.6.] ] ] ",
"] ] ` i ] ] ] ] ( : P P 2                                         o 9.j.p.d.h.q.h.j.d.u.j.q.R ] ] ] ",
"p p i 4 0 0 0 0 7 O - V 2                                           9.h.d.d.h.q.h.j.s.u.j.w.4.p i i ",
"p ( ( ` ` ( ` 0 ..: P N +                                         o 9.h.d.p.h.9.h.j.r.r.j.w.R @.:.<.",
"g ] ] ] ] ] ] 0 ( : P P 2                                           q.j.d.d.h.9.h.s.k v h.q.4.` ] +.",
"s ] ] ] ] ] ] 0 ( = V V ;                                         o q.j.p.p.h.9.h.j.r.l i.e.R ] ] @.",
"0 i i i p p i 7 y = B V ;                                           w.j.u.d.h.q.h.s.c Y h.q.4.i i ( ",
"o.o.o.a o.+.+.+.[ : I I 2                                           q.h.d.s.j.q.h.Y 7.Y i.9.R O.+.o.",
"] ] ' i ] ] ] ] ( r Q J r                                           9.h.d.u.h.q.h.z s.z t.9.R ] ] ] ",
"] ] ' y ] ] ] ] ( e L $ O                                           4.h.d.d.h.9.h.s.< T h.q.R ] ] ] ",
"( ` ( 8 ^ ` ' ' ~ O M I r                                           j f.d.u.h.q.h.h.d.u.h.q.R ` ` ( ",
"] { { { { { { / y : J U m                                           X j 9.d.h.9.h.j.d.u.h.9.R p i i ",
"` ] [ ] ] ] [ [ _ $ m W Z                                           * 7.4.p.h.q.h.j.s.u.j.e.R ] ] ( ",
"_ ] ] ] ] ] ] [ ( $ V S :                                           T h.d.f.h.q.h.j.d.u.j.q.3.] ] ( ",
"^ ` ` ^ ` ` ( [ ( : I G 1                                           9.j.f.d.h.w.h.j.s.u.j.e.R ' ] ` ",
"0 0 0 6 ' ] ] ] ) ; Q Q 2                                         X 9.h.d.u.h.w.h.h.s.u.j.e.3.w w w ",
"] ] ` i [ ] ] [ ( O - - +       + - - - - e e e > +   : - > : +     9.h.d.u.h.9.h.h.s.y.j.q.3.] ] ` ",
"] ] ` i ] ] ] ] ( : J J r X   + C I I Q Q -.*.=.%.A r B C Q %.r , O 9.h.p.d.h.9.h.j.s.u.j.e.3.] ] ] ",
"] ] ` y ` ` ` ( / = C I 2 2 m m N N N F K H V U -.=.I m m Z L r K ; 9.j.d.u.j.q.h.j.d.t.h.q.R ' ] ] ",
"y y y 9 0 0 y 9 u : F 2 = A $.I H V V V V V N m B S m r , : m = L : 9.j.d.s.j.q.h.j.d.u.h.q.R ` ( ~ ",
"p ` ` ` ` ] ` w ] : U A , A U I U Q U *.I P P A A A A A A N = X = o 9.j.u.d.j.q.h.h.s.u.j.e.R } { ,.",
"( ] ] ] ] ] ] w ( r $.J 2 + + = $ = = = = + = + $ $ $ $ @ +         R q.d.d.j.q.h.j.d.t.j.e.3.` ] +.",
"p ] ] ` ] ] ` w ( 5 % % 5 % 5 5 4 % % 4 5 % 5 % # % 5 5 4 % 5 4 9 % % 3 T u.h.9.j.j.s.u.j.e.R ' ] +.",
"9 y y 0 w y y 6 w w y 0 w y y y u 0 y w w w y w 8 w w y 0 y y w s 0 0 0 3 Y t.5.j.j.s.u.j.e.5.w w a ",
"@.+.+.a +.@.@.+.@.@.>./ @.@.@.+.@.@.@.+.~ +.@.@.@.@.+.>.p @.@.@.@.@.+.+.] % k b h.h.s.u.j.e.R +.@.@.",
"] ] ` u ] ] ] ] ] ] o./ ] ] ] ] ] ] ] ( p ] ] ] ] ] ] @.u ] ] ] ] ] ] ] g 0 s a Y R e.u.j.e.3.' ] ] ",
"] ] ] y ] ] ] ] ] ] o./ ] ] ] ] ] ] ] ) p ] ] ] ] ] ] @.p ] ] ] ] ] 2.k.( i ] ] ( f h n w.4.R ] ] ] ",
"a s p 6 p g g a a a / 9 a a g a g a a p 6 a a a a s / a 9 a ~ a s s } 1.i 8 s a a a p t < < < a a s "
};
