/* XPM */
static char * open_d2_xpm[] = {
"50 50 885 2",
"  	c #1D1D1D",
". 	c #171717",
"+ 	c #161616",
"@ 	c #131313",
"# 	c #101010",
"$ 	c #242424",
"% 	c #1F1F1F",
"& 	c #1E1E1E",
"* 	c #2D1E1D",
"= 	c #DC3926",
"- 	c #CB3523",
"; 	c #282828",
"> 	c #1C1C1C",
", 	c #DC3925",
"' 	c #281312",
") 	c #222222",
"! 	c #252525",
"~ 	c #262626",
"{ 	c #111111",
"] 	c #1A1A1A",
"^ 	c #191919",
"/ 	c #181818",
"( 	c #0F0F0F",
"_ 	c #1B1B1B",
": 	c #373737",
"< 	c #2B2B2B",
"[ 	c #2C2C2C",
"} 	c #232323",
"| 	c #4B2D2B",
"1 	c #9E2E23",
"2 	c #EA3D27",
"3 	c #CB3625",
"4 	c #363636",
"5 	c #212121",
"6 	c #AC3021",
"7 	c #DB3924",
"8 	c #CB3525",
"9 	c #5F322F",
"0 	c #343434",
"a 	c #333333",
"b 	c #323232",
"c 	c #353535",
"d 	c #272727",
"e 	c #292929",
"f 	c #141414",
"g 	c #3A3A3A",
"h 	c #602D2A",
"i 	c #D33724",
"j 	c #D63926",
"k 	c #A13329",
"l 	c #232424",
"m 	c #363737",
"n 	c #202020",
"o 	c #78271F",
"p 	c #C33423",
"q 	c #F53F28",
"r 	c #703431",
"s 	c #212222",
"t 	c #272828",
"u 	c #151515",
"v 	c #3E3E3E",
"w 	c #672723",
"x 	c #EB3D28",
"y 	c #902D24",
"z 	c #2A2828",
"A 	c #272626",
"B 	c #393434",
"C 	c #2E1F1E",
"D 	c #431F1D",
"E 	c #5D2521",
"F 	c #6B2520",
"G 	c #372221",
"H 	c #4E2422",
"I 	c #A92E21",
"J 	c #EB3C27",
"K 	c #6C3633",
"L 	c #313131",
"M 	c #424242",
"N 	c #2F2F2F",
"O 	c #552320",
"P 	c #C03322",
"Q 	c #842216",
"R 	c #4C1E1A",
"S 	c #2C2323",
"T 	c #411A17",
"U 	c #581811",
"V 	c #8F2519",
"W 	c #CD3522",
"X 	c #73251F",
"Y 	c #BF3324",
"Z 	c #E93C26",
"` 	c #C23221",
" .	c #5C3432",
"..	c #303030",
"+.	c #4A4A4A",
"@.	c #3F3F3F",
"#.	c #3C3C3C",
"$.	c #3D3D3D",
"%.	c #483E3D",
"&.	c #773C38",
"*.	c #54231F",
"=.	c #521C17",
"-.	c #5B201C",
";.	c #5B140F",
">.	c #62180F",
",.	c #812115",
"'.	c #AD2C1C",
").	c #D53321",
"!.	c #B53326",
"~.	c #E13C27",
"{.	c #E13E2B",
"].	c #70312D",
"^.	c #403D3C",
"/.	c #3B3B3B",
"(.	c #393939",
"_.	c #212122",
":.	c #202021",
"<.	c #1D1D1E",
"[.	c #2A2A2A",
"}.	c #363637",
"|.	c #382E2E",
"1.	c #3A2928",
"2.	c #3A2A2A",
"3.	c #372928",
"4.	c #3D1B19",
"5.	c #50130C",
"6.	c #682C16",
"7.	c #6D752E",
"8.	c #74361A",
"9.	c #801F14",
"0.	c #913E1F",
"a.	c #A28336",
"b.	c #AA3E21",
"c.	c #DC3723",
"d.	c #EA3F2A",
"e.	c #AF3327",
"f.	c #B03225",
"g.	c #B23427",
"h.	c #8F2E26",
"i.	c #1C1C1D",
"j.	c #262627",
"k.	c #0B0B0B",
"l.	c #0A0A0A",
"m.	c #0D0D0D",
"n.	c #070707",
"o.	c #171212",
"p.	c #1F1211",
"q.	c #3C120D",
"r.	c #47120B",
"s.	c #41100A",
"t.	c #50120C",
"u.	c #693D1B",
"v.	c #73C748",
"w.	c #865124",
"x.	c #8D2015",
"y.	c #875125",
"z.	c #7BC949",
"A.	c #8F4822",
"B.	c #D33421",
"C.	c #FB4028",
"D.	c #EB3C26",
"E.	c #F13E27",
"F.	c #D23623",
"G.	c #761F17",
"H.	c #761E16",
"I.	c #441815",
"J.	c #121212",
"K.	c #0E0E0E",
"L.	c #0C0C0C",
"M.	c #271412",
"N.	c #3F110B",
"O.	c #3F100B",
"P.	c #56160E",
"Q.	c #641A10",
"R.	c #641910",
"S.	c #631910",
"T.	c #4B130C",
"U.	c #50140C",
"V.	c #661D11",
"W.	c #682815",
"X.	c #832617",
"Y.	c #8D2517",
"Z.	c #8B2818",
"`.	c #8E331C",
" +	c #B9331F",
".+	c #E73B25",
"++	c #DD3924",
"@+	c #952718",
"#+	c #942718",
"$+	c #B52F1D",
"%+	c #DA3723",
"&+	c #F53E28",
"*+	c #F43E27",
"=+	c #92271C",
"-+	c #2B1413",
";+	c #43130D",
">+	c #5C170E",
",+	c #62170F",
"'+	c #66170F",
")+	c #661A10",
"!+	c #651A10",
"~+	c #5F180F",
"{+	c #54150D",
"]+	c #4F140C",
"^+	c #651910",
"/+	c #832215",
"(+	c #8B2517",
"_+	c #922518",
":+	c #DF3924",
"<+	c #CA3421",
"[+	c #9F2A1A",
"}+	c #8C2517",
"|+	c #952518",
"1+	c #A02719",
"2+	c #B02E1D",
"3+	c #D23622",
"4+	c #E03924",
"5+	c #AA2D1E",
"6+	c #0D0B0B",
"7+	c #291210",
"8+	c #44140F",
"9+	c #58150D",
"0+	c #6B5F26",
"a+	c #6A6327",
"b+	c #681B10",
"c+	c #751F13",
"d+	c #781F13",
"e+	c #5F170F",
"f+	c #450F0A",
"g+	c #751E13",
"h+	c #922718",
"i+	c #AC2C1C",
"j+	c #F33B26",
"k+	c #B42D1D",
"l+	c #761F13",
"m+	c #7C2014",
"n+	c #8A2417",
"o+	c #846A2C",
"p+	c #84662B",
"q+	c #8F2216",
"r+	c #A8291A",
"s+	c #D53622",
"t+	c #D53722",
"u+	c #A52C1E",
"v+	c #241211",
"w+	c #130E0E",
"x+	c #220D0C",
"y+	c #42120D",
"z+	c #58160E",
"A+	c #694B20",
"B+	c #71C246",
"C+	c #72B542",
"D+	c #731E12",
"E+	c #A4291A",
"F+	c #7F361B",
"G+	c #4E3B19",
"H+	c #5D1A0F",
"I+	c #63190F",
"J+	c #9E291A",
"K+	c #D23823",
"L+	c #E06131",
"M+	c #953B1E",
"N+	c #5D160E",
"O+	c #691B10",
"P+	c #802215",
"Q+	c #7AB744",
"R+	c #7BC548",
"S+	c #875425",
"T+	c #875325",
"U+	c #A93A20",
"V+	c #D43622",
"W+	c #E53A25",
"X+	c #89251B",
"Y+	c #401917",
"Z+	c #181919",
"`+	c #191819",
" @	c #271817",
".@	c #5D180F",
"+@	c #6C5623",
"@@	c #75E752",
"#@	c #75EB54",
"$@	c #77F557",
"%@	c #80AD41",
"&@	c #972819",
"*@	c #C1321F",
"=@	c #E83F26",
"-@	c #BE943E",
";@	c #69CE4A",
">@	c #482913",
",@	c #5C190F",
"'@	c #771F13",
")@	c #A72D1C",
"!@	c #EB532D",
"~@	c #92D950",
"{@	c #5A7A2E",
"]@	c #4D170D",
"^@	c #6FA83E",
"/@	c #75F557",
"(@	c #76EB54",
"_@	c #77E853",
":@	c #875D28",
"<@	c #A7281A",
"[@	c #D03622",
"}@	c #F03E28",
"|@	c #8A2D25",
"1@	c #342D2D",
"2@	c #2E2E2E",
"3@	c #2D2D2D",
"4@	c #2B2C2C",
"5@	c #2C1817",
"6@	c #42140F",
"7@	c #761C12",
"8@	c #862F19",
"9@	c #865425",
"0@	c #A25B2A",
"a@	c #C7512A",
"b@	c #EA3925",
"c@	c #F33D27",
"d@	c #B2A643",
"e@	c #85EB55",
"f@	c #73F757",
"g@	c #69C948",
"h@	c #4E3C19",
"i@	c #69130E",
"j@	c #8F4D24",
"k@	c #91D34E",
"l@	c #7AF958",
"m@	c #6EE651",
"n@	c #5F9135",
"o@	c #48110B",
"p@	c #470F0A",
"q@	c #5E3618",
"r@	c #6A4C20",
"s@	c #6E4D21",
"t@	c #855325",
"u@	c #8B301A",
"v@	c #912317",
"w@	c #A42B1B",
"x@	c #D13622",
"y@	c #E43A25",
"z@	c #A43024",
"A@	c #1C1D1D",
"B@	c #311F1E",
"C@	c #451713",
"D@	c #58150E",
"E@	c #67170F",
"F@	c #761A11",
"G@	c #7E6229",
"H@	c #847831",
"I@	c #8E2417",
"J@	c #A5281A",
"K@	c #D12E1F",
"L@	c #D85C2E",
"M@	c #B8A543",
"N@	c #B7A643",
"O@	c #88E553",
"P@	c #73FF5B",
"Q@	c #75FF5A",
"R@	c #75FE5A",
"S@	c #61A93D",
"T@	c #6D8F36",
"U@	c #7DB142",
"V@	c #74FE5A",
"W@	c #76FF5B",
"X@	c #6EDE4F",
"Y@	c #5C8E34",
"Z@	c #5B8D34",
"`@	c #543A19",
" #	c #590F0B",
".#	c #691810",
"+#	c #771E13",
"@#	c #7E7630",
"##	c #85642A",
"$#	c #912116",
"%#	c #A8281A",
"&#	c #D43926",
"*#	c #A62D21",
"=#	c #291B1A",
"-#	c #1A1919",
";#	c #232222",
">#	c #391613",
",#	c #52140D",
"'#	c #682714",
")#	c #6B5322",
"!#	c #815A27",
"~#	c #7CBD46",
"{#	c #7EC849",
"]#	c #9F2D1B",
"^#	c #CD3421",
"/#	c #DD582E",
"(#	c #74FF5A",
"_#	c #75FF5B",
":#	c #5B8E34",
"<#	c #523517",
"[#	c #5E170E",
"}#	c #651E11",
"|#	c #70C447",
"1#	c #7DBD46",
"2#	c #865B28",
"3#	c #875B28",
"4#	c #AA3920",
"5#	c #DE3824",
"6#	c #E13A26",
"7#	c #301B1A",
"8#	c #262121",
"9#	c #3C1612",
"0#	c #53120C",
"a#	c #6A481F",
"b#	c #75E151",
"c#	c #77EB54",
"d#	c #78F256",
"e#	c #90BC47",
"f#	c #CB3922",
"g#	c #EE492A",
"h#	c #A8B948",
"i#	c #62A73D",
"j#	c #491E0F",
"k#	c #611E11",
"l#	c #6FB341",
"m#	c #76F156",
"n#	c #78E251",
"o#	c #875024",
"p#	c #C83120",
"q#	c #541D19",
"r#	c #251B1A",
"s#	c #272020",
"t#	c #3C1613",
"u#	c #56170F",
"v#	c #6D2514",
"w#	c #864A22",
"x#	c #874C23",
"y#	c #A15327",
"z#	c #CA4F29",
"A#	c #EC4B2B",
"B#	c #9DC54B",
"C#	c #7DF457",
"D#	c #72F155",
"E#	c #66B742",
"F#	c #4A2110",
"G#	c #5E3317",
"H#	c #774820",
"I#	c #894C23",
"J#	c #884B23",
"K#	c #8A2D19",
"L#	c #B02D1C",
"M#	c #D93824",
"N#	c #69211C",
"O#	c #363030",
"P#	c #3F1410",
"Q#	c #711D12",
"R#	c #802014",
"S#	c #8C1F15",
"T#	c #8A2116",
"U#	c #BF2D1D",
"V#	c #DA5A2E",
"W#	c #ACB346",
"X#	c #7CF557",
"Y#	c #72F256",
"Z#	c #609F3A",
"`#	c #643B1A",
" $	c #6E1710",
".$	c #7B1D13",
"+$	c #8B1F15",
"@$	c #8C2417",
"#$	c #BD311F",
"$$	c #F74029",
"%$	c #732C27",
"&$	c #2A2424",
"*$	c #35201E",
"=$	c #4A150F",
"-$	c #791D13",
";$	c #8C331B",
">$	c #875F29",
",$	c #97351D",
"'$	c #D73221",
")$	c #DA7837",
"!$	c #625924",
"~$	c #5F130D",
"{$	c #6C2915",
"]$	c #845E28",
"^$	c #8B321B",
"/$	c #8A2216",
"($	c #A52A1B",
"_$	c #E63B25",
":$	c #A92D20",
"<$	c #61211D",
"[$	c #2C1413",
"}$	c #46120B",
"|$	c #631A10",
"1$	c #662915",
"2$	c #783119",
"3$	c #86642A",
"4$	c #7BE954",
"5$	c #B95C2C",
"6$	c #E43F26",
"7$	c #D0843A",
"8$	c #77FC59",
"9$	c #74FB59",
"0$	c #526326",
"a$	c #51190E",
"b$	c #67471E",
"c$	c #75E853",
"d$	c #89361C",
"e$	c #98371E",
"f$	c #C53320",
"g$	c #F53F27",
"h$	c #AA2B1D",
"i$	c #2C1513",
"j$	c #46110B",
"k$	c #631E11",
"l$	c #6FAB3F",
"m$	c #76E251",
"n$	c #DE6431",
"o$	c #BC973F",
"p$	c #81EE56",
"q$	c #70EA53",
"r$	c #5B7D2F",
"s$	c #4F3F1A",
"t$	c #73F256",
"u$	c #78E853",
"v$	c #78E351",
"w$	c #7FB042",
"x$	c #9C2E1B",
"y$	c #EE3D26",
"z$	c #AA2C1D",
"A$	c #2D1615",
"B$	c #641C10",
"C$	c #7C6129",
"D$	c #837C32",
"E$	c #8A7C32",
"F$	c #A97D35",
"G$	c #F1492A",
"H$	c #B5A844",
"I$	c #72FF5B",
"J$	c #76FF5C",
"K$	c #5C9135",
"L$	c #471D0F",
"M$	c #6A6C2B",
"N$	c #6C732D",
"O$	c #787930",
"P$	c #942919",
"Q$	c #EC3C26",
"R$	c #2E1917",
"S$	c #831E14",
"T$	c #8C2015",
"U$	c #9E2518",
"V$	c #D73723",
"W$	c #D47034",
"X$	c #9EC74C",
"Y$	c #65B942",
"Z$	c #534F1F",
"`$	c #59170E",
" %	c #62150E",
".%	c #7A1B12",
"+%	c #8D2116",
"@%	c #ED3D26",
"#%	c #AA2D20",
"$%	c #252222",
"%%	c #341B19",
"&%	c #4A130C",
"*%	c #80351B",
"=%	c #8A321B",
"-%	c #A62A1B",
";%	c #F34A2B",
">%	c #91D850",
",%	c #6ACE4A",
"'%	c #441D0E",
")%	c #792E18",
"!%	c #8A381D",
"~%	c #942818",
"{%	c #B63224",
"]%	c #4B211F",
"^%	c #0D0C0C",
"/%	c #310E0B",
"(%	c #4C140C",
"_%	c #662012",
":%	c #73B442",
"<%	c #808D37",
"[%	c #A6281A",
"}%	c #91D950",
"|%	c #6ACF4A",
"1%	c #5D140D",
"2%	c #6F8834",
"3%	c #7DB744",
"4%	c #902C19",
"5%	c #E43B25",
"6%	c #CA3524",
"7%	c #1E1818",
"8%	c #340C0A",
"9%	c #535120",
"0%	c #71B743",
"a%	c #70B843",
"b%	c #73F456",
"c%	c #7E9B3B",
"d%	c #A5271A",
"e%	c #6E9738",
"f%	c #7EBC45",
"g%	c #8BBE47",
"h%	c #D47235",
"i%	c #D63524",
"j%	c #340D0B",
"k%	c #534D1F",
"l%	c #72AE40",
"m%	c #7DAF42",
"n%	c #7DAF41",
"o%	c #8D6E2E",
"p%	c #B72C1D",
"q%	c #F5482B",
"r%	c #441B0E",
"s%	c #5D150E",
"t%	c #6B6428",
"u%	c #73AC40",
"v%	c #7CB042",
"w%	c #CC6C33",
"x%	c #201A1A",
"y%	c #340F0B",
"z%	c #4F130C",
"A%	c #6C1B11",
"B%	c #892316",
"C%	c #8B2417",
"D%	c #AB2C1C",
"E%	c #D63E25",
"F%	c #E46332",
"G%	c #8DDE52",
"H%	c #6CD64C",
"I%	c #4B3C19",
"J%	c #5B1E10",
"K%	c #63180F",
"L%	c #701C11",
"M%	c #8B2416",
"N%	c #D63825",
"O%	c #1F1919",
"P%	c #6D1C11",
"Q%	c #892416",
"R%	c #8A2517",
"S%	c #C22F1F",
"T%	c #E16732",
"U%	c #86E854",
"V%	c #6FE250",
"W%	c #4D411A",
"X%	c #54120C",
"Y%	c #211C1C",
"Z%	c #35130F",
"`%	c #4E120C",
" &	c #6C1810",
".&	c #8B2216",
"+&	c #C52D1E",
"@&	c #E26C34",
"#&	c #7AF858",
"$&	c #73F657",
"%&	c #4B451C",
"&&	c #520F0B",
"*&	c #701A11",
"=&	c #D63B29",
"-&	c #2D2929",
";&	c #350F0D",
">&	c #513C19",
",&	c #72702C",
"'&	c #8A2C19",
")&	c #836A2C",
"!&	c #BF622E",
"~&	c #E26A34",
"{&	c #7BF758",
"]&	c #73F557",
"^&	c #4B431B",
"/&	c #56471D",
"(&	c #76672A",
"_&	c #D53723",
":&	c #170E0E",
"<&	c #350E0D",
"[&	c #546025",
"}&	c #76C347",
"|&	c #77D54D",
"1&	c #B8A643",
"2&	c #E36833",
"3&	c #4B411A",
"4&	c #7BD64E",
"5&	c #884E24",
"6&	c #8A2B19",
"7&	c #191111",
"8&	c #35100D",
"9&	c #4F1A0E",
"0&	c #6A4E21",
"a&	c #76DD4F",
"b&	c #73FE59",
"c&	c #B8A242",
"d&	c #5B8A33",
"e&	c #76FF5A",
"f&	c #79DC4F",
"g&	c #884521",
"h&	c #D23421",
"i&	c #D63723",
"j&	c #1D1717",
"k&	c #535822",
"l&	c #75B442",
"m&	c #84692C",
"n&	c #77D74E",
"o&	c #7AD84E",
"p&	c #865927",
"q&	c #8B2A18",
"r&	c #D53724",
"s&	c #1A1313",
"t&	c #350F0E",
"u&	c #55732B",
"v&	c #7AE251",
"w&	c #79C949",
"x&	c #B8A744",
"y&	c #79E753",
"z&	c #819038",
"A&	c #809038",
"B&	c #CD602F",
"C&	c #1B1414",
"D&	c #371614",
"E&	c #535C24",
"F&	c #76B342",
"G&	c #8A351C",
"H&	c #7DA53E",
"I&	c #BB8C3B",
"J&	c #E36933",
"K&	c #4B421B",
"L&	c #59702A",
"M&	c #75D24C",
"N&	c #79D34C",
"O&	c #79D54D",
"P&	c #CB7B37",
"Q&	c #D63728",
"R&	c #292525",
"S&	c #361513",
"T&	c #4F180E",
"U&	c #6D2615",
"V&	c #882E1A",
"W&	c #892F1A",
"X&	c #C43520",
"Y&	c #E26B34",
"Z&	c #4B441B",
"`&	c #531D0F",
" *	c #713219",
".*	c #89381D",
"+*	c #8A301A",
"@*	c #D13A23",
"#*	c #090909",
"$*	c #361411",
"%*	c #4F100B",
"&*	c #693519",
"**	c #79C147",
"=*	c #79FA59",
"-*	c #73F858",
";*	c #75D34C",
">*	c #883E1F",
",*	c #D23321",
"'*	c #181010",
")*	c #361110",
"!*	c #52431C",
"~*	c #719237",
"{*	c #808A36",
"]*	c #883D1E",
"^*	c #B52A1C",
"/*	c #DB4F2B",
"(*	c #BB9D40",
"_*	c #83EB55",
":*	c #6FE652",
"<*	c #5A8431",
"[*	c #552914",
"}*	c #659236",
"|*	c #79E853",
"1*	c #809339",
"2*	c #7F993B",
"3*	c #CD6430",
"4*	c #D53522",
"5*	c #36100F",
"6*	c #55712A",
"7*	c #78E953",
"8*	c #85662B",
"9*	c #855B28",
"0*	c #A34824",
"a*	c #D43421",
"b*	c #F7472A",
"c*	c #44190D",
"d*	c #5E130D",
"e*	c #6E9638",
"f*	c #7BC849",
"g*	c #8A331B",
"h*	c #7DB042",
"i*	c #CB7936",
"j*	c #D53322",
"k*	c #350F0F",
"l*	c #556E29",
"m*	c #76FD5A",
"n*	c #77EC54",
"o*	c #75F858",
"p*	c #9B9B3D",
"q*	c #D43321",
"r*	c #F54A2B",
"s*	c #7BCA4A",
"t*	c #8B2C19",
"u*	c #D13E24",
"v*	c #D53623",
"w*	c #361212",
"x*	c #79E552",
"y*	c #865E29",
"z*	c #78D54D",
"A*	c #9AA240",
"B*	c #D43221",
"C*	c #7BCB4A",
"D*	c #7BBD46",
"E*	c #CA7F38",
"F*	c #D63423",
"G*	c #391A18",
"H*	c #513B19",
"I*	c #726D2C",
"J*	c #8A2818",
"K*	c #A25C2A",
"L*	c #D43422",
"M*	c #755023",
"N*	c #86682C",
"O*	c #8B2E1A",
"P*	c #837630",
"Q*	c #CE5D2E",
"R*	c #D63626",
"S*	c #231E1E",
"T*	c #371613",
"U*	c #4E110C",
"V*	c #6B2313",
"W*	c #835F29",
"X*	c #84642A",
"Y*	c #A34C25",
"Z*	c #D43522",
"`*	c #77411E",
" =	c #885325",
".=	c #8C2116",
"+=	c #371715",
"@=	c #4F120C",
"#=	c #693F1C",
"$=	c #74EA53",
"%=	c #76F256",
"&=	c #9C923B",
"*=	c #6F8934",
"==	c #7DBE46",
"-=	c #8A3B1E",
";=	c #D63824",
">=	c #381916",
",=	c #4F110B",
"'=	c #74E953",
")=	c #837730",
"!=	c #A5391F",
"~=	c #856F2E",
"{=	c #7ACE4B",
"]=	c #884320",
"^=	c #D53825",
"/=	c #371A18",
"(=	c #4D1511",
"_=	c #615121",
":=	c #70BB44",
"<=	c #75F757",
"[=	c #855B27",
"}=	c #A72519",
"|=	c #5D170E",
"1=	c #7B1B12",
"2=	c #8B361C",
"3=	c #837831",
"4=	c #7EA43E",
"5=	c #B7672F",
"6=	c #D93523",
"7=	c #CF3624",
"8=	c #40100A",
"9=	c #59140D",
"0=	c #705A25",
"a=	c #7DB945",
"b=	c #7DB343",
"c=	c #818334",
"d=	c #A35227",
"e=	c #764720",
"f=	c #978436",
"g=	c #CD3020",
"h=	c #FF4129",
"i=	c #444444",
"j=	c #59160E",
"k=	c #8C2617",
"l=	c #8B2B19",
"m=	c #7AC949",
"n=	c #9AA13F",
"o=	c #6E9237",
"p=	c #817C31",
"q=	c #B32A1C",
"r=	c #FE4129",
"  . + + + + @ @ # $ % %       &   % * = - + ;       > > - , ' ) ! ! ! ~ ) )   { & > > ] ] >   ^ / ( ",
"; _ _ ^ / _ / _ _ : < [ ; ! [ } ) | 1 2 3 & 4 5 ) % % ) 6 7 8 9 0 a a b 0 c b   d ) ) ) ) $ ! 5 } ] ",
"e _ ] . f / / . > g } ~ ! e e $ ) h i j k l m 5 n   ] % o p q r b b b b a b b s t } $ $ } ) } 5 )   ",
"< _ . ] . ] _ u   v ; d $ < ! 5 $ w x y z A B C D E F G H I J K a b L b b L L ! < ! ! } } ) ) 5 )   ",
"<   . ^ . . / u % M N ; ! e $ } } O P Q R S T U V W J X Y Z `  .b b a ....L L ! [ ) ) n ) } 5 5 ) & ",
"L d 5 ) 5 ~ } ! e +.@.#.#.g g #.$.%.&.*.=.-.;.>.,.'.).!.~.{.].^././.(.g (.g g N (...N L b a L b 0 ..",
"% _.:.n n ) ) ) <.[.}.0 : 0 c |.1.2.3.4.5.6.7.8.9.0.a.b.c.d.e.f.g.h.! ! ! $ $ i.% ; j.d ; d d ~ d ) ",
"# k.k.l.l.k.m.l.l.n.m.@ o.p.p.q.r.r.r.s.t.u.v.w.x.y.z.A.B.C.D.D.E.F.G.H.I.J.J.( k.n ] ] ^ ^ ] + ^ # ",
"@ m.m.m.m.m.K.L.L.L.{ + M.N.O.P.Q.R.S.T.U.V.W.X.Y.Z.`. +.+++@+#+$+%+&+*+=+u J.@ { $ > ^ + f / / ^ / ",
"f K.( ( K.m.m.L.k.k.J.-+;+>+>+,+'+)+!+~+{+]+^+/+Y.(+_+:+<+[+}+}+|+1+2+3+4+5+f + u ~ _ ^ ^ + ^ ] + . ",
"+ K.K.m.L.m.L.k.L.6+7+8+9+'+'+0+a+b+c+d+e+f+^+g+/+h+i+j+k+l+m+n+o+p+q+r+s+t+u+v+u d   . ] / / ] u ^ ",
". K.L.L.m.( m.L.w+x+y+z+W.A+A+B+C+D+@+E+F+G+H+I+d+J+K+L+M+N+O+P+Q+R+S+T+U+V+W+X+Y+e n ^ ] / > ^ ] & ",
"] ^ . / Z+] ^ `+ @y+.@'++@@@#@$@%@&@*@=@-@;@>@,@'@)@!@~@{@]@Q.)+^@/@(@_@:@<@[@}@|@1@2@[.[.[.3@4@3@< ",
"% & &   > & n 5@6@.@R.7@8@T+9@0@a@b@c@d@e@f@g@h@i@j@k@l@m@n@o@p@q@r@s@t@u@v@w@x@y@z@      > A@^ _ { ",
"e } } ) ) } B@C@D@E@F@G@H@I@J@K@L@M@N@O@P@Q@R@S@T@U@V@Q@W@X@Y@Z@`@ #.#+#@###$#%#s+&#*#=#. + -#/ _ . ",
"< } $ ! $ ;#>#,#'#)#!#~#{#]#^#/#M@P@P@(#Q@Q@Q@W@_#_#Q@Q@Q@Q@W@W@:#<#[#}#|#1#2#3#4#5#6#7#/ u / ^ + + ",
"N ! ~ } ) 8#9#0#a#b#c#d#e#f#g#h#Q@Q@Q@Q@Q@Q@Q@Q@Q@Q@Q@Q@Q@Q@Q@Q@Q@i#j#k#l#m#c#n#o#p#6#q#r#/ ^ ] u / ",
"L ) ) 5 s#t#u#>.v#w#x#y#z#A#B#C#(#Q@Q@Q@Q@Q@Q@Q@Q@Q@Q@Q@Q@Q@Q@Q@Q@D#E#F#G#H#I#J#K#L#M#6#N#. / / + _ ",
"/.a L a O#P#>+Q#R#S#T#U#V#W#X#(#Q@Q@Q@Q@Q@Q@Q@Q@Q@Q@Q@Q@Q@Q@Q@Q@Q@_#Y#Z#`# $.$+$@$&@#$$$%$~ < ; < [.",
"d ~ ~ &$*$=$[#-$;$>$,$'$)$Q@Q@Q@Q@Q@Q@Q@Q@Q@Q@Q@Q@Q@Q@Q@Q@Q@Q@Q@Q@Q@Q@Q@!$~${$]$^$/$($_$:$<$> ^ ^ f ",
"; ] ^ [$}$|$1$2$3$4$5$6$7$8$Q@Q@Q@Q@Q@Q@Q@Q@Q@Q@Q@Q@Q@Q@Q@Q@Q@Q@Q@Q@Q@9$0$a$b$c$##d$e$f$g$h$J.# { L.",
"[.] ^ i$j$k$l$m$_@X#n$o$p$Q@Q@Q@Q@Q@Q@Q@Q@Q@Q@Q@Q@Q@Q@Q@Q@Q@Q@Q@Q@Q@Q@R@q$r$s$t$u$v$w$x$y$z$J.{ { K.",
"[ > . A$}$B$C$D$E$F$G$H$I$Q@Q@Q@Q@Q@Q@Q@Q@Q@Q@Q@Q@Q@Q@Q@Q@Q@Q@Q@Q@Q@Q@Q@J$K$L$M$N$O$##P$Q$z${ # { K.",
"N 5 > R$}$R.S$T$U$V$W$X$P@Q@Q@Q@Q@Q@Q@Q@Q@Q@Q@Q@Q@Q@Q@Q@Q@Q@Q@Q@Q@Q@Q@Q@W@Y$Z$`$ %.%+%@+@%#%u + . u ",
"! $ $%%%&%Q.*%=%-%;%>%P@Q@Q@Q@Q@Q@Q@Q@Q@Q@Q@Q@Q@Q@Q@Q@Q@Q@Q@Q@Q@Q@Q@Q@Q@Q@W@,%'%N+)%!%~%.+{%]%    / ",
"# ^%/%(%|$_%:%<%[%;%}%P@Q@Q@Q@Q@Q@Q@Q@Q@Q@Q@Q@Q@Q@Q@Q@Q@Q@Q@Q@Q@Q@Q@Q@Q@Q@W@|%'%1%2%3%4%*@5%6%7%_ { ",
"J.^%8%9%0%a%b%c%d%;%}%P@Q@Q@Q@Q@Q@Q@Q@Q@Q@Q@Q@Q@Q@Q@Q@Q@Q@Q@Q@Q@Q@Q@Q@Q@Q@W@|%'%1%e%$@f%g%h%i%7%^ u ",
"f K.j%k%l%m%n%o%p%q%}%P@Q@Q@Q@Q@Q@Q@Q@Q@Q@Q@Q@Q@Q@Q@Q@Q@Q@Q@Q@Q@Q@Q@Q@Q@Q@W@,%r%s%t%u%m%v%w%i%x%u + ",
"u K.y%z%A%B%C%D%E%F%G%P@Q@Q@Q@Q@Q@Q@Q@Q@Q@Q@Q@Q@Q@Q@Q@Q@Q@Q@Q@Q@Q@Q@Q@Q@Q@W@H%I%J%K%L%M%C%3+N%O%u / ",
". K.y%]+P%Q%R%S%T%U%8$Q@Q@Q@Q@Q@Q@Q@Q@Q@Q@Q@Q@Q@Q@Q@Q@Q@Q@Q@Q@Q@Q@Q@Q@Q@Q@Q@9$V%W%X%Q#(+(+3+j Y%% & ",
"] / Z%`% &Q%.&+&@&#&(#Q@Q@Q@Q@Q@Q@Q@Q@Q@Q@Q@Q@Q@Q@Q@Q@Q@Q@Q@Q@Q@Q@Q@Q@Q@Q@Q@Q@$&%&&&*&(+(+3+=&-&< ~ ",
"/ u ;&>&,&'&)&!&~&{&Q@Q@Q@Q@Q@Q@Q@Q@Q@Q@Q@Q@Q@Q@Q@Q@Q@Q@Q@Q@Q@Q@Q@Q@Q@Q@Q@Q@Q@]&^&/&(&(+C%3+_&:&k.( ",
"& _ <&[&}&2#|&1&2&{&Q@Q@Q@Q@Q@Q@Q@Q@Q@Q@Q@Q@Q@Q@Q@Q@Q@Q@Q@Q@Q@Q@Q@Q@Q@Q@Q@Q@Q@]&3&:#4&5&6&3+_&7&K.K.",
"& ^ 8&9&0&a&b&c&2&{&Q@Q@Q@Q@Q@Q@Q@Q@Q@Q@Q@Q@Q@Q@Q@Q@Q@Q@Q@Q@Q@Q@Q@Q@Q@Q@Q@Q@Q@]&3&d&e&f&g&h&i&j&# K.",
"%   ;&k&l&m&n&M@2&{&Q@Q@Q@Q@Q@Q@Q@Q@Q@Q@Q@Q@Q@Q@Q@Q@Q@Q@Q@Q@Q@Q@Q@Q@Q@Q@Q@Q@Q@]&3&Z@o&p&q&h&r&s&{ K.",
"% & t&u&v&!%w&x&2&{&Q@Q@Q@Q@Q@Q@Q@Q@Q@Q@Q@Q@Q@Q@Q@Q@Q@Q@Q@Q@Q@Q@Q@Q@Q@Q@Q@Q@Q@]&3&:#y&z&A&B&i%C&J.( ",
"& ; D&E&F&G&H&I&J&{&Q@Q@Q@Q@Q@Q@Q@Q@Q@Q@Q@Q@Q@Q@Q@Q@Q@Q@Q@Q@Q@Q@Q@Q@Q@Q@Q@Q@Q@]&K&L&M&N&O&P&Q&R&> ( ",
"^   S&T&U&V&W&X&Y&{&Q@Q@Q@Q@Q@Q@Q@Q@Q@Q@Q@Q@Q@Q@Q@Q@Q@Q@Q@Q@Q@Q@Q@Q@Q@Q@Q@Q@Q@]&Z&`& *.*+*@*_&7&K.#*",
"; ^ $*%*&***t@+&@&=*(#Q@Q@Q@Q@Q@Q@Q@Q@Q@Q@Q@Q@Q@Q@Q@Q@Q@Q@Q@Q@Q@Q@Q@Q@Q@Q@Q@Q@-*^&L&;*R+>*,*r&'*{ l.",
"[.^ )*!*~*{*]*^*/*(*_*(#Q@Q@Q@Q@Q@Q@Q@Q@Q@Q@Q@Q@Q@Q@Q@Q@Q@Q@Q@Q@Q@Q@Q@Q@Q@_#:*<*[*}*|*1*2*3*4*'*{ m.",
"< / 5*6*7*8*9*0*a*b*>%P@Q@Q@Q@Q@Q@Q@Q@Q@Q@Q@Q@Q@Q@Q@Q@Q@Q@Q@Q@Q@Q@Q@Q@Q@Q@W@,%c*d*e*f*g*h*i*j*7&{ m.",
"[ ] k*l*m*n*o*p*q*r*}%P@Q@Q@Q@Q@Q@Q@Q@Q@Q@Q@Q@Q@Q@Q@Q@Q@Q@Q@Q@Q@Q@Q@Q@Q@Q@W@|%'%1%e*s*t*d$u*v*'*{ K.",
"b % w*6*x*y*z*A*B*r*}%P@Q@Q@Q@Q@Q@Q@Q@Q@Q@Q@Q@Q@Q@Q@Q@Q@Q@Q@Q@Q@Q@Q@Q@Q@Q@W@|%'%1%e%C*!%D*E*F*j&/ f ",
"2@[.G*H*I*J*p+K*L*r*}%P@Q@Q@Q@Q@Q@Q@Q@Q@Q@Q@Q@Q@Q@Q@Q@Q@Q@Q@Q@Q@Q@Q@Q@Q@Q@W@|%'%N+M*N*O*P*Q*R*S*& ^ ",
"$ % T*U*V*W*X*Y*Z*r*}%P@Q@Q@Q@Q@Q@Q@Q@Q@Q@Q@Q@Q@Q@Q@Q@Q@Q@Q@Q@Q@Q@Q@Q@Q@Q@W@|%'%N+`* =}+.=h&N%j&^ K.",
"< ) +=@=#=$=%=&=q*r*}%P@Q@Q@Q@Q@Q@Q@Q@Q@Q@Q@Q@Q@Q@Q@Q@Q@Q@Q@Q@Q@Q@Q@Q@Q@Q@W@|%'%1%*===-=Z.3+;=7%] + ",
"3@$ >=,=#='=)=!=Z*r*}%P@Q@Q@Q@Q@Q@Q@Q@Q@Q@Q@Q@Q@Q@Q@Q@Q@Q@Q@Q@Q@Q@Q@Q@Q@Q@W@|%'%N+)%~={=]=h&^=^ + + ",
"L /=(=_=:=<=[=}=V+r*}%P@Q@Q@Q@Q@Q@Q@Q@Q@Q@Q@Q@Q@Q@Q@Q@Q@Q@Q@Q@Q@Q@Q@Q@Q@Q@W@|%'%|=1=2=3=4=5=6=7=u / ",
"b 8=9=0=a=b=c=d=Z*r*}%P@Q@Q@Q@Q@Q@Q@Q@Q@Q@Q@Q@Q@Q@Q@Q@Q@Q@Q@Q@Q@Q@Q@Q@Q@Q@W@|%'%N+e=~=)=n*f=g=h=^ _ ",
"i=8=j=l+k=l=m=n=B*r*}%P@Q@Q@Q@Q@Q@Q@Q@Q@Q@Q@Q@Q@Q@Q@Q@Q@Q@Q@Q@Q@Q@Q@Q@Q@Q@W@|%'%1%o=_#R@Q@p=q=r=a 2@"};
