/* XPM */
static char *c7e965f1611c467c800c50b6a5547081JhGaI1XPC6IAh4Sn[] = {
/* columns rows colors chars-per-pixel */
"50 50 71 1 ",
"  c #141D25",
". c #161F28",
"X c #172027",
"o c #172028",
"O c #1B242B",
"+ c #1F292D",
"@ c #202B2F",
"# c #232D32",
"$ c #272E39",
"% c #282F3A",
"& c #263135",
"* c #283236",
"= c #2C353B",
"- c #2E393C",
"; c #303B3F",
": c #2F3741",
"> c #2F3841",
", c #303743",
"< c #323C42",
"1 c #343F43",
"2 c #313944",
"3 c #323A45",
"4 c #353F45",
"5 c #363F45",
"6 c #343C46",
"7 c #363F46",
"8 c #363E4A",
"9 c #373E4A",
"0 c #354043",
"q c #364044",
"w c #374247",
"e c #384247",
"r c #374149",
"t c #384348",
"y c #39424B",
"u c #3A4449",
"i c #3A444A",
"p c #3B454B",
"a c #38404C",
"s c #3A414D",
"d c #3B444C",
"f c #3C464D",
"g c #3D474E",
"h c #3D4552",
"j c #3F4754",
"k c #3F4950",
"l c #404951",
"z c #414A53",
"x c #404855",
"c c #414A54",
"v c #414956",
"b c #424A57",
"n c #424C55",
"m c #434D56",
"M c #444D56",
"N c #444E57",
"B c #434B58",
"V c #444D59",
"C c #454E58",
"Z c #464F5B",
"A c #46505A",
"S c #47505A",
"D c #47505C",
"F c #48515C",
"G c #4A535E",
"H c #4A5360",
"J c #4B5460",
"K c #4C5662",
"L c #4F5865",
"P c #505A67",
"I c #525B69",
/* pixels */
"cAAAAAGhww<w01w1+SAASAAGtwe110e1;&AAAAAAJ<e0e000w-",
"5iiiiiihiiiiiiyt+tiiupilyipyptste*iiiiuuS<iiiiiii0",
"5iiiiiihiiiiitie@piiuuylsyptipppe#epipiiV<iiiiiiiw",
"+##@#@#:========X@#@&@@==========X@@#@##,#=======*",
";0-+GGGGGGL*0<0<;01;*SGGJSDL@1;11;q0;;GGGGGGS*<00<",
"iit&tiiiiiA>iiiiipp1*ppyppyG#ppppuuu1&uuiiiiV-iiit",
"iit&iiiiiiV:iiiiiii1*ttyyptG&etyyppy;=euiiiiA=iiii",
"<<-O======r#<<<<<<<;@======9@1<1<<<;=O======5#<<<<",
"#==-===OnAAAAVDG1*==;===@MDDDDDDG=*=-==;*#DDVAVDAH",
"-iitiii+iiiiiiil9;uueype#epptyyeb31tyyype#epppppiA",
"-uiiiii+iiiiiiify1ppuup5*ttstppul55pppyp1#typipyiA",
"&;;;;<<+;;<;<;<59*1;;;;;@;;;;1;;y;=;;;;1;@1;1;;2<l",
"nMc=jBcBcVc#cBcBzzbV%bbbcbvv*cvblbbBb%blzbbby2cBBc",
"iiu#iyiiiiA3yyiipyy5*pppppyG&ppypupt1*ppyyypS=tytf",
"iie#iiiiiiA3yiiieppe*ppppppG#ppyyppp1*yupuppV;sttp",
"iiw+riiiiic*ydiippy1@yeyytpb#pepptpp,#ppepuyh*ptpy",
"9sy9s99=##@@####@9ss9ts9*###+#####ts99sss####+####",
"ylllllVheeeeeeew@plllllGyyteeeew1*llllllG,eyteeee;",
"typpspthttuptypt@ppyypilspytpptte#iiypptD1ppiiftp0",
"1teeeethpypypptt@eeeettlsypptypye#eeeeeeM,pypstppq",
"@@@.=--3,,<@##&#O@@@O-=3,,,:##*##X@@@@=;5=,1=##&##",
"<15*MDZZSSJ-eeewe;e;=VSMAAVI#5eeeee0;,SMVDAMH*0ee0",
"ype#tpppftV2yppsppu0*pppiipG#itieppy1*yptpiiV=tiup",
"ppe#ppyytpV5ptpfyup1*typiitG*iiippyt1*ptspiiG=iipp",
"**# @@@@@@*.***#*#&& @@@@@@* ***#*%$@.@@@#@@%O***&",
"*11100;@SGGJHGGPy;11111;#GGGGJHGP3;11511;#SGGGSGGP",
";tyyupp@pyypfppf95yuypte&yppiisil11pypeye#pppppppD",
";epppuy@tppttytf9<ppepte&tpeiiiix5qtpupp1*eppyytpS",
"@******X&&****&=,@=&***&.*******;%#****** *******5",
"VSV=MVSVMDS=VVMDDVVM=VDDDDVH*AGVMDDbM=VDVGVVb5SDDV",
"eie#iipiypV1piepyptt*ppttppG#itypytf0*yppytpM=pptt",
"iie#iiiiptD,iipuppy1*pyppytG*pststft1*ptpptpD=yypy",
"55<+255555t#<w55e55;oee55559+55<rw15-+1555e15#55qe",
"ycjjvcc,&&&&*#&&Xlxlxxcl:#&&&&&&##jjvlvhB#**&&&&*@",
"tpttftfhtftpiite+epttypMyiiiiiiit&ttyupuD2tyiitiu1",
"5tpstpphytspiiie@pyetsplyiiiiiiiw#idppeyV3ypiiiipq",
";w10e15hytiiityp@111e15fsfydiiiiw#1111eeb3ppiiiiyq",
"++@ 9tystyeX@++@@@@@Ost9y9yt +++++@@@#9s9tys,X++@@",
"tte*ffffffG,eytteet1*fplsgfJ#yiiwytt;=ffffffG=ttee",
"9ye#ttfypyS,pppypss5*pteditH*yiitytf<*yytpstZ=tpyp",
"iie#0eeeeeV3tyypypu1#eee5eeD&pppfttp1*1etteeM=itpp",
"@#@O+@@o*,3*22,,#@##X@@@.=;,=,,1,###@.@@@ ,=,=22,,",
"=ew0ewe@lMcMlMMGy;eeeee1*lzbbbzzG<;eeet5<=MMMcMVlL",
";uiiiip@ftypppypy5pyppye#pppepppl30pypfye#tyiiityD",
"=eeuyye@stttpiii5<yyuyy5#ype9p9ul35ytt9t5#teittt9D",
"O@@+@#@o@@@@@@@#$@@@@@@#X@#@@@@@*#@###@@@ ##@+@##=",
"SDA=SSSSDSL,GSSGSSDD;SDSDDDP=GDDSDDDV-GGGSGSG9DDGG",
"ppt#yppppyD<ttptpyp5*tppptpG@pplpyyt5*ttptppV=tp5u",
"pte#ppptspD<ypypp9p1*pppl9eG#sp9pyyy1=uuutpyb;yppp",
"=;= ==---=; ===;-;-% ====;;=.=-;;=;=& ;==;=;$@==;="
};
