/* XPM */
static char *_b944f08265945d68f1aa7bfb6c9e2deVT0I4NidaRVZCzR7[] = {
/* columns rows colors chars-per-pixel */
"50 50 151 2 ",
"   c #1D1D1D",
".  c gray9",
"X  c #161616",
"o  c #131313",
"O  c #101010",
"+  c gray14",
"@  c gray12",
"#  c #1E1E1E",
"$  c #191919",
"%  c #282828",
"&  c gray11",
"*  c #111111",
"=  c #222222",
"-  c #252525",
";  c gray15",
":  c gray10",
">  c #181818",
",  c gray6",
"<  c #1B1B1B",
"1  c #373737",
"2  c gray17",
"3  c #2C2C2C",
"4  c #232323",
"5  c #272727",
"6  c gray21",
"7  c gray13",
"8  c #1C1C1D",
"9  c gray19",
"0  c #343434",
"q  c gray20",
"w  c #323232",
"e  c #353535",
"r  c gray16",
"t  c gray8",
"y  c #3A3A3A",
"u  c #232424",
"i  c #363737",
"p  c #202020",
"a  c #212222",
"s  c #272828",
"d  c #151515",
"f  c #3E3E3E",
"g  c gray22",
"h  c #313131",
"j  c gray26",
"k  c #2F2F2F",
"l  c gray29",
"z  c #3F3F3F",
"x  c #3C3C3C",
"c  c gray24",
"v  c #444444",
"b  c gray23",
"n  c #393939",
"m  c #212122",
"M  c #202021",
"N  c #1D1D1E",
"B  c #2A2A2A",
"V  c #363637",
"C  c #383839",
"Z  c #2D2D2E",
"A  c #2C2C2D",
"S  c #2B2B2C",
"D  c #2E2E2F",
"F  c gray18",
"G  c #252526",
"H  c #242425",
"J  c #262627",
"K  c #0B0B0B",
"L  c gray4",
"P  c gray5",
"I  c #070707",
"U  c gray7",
"Y  c #171718",
"T  c #141415",
"R  c #121213",
"E  c #0E0E0E",
"W  c #0C0C0C",
"Q  c #121313",
"!  c #222323",
"~  c #1F1F20",
"^  c #181919",
"/  c #181819",
"(  c #191A1A",
")  c #1B1B1C",
"_  c #1A1A1B",
"`  c #19191A",
"'  c #171818",
"]  c #252626",
"[  c #292A2A",
"{  c #29292A",
"}  c #2D2D2D",
"|  c #2B2C2C",
" . c #272728",
".. c #262727",
"X. c #1E1E1F",
"o. c #1C1D1D",
"O. c #202121",
"+. c #1A1919",
"@. c #2A2A2B",
"#. c #3A3B3B",
"$. c #3F3F40",
"%. c #414142",
"&. c #323231",
"*. c #3F4040",
"=. c #474848",
"-. c #494949",
";. c #444545",
":. c gray27",
">. c #434343",
",. c #464646",
"<. c gray28",
"1. c #464647",
"2. c #232324",
"3. c #222223",
"4. c #282829",
"5. c #242525",
"6. c #141515",
"7. c #0F0F10",
"8. c #1D1E1E",
"9. c #282929",
"0. c #151616",
"q. c #151516",
"w. c #080909",
"e. c #111112",
"r. c #0B0C0C",
"t. c #131414",
"y. c #2C2D2D",
"u. c #161717",
"i. c #1F2020",
"p. c #111212",
"a. c #101111",
"s. c #161617",
"d. c #1B1C1C",
"f. c #333334",
"g. c #4E4E4F",
"h. c #484848",
"j. c #494A4A",
"k. c #414141",
"l. c #202122",
"z. c #1A1B1B",
"x. c #131314",
"c. c #090909",
"v. c #1E1F1F",
"b. c gray25",
"n. c gray31",
"m. c #535353",
"M. c gray32",
"N. c #4E4E4E",
"B. c #515151",
"V. c gray33",
"C. c white",
/* pixels */
"  . X X X X o o O + @ @       #   @   # $ X %       & & $ $ * = - - - ; = =   * # & & : : &   $ > , ",
"% < < $ > < > < < 1 2 3 % - 3 4 = 3 ; 5 @ # 6 7 = @ @ = @ 4 8 9 0 q q w 0 e w   5 = = = = + - 7 4 : ",
"r < : . t > > . & y 4 ; - r r + = 2 % + r u i 7 p   : @ @ # # w w w w w q w w a s 4 + + 4 = 4 7 =   ",
"2 < . : . : < d   f % 5 + 2 - 7 + = ; ; r ; g p # 7 # 7 7 < p 0 q w h w w h h - 2 - - 4 4 = = 7 =   ",
"2   . $ . . > d @ j k % - r + 4 4 p ; % 4 ; g 4 # @     # & = 0 w w q 9 9 h h - 3 = = p = 4 7 7 = # ",
"h 5 7 = 7 ; 4 - r l z x x y y x c c f f y w v 0 k k 9 0 9 e h c b b n y n y y k n 9 k h w q h w 0 9 ",
"@ m M p p = = = N B V 0 1 0 e e e V 0 C V 2 % Z A 3 S 2 D F + 7 G H - - - + + 8 @ % J 5 % 5 5 ; 5 = ",
"O K K L L K P L L I P o U U U U * * L Y . t t o T U o , > d t R O o * , o U U , K p : : $ $ : X $ O ",
"o P P P P P E W W W * X d X d X X . * & $ t U , U o o t @ . t d o X t , d d U o * + & $ X t > > $ > ",
"t E , , E P P W K K U . d d d d d d U   $ o t * o d * U p X o U d d * U o t t X d ; < $ $ X $ : X . ",
"X E E P W P W K W K Q . d d d d d d U # < U t o o t * o ! : d * X t * * * * d * d 5   . : > > : d $ ",
". E W W P , P W E W t . X X d d d d o ~   t d o X t t . 4 & > X . d d d d d > d X r p $ : > & $ : # ",
": $ . > ^ : $ / ( / $ ) < < < _ ` $ ' a B - G + 5 ] 5 G G [ 5 % % ; % % { { r s + } F B B B } | } 2 ",
"@ # #   & # p & & t @ r r % B  ...- X { + = 4 = = X.p > 2 5 5 - 4 - + ! J - - p $ 7       & o.$ < * ",
"r 4 4 = = 4 - 7 =   s e q 0 w 0 e 6 H w - 7 # & 7 @ 7 O.g 2 2 B - 3 - p 3 5 - =   ; < : . X +.> < . ",
"2 4 + - + = 4 7 7 N @.0 w h w q w w % 0 - p # < # p   @ #.- - + r % 4 = % r - 2 + 5 < : > d > $ X X ",
"k - ; 4 = = = 7 = # 3 e q h w w h h B V ;   7 @ p = < p $.} % + 2 5 = 4 = + 5 ; - r & . : > $ : d > ",
"h = = 7 = + 7 7 = # Z 0 w q h 9 h h B V % # p   # # & = %.&.B ; r - - + 4 ; 2 + - r # > $ . > > X < ",
"b q h q 0 e 0 0 1 w 6 f x b b b b b e *.z e 1 e b g b g =.-.;.:.>.j :.,.<.<.1.v n h 2 ; 5 ; 2 % 2 B ",
"5 ; ; ; ..5 + - 7 s # 2.= = 3.3.7 4 ~ @ 2.= F 4.r r [ ] a 2 5.3 B B 2 2 2 B 5 = 3.> < $ $ < & $ $ t ",
"% : $ . X $ . : . 4 < < $ . & X d & > > o o G $ $ X X $ . : 6._ < < < : < & : 7.T * * * O U U O * W ",
"B : $ > d $ $ X $ - . $ . & $ X . : : > & $  .$ $ > d $ $ X ' 8.& < < & & < < t . o t o U * U * * E ",
"3 & . : > > : d < 9.  $ > & > X . d > $ > : r < . : > > $ d : # & & < < < < < 0.$ o o * U U * O * E ",
"k 7 &   & @ & # 7 | 4 p @ @ # # #   p 7 # N } 7       p   @ p 7 # # #     #   $   t t d X . d X . d ",
"- + 4 = = - + - @ # ; - 5 - ; - - ; 4 @.% 7 - ; - 4 + 4 4.5 p : < < < < < : : q.> p   # @ @ #     > ",
"O W W W K P E K K w.e.d d t t d d t W 8.. d t t X o d e.  . X t U d U O d o o , E + : < : : < > < * ",
"U W P P P P P W W r.o X d X d X X X * @ . t * , U o o T 7 t t t t X o O X d U o o ; : $ X t > > $ d ",
"t E , E P W P W W K t X d t d d d d U M X o t * t d O t.a t t U X o O U U t t X X 5 $ > $ . : : d X ",
"d E E W P E W K W K 6.X d d d t d d U 7 $ U d o U t O d H $ d U X o * * O U t * X % & . : > . $ d > ",
". E P P , O E E , E . . . X X d X X t +   X . d $ X . < G & : $ $ > > $ > $ < > : y.p & & & @ & @ # ",
": > . > $ $ $ $ : ^ ' : ` ( $ $ / $ u.i.G 3.J ] 5 J 4.5.H r 5 9.5 J  . .% ; - + O.r B % % r B r 2 ; ",
"> d o U * U U O U U * O K 7.R U U U p.a.* K 2.B 5 - a + 2.7 + - 2.7 $ s.& d d U U t.U U d o o E K , ",
"# < d X o d d , t X U U E U X d X d X X . * y.9 r 2 - B r @ % 2 4 + @ ^ O.t d t t . * O . U o * E E ",
"# $ U o o X U * o X o d d t.. d d d d d d U D Z 4 + 5 r 4 = ; r ; r % ` O.* o U X o * U t d t . O E ",
"@   d U d d * * U O d U t 6.. d d d d d t U h 6 % + r r 4 = + 7 % + 5 _ 2.X o o X o * U O t o o * E ",
"@ # . o d o U U U O X U o q.u.d X d t d d U w n 3 5 B ; ; - - + } - ; ) + > X d X t t t U X X t U , ",
"# % 4 4 + = + + - - - + 7 ) d.: : : : $ : Y f.g.1.<.<.v <.h.l j.-.<.k.l.% 5 ] s - - J 5 % 5 5 - & , ",
"$   # 8.  & & : z.i.8 & z.0.q.X 0.X X X o T 8.G ; ; ] H + = O.- + + 3.u.t.X U x.6.t.o U o t o * E c.",
"% $ < $ : : > < X a & & > > & d . & > $ * q.- > : > : : > < R < < : : < & & > 7.t * * O O o U O * L ",
"B $ $ d t > . $ < 4 . $ $ < & X .   > > > $ ; $ $ d t > . $ .   < & & & & & < o d U U o U U U O * P ",
"2 > $ $ . < $ d & - > $ >   . d > . : $ & ) 5 . $ $ . < $ X $ # & < < & & < : d . t t o U * U * * P ",
"3 : > : . . > d v.r # > $ < . X . t : > . & % : > $ . . > X < # & & & : < < : X . U U O U U O O * E ",
"w @ # & # p   p 4 3 = 7 7 p @ p p @ = 7 @ p F @ @   @ 7 # = p 7 # @ # #   #   :   d d X > > X . > t ",
"F B r % B 2 2 3 4 J 2 @.} B 3 2 2 2 r } @.4 B r r % r 4.} } 3.~ 7 p p p p p ~ _ X.@ # # @ # # # # $ ",
"+ @ @ #   p 7     x.+ } } 3 } 2 2 r . F = 7 7 7 =   p > k % % + = ; 4 7 5 + -   Y = $ : : : : . $ E ",
"2 = = = = 4 + 7 4 & 2 0 q 0 w 0 e 6 + 0 4 p & < p # 7 7 y % r r ; 3 + 7 } 5 + 4 @ 5 : $ X d $ > : X ",
"} + - - 4 = 4 7 7   } 0 w h w w w w 5 e = p @ < p 7 & p b + ; 4 B ; = 4 5 r ; 3 u s $ $ > d $ $ X X ",
"h - - = 4 4 = 7 =   F 0 w w w h h h r 1 -   7 @ @ 7 < = k.} 5 + 2 ; = 4 7 - ; - 5.r < . : > > : d > ",
"w = = 7 4 + 7 = 4 @ 9 0 q q h 9 w w B g 5 @ p # 7 @ @ - j h 3 r B 5 5 % ; B 3 5 - B   $ $ > : > $ < ",
"v b y x c z c f k.n x v j k.k.k.k.k.g :.<.b.k.b.:.j <.f n.m.n.M.N.N.B.M.V.m.M.n.z e h F F F w 9 q F "
};
